ply
format ascii 1.0
element vertex 1283
property float x
property float y
property float z
property uchar red
property uchar green
property uchar blue
end_header
0.013944 2.289698 10.947003 149 141 137
-5.119716 -2.035384 9.656787 36 35 43
-5.111038 -1.270646 12.665374 125 120 117
-5.110647 -0.624745 12.048420 242 202 185
0.044996 1.771267 10.771911 145 116 105
-5.066214 1.710306 9.120994 174 166 163
0.061978 1.883213 10.881419 150 128 121
0.064693 -0.140688 10.618963 182 155 144
0.082112 0.584739 10.633248 94 55 51
0.082131 1.037941 10.654557 164 131 118
0.081306 2.675922 10.808730 34 19 15
-5.028009 1.692567 9.257041 124 114 112
0.116484 -0.216992 10.661355 110 75 65
-5.008393 0.856803 12.639254 255 254 238
-4.963471 1.777414 12.179283 85 74 72
-4.965498 -2.483951 9.689271 69 69 72
0.173533 4.732367 10.422438 51 41 39
0.186626 5.263179 10.627369 21 16 15
0.186813 2.656631 10.562961 44 27 25
0.186784 -0.411058 10.338468 175 158 150
-4.921517 1.810085 8.470134 254 253 248
-4.910522 0.606412 12.750854 78 67 65
-4.908211 1.420758 12.014994 112 97 95
-4.913392 2.149899 11.479577 107 87 80
-4.907949 -0.838565 11.675288 66 57 58
-4.910210 -0.773263 8.784904 185 160 156
0.239462 1.401811 10.262278 89 49 43
0.220184 -0.202456 10.294635 144 104 94
-4.897167 0.332836 11.514487 93 74 73
-4.892945 1.714460 8.288753 73 73 75
-4.884136 -2.136338 9.650570 36 37 45
-4.881357 4.208287 7.850610 30 26 26
-4.880458 -0.121385 12.022458 62 54 52
-4.866206 1.318740 12.213897 108 93 89
-4.862465 4.564893 7.842601 23 22 20
0.267073 3.504199 10.379843 122 111 109
-4.853157 2.031113 8.288404 53 53 55
-4.850644 4.997131 8.000282 35 32 30
0.292869 0.204009 10.097965 109 70 65
-4.838487 3.361343 7.811680 107 96 92
0.315881 5.207241 10.315232 34 29 22
0.307392 0.251916 10.054857 184 144 134
0.316917 -1.101353 9.830233 197 179 166
-4.816341 11.054683 23.759413 104 100 97
-4.807128 -2.219996 10.267922 83 83 84
-4.809896 3.804410 7.807940 31 31 31
0.323949 5.972125 7.631055 69 69 67
-4.790791 4.195915 7.879404 42 40 39
0.352598 5.853562 7.273129 88 87 82
0.347416 0.938247 9.976633 174 146 135
0.342436 1.451383 10.038131 164 143 135
-4.777315 -2.748261 7.924271 90 90 92
-4.775665 -2.308318 9.883931 75 75 77
-4.766109 -1.869679 8.303370 34 33 45
-4.768505 -1.489202 8.310061 38 41 50
-4.777871 -1.446998 8.299396 104 108 111
-4.775097 -0.999877 8.215322 44 47 54
-4.761690 -0.886726 8.324649 46 45 50
-4.773313 5.092030 8.023494 25 21 20
0.360254 0.212250 9.940271 117 83 68
0.372276 0.650558 9.880814 178 153 141
0.364339 -1.358172 9.884039 109 89 85
-4.752234 -1.096424 8.473942 35 38 44
-4.742707 -0.157328 11.167002 246 201 180
0.398028 -0.982898 9.702883 201 180 169
-4.724740 -1.974816 8.239177 34 33 46
-4.735818 -1.139291 8.435882 74 79 82
0.415783 3.897850 10.010005 112 97 95
-4.711873 1.564768 11.386206 125 115 113
-4.718451 -1.897067 8.119538 38 39 51
0.420372 5.859897 7.270694 143 144 142
0.421997 1.021619 9.772533 170 137 126
-4.686489 -1.341264 8.292696 29 27 39
-4.694084 -1.066950 8.285966 34 37 44
-4.682206 -0.930423 8.249142 88 88 90
0.452063 -0.494686 9.612631 191 163 151
-4.673213 2.637246 7.893218 52 48 47
-4.679211 3.094668 7.907509 98 92 90
-4.669980 3.403099 7.926259 96 86 84
-4.679377 -1.284746 8.420959 43 41 52
0.478871 0.253336 9.629759 184 148 136
0.478074 3.391691 9.753111 66 42 41
-4.659348 0.129878 11.970405 254 251 242
-4.653207 -2.198089 8.483718 73 74 78
-4.659219 3.084440 7.957819 43 31 34
-4.642452 4.101961 7.984369 107 113 103
-4.645093 -0.882026 8.371525 44 43 49
0.496741 5.829914 7.049740 90 91 83
0.493672 3.852355 9.765917 118 100 96
0.481865 4.287887 9.802928 105 102 97
-4.631564 -1.793713 8.453720 33 36 41
0.505291 5.861187 7.234392 80 81 72
-4.608792 2.022037 8.443505 117 115 113
-4.619484 3.675677 8.049520 119 119 117
-4.602752 -1.237847 8.428760 78 79 83
0.535637 5.128788 9.696457 92 81 77
0.529465 1.361470 9.558193 107 69 64
0.534689 4.223981 9.641340 35 26 27
0.522205 -0.192034 9.487984 177 160 152
-4.580882 -1.279813 8.474446 37 36 42
-4.599187 -0.978118 8.264199 44 44 50
0.540128 0.988228 9.522960 109 64 60
0.558697 1.818770 9.444341 167 153 150
0.541662 2.572256 9.588656 57 31 29
-4.574574 1.862907 11.268893 167 152 149
-4.569673 2.044271 8.581444 120 119 117
-4.574965 -0.805492 9.001347 230 216 213
0.579941 1.377035 9.465674 117 88 82
-4.553803 3.900033 8.108254 111 110 108
-4.540207 -0.949960 8.537860 86 84 85
0.596844 1.756180 9.380112 73 46 44
0.589772 2.094664 9.359692 148 129 123
-4.537437 -1.711622 8.401011 81 81 83
-4.523685 -0.842883 9.012269 108 102 101
0.615266 1.849727 9.265677 167 158 156
0.616202 2.147374 9.378234 84 48 41
0.618468 2.170825 9.328951 151 113 104
0.604859 4.609200 9.491390 45 35 33
-4.512316 1.990608 9.280135 139 135 133
-4.516515 3.371401 8.000879 78 68 67
-4.482968 1.856640 9.351783 98 81 74
-4.487307 -0.893222 8.554783 44 43 50
0.656427 2.961639 9.358132 47 22 22
-4.467440 3.060570 7.997343 39 29 28
-4.474973 3.107724 8.146749 28 22 22
-4.466132 -1.773544 8.423655 36 35 43
-4.464608 -0.966206 8.665154 86 88 91
0.668952 1.230617 9.170252 154 101 90
-4.443971 -3.071212 7.545215 134 116 112
-4.446054 2.219939 8.060941 136 135 134
-4.444036 -2.120234 8.434994 34 33 40
-4.454479 3.114748 8.044946 121 116 110
-4.441778 3.131364 8.137421 112 109 103
-4.457194 -1.271907 8.515621 37 36 43
0.691208 0.997393 9.023714 187 158 149
0.689091 1.818033 9.056645 126 94 88
-4.434289 1.796026 9.323212 104 85 78
-4.439074 -0.770737 9.000946 127 83 80
-4.423738 4.604637 8.196032 99 96 91
-4.413664 -1.551404 8.647998 87 89 93
0.739577 1.191007 8.886044 167 146 141
0.731069 1.383231 8.986068 165 146 139
0.731325 1.772010 9.002534 175 160 156
0.729469 2.964745 9.086830 143 125 121
-4.380113 2.003982 8.619138 116 116 116
-4.381932 -2.874450 8.097654 166 166 166
-4.397045 2.812680 8.059608 35 30 31
0.755817 -1.262361 8.661912 165 149 140
-4.366715 1.852937 9.746195 106 87 81
-4.370225 -1.781471 8.509423 34 33 39
-4.362852 -1.741194 10.170587 47 48 52
-4.377773 3.867389 8.122452 132 132 132
-4.360623 -0.895680 8.605556 45 44 50
0.777464 0.984630 8.919093 80 66 66
0.772120 1.745166 8.985101 52 40 40
0.773574 3.327232 8.945458 138 127 123
0.770057 -1.604310 8.461707 160 140 133
0.769650 3.721165 9.011442 41 37 34
0.779612 -0.010637 8.815832 116 102 99
-4.359643 1.965058 8.665770 135 130 127
-4.348291 -0.968166 8.704640 87 87 87
-4.357008 -0.807138 9.144841 240 206 189
0.781771 0.266552 8.839683 186 176 172
0.781729 0.267439 8.842881 186 176 172
0.787692 1.369405 8.864511 63 48 48
0.797678 -2.720555 8.401972 150 133 125
0.796667 2.932467 8.929078 150 130 126
-4.326049 -2.498213 8.390129 29 28 34
-4.332767 -1.036275 8.625840 41 40 48
0.805914 1.389029 8.784880 171 157 154
0.807967 -1.980528 8.723879 166 148 141
-4.305849 -2.531847 10.151725 71 71 74
-4.316888 3.480374 8.243007 67 46 43
-4.318199 3.809563 8.111121 136 136 136
0.825535 0.253157 8.772435 82 66 63
0.825432 1.671616 8.732023 158 143 138
0.821136 -0.113234 8.753389 89 76 68
-4.282787 1.715764 9.570709 159 145 143
-4.295937 -2.201055 8.633795 72 72 76
-4.287044 3.679896 8.139081 93 89 90
0.847409 3.363762 8.917547 129 118 116
0.846687 -0.494408 8.690786 92 74 66
-4.278250 -1.791528 8.595781 32 30 40
-4.265519 4.496845 8.315272 118 117 114
0.861823 2.116297 8.708002 84 64 64
-4.255608 -2.398795 8.602073 35 35 40
-4.245627 -0.974555 8.767319 83 83 84
-4.233445 -2.113455 8.471114 27 26 32
-4.201098 -2.578594 10.396824 73 72 77
-4.205329 3.475897 8.216721 58 41 38
0.933999 1.380284 8.424977 158 148 140
0.921465 3.280729 8.571480 136 123 121
0.921490 -0.443630 8.389528 175 162 155
-4.194327 -2.242042 8.670858 32 31 38
-4.192291 -1.707956 10.642656 19 18 24
0.959773 1.765369 8.464467 157 149 144
0.958147 2.462886 8.431846 75 50 48
0.956827 3.674686 8.618010 34 24 22
0.946808 4.443296 8.603193 33 28 26
0.958221 4.497871 8.626272 114 107 98
-4.173562 -2.134083 8.591408 29 28 36
-4.167815 -1.790974 8.641576 28 28 36
-4.177078 3.885015 8.285463 56 49 50
-4.179823 -1.035324 8.687839 40 39 45
-4.173047 4.141679 8.376244 124 125 120
-4.149244 1.879722 9.669060 123 95 86
-4.140818 -2.375900 8.543311 32 33 38
-4.152765 3.840715 8.370665 141 140 138
-4.156786 -1.167571 7.614383 31 30 38
-4.141855 -0.972754 8.820107 84 84 84
0.998138 1.396725 8.389842 152 145 135
0.982709 4.034847 8.484190 45 37 35
0.987064 4.063955 8.463071 114 104 102
0.991267 4.434609 8.488088 26 22 19
-4.129534 5.344738 8.434750 93 95 97
-4.123698 -2.043817 8.799358 79 79 79
-4.124527 3.183235 8.297341 98 88 88
-4.129958 4.281401 8.384333 17 16 14
1.014101 0.990457 8.281271 72 61 59
1.004335 2.478643 8.393746 25 25 17
1.018298 2.870344 8.423609 43 33 32
1.009292 -1.538326 8.044393 69 58 52
1.019756 3.649110 8.415827 47 33 33
-4.102226 2.128902 8.965371 38 38 38
-4.118165 -2.220741 8.806892 75 75 75
-4.104335 -1.396883 7.399099 88 92 95
-4.113434 -1.033106 8.738817 42 41 47
1.033214 5.204948 8.454950 47 36 34
1.027557 0.621076 8.264255 70 59 58
1.021075 0.949177 8.226844 141 127 124
1.027787 1.357819 8.216210 51 41 39
1.032840 1.386729 8.217007 160 151 146
1.035032 2.449407 8.291101 54 45 40
1.023608 -2.258910 8.062319 169 155 150
1.035966 4.063308 8.489154 37 32 29
-4.099849 -3.060763 7.783663 51 47 48
-4.097203 -2.091417 8.749300 35 34 40
-4.088532 -1.543023 7.569991 81 81 83
-4.094121 3.851193 8.317305 117 113 114
1.057441 0.261975 8.125282 61 51 49
1.051999 1.722993 8.246070 54 50 49
1.054662 -1.907395 7.907068 165 152 144
1.043227 3.229807 8.341593 49 45 36
-4.061754 -3.265994 7.731463 87 83 80
-4.068069 -3.097207 7.747792 67 61 61
-4.067346 -1.295725 10.510475 29 27 40
-4.077742 -1.167698 7.455691 109 110 111
1.078825 0.629751 8.108275 66 53 48
1.065003 0.660650 8.137125 160 151 143
1.069825 1.364704 8.126074 60 51 49
1.065309 1.765914 8.260429 163 152 148
1.064007 -2.239662 7.956438 171 160 155
1.067397 -1.898805 7.964264 78 67 63
1.067631 -1.546637 8.060230 62 57 51
1.079370 -0.812618 8.021933 101 85 77
-4.059460 -2.414661 8.734307 37 36 40
-4.059533 -0.972815 7.596494 31 30 36
1.083028 0.950807 8.059718 149 134 127
1.097264 0.991509 8.111558 47 37 35
1.083866 2.140152 8.182350 139 121 111
1.085978 2.461541 8.191633 76 58 54
1.086353 2.466548 8.209054 76 58 54
1.081453 -2.651039 7.821097 166 148 141
1.082349 -1.954979 7.876368 130 118 111
1.093558 -1.861797 7.876502 165 151 143
-4.023034 5.810943 8.515151 98 103 104
-4.024149 -2.889541 7.652988 37 36 42
-4.033280 -2.665697 8.755462 81 81 83
-4.030434 -2.318603 8.741556 36 35 40
-4.037762 3.533953 8.425688 97 95 96
-4.022303 3.638232 8.384604 112 110 109
-4.021576 -0.981652 8.926056 92 89 90
1.117337 -0.092111 7.391118 159 144 137
-4.006627 1.820682 11.076050 148 132 125
-4.010944 1.909515 9.845177 146 119 109
-4.014887 -3.097716 7.770877 156 139 129
-4.014707 -2.692759 8.702655 32 31 37
-4.007374 2.807762 8.381349 119 118 114
-4.001628 3.882584 8.409183 85 83 84
-4.000430 3.963647 8.572811 21 21 22
-4.012637 -0.908272 8.739654 39 38 43
-4.012295 4.301457 8.469511 18 18 18
1.129344 4.358819 8.128312 28 26 27
1.131752 -0.100177 7.832545 153 139 130
-3.995640 1.851034 9.707856 171 152 145
1.151265 -0.457513 7.751326 171 154 144
-3.977680 -3.748153 7.720463 139 123 110
-3.977322 -3.286530 7.692184 152 134 124
-3.978713 -1.897721 8.841455 87 88 90
-3.965860 -1.803157 8.784405 29 28 33
1.172208 0.804144 7.822680 138 124 115
1.163333 -4.169077 7.442662 134 117 109
1.168403 2.228031 8.009701 145 127 117
1.171288 4.337482 8.017871 45 40 36
-3.948491 -3.442957 7.701658 152 136 121
-3.941215 -1.575669 8.842993 37 36 42
-3.944456 -1.326529 7.527025 48 47 54
-3.945769 -1.285037 10.441178 36 37 43
1.194490 0.308728 7.741352 174 159 150
1.188356 -2.733414 7.435801 175 158 148
1.195065 -2.017941 7.524164 190 176 163
1.184926 -1.300394 7.553022 189 176 159
-3.936571 3.581959 8.493607 138 138 138
-3.932333 -0.995388 9.018001 95 95 97
-3.921875 -0.900703 8.695401 37 36 41
1.205099 5.125451 8.002551 92 88 84
1.207580 1.708267 7.700385 153 142 136
1.211641 2.415097 7.898255 138 119 109
1.214402 2.811834 7.882474 40 30 30
-3.903622 -2.044077 7.456733 35 35 43
-3.917072 3.572562 8.462170 142 141 143
1.232600 5.135641 7.981040 90 87 82
1.239382 -2.798489 7.313761 174 161 150
1.237081 3.126227 7.805363 120 106 98
1.237399 3.550035 7.841676 30 29 27
1.220614 -1.475662 7.569371 79 68 62
1.238393 -1.198383 7.558053 185 172 156
1.232742 -1.173270 7.456102 183 167 152
-3.890994 -2.128497 8.771389 82 82 84
-3.898118 -2.036912 10.331586 30 34 38
1.252139 0.245397 7.585084 159 142 131
1.255722 -4.219585 7.303103 67 61 61
1.252651 1.669159 7.689768 126 111 104
1.253422 1.670894 7.710482 128 113 106
1.240033 3.168671 7.733546 131 122 117
1.242620 4.682982 7.871874 20 18 25
1.249583 -0.394696 7.581628 176 163 155
1.258978 -0.243768 7.506325 98 87 81
-3.861807 3.631840 8.536910 136 136 137
-3.872025 -1.055011 9.152853 48 47 53
-3.865729 4.551719 8.589480 105 105 103
1.261786 -2.838181 7.254328 161 152 144
1.265911 -2.123864 7.344383 181 168 159
1.262336 4.310824 7.868368 29 29 23
-3.859708 -1.889161 7.561209 30 29 35
-3.845565 -1.805279 8.825369 30 31 36
1.284369 1.396850 7.587104 76 65 61
1.284108 1.705975 7.687640 40 36 33
1.295247 -1.827782 7.398302 64 59 56
1.294344 -1.485762 7.382587 150 132 121
1.283942 -1.442253 7.467447 173 159 152
-3.831550 6.196634 8.725237 94 93 89
-3.837474 -2.418827 8.840407 22 28 29
-3.833969 -0.979674 9.002131 104 103 104
-3.824060 4.969959 8.649116 98 98 96
1.317593 -2.888531 7.317227 134 126 123
1.304904 -2.537840 7.316195 51 47 44
1.313251 -1.280453 7.404992 126 111 104
-3.814855 -1.853737 8.685789 99 103 105
-3.803704 3.679565 8.557571 122 120 121
-3.812914 3.862250 8.580378 121 119 120
-3.809099 -0.989984 9.102419 100 98 99
1.326718 2.419506 7.729128 31 27 23
1.331092 -2.493461 7.283071 155 148 140
-3.794973 6.234593 8.808915 105 106 106
-3.788287 -3.394716 7.781371 144 130 120
-3.780828 5.047119 8.587151 112 111 109
1.342071 0.787699 7.649889 87 70 66
1.351238 -2.880224 7.059067 158 138 129
1.356276 -2.543542 7.273593 125 116 109
-3.763106 -3.462136 7.882706 86 78 75
-3.779004 3.960140 8.577299 117 115 114
1.364301 -2.861027 7.127447 77 69 64
1.376749 3.600152 7.950808 22 19 15
-3.749882 -1.038198 9.029337 49 48 54
1.380617 -2.764762 7.267497 130 123 117
1.387438 -0.804256 7.554494 133 120 111
-3.722517 -1.957492 7.729661 77 76 79
-3.722913 -0.774055 9.592015 51 42 42
-3.723822 -0.173276 8.347780 119 103 102
-3.711530 6.205289 8.793771 100 104 105
-3.709480 2.798198 8.604877 96 93 92
-3.716578 3.640881 8.652790 136 136 136
1.439613 0.840312 7.704165 89 77 73
1.430664 1.525270 7.742482 77 66 62
1.437124 2.275371 7.838596 82 75 69
1.428025 -0.491071 7.585962 117 100 93
-3.699672 1.996451 9.227862 138 130 128
-3.680193 -2.079232 7.732676 29 28 34
-3.681409 -1.692550 7.735778 42 43 47
1.449856 -3.952329 6.695824 152 135 128
1.453886 -2.171335 7.395927 56 54 50
1.445319 -1.882392 7.473238 135 122 114
1.441794 -1.463238 7.475038 35 33 21
1.453818 3.868717 7.984270 73 68 64
1.440670 -1.181863 7.529607 132 121 112
-3.673678 2.748249 8.637429 41 41 41
-3.671824 -2.069046 7.718247 32 31 37
-3.670354 3.198166 8.735669 77 72 69
-3.662314 -1.383375 9.090444 38 36 47
-3.672796 4.742065 8.748619 42 42 42
1.472178 -3.690427 6.650733 141 126 119
-3.654730 0.740519 8.179441 200 168 153
-3.659508 1.877323 9.895172 153 118 105
-3.643661 -2.607811 9.033364 31 30 35
-3.641757 -1.999555 7.778403 33 32 38
-3.646689 -1.127376 6.897248 79 78 83
1.484089 1.706315 7.785467 42 31 28
-3.638934 -3.996510 7.911714 132 118 109
-3.624406 -2.132047 7.713301 35 35 38
-3.624794 3.200263 8.685658 98 97 93
-3.636522 -1.908111 7.728759 35 34 40
-3.621671 3.631541 8.701497 116 116 114
-3.629592 3.676152 8.654759 82 80 83
-3.634736 3.888996 8.526072 17 17 17
-3.636475 -0.942435 9.140067 49 48 53
1.504329 -2.856920 6.745424 165 148 140
1.519455 -2.779096 6.604839 166 149 142
1.507136 -2.220227 7.462858 144 132 120
-3.617054 2.770444 8.660249 84 81 80
1.536374 -3.897471 6.532495 166 152 143
1.526844 1.325458 7.801942 120 113 103
1.529960 3.998357 8.058906 35 31 30
-3.596699 3.114185 8.623183 31 21 20
-3.589886 -0.746199 8.061300 73 68 68
1.545897 -3.694112 6.544365 136 118 110
1.553494 1.740571 7.897501 134 127 122
1.555213 -1.892941 7.601785 144 131 123
-3.575042 3.520430 8.744795 67 58 53
-3.561320 -0.799981 6.788448 39 39 47
1.575502 5.125761 8.131676 17 22 18
1.579537 -3.595737 6.476686 161 143 137
1.577346 -2.825900 7.330976 39 37 38
1.572203 -2.766255 6.563779 147 137 135
1.573041 2.859705 7.948131 125 120 114
-3.544684 1.727392 8.951727 153 124 109
-3.557043 -3.164343 8.099602 138 131 125
1.583375 1.736465 7.891058 136 130 124
1.580664 -2.226586 7.512279 151 138 132
1.595542 -2.195895 7.492376 67 60 61
-3.539426 -1.370876 9.014103 38 36 47
1.605885 0.291466 7.762310 41 38 34
1.615518 0.647500 7.863154 23 13 14
1.609241 -2.761025 6.447798 173 155 145
1.604467 -2.742484 6.409403 176 158 149
1.612034 2.471512 7.989697 34 30 29
1.605538 -1.500722 7.671933 52 43 43
1.609833 3.977494 8.069910 34 30 27
1.611355 -1.132457 7.668658 163 159 154
1.607660 -0.764529 7.640357 153 153 142
1.610166 4.391034 8.170162 23 23 23
1.611108 -0.097662 7.787559 148 147 139
-3.519485 -3.015321 8.882089 83 83 92
-3.517518 -2.233964 9.062671 68 71 76
-3.513182 3.646956 8.768460 139 137 138
-3.517762 3.905704 8.701580 154 154 154
1.629885 1.008881 7.934300 36 33 28
1.638121 3.605028 8.080432 24 20 17
1.634880 -0.211419 7.715499 99 100 94
1.620576 -0.073445 7.815373 39 39 38
-3.499242 2.086626 9.288239 128 122 122
-3.491666 4.730259 8.907993 111 110 108
1.646778 -2.714176 6.294300 167 150 141
1.659586 -2.671993 7.451186 51 50 45
-3.478003 -1.910313 9.278896 33 34 39
1.666327 -4.192127 6.142241 59 57 58
-3.458490 -3.147643 8.135522 126 103 99
-3.440853 -1.315036 10.141431 51 50 58
-3.459660 -1.121777 6.968048 80 81 85
-3.441651 -1.119071 6.798548 39 38 47
1.685238 -0.134071 7.644022 173 176 165
-3.432618 1.795165 10.093491 132 114 110
-3.439260 3.266273 8.882444 102 91 89
-3.427248 4.997264 8.933170 103 103 103
1.715921 -3.886975 6.064240 132 117 110
1.710244 -2.564734 7.384754 182 185 178
-3.411196 -1.999069 7.859436 30 33 39
-3.402616 -1.353685 6.739923 88 89 91
-3.405996 -1.327014 9.252111 36 36 41
-3.410174 -0.949727 9.261138 39 38 44
-3.410241 4.892386 9.142748 20 18 18
-3.395253 3.502901 8.824037 112 110 111
-3.387462 -1.274267 7.064352 25 27 32
-3.385775 -1.016086 6.900703 37 36 42
1.743707 -2.688871 6.062159 181 159 148
-18.730326 -5.170380 34.603214 38 37 43
-3.360261 -1.910528 9.308623 32 33 42
-3.372242 4.705436 8.923432 113 113 113
-3.349296 -1.868583 9.319720 76 77 81
-3.354514 -1.437776 6.954570 28 28 36
-3.356537 3.952666 8.984712 127 127 127
-3.341909 4.207864 8.920186 127 127 127
1.786333 -3.463081 5.961409 154 137 129
-3.332580 2.014946 10.000265 122 112 111
-3.323883 -2.955593 9.199558 27 29 35
-3.327511 -2.022152 6.871888 27 28 34
-3.329256 -1.936957 7.963517 34 34 39
-3.324170 3.489954 8.919394 102 100 101
-3.313832 -2.153058 7.912324 29 30 35
-3.312255 -1.783839 7.082885 75 75 75
-3.307018 4.118497 8.941078 131 132 130
-3.283705 1.581712 9.311768 168 156 150
-3.294502 -2.449070 9.095166 31 30 38
-3.295131 -0.971500 9.023197 96 92 92
-3.274216 -1.242384 9.431617 36 36 44
1.869040 -2.577553 7.378902 61 61 59
-3.242015 5.281638 9.106130 111 111 109
-3.250397 6.229160 9.107965 45 46 41
-3.245669 -3.170962 8.384656 49 45 46
-3.253546 -1.625680 8.017855 30 32 44
-3.248972 -1.499345 9.388826 35 36 41
-3.234999 -1.915550 9.356093 39 40 45
1.904002 -2.438793 7.389496 182 193 189
-3.211869 -2.744454 9.185308 35 33 44
-3.183529 -3.199525 8.362771 128 108 104
-3.187714 -0.914275 6.276275 44 43 50
-3.194093 4.229793 9.024701 82 82 82
-3.196790 4.422780 9.040851 138 140 137
-3.174335 3.930091 9.059802 146 146 146
-3.166616 -0.883701 7.067522 33 32 40
-3.164299 4.405230 9.057223 43 43 42
1.965344 -2.584445 5.599517 165 148 138
-3.144079 2.017056 9.698331 138 128 126
-3.153427 2.150861 9.593037 54 54 54
-3.126434 -2.118814 9.128235 39 40 45
-3.130708 -1.246107 6.201432 88 89 91
-3.132199 4.758990 9.202409 123 123 123
-3.108361 5.356051 9.297871 92 91 87
-3.112813 2.030668 9.678058 154 144 142
-3.114531 2.166044 9.573285 112 110 111
-3.108666 -2.646126 9.311645 32 32 41
-3.115698 -0.561517 9.811072 57 56 62
-3.095588 5.274521 9.140855 90 89 87
-3.063508 -2.735519 9.177653 38 38 46
-3.073905 4.231648 9.112226 134 134 133
-3.056281 -1.369940 6.330404 81 81 83
-3.054793 -1.353497 9.307138 31 29 40
-3.048467 -1.042557 9.604308 98 97 105
-3.023879 0.528087 6.664911 227 198 190
-3.032056 -1.647123 7.208948 80 80 82
-3.014323 -3.243108 8.457376 126 107 101
-3.010967 -2.175946 8.087897 29 28 32
-3.008114 -1.458052 9.585397 39 40 47
-3.015027 -1.023090 8.376745 32 32 40
-3.014155 -0.927261 6.340562 38 37 45
-3.018946 4.363235 9.100850 130 130 130
-2.998271 -2.103931 7.167649 73 74 78
-2.977649 -3.533928 8.432242 159 139 132
-2.971441 -1.309350 6.368323 34 34 43
-2.965157 -1.096082 9.483253 55 54 60
-2.940014 2.113405 9.722605 73 73 74
-2.947930 -2.950147 9.293890 34 32 43
-2.940194 4.099421 9.225191 150 149 146
-2.935740 5.187549 9.265601 106 105 103
-2.916594 -4.295359 8.369020 137 134 135
-2.917459 1.323706 9.671279 134 134 139
-2.886639 5.121184 9.312655 69 64 61
-2.885942 4.229589 9.224529 86 80 80
-2.887982 -0.562443 6.473510 217 190 184
-2.868579 1.819035 9.711600 127 129 127
-2.864998 1.997622 9.817515 132 130 129
-2.862503 3.200468 9.155094 112 112 110
-2.871224 -1.660845 8.320929 76 79 84
-2.854800 -3.221656 8.543024 139 121 117
-2.858373 3.990505 9.280945 149 148 147
-2.855890 -0.788604 7.348615 114 110 109
-2.821520 -1.566991 6.419919 29 30 35
-2.814582 3.790284 9.318976 147 147 147
-2.810520 4.353507 9.501576 130 127 126
-2.818060 4.470453 9.357271 53 52 50
-2.792926 6.367908 9.434494 125 125 125
-2.762698 -2.119660 7.208326 33 34 39
-2.762598 3.718126 9.328038 114 109 106
-2.748014 1.982984 9.946059 127 127 127
-2.745648 4.957127 9.458994 118 118 118
-2.721763 2.118909 10.000962 131 130 127
-2.721867 -1.765018 7.197464 69 70 75
-2.739953 4.106827 9.442420 71 67 66
-2.739949 4.163780 9.459366 157 157 157
-2.714185 6.404116 9.618447 62 58 57
-2.684004 -3.368205 8.759816 130 115 112
-2.695116 3.730519 9.360462 141 138 137
-2.692684 -0.850408 5.856009 34 35 40
-2.681019 4.822777 9.450348 128 128 128
-2.664241 6.574093 9.840839 119 119 117
-2.664224 3.406088 9.668464 106 96 94
-2.661214 -1.203715 5.893336 29 28 33
-2.621331 0.784285 9.979297 75 71 72
-2.629661 -1.549791 5.916311 39 39 41
-2.629150 3.798690 9.467586 99 95 93
-2.610796 5.163823 9.526071 72 64 62
-2.602306 3.696676 9.519595 125 121 120
2.536090 0.913912 3.857867 142 144 136
-2.591160 4.203299 9.594074 162 156 156
-2.589921 -0.911695 9.698290 105 103 114
-2.593328 -0.793923 9.629642 152 152 154
-2.581117 4.472474 9.527199 152 152 152
-2.570894 -1.470221 5.914160 73 74 77
-2.563736 3.726330 9.634314 120 110 108
-2.569745 -0.333709 9.718185 92 91 96
-2.543423 2.705807 5.285967 116 115 110
-2.549622 -1.275528 5.934011 44 43 48
-2.554591 4.112599 9.492460 40 38 39
-2.545328 -0.076503 9.914151 253 253 251
-2.542265 -0.008829 9.908235 253 253 251
-2.520691 3.756960 9.500984 117 107 105
-2.515579 -1.565818 5.357365 25 26 30
-2.501851 -1.433711 5.906636 32 32 37
-2.484124 5.166547 9.675687 87 83 82
-2.481757 1.780323 10.101775 161 153 151
-2.491489 1.911474 10.133019 78 77 83
-2.462597 2.939335 10.009012 70 66 63
-2.415153 2.100632 10.189586 163 160 158
-2.409285 3.804336 9.621243 141 132 131
-7.509286 0.704005 15.422754 109 104 103
-2.396590 1.380761 6.529196 142 138 135
-2.396894 2.138246 10.359213 80 80 81
2.743947 6.301633 8.656878 39 43 42
-2.363974 -2.230268 6.675952 75 80 83
-2.367075 -1.565073 5.411721 28 29 34
-2.369727 -1.439708 5.513879 28 32 35
-2.374717 -1.183333 6.629084 18 17 22
-2.356153 5.426625 9.732943 110 110 110
-2.352557 3.293045 9.398680 102 87 79
-2.340166 -1.504376 6.016870 27 26 34
-2.321415 6.458240 9.942310 49 49 49
-2.331092 6.467750 9.784928 113 113 113
-2.328873 1.383419 6.494462 140 135 132
-2.322435 3.799218 9.708736 119 114 111
-2.330479 3.922266 9.603051 140 140 139
-2.309737 5.429040 9.839997 37 33 33
-2.301980 -3.449360 8.934634 164 163 161
-2.313652 -3.414466 8.971300 158 155 154
-2.314809 2.277550 9.576159 80 79 78
-2.318182 4.450089 9.686486 78 76 81
-2.292358 5.444449 9.808415 121 115 115
-2.285429 -1.180548 5.513772 43 42 49
-2.264985 2.337869 10.051394 158 150 147
-2.276526 -1.437903 5.497684 37 38 43
-2.277219 3.716155 9.661242 31 27 26
-2.244200 4.313309 9.754686 127 125 126
-2.234617 -1.605541 5.999607 29 28 32
-2.222467 -1.082468 5.089637 79 80 82
-2.238159 -1.002956 6.698683 45 43 53
-2.232281 4.500435 9.769711 121 120 120
-7.331626 -4.054063 13.446012 29 28 35
-2.202884 3.634875 9.661580 128 119 119
-2.193079 2.092506 10.301642 151 149 150
-12.413930 0.683932 22.434252 112 102 103
-2.175354 -0.668267 5.517313 36 34 45
-2.173928 4.664763 9.798818 107 102 101
-7.271327 -1.489262 13.852795 24 23 30
-2.151314 3.365148 9.742144 123 113 111
-2.149369 3.691539 9.732792 133 128 127
-2.155306 -1.034659 5.119178 31 31 39
-2.115602 4.921065 9.874748 64 50 49
-2.073796 5.309721 12.812913 14 5 8
-2.068628 5.347284 9.780788 33 32 30
-2.073716 4.362007 9.773650 76 66 64
-2.055872 2.332688 9.770432 82 82 82
-2.048938 4.121055 9.871543 135 130 127
-2.021409 5.473441 10.036142 28 26 25
-2.023202 3.404877 10.015199 13 12 13
-2.029189 3.876452 9.889700 140 139 137
3.136946 5.954370 7.389296 54 54 52
-1.980861 -0.683338 4.783397 36 35 40
3.158309 -0.563460 6.198381 185 189 185
3.176044 -0.745878 6.212237 179 181 178
3.169729 -0.681807 6.265466 178 180 175
3.173224 -0.626471 6.184698 175 180 174
-1.957770 -0.831772 4.854818 84 85 87
3.187423 -0.794394 6.214391 56 57 61
3.182236 -0.685220 6.194925 50 51 56
3.194101 -0.645044 6.115197 177 182 176
3.182212 -0.608409 6.280839 71 73 73
-1.920445 1.255321 2.915865 37 31 28
-1.925783 1.305413 2.981370 89 74 71
-1.931312 -1.244826 4.833575 37 37 42
-1.925689 4.168547 10.075903 135 134 132
-1.931435 4.170878 10.092943 132 131 129
3.202289 -0.780231 6.100762 177 182 177
3.215975 -0.754612 6.042070 53 59 59
3.206979 -0.709997 6.094944 174 179 173
-1.904684 0.364158 2.913393 108 98 97
-1.910010 1.038381 2.916367 39 29 30
-1.907419 1.052379 2.915892 160 147 145
-1.911169 1.901398 2.929325 86 87 71
-1.909573 2.882879 9.965339 43 40 39
-1.906004 -0.369312 2.910887 61 43 38
3.238972 -0.642344 5.990585 176 181 175
-7.008707 -3.326221 13.145364 29 28 33
-1.886515 0.377114 2.919598 186 172 167
-1.882549 0.581789 2.921265 45 35 35
-1.899330 0.831023 2.923001 154 140 136
-1.894766 1.484126 2.920628 143 138 134
-1.897610 1.527083 2.922729 120 105 99
-1.898053 1.542099 2.923817 112 97 92
-1.887652 -3.379916 9.320101 127 109 105
-1.881348 1.886676 2.924640 32 28 27
-1.889779 1.922973 2.935193 24 22 23
-1.882506 2.083076 2.941674 21 20 16
3.252789 -0.750130 5.773823 51 51 53
3.258946 -0.686028 5.933501 60 60 62
-1.866739 0.827183 2.924984 162 145 138
-1.878634 0.977998 2.923943 121 112 107
-1.864882 0.980281 2.926801 26 22 23
-1.868962 1.912347 2.946749 97 90 80
-1.869350 2.105565 2.954907 92 87 81
-1.871563 -1.961529 10.477561 253 253 251
-1.866014 -0.364199 2.913432 83 65 64
3.270083 -0.723323 5.873242 178 183 179
3.262570 -0.674992 5.816439 57 56 61
3.267518 -0.584590 5.963732 69 69 69
-1.848496 0.140588 2.931589 182 166 156
-1.858682 1.036656 2.928226 90 79 78
-1.859096 1.482740 2.931427 146 137 130
-1.856389 2.112442 2.962946 91 87 80
-1.840500 -0.905391 2.912066 151 126 108
-1.854619 -0.136160 2.920672 159 130 122
3.283618 0.997415 5.758056 97 98 93
-1.838320 1.007720 2.931908 145 130 124
-1.837724 1.265363 2.922945 162 151 147
-1.828966 1.474122 2.918666 147 139 133
-1.830743 1.892023 2.951631 18 17 13
-1.825373 2.113820 2.956214 87 76 73
-1.838734 -1.431479 2.880547 132 112 101
-1.825278 3.723372 10.010373 68 47 46
-1.823711 -1.394204 2.874994 142 127 114
-1.827846 -1.172482 2.903664 145 126 120
-1.822534 -1.118978 2.891574 145 126 118
-1.839044 4.200169 9.997465 117 116 113
-1.827280 -0.133816 2.927448 144 115 107
-1.825397 -0.097719 2.929446 176 158 148
-1.819355 1.268901 2.938888 158 149 143
-1.816969 1.698687 2.942515 109 100 96
-1.802175 1.707602 2.940594 32 28 27
-1.801353 1.881545 2.949387 28 25 25
-1.811773 -2.392776 2.846046 129 105 93
-1.809271 -0.123586 2.934108 80 63 60
3.332479 1.021837 5.698061 162 165 162
-1.787010 1.462999 2.941839 41 32 30
-1.796475 1.509604 2.934621 132 121 115
-1.798756 1.504973 2.942716 94 82 76
-1.798515 1.676601 2.931738 29 26 27
-1.784976 1.694278 2.946119 108 104 99
-1.795587 -1.661562 2.874842 132 115 107
-1.780099 -1.398544 2.891550 143 134 115
-1.792454 -0.862679 2.920057 138 125 116
-1.786135 -0.094726 2.783916 176 159 152
-1.774293 0.379397 2.950934 182 165 157
-1.770151 1.249122 2.943240 137 110 107
-1.773633 2.097240 2.953762 22 21 17
-1.777457 -1.677592 2.877623 61 52 47
-1.776880 -1.364528 2.896841 139 122 107
-1.760503 -1.333495 2.725011 47 32 27
-1.778339 -1.174232 2.914213 140 121 109
-1.770788 -0.369068 2.937518 94 75 69
-1.773919 -0.121507 2.943749 93 74 70
-1.763829 -0.096502 2.933506 174 155 149
-1.751540 1.763368 3.111278 20 16 13
-1.746106 2.111832 2.958150 88 85 70
-1.755893 -1.848860 2.887701 133 114 100
-1.748962 -1.402628 2.900034 137 126 120
-1.742077 -1.329306 2.903311 120 101 94
-1.744141 -1.146397 2.914205 50 43 38
-1.756938 3.993113 10.143012 125 120 117
-1.754757 -0.907403 2.927615 70 49 42
-1.755528 -0.862872 2.919875 146 130 118
-1.751621 -0.807856 2.926992 139 120 105
-1.750073 -0.349823 2.936467 178 153 146
-1.754578 4.847869 9.998962 76 66 64
-1.725132 1.485827 2.950704 130 121 114
-1.723404 2.297231 2.975301 21 19 17
-1.723546 2.316997 2.982382 82 75 69
-1.738256 -1.290390 2.907549 136 121 110
-1.736674 -1.211389 2.913935 152 134 122
-1.728349 -1.176756 2.915116 142 125 113
-1.720508 -0.820790 4.208401 24 24 33
-1.738188 -0.720287 2.933389 129 107 96
-1.736941 -0.636401 2.935304 120 101 94
-1.732403 -0.370137 2.947526 99 75 66
-1.709618 1.031717 2.957216 133 112 111
-1.718343 1.705414 2.985653 108 102 98
-1.701215 -0.848244 2.937569 142 124 114
-1.715688 -0.831073 2.937972 138 124 115
-1.715913 -0.632895 2.941478 61 46 43
-1.710649 -0.261804 2.952351 177 147 137
-1.703361 -0.216886 2.949207 179 153 140
-6.817616 -2.673867 11.929272 77 81 84
-1.699450 1.221446 5.352877 84 80 79
-1.690528 1.256622 2.962916 42 27 27
-1.693119 1.726427 3.011628 45 36 31
-1.681435 -1.715367 2.898946 129 111 97
-1.690830 -1.692671 2.932365 126 110 103
-1.699848 -0.847434 2.931732 139 121 111
-1.695057 -0.604651 2.949923 154 130 120
-1.687633 -0.377565 2.979718 72 52 49
-1.690958 -0.163536 2.953306 117 97 91
-1.682588 -0.138228 2.957372 103 86 86
-1.662256 0.141800 2.959829 183 166 158
-1.662926 0.600619 2.959233 173 160 151
-1.676749 0.863875 2.969207 172 157 154
-1.678029 -1.692019 2.898899 42 36 33
-1.674097 3.798144 9.256519 89 81 78
-1.666608 -0.350001 2.952775 174 151 137
-1.667880 -0.148056 2.959607 181 154 145
-1.663763 -0.128586 2.957453 131 112 104
-1.661745 -0.104718 2.954533 184 166 156
-1.655093 0.816825 2.968955 32 23 21
-1.654899 1.988843 3.108902 100 94 90
-1.649628 -1.953296 2.892690 129 107 96
-1.644658 -0.375696 2.963389 59 42 40
-1.641758 -0.129440 2.969671 95 76 70
-1.633611 0.139583 2.974948 185 169 164
-1.621220 0.143757 2.975710 172 154 148
-1.634766 2.327869 3.020917 22 20 19
-1.622974 3.976707 10.091757 115 107 104
-1.628149 -0.608492 2.964916 160 136 129
-1.624721 -0.188249 2.954278 177 147 136
-6.739391 0.639712 14.050834 106 101 98
-1.613133 0.613516 2.976734 165 147 143
-1.611256 1.541993 2.711271 18 11 11
-1.613055 -1.697650 2.909629 48 39 30
-1.607747 3.768252 9.076772 31 26 23
-1.614986 -0.101345 2.964550 175 154 147
-1.584340 2.089157 3.299160 8 4 2
-1.592610 2.117994 3.346893 16 17 11
-1.580594 -0.864641 2.953279 143 123 112
-1.566052 0.602998 2.980654 184 167 160
-1.572982 2.107833 2.996440 24 16 14
-1.561064 -0.872617 2.962901 140 118 106
-1.572823 -0.375064 2.983138 83 69 66
-1.550984 1.036177 2.991421 142 126 122
-1.543218 1.844283 2.875386 88 89 73
-1.542062 -1.138055 2.952604 132 120 108
-1.538236 1.136686 2.986462 143 133 131
-1.520829 1.246479 2.991807 30 26 25
-1.520769 1.267397 2.989599 116 111 107
-1.528655 2.316540 3.010349 13 9 6
-1.520466 -2.220684 2.929128 135 116 106
-1.531229 -1.469237 2.958747 136 114 102
-1.537176 -1.444152 2.950764 63 52 46
-11.747494 -3.274224 22.883842 32 31 36
-1.515385 1.058624 2.991024 163 154 150
-1.515273 -0.632949 3.794747 48 47 52
-1.510860 -0.383479 2.995412 73 49 46
-1.512861 -0.106521 2.987943 180 166 157
-1.489014 1.274276 3.008494 111 108 100
-1.494535 2.292595 2.984926 19 17 13
-1.494411 -0.720431 2.355976 51 38 34
-1.476528 1.899380 2.995375 27 23 22
-1.466341 2.030295 3.216474 11 8 8
-1.469578 -2.271984 2.940495 64 49 43
-1.460343 -2.095304 2.930774 82 74 68
-1.465811 -0.639300 2.998574 78 65 58
-1.471478 -0.383399 2.995851 62 44 42
-1.478355 -0.139797 2.976507 172 143 135
-1.444917 -2.126455 2.939532 145 129 120
-1.446953 -2.025855 2.938259 138 125 116
-1.440577 -1.485923 2.961285 127 105 94
-1.446723 -1.463642 2.975999 33 24 22
-1.430889 0.140125 3.010950 186 171 166
-1.424342 -2.240833 2.938096 141 112 95
-1.435670 2.886067 10.342186 107 104 101
-1.422891 -2.008173 2.955750 80 62 48
-1.421956 -1.456351 2.960796 44 34 32
-1.437179 -0.355458 3.000272 178 158 148
-1.414087 5.217209 10.467444 57 52 48
-1.412380 -1.985111 2.955338 141 127 116
-1.402250 -1.694672 2.953092 134 117 107
-1.400927 -1.664304 2.961552 145 125 115
-1.419707 -1.147035 2.980833 135 119 105
-1.402216 -0.874096 2.982109 141 122 111
-1.403357 -0.143075 3.014671 179 151 144
-1.391818 0.358708 3.050676 55 36 32
-1.393333 6.086527 12.513714 33 27 27
-1.391994 2.311968 10.391039 169 165 162
-1.380603 3.336733 10.389687 124 109 106
-1.392513 -1.524612 2.968243 153 129 117
-1.393313 -1.480109 2.974461 146 122 110
-1.384349 -1.434481 2.966459 128 110 100
-1.392981 -1.166248 2.993930 61 47 38
-1.395372 -1.150800 2.982080 140 123 113
-1.383841 -1.082359 2.991182 145 125 116
-1.384050 -0.953299 2.993969 82 66 61
-1.388918 -0.912176 2.994940 67 51 46
-1.397946 -0.132413 3.022595 100 77 74
-6.493311 -2.482161 11.933152 83 83 85
-1.372564 -1.778811 2.965199 174 161 161
-1.368862 -1.177933 2.983100 60 45 39
-1.376484 -1.154419 2.988202 144 124 113
-1.363107 -0.934368 2.999074 137 113 101
-1.366501 -0.926223 3.000030 131 107 95
-1.377744 -0.626412 3.015308 86 67 60
-1.373923 -0.614551 3.012153 168 145 137
-1.364148 -0.410610 3.018019 161 139 128
-1.364559 -0.410688 3.021295 161 139 128
-1.365662 -0.396119 3.022633 94 68 67
-1.364876 -0.112668 3.030149 191 173 163
-1.361259 5.079293 10.033636 121 121 121
-1.351201 0.092788 3.034422 179 156 146
-1.344789 1.333714 2.068424 29 25 21
-1.355841 1.896795 3.013490 27 21 21
-1.342627 2.437589 10.366878 165 160 157
-1.353117 2.494967 10.398334 87 83 82
-1.358843 -0.891023 2.999593 139 119 108
-1.352609 -0.576216 3.015685 88 69 62
-1.351429 -0.543640 3.021454 89 69 60
-1.348675 -0.503114 3.021839 104 84 77
-16.697174 -5.842819 32.980389 43 42 50
-1.335075 0.599822 3.024318 191 174 166
-1.320171 2.324693 11.320318 75 75 77
-1.333579 -2.010742 2.969582 89 69 64
-1.323459 3.768946 10.615135 136 116 114
-1.328941 -1.160721 3.005268 143 121 108
-1.339583 -0.881133 3.009268 88 65 58
-1.336091 -0.485156 3.031263 165 143 131
-1.339155 -0.393974 3.023073 99 85 82
-1.322894 -0.368512 3.030305 166 144 133
-1.324275 5.010068 10.078581 64 58 54
-1.325420 -0.117198 3.048760 188 171 163
-1.315164 0.128414 3.042393 193 176 166
-1.301748 0.376059 3.034059 201 182 175
-1.308075 0.597082 3.038461 196 172 160
-1.311553 5.745978 6.726298 122 122 114
-1.305694 2.340403 11.184590 63 63 65
-1.319616 -2.584197 2.941489 58 28 28
-1.317861 -0.884854 3.010771 137 115 101
-1.306335 4.271865 10.588188 131 122 123
-1.302245 -0.648461 3.021760 100 84 76
-1.302437 4.706737 10.622865 112 105 102
-1.280232 0.382992 3.045703 131 105 104
-1.292383 0.644304 3.045575 178 144 135
-1.283800 0.800830 3.025883 126 102 95
-1.297425 2.341895 3.054153 82 79 73
-1.299863 2.704914 10.379796 150 149 147
-1.296503 2.852129 10.433082 140 139 137
-1.287784 3.694107 10.489903 140 122 118
-1.294573 -0.731877 6.075560 156 134 120
-1.295457 -0.387124 3.027647 83 65 57
-1.272872 0.369119 3.051391 197 171 165
-1.261995 0.580958 3.044682 78 50 47
-1.272548 2.338534 3.071993 10 6 3
-1.257699 0.595504 3.044494 199 179 166
-1.242727 1.855992 2.946397 12 11 7
-1.245218 4.358546 10.605971 117 106 104
-1.253043 -0.647732 3.006990 101 82 75
-1.245667 -0.390171 3.044179 97 78 72
-1.221268 0.600848 3.039497 210 188 174
-1.235147 1.098999 2.593390 123 118 112
-1.221304 1.258325 7.367517 135 122 119
-1.226312 1.712331 2.437962 25 19 16
-1.224532 1.706344 3.046230 99 97 98
-1.230009 1.808192 2.855881 95 92 87
-1.238334 1.868101 2.953958 93 94 78
-1.223924 1.944401 3.084409 96 93 88
-1.233247 -2.614093 2.985521 67 42 38
-1.232713 3.026094 10.653503 103 102 100
-1.204387 1.698368 3.057705 20 19 17
-1.206204 3.025717 10.537002 133 133 128
-1.209311 3.147019 10.583924 127 117 113
-1.204217 -0.647606 3.044462 86 70 65
-1.198038 0.130452 3.073086 190 170 159
-1.195291 1.274750 3.046481 28 26 26
-1.194226 1.473649 3.061971 26 25 21
-1.180475 1.499077 3.062873 108 97 93
-1.183889 2.120580 3.058970 23 20 19
-1.181261 4.110853 10.623114 126 116 115
-1.191675 4.233661 10.682801 128 118 117
-1.195150 -0.636294 3.046132 174 154 145
-1.168161 0.129245 3.071134 199 179 170
-1.166111 1.720659 3.076155 92 85 82
-1.178665 2.650138 10.483629 103 99 98
-1.179669 -1.997956 2.996835 145 127 113
-1.169789 -0.902176 3.036279 158 141 131
-6.272023 0.552523 11.544863 199 174 164
-6.274578 1.899333 11.752357 238 222 218
-1.145901 0.602767 3.067551 156 129 119
-1.149383 1.273300 3.067043 18 8 7
-1.145682 -0.925146 3.046707 63 48 45
-1.143220 -0.645679 3.061299 97 75 67
-1.155748 -0.128587 3.077171 124 95 91
-1.137574 0.364107 3.069791 212 184 170
-1.137129 1.503079 3.069153 107 102 95
-1.137565 -2.611370 2.981921 66 40 41
-1.129652 -1.464263 3.019964 78 63 56
-1.127699 -1.194036 3.028163 66 48 46
-1.134858 -0.367591 3.078122 184 165 158
-1.124259 -0.118567 3.079266 182 162 149
-1.112208 0.015371 3.087753 192 171 167
-1.109141 0.125896 3.082889 224 213 209
-1.109159 5.350019 10.766220 85 87 86
-1.111106 0.340446 3.069003 220 184 170
-1.100041 2.098614 12.213078 142 132 130
-1.119939 2.198457 4.565331 99 91 89
-1.119972 2.328581 10.616006 139 134 130
-1.106692 -1.172360 3.023938 150 123 112
-1.108053 -0.900905 3.044030 156 138 126
-1.116415 -0.394656 3.074563 97 79 76
-1.114413 -0.172324 3.079189 184 157 146
-6.217194 1.250214 11.300927 254 254 254
-1.092604 0.125717 3.085453 220 208 203
-1.094619 0.379820 3.072583 235 199 185
-1.081158 -2.319567 3.004230 128 100 89
-1.085615 -1.360750 3.028360 146 123 109
-1.090244 -1.226337 3.036094 156 134 120
-1.082186 -0.672550 3.073588 61 43 39
-1.085535 -0.384645 3.077046 98 77 74
-1.076483 -2.562677 2.995878 128 109 102
-1.078344 -2.452990 3.006691 133 114 100
-1.074563 -2.416198 3.018093 142 123 112
-1.079511 3.510471 10.710229 123 102 99
-1.063216 -1.440309 3.028593 141 119 106
-1.071357 -1.420767 3.024038 56 42 35
-1.071846 -1.308106 3.032825 80 63 55
-1.069916 -1.263942 3.038479 82 59 53
-1.060139 -1.226568 3.035567 79 58 48
-1.063929 -1.236721 3.040681 91 70 62
-1.073890 -1.192091 3.042000 84 61 53
-1.060271 -0.909125 3.058667 157 138 122
-1.066291 -0.704292 3.070341 142 122 109
-1.061098 -0.363668 3.079075 178 154 143
-1.061244 -0.366670 3.088845 176 152 140
-1.068383 -0.142888 3.089920 124 103 97
-11.280947 -3.439689 22.317997 98 98 100
-6.161430 -2.510770 14.030567 28 29 34
-1.056464 1.166253 2.376712 22 12 11
-1.053033 1.323653 2.351381 107 104 96
-1.052888 -2.575943 3.018424 124 105 98
-1.046659 -1.953277 3.024609 139 119 109
-1.059417 -1.788861 3.025749 53 43 41
-1.052904 -1.451449 3.037711 139 113 100
-1.056750 -1.400192 3.032076 144 118 103
-1.045576 -1.214535 3.036735 49 29 20
-1.059564 -0.930473 3.052395 90 71 65
-1.045155 -0.886831 3.060569 42 32 28
-1.021021 0.271899 3.099877 217 184 167
-1.029263 -2.608802 2.988053 82 55 46
-1.031857 -0.702647 3.073828 53 40 32
-1.039065 -0.663946 3.081920 67 52 47
-1.021934 -0.254793 3.097740 112 83 75
-1.021499 -0.134246 3.101769 131 104 93
-1.003725 0.572307 3.088446 83 60 54
-1.017558 -1.758602 3.026125 84 56 52
-1.019773 -0.717857 3.074744 148 121 110
-1.007367 -0.679798 3.083759 146 116 109
-1.010575 -0.331737 3.100422 183 149 137
-6.114481 -2.953052 11.417149 79 80 82
-0.991926 0.323839 3.103813 194 163 148
-0.994495 0.893204 3.077198 129 110 95
-0.999228 1.285794 3.096358 111 101 99
-0.981645 -0.933637 3.077031 99 74 70
-0.986595 -0.360739 3.096198 176 152 140
-0.994665 -0.141831 3.110244 73 50 46
-0.967235 0.125489 3.108486 199 177 166
-0.963559 0.160267 3.120090 203 178 167
-0.969825 5.383273 10.769480 136 136 136
-0.963151 0.348531 3.119072 77 62 59
-0.968476 0.577583 3.103198 130 112 100
-0.970924 0.605308 3.091737 130 111 99
-0.962493 0.802889 3.095372 101 87 78
-0.968575 -2.573306 3.019908 128 111 103
-6.061944 -0.226566 11.053203 83 77 76
-0.948894 5.001541 9.239786 148 148 148
-6.040103 2.104080 12.565055 131 111 108
-0.933616 0.530360 3.104507 131 113 101
-0.924950 0.606382 3.107620 156 137 131
-0.938839 0.730979 3.098187 47 33 32
-0.933685 0.809797 3.104391 37 27 26
-0.932325 0.837907 3.105650 132 113 106
-0.928162 0.941429 3.093133 126 108 94
-0.903531 1.030524 3.096203 122 90 78
-0.915685 1.070667 3.099988 116 106 92
-0.902912 1.291673 7.400682 161 150 148
-0.902369 4.394162 10.845606 113 99 91
-0.908969 5.049859 9.085147 77 77 73
-0.917812 5.103529 9.208351 59 59 57
-0.893316 0.121495 3.129011 180 156 146
-0.897655 0.367880 3.125968 152 141 135
-0.884319 0.602995 3.119864 154 131 122
-0.885546 0.821543 3.111553 36 31 28
-0.894472 1.053921 3.102245 30 26 25
-0.885351 1.265374 3.107107 30 29 25
-0.897632 -1.493969 3.070866 90 63 52
-0.891920 -0.124617 3.127615 170 153 137
-0.898911 5.029419 9.120193 127 130 125
-0.866994 0.121457 3.134366 155 142 130
-0.873484 0.293073 3.161771 108 79 71
-0.873622 1.216734 3.113133 109 107 105
-0.878833 1.291001 3.122216 126 120 114
-0.866357 1.932280 3.113706 21 19 19
-0.869790 -2.594296 3.054109 128 110 98
-0.845682 5.355618 11.186783 28 18 17
-0.854236 0.743533 3.118747 82 48 46
-0.846508 1.043424 3.119859 120 101 94
-0.831632 0.105673 3.136876 59 43 30
-0.823858 5.280219 10.932038 106 95 89
-0.838956 0.344562 3.136975 68 57 53
-0.836131 0.745723 3.113385 62 33 31
-0.836057 1.225007 3.122467 99 95 92
-0.827213 1.950587 11.433749 121 110 108
-0.823312 -1.213743 3.081516 83 70 63
-0.822296 -0.142775 3.142977 58 43 40
-0.812292 5.446579 9.269295 123 129 127
-0.809510 0.354618 3.142718 42 33 31
-0.805911 0.604879 3.131150 174 158 154
-0.819058 1.117338 3.125925 95 87 84
-0.815919 -0.649776 3.120427 156 136 125
-0.797492 0.104518 3.140661 58 45 36
-0.791951 1.076815 3.121774 108 100 98
-0.795875 1.272240 3.130669 31 25 22
-0.791880 -0.672031 3.121157 84 67 58
-5.898056 -2.510201 11.264733 47 48 50
-0.765819 0.592250 3.146254 65 42 39
-0.767511 0.839359 3.137647 128 104 101
-0.769457 1.057706 3.129818 41 30 27
-0.761006 3.850691 10.899865 113 93 87
-5.870399 0.138979 10.977967 230 192 173
-5.879490 0.481337 10.918493 77 67 68
-5.868483 0.560025 10.914569 83 69 69
-0.745273 0.820992 3.129769 43 25 21
-0.754657 0.845052 3.138324 128 95 91
-0.747027 1.067203 3.144014 106 94 90
-0.744000 -1.219841 3.091853 86 58 52
-0.733544 5.418483 10.884512 140 141 146
-0.737026 0.592486 3.133643 54 40 37
-0.732016 0.610359 3.149974 161 144 137
-0.721042 -1.522741 3.093988 110 66 59
-5.828603 1.270663 11.269650 105 94 92
-0.719071 5.546762 9.173497 61 62 64
-0.717997 2.480697 10.918612 126 125 123
-0.713994 -1.637590 3.098880 103 70 61
-0.716075 3.892083 10.965069 122 105 98
-5.811243 -0.506429 10.906494 234 188 170
-0.692020 1.050605 5.965191 80 77 77
-0.696447 -1.747109 3.104341 145 128 120
-0.686096 -1.235094 3.108012 101 69 56
-0.694619 -0.962060 3.113086 95 75 64
-0.688222 -0.978620 3.122448 158 136 123
-0.661345 0.039339 3.164748 61 50 46
-0.670199 -1.210469 3.110662 168 142 129
-0.668429 -0.506718 3.152812 134 115 101
-5.774780 1.437662 11.485089 253 253 251
-0.658705 0.095772 3.162728 67 56 50
-0.653370 5.239133 9.008661 122 125 124
-0.642301 0.349856 3.166708 62 44 42
-0.658166 0.403767 3.161777 141 124 112
-0.653743 0.484104 3.160333 131 113 101
-0.648099 0.556499 3.163553 133 115 103
-0.650581 -1.502801 3.107150 170 146 142
-0.654111 4.242352 5.197979 133 134 128
-0.659846 -0.451339 3.152415 128 110 96
-5.745310 1.991724 12.376622 204 167 153
-0.626745 0.845595 3.165679 119 112 101
-0.625298 -1.507899 3.113297 176 154 140
-0.633066 -0.464034 3.167812 146 116 103
-5.726912 -2.786111 11.086293 34 33 39
-0.619486 5.171472 9.531668 101 103 100
-0.612208 0.389732 3.171633 126 109 105
-0.604745 0.413678 3.177950 137 122 119
-0.613389 0.606954 3.174632 158 139 133
-0.605309 0.831141 3.175572 25 21 18
-0.616023 0.860344 3.162785 42 33 31
-0.607809 1.028294 3.170151 35 26 28
-0.609351 1.046587 3.168630 27 23 24
-0.600701 -2.434466 3.090431 132 118 109
-0.616415 5.071569 9.148559 78 78 76
-0.596674 5.639820 9.179539 101 103 102
-0.589212 0.852361 3.183055 99 89 83
-0.582571 1.024271 3.189269 110 106 103
-0.586530 1.929504 3.182381 21 21 21
-0.586670 1.956487 3.185910 86 82 81
-0.580383 -0.598370 3.167466 169 138 120
-5.689921 0.672403 11.239284 186 172 168
-5.690673 0.861664 10.895568 252 245 237
-0.564209 5.296237 9.065331 59 59 59
-0.578354 0.502741 3.182544 135 120 117
-0.579431 0.606776 3.187993 128 117 111
-0.571548 5.742721 9.517112 46 50 49
-0.578725 -0.391519 3.160884 154 128 115
-5.674636 -0.740198 11.406132 63 54 52
-5.673872 -0.556315 11.303702 69 63 62
-5.659425 0.236836 10.798815 61 51 50
-5.642070 -0.763545 10.942016 223 187 173
-0.536553 0.352943 3.195230 82 53 45
-0.536472 0.955765 5.531708 145 137 135
-0.527065 1.002191 5.751429 67 62 63
-0.528924 6.405296 9.355657 105 107 104
-5.639532 -0.692624 10.886808 74 58 58
-0.514991 0.941874 5.455359 145 139 136
-0.503015 -1.820271 3.149606 60 34 33
-0.511727 4.517024 11.306978 102 87 84
-0.506951 4.862076 11.249879 34 24 23
-0.509346 -0.216874 11.541268 100 100 99
-5.606517 0.496111 11.419837 70 66 65
-0.481012 0.414002 3.198313 149 143 143
-0.492275 -0.416046 3.180145 76 57 48
-0.478720 5.318266 10.801715 130 142 142
-0.460925 0.446146 3.201169 100 82 78
-0.461469 0.827142 3.199419 28 24 23
-0.468562 0.841210 3.215439 24 20 19
-0.442660 -1.789774 3.157376 119 96 88
-0.459389 -1.242465 3.165387 105 81 77
-5.547882 0.278843 9.859771 65 59 59
-0.439303 5.497114 9.185723 122 123 118
-0.434086 0.406537 3.209582 116 105 103
-0.439154 1.532168 3.206537 92 84 78
-5.537724 -0.003882 11.394026 191 179 179
-0.410517 5.267907 8.780290 39 40 35
-0.413206 0.871732 3.211491 68 61 59
-0.401788 1.282289 3.198038 34 29 26
-0.409711 1.295435 3.215200 18 14 13
-0.384292 0.409067 3.215209 88 80 78
-0.380644 0.541424 3.207459 74 60 59
-0.396972 1.057585 3.200280 26 24 24
-0.382450 1.920642 11.877173 111 105 102
-0.385169 1.923652 11.901078 111 105 102
-0.384192 4.419589 11.243999 42 24 22
-5.493692 0.045647 11.341064 68 59 60
-0.370072 0.368694 3.217447 147 133 128
-0.360244 0.420709 3.235442 87 76 72
-0.375206 0.556874 3.225878 143 138 137
-0.372310 1.450726 11.894482 40 30 29
-0.374445 2.345648 11.822514 130 125 122
-0.365742 -1.855453 3.162687 126 113 105
-5.472862 -0.780846 10.838260 231 194 179
-0.349532 0.044920 3.218665 134 116 112
-0.348097 0.576999 3.217032 92 81 79
-0.355376 0.584869 11.737726 36 32 31
-0.340956 -2.471483 3.147108 43 34 32
-0.355324 -1.918383 3.167322 117 103 94
-0.343019 3.527540 11.377894 117 105 99
-0.344322 5.106981 9.211836 71 71 69
-0.327893 0.368020 3.233234 152 139 133
-0.338808 0.518990 3.220681 135 133 132
-0.325435 0.589918 3.238579 53 39 36
-0.337229 -1.820821 3.156003 53 37 36
-5.421580 0.706031 11.450463 63 58 58
-0.301611 0.117642 3.226402 141 126 121
-0.311221 5.347328 11.403654 19 15 12
-0.302956 0.610027 3.236223 141 132 128
-0.319878 5.729168 9.403319 24 24 26
-0.302553 1.825470 11.695883 133 122 118
-0.315536 -2.672631 3.150153 108 94 88
-0.309891 -2.059737 3.172689 112 107 103
-0.319970 -0.910954 3.203224 73 55 47
-0.317523 -0.342581 3.217621 85 66 60
-0.306061 -0.300274 3.225693 138 115 106
-0.304670 -0.266786 11.509374 64 58 58
-0.306416 -0.264949 3.226060 129 104 97
-0.298058 5.451292 10.486056 76 78 75
-0.297100 5.003736 9.218506 98 103 98
-5.393222 0.587632 12.455436 111 92 90
-5.384757 0.681658 11.132684 72 66 66
-5.385927 -0.394235 11.376905 228 178 153
-0.276932 0.124317 3.237003 107 98 96
-0.269450 0.347166 3.240047 49 44 41
-0.271552 0.598954 3.235435 48 37 35
-0.246237 5.545473 9.261031 22 22 24
-0.252391 0.515631 3.235761 113 103 101
-0.244428 0.529371 3.251591 42 26 25
-0.258311 0.549955 3.246109 42 23 19
-0.253893 3.133446 11.353704 130 129 125
-0.237621 0.145119 11.388945 133 112 107
-0.224461 5.501829 9.362843 99 99 99
-0.227165 3.604305 11.363302 115 101 99
-0.237525 3.842386 11.427415 125 109 109
-5.336237 0.048692 11.072468 58 54 54
-0.207874 0.123271 3.241670 101 96 93
-0.217472 1.442524 11.458075 37 28 24
-0.200087 5.112905 9.639769 137 141 140
-0.197008 3.953745 11.427154 118 104 101
-0.197929 -0.242367 11.328688 74 64 62
-0.176097 5.126053 10.355755 125 127 126
-0.170225 0.783442 3.264197 145 139 130
-5.264815 -2.440078 9.369272 71 70 75
-0.144381 0.097496 3.245410 33 24 25
-0.146000 0.121928 3.252393 111 98 89
-0.144900 0.593357 3.251608 36 30 28
-5.240566 -1.775861 11.806826 115 115 115
-5.232111 -0.805049 11.464388 250 216 200
-0.119896 -0.163513 3.254787 41 34 31
-5.216142 -2.999042 11.748355 36 38 43
-0.081420 1.698021 2.442091 106 106 102
-0.081461 2.378068 11.194117 145 137 134
-0.095002 5.053858 9.770997 152 153 148
-0.075706 5.027587 9.557025 58 57 56
-5.167928 -2.517425 9.769084 82 82 82
-5.151618 -1.467102 11.743517 35 34 43
-5.151083 -0.799829 11.083158 240 194 173
-5.120815 1.547874 11.473617 235 221 220
-5.138412 1.947910 8.135773 129 129 127
-5.122431 18.798908 42.171207 113 108 105
