ply
format ascii 1.0
element vertex 567
property float x
property float y
property float z
property uchar red
property uchar green
property uchar blue
end_header
-5.072565 4.754848 8.179320 23 22 20
-5.046872 3.501145 8.146955 107 96 92
-5.016275 3.961834 8.141418 31 31 31
-5.060667 5.205660 8.344205 35 32 30
-5.011417 -2.876158 8.311037 90 90 92
-4.871441 2.745665 8.227335 52 48 47
-4.877363 3.221471 8.241395 98 92 90
-5.110773 1.789251 8.657566 73 73 75
-4.867031 3.541929 8.259579 96 86 84
-5.067219 2.118670 8.653704 53 53 55
-5.067219 2.118670 8.653704 53 53 55
-4.856315 3.210770 8.293493 43 31 34
-4.838111 4.268862 8.319135 107 113 103
-4.996500 -1.043199 8.595940 44 47 54
-4.941594 -1.981977 8.502707 38 39 51
-5.142392 1.889801 8.850075 254 253 248
-5.003176 -1.511324 8.690237 104 108 111
-4.813725 3.825191 8.386673 119 119 117
-4.993490 -1.555466 8.701595 38 41 50
-4.982176 -0.924922 8.709861 46 45 50
-4.896705 -0.970119 8.626770 88 88 90
-4.910566 -1.112970 8.667762 34 37 44
-4.898119 -2.619367 8.667752 27 27 33
-4.898119 -2.619367 8.667752 27 27 33
-4.703964 3.506807 8.331804 78 68 67
-4.703964 3.506807 8.331804 78 68 67
-5.544482 -2.563795 9.865832 71 70 75
-4.956930 -1.189127 8.829370 74 79 82
-5.144581 -0.807368 9.203997 185 160 156
-4.652045 3.183088 8.326861 39 29 28
-4.897266 -1.340949 8.812618 43 41 52
-5.303354 1.789554 9.547830 174 166 163
-4.857550 -0.919490 8.754157 44 43 49
-4.638345 3.239348 8.376064 121 116 110
-4.630560 2.309642 8.395055 136 135 134
-6.574549 1.323244 11.950503 254 254 254
-4.876455 -2.298125 8.889668 73 74 78
-6.411172 -0.236770 11.689861 83 77 76
-4.849891 -1.873666 8.851442 33 36 41
-4.807153 2.107311 8.806664 117 115 113
-4.577443 2.924684 8.389547 35 30 31
-6.641945 0.587242 12.225764 199 174 164
-22.478228 -6.187542 41.525055 38 37 43
-4.748018 -1.786621 8.790168 81 81 83
-4.606452 4.788400 8.532371 99 96 91
-4.556770 4.020379 8.453055 132 132 132
-6.139116 -0.531820 11.521634 234 188 170
-6.139116 -0.531820 11.521634 234 188 170
-4.766606 2.130740 8.951006 120 119 117
-4.747036 -0.990183 8.926493 86 84 85
-4.651278 -2.213849 8.827288 34 33 40
-4.460430 3.824006 8.466910 93 89 90
-4.203935 -3.011407 7.992882 37 36 42
-4.247926 -3.407474 8.083323 87 83 80
-4.253197 -3.230412 8.098098 67 61 61
-4.690280 -0.930663 8.941450 44 43 50
-4.106907 -1.377576 7.836478 48 47 54
-4.493190 3.618271 8.578439 67 46 43
-5.953982 -0.727816 11.493587 74 58 58
-4.157422 -3.427056 8.037975 152 134 124
-6.151673 1.342329 11.894492 105 94 92
-4.196614 -3.230194 8.120284 156 139 129
-5.957958 -0.802752 11.554362 223 187 173
-4.667395 -1.006969 9.058402 86 88 91
-4.438411 4.673257 8.650357 118 117 114
-4.128587 -3.591240 8.050064 152 136 121
-7.223836 -4.036279 14.103591 75 75 77
-7.214686 -4.030881 14.088041 75 75 77
-4.374306 3.611363 8.545694 58 41 38
-4.616452 -1.618526 9.044675 87 89 93
-4.787501 -0.839954 9.419242 230 216 213
-4.565264 2.087236 8.983196 116 116 116
-19.803900 -6.913008 39.114178 43 42 50
-5.134383 -2.240471 10.144027 36 37 45
-3.528747 -1.400253 6.989122 88 89 91
-4.344415 4.035884 8.615935 56 49 50
-6.096938 1.519096 12.125840 253 253 251
-4.732966 -0.878854 9.428919 108 102 101
-5.996088 -0.584487 11.945432 69 63 62
-5.996088 -0.584487 11.945432 69 63 62
-4.543550 -1.008495 9.095172 87 87 87
-4.340950 4.303245 8.711575 124 125 120
-5.991891 -3.429562 12.033388 70 69 75
-4.472970 -1.868465 8.986158 32 30 40
-4.495038 -2.297654 9.032759 72 72 76
-4.289290 3.306850 8.627845 98 88 88
-4.319273 3.990170 8.704895 141 140 138
-4.642088 -0.803073 9.412319 127 83 80
-4.295071 4.447305 8.717767 17 16 14
-4.294939 5.551727 8.769885 93 95 97
-3.957658 -3.537917 8.126349 144 130 120
-5.847125 -0.001271 12.030515 191 179 179
-4.363544 -2.225952 8.981335 29 28 36
-4.329945 -2.478641 8.932131 32 33 38
-4.434629 -1.014763 9.157252 83 83 84
-4.387117 -2.339607 9.068159 32 31 38
-4.387117 -2.339607 9.068159 32 31 38
-5.021551 -2.421528 10.391662 75 75 77
-5.624919 0.053957 11.671346 58 54 54
-3.876313 -2.033423 8.047894 77 76 79
-4.364150 -1.077721 9.070570 40 39 45
-4.181107 3.777774 8.714404 112 110 109
-4.681789 1.938406 9.766425 98 81 74
-4.166021 2.916149 8.712483 119 118 114
-3.931908 -3.608734 8.233274 86 78 75
-4.155088 3.204062 8.710724 106 92 89
-4.556063 -0.840989 9.562336 240 206 189
-4.629696 1.874668 9.733988 104 85 78
-4.170951 4.466477 8.802655 18 18 18
-5.685175 -0.412845 12.008825 228 178 153
-4.182680 6.033822 8.849911 98 103 104
-4.293899 -1.075156 9.121800 42 41 47
-4.324571 -1.012468 9.208823 84 84 84
-4.311447 -2.131776 9.198890 79 79 79
-4.283115 -2.181131 9.145155 35 34 40
-4.159151 4.116594 8.911530 21 21 22
-3.072466 -1.350343 6.584132 34 34 43
-4.244984 -2.519182 9.132017 37 36 40
-5.430352 -0.839501 11.683687 240 194 173
-6.076725 2.108008 13.090638 204 167 153
-4.090928 3.718639 8.825552 138 138 138
-4.070570 3.708733 8.792549 142 141 143
-5.658938 1.453872 12.238269 127 108 102
-4.198977 -2.809926 9.100334 32 31 37
-4.213406 -2.418226 9.137030 36 35 40
-3.804806 -4.168332 8.268238 132 118 109
-4.186040 -0.944448 9.116978 39 38 43
-4.272612 2.216168 9.337514 38 38 38
-4.012501 3.769796 8.868820 136 136 137
-3.973320 0.740963 8.800112 255 227 213
-4.141695 -1.878468 9.172940 29 28 33
-4.197621 -1.021375 9.316393 92 89 90
-4.016368 4.723938 8.922324 105 105 103
-4.156435 -1.977673 9.235374 87 88 90
-3.614161 -2.246958 8.035492 89 89 89
-4.562102 1.935681 10.182238 106 87 81
-4.471297 1.791162 9.991940 159 145 143
-3.795578 0.769345 8.494657 200 168 153
-5.391152 1.630914 12.079478 235 221 220
-4.114649 -1.640774 9.231355 37 36 42
-4.139837 -0.964894 9.311839 45 45 48
-3.951081 3.818368 8.887924 122 120 121
-3.960850 4.008081 8.911947 121 119 120
-3.972597 5.157296 8.982871 98 98 96
-3.711539 -3.294016 8.448694 138 131 125
-5.444664 -1.545798 12.410862 35 34 43
-5.444664 -1.545798 12.410862 35 34 43
-4.103713 -1.035465 9.410597 95 95 97
-4.009474 -2.521415 9.235101 22 28 29
-4.009474 -2.521415 9.235101 22 28 29
-3.547525 -2.073936 8.172263 30 33 39
-2.892101 -0.826662 6.681366 39 38 45
-3.852774 2.903971 8.936646 96 93 92
-3.852774 2.903971 8.936646 96 93 92
-3.943171 6.470469 9.149552 105 106 106
-3.859682 3.777575 8.984838 136 136 136
-4.578658 -1.822592 10.672791 47 48 52
-3.815219 2.851952 8.969642 41 41 41
-5.157460 0.353158 12.126474 93 74 73
-3.607121 -3.275201 8.482381 126 103 99
-5.399580 -0.656200 12.729355 242 202 185
-4.041229 -1.097679 9.552355 48 47 53
-3.854833 6.437383 9.129967 100 104 105
-2.806444 -1.518391 6.671034 80 80 82
-5.177593 -0.880647 12.316312 66 57 58
-3.811716 3.318663 9.071387 77 72 69
-2.795952 -1.842477 6.660240 72 71 76
-3.767970 3.812806 8.983545 82 80 83
-3.445859 -2.233479 8.226070 29 30 35
-3.973675 -1.029429 9.495250 100 98 99
-3.461243 -2.008863 8.277983 34 34 39
-3.755599 2.874405 8.991390 84 81 80
-3.763777 3.320206 9.017783 98 97 93
-3.763777 3.320206 9.017783 98 97 93
-3.759990 3.766883 9.032704 116 116 114
-3.910402 -1.079257 9.415375 49 48 54
-4.952372 1.646007 11.967365 125 115 113
-4.167343 1.930531 10.125041 171 152 145
-3.711427 3.651620 9.077322 67 58 53
-4.184998 1.992380 10.272399 146 119 109
-5.149542 -0.124699 12.685125 62 54 52
-3.380019 -1.684630 8.328560 30 32 44
-3.650514 4.049373 9.028554 154 154 154
-4.413554 -2.702906 10.921015 73 72 77
-3.806420 -2.718115 9.435022 31 30 35
-3.646086 3.781717 9.099078 139 137 138
-5.130243 1.392458 12.876784 108 93 89
-3.676060 -3.142370 9.274778 83 83 92
-3.623994 4.904941 9.243685 111 110 108
-4.910032 0.139995 12.614388 254 251 242
-4.910032 0.139995 12.614388 254 251 242
-3.670631 -2.325763 9.455660 68 71 76
-3.670631 -2.325763 9.455660 68 71 76
-4.264893 -1.354481 11.020281 29 27 40
-5.189913 0.644024 13.476313 78 67 65
-3.522581 3.631414 9.153942 112 110 111
-3.556179 5.180362 9.267126 103 103 103
-3.317639 -3.326552 8.712034 128 108 104
-3.498483 4.877142 9.255571 113 113 113
-3.637880 2.168785 9.656120 128 122 122
-3.466756 4.361382 9.251929 127 127 127
-3.483083 4.098437 9.322085 127 127 127
-3.448560 3.617898 9.252196 102 100 101
-3.430199 4.268424 9.272729 131 132 130
-2.464378 1.417987 6.713618 142 138 135
-3.457203 4.588527 9.455706 120 118 119
-3.429080 -1.007688 9.389472 96 92 92
-3.504668 -1.987767 9.707407 32 33 42
-3.492967 -1.943941 9.718279 76 77 81
-3.492967 -1.943941 9.718279 76 77 81
-3.370948 6.453891 9.442710 45 46 41
-3.139891 -3.370351 8.806378 126 107 101
-3.362556 5.473179 9.442457 111 111 109
-3.312052 4.382587 9.356570 82 82 82
-3.102821 -3.673815 8.782839 159 139 132
-3.102821 -3.673815 8.782839 159 139 132
-3.291613 4.072381 9.393411 146 146 146
-3.280919 4.564002 9.389491 43 43 42
-3.280919 4.564002 9.389491 43 43 42
-3.043179 -4.470651 8.726650 137 134 135
-3.411876 -1.290799 9.827422 36 36 44
-3.385913 -1.558338 9.783618 35 36 41
-3.248242 4.931496 9.541581 123 123 123
-3.576426 1.870944 10.516371 132 114 110
-3.595492 -1.370029 10.596407 51 50 58
-3.208942 5.463052 9.473395 90 89 87
-3.186617 4.383623 9.444958 134 134 133
-3.223274 5.549685 9.639566 92 91 87
-2.971962 -3.346101 8.890241 139 121 117
-3.242459 -2.753790 9.710199 32 32 41
-3.469134 2.097837 10.410146 122 112 111
-3.128470 4.518229 9.429650 130 130 130
-3.276477 2.234666 9.967335 54 54 54
-3.267773 2.096539 10.079945 138 128 126
-3.275877 -0.833395 10.240093 57 54 62
-3.275877 -0.833395 10.240093 57 54 62
-3.174642 -1.082117 10.001163 98 97 105
-3.074237 -3.069688 9.689313 34 32 43
-3.042512 5.372079 9.600476 106 105 103
-2.990024 4.379335 9.556072 86 80 80
-3.085977 -1.137111 9.868948 55 54 60
-2.965930 3.314468 9.485308 112 112 110
-2.991094 5.302658 9.647780 69 64 61
-2.961482 4.132114 9.614928 149 148 147
-2.794381 -3.498629 9.116182 130 115 112
-3.053727 2.195275 10.098598 73 73 74
-2.916534 3.925499 9.655680 147 147 147
-2.892954 6.590843 9.769730 125 125 125
-2.862243 3.850296 9.663700 114 109 106
-2.912820 4.509598 9.846530 130 127 126
-2.912820 4.509598 9.846530 130 127 126
-2.975813 2.075272 10.197359 132 130 129
-2.825048 -3.135669 9.733168 47 48 53
-2.819276 4.211462 9.708719 71 67 66
-2.839106 4.312241 9.800742 157 157 157
-2.791851 3.862562 9.695668 141 138 137
-2.777174 4.992715 9.787731 128 128 128
-2.854230 2.060206 10.330695 127 127 127
-2.854230 2.060206 10.330695 127 127 127
-2.703807 5.344613 9.863853 72 64 62
-2.827000 2.201353 10.387841 131 130 127
-2.827000 2.201353 10.387841 131 130 127
-2.673279 4.629834 9.866288 152 152 152
-2.684438 4.352690 9.938613 162 156 156
-2.695559 -0.821930 10.008647 152 152 154
-2.645641 4.257199 9.829875 40 38 39
-2.692943 -0.944492 10.083359 105 103 114
-2.670397 -0.344004 10.098468 92 91 96
-2.723606 0.816635 10.369047 75 71 72
-2.406787 -3.543690 9.327894 158 155 154
-2.394466 -3.579601 9.288950 164 163 161
-2.394466 -3.579601 9.288950 164 163 161
-2.572214 5.347095 10.017574 87 83 82
-2.645871 -0.076939 10.305528 253 253 251
-2.483854 -2.878620 9.784629 176 169 169
-2.494997 3.938360 9.962972 141 132 131
-2.554531 3.049036 10.382766 70 66 63
-2.587331 1.985923 10.523074 78 77 83
-2.577017 1.849670 10.489828 161 153 151
-2.412449 4.058837 9.940248 140 140 139
-2.439144 5.614983 10.074270 110 110 110
-2.397554 2.359126 9.918585 80 79 78
-2.404686 3.932729 10.052329 119 114 111
-2.404686 3.932729 10.052329 119 114 111
-2.412391 6.689629 10.124208 113 113 113
-2.357615 3.846270 10.001836 31 27 26
-2.391444 5.618585 10.186733 37 33 33
-2.489837 2.222161 10.761287 80 80 81
-2.323170 4.463652 10.097338 127 125 126
-2.310791 4.657110 10.112551 121 120 120
-2.280093 3.761348 9.999838 128 119 119
-2.349231 2.425436 10.425486 158 150 147
-2.250002 4.826357 10.140931 107 102 101
-2.224581 3.819932 10.073187 133 128 127
-2.189641 5.091566 10.219417 64 50 49
-2.276341 2.173035 10.693169 151 149 150
-2.145856 4.512382 10.112889 76 66 64
-2.139684 5.528738 10.115579 33 32 30
-2.128830 2.415934 10.117436 82 82 82
-2.120524 4.264184 10.216216 135 130 127
-2.100349 4.011771 10.236376 140 139 137
-1.962547 -3.505835 9.684490 127 109 105
-1.999173 4.316887 10.447369 132 131 129
-1.993473 4.314851 10.430631 135 134 132
-1.796712 -3.452757 9.656664 136 118 116
-1.902933 4.345535 10.344632 117 116 113
-1.889231 3.853615 10.361010 68 47 46
-1.949261 -2.037817 10.909932 253 253 251
-1.814408 5.012341 10.339779 76 66 64
-1.818233 4.132484 10.497430 125 120 117
-1.672899 -3.462483 9.751431 131 116 111
-1.678994 4.113970 10.440313 115 107 104
-1.486559 2.989531 10.709697 107 104 101
-1.441853 2.396326 10.764291 169 165 162
-1.429162 3.455203 10.756267 124 109 106
-1.401374 2.585433 10.770236 87 83 82
-1.345773 2.801873 10.747557 150 149 147
-1.370492 3.904310 10.994130 136 116 114
-1.342285 2.954349 10.803024 140 139 137
-1.332880 3.824776 10.858888 140 122 118
-1.348010 4.872667 10.996358 112 105 102
-1.288769 4.512375 10.978821 117 106 104
-1.372229 2.418827 11.768273 75 75 77
-1.248904 3.134489 10.911781 133 133 128
-1.252289 3.260527 10.961838 127 117 113
-1.220422 2.745715 10.856511 103 99 98
-1.233675 4.384474 11.061358 128 118 117
-1.222525 4.256127 10.996541 126 116 115
-1.160320 2.414454 11.000029 139 134 130
-1.147199 5.535955 11.139270 85 87 86
-1.117817 3.636994 11.092616 123 102 99
-0.935336 5.193578 9.345945 77 77 73
-0.935336 5.193578 9.345945 77 77 73
-0.924870 5.172372 9.381585 127 130 125
-0.545324 0.970012 5.621951 145 137 135
-0.835600 5.601233 9.534362 123 129 127
-0.933752 4.549922 11.227252 113 99 91
-0.739441 5.701522 9.431352 61 62 64
-0.875421 5.548584 11.587085 28 18 17
-0.851993 5.464685 11.311766 106 95 89
-0.859546 2.029898 11.883234 121 110 108
-0.787764 3.989199 11.287715 113 93 87
-0.787764 3.989199 11.287715 113 93 87
-0.633727 5.212287 9.404016 78 78 76
-0.744076 2.573483 11.317994 126 125 123
-0.744076 2.573483 11.317994 126 125 123
-0.613287 5.794922 9.433699 101 103 102
-0.637481 5.321841 9.809625 101 103 100
-0.580065 5.441762 9.316142 59 59 59
-0.587916 5.907156 9.790595 46 50 49
-0.421537 5.404572 9.010158 39 40 35
-0.529759 4.682755 11.716993 102 87 84
-0.530330 -0.222000 12.013988 100 100 99
-0.530330 -0.222000 12.013988 100 100 99
-0.443177 2.239793 12.392672 110 107 105
-0.328706 5.887914 9.664603 24 24 26
-0.305116 5.139565 9.469619 98 103 98
-0.389269 2.442899 12.297393 130 125 122
-0.387493 1.513701 12.383422 40 30 29
-0.355284 3.660506 11.799177 117 105 99
-0.307281 5.627622 10.823206 76 78 75
-0.318216 -2.040829 11.878137 115 110 109
-0.314452 1.901326 12.161948 133 122 118
-0.239038 -2.318891 11.545907 133 129 128
-0.243957 -0.732669 11.761874 145 137 135
-0.235039 3.739039 11.780494 115 101 99
-0.205863 -0.248241 11.776088 74 64 62
-0.181284 5.288743 10.682246 125 127 126
-0.150024 -2.421762 11.333509 151 137 136
-0.097409 5.199920 10.052562 152 153 148
-0.084162 2.467964 11.604778 145 137 134
-0.048692 -2.136910 11.088198 169 161 159
0.003987 -2.202646 10.926147 187 183 182
0.014697 2.373543 11.335775 149 141 137
0.014697 2.373543 11.335775 149 141 137
0.046771 1.835833 11.148905 145 116 105
0.066905 -0.142383 10.998177 182 155 144
0.075934 -1.887458 10.831371 128 110 107
0.085013 0.608317 11.007735 94 55 51
0.093509 -1.941297 10.802079 181 169 168
0.120558 -0.221382 11.043816 110 75 65
0.120558 -0.221382 11.043816 110 75 65
0.193074 -0.421845 10.694112 175 158 150
0.275953 3.616877 10.708196 122 111 109
0.273151 -2.907178 10.359114 153 133 124
0.302393 0.213580 10.427701 109 70 65
0.317318 0.262939 10.380592 184 144 134
0.320921 -2.643219 10.156896 108 79 70
0.326908 -1.133393 10.148180 197 179 166
0.336998 -2.259535 10.138784 174 155 149
0.353327 1.499341 10.354063 164 143 135
0.358418 0.970278 10.290930 174 146 135
0.371675 0.221825 10.256211 117 83 68
0.375948 -1.398868 10.207651 109 89 85
0.383914 0.673422 10.189149 178 153 141
0.410332 -1.010415 10.008689 201 180 169
0.428502 4.014220 10.305098 112 97 95
0.317808 6.022096 7.553232 99 100 95
0.465756 -0.506731 9.907006 191 163 151
0.358317 5.967722 7.418389 88 87 82
0.495957 4.410901 10.081371 105 102 97
0.508098 3.963496 10.044387 118 100 96
0.494546 -2.555058 9.693660 75 52 45
0.544913 1.402900 9.834785 107 69 64
0.557262 2.646789 9.860735 57 31 29
0.574567 1.871719 9.710240 167 153 150
0.596551 1.418161 9.734789 117 88 82
0.588274 -2.125718 9.511956 77 65 59
0.621410 4.733546 9.745553 45 35 33
0.613585 1.806748 9.640939 73 46 44
0.596644 -4.559127 9.155922 118 101 93
0.635534 2.231625 9.583719 151 113 104
0.632159 1.901764 9.518281 167 158 156
0.513750 5.968201 7.369871 80 81 72
0.674346 3.042524 9.609755 47 22 22
0.504668 5.935006 7.180460 90 91 83
0.687100 1.265657 9.417476 154 101 90
0.687100 1.265657 9.417476 154 101 90
0.750145 1.420789 9.219231 165 146 139
0.751605 -3.240606 9.013499 164 147 139
0.758519 1.222957 9.111794 167 146 141
0.801925 0.275682 9.067482 186 176 172
0.807711 1.405625 9.088599 63 48 48
0.816668 3.006413 9.151388 150 130 126
0.789306 -1.641661 8.677764 160 140 133
0.817698 -2.466284 8.877322 153 139 130
0.842073 -0.113643 8.977262 89 76 68
0.846506 0.261832 8.995357 82 66 63
0.845719 1.713774 8.945229 158 143 138
0.868308 3.446340 9.134391 129 118 116
0.868150 -0.504275 8.912440 92 74 66
0.942714 3.356321 8.767665 136 123 121
0.943406 -0.452106 8.594549 175 162 155
0.978818 3.758634 8.813874 34 24 22
0.955540 1.413302 8.618517 158 148 140
0.981893 1.806972 8.658530 157 149 144
1.004620 4.124389 8.672056 45 37 35
1.009002 4.153970 8.650161 114 104 102
1.013219 4.532164 8.674626 26 22 19
1.020878 1.429727 8.580267 152 145 135
1.041043 2.934595 8.610473 43 33 32
1.036765 1.013988 8.465666 72 61 59
1.043636 0.971549 8.408029 141 127 124
1.050595 0.636705 8.449247 70 59 58
1.057669 2.503377 8.471592 54 45 40
1.050293 1.388641 8.395487 51 41 39
1.032081 -1.570217 8.229266 69 58 52
1.088586 1.805277 8.439895 163 152 148
1.080537 0.269612 8.302751 61 51 49
1.088134 0.676602 8.313582 160 151 143
1.092672 1.394858 8.298885 60 51 49
1.109582 2.519640 8.383792 76 58 54
1.091720 -1.578658 8.245151 62 57 51
1.107012 2.186374 8.356280 139 121 111
1.102075 0.644929 8.282689 66 53 48
1.077979 -1.946740 8.085973 165 152 144
1.091257 -1.938402 8.146291 78 67 63
1.091257 -1.938402 8.146291 78 67 63
1.105982 0.972279 8.230129 149 134 127
1.102974 -0.827762 8.198815 101 85 77
1.102974 -0.827762 8.198815 101 85 77
1.120734 1.014035 8.284540 47 37 35
1.106126 -1.995116 8.053590 130 118 111
1.117459 -1.899632 8.052459 165 151 143
1.152351 4.447182 8.293473 28 26 27
1.194542 4.423259 8.176978 45 40 36
1.196498 3.050688 8.114499 124 109 102
1.195570 0.821481 7.978333 138 124 115
1.189296 -4.263205 7.622107 134 117 109
1.208238 -1.323211 7.703807 189 176 159
1.266321 4.772094 8.022504 20 18 25
1.261110 3.617873 7.991954 30 29 27
1.219108 -2.055710 7.679556 190 176 163
1.212675 -2.787056 7.594573 175 158 148
1.286406 4.392718 8.018560 29 29 23
1.263271 3.227907 7.878525 131 122 117
1.244818 -1.502096 7.721994 79 68 62
1.277089 1.702965 7.855472 128 113 106
1.276260 1.701182 7.834354 126 111 104
1.275637 0.251655 7.727304 159 142 131
1.256182 -1.192888 7.599743 183 167 152
1.263885 -1.527071 7.604522 166 146 135
1.308200 1.738524 7.831485 40 36 33
1.282419 -0.246252 7.646492 98 87 81
1.307973 1.423229 7.726299 76 65 61
1.264012 -2.851818 7.465727 174 161 150
1.351553 2.464965 7.873487 31 27 23
1.282966 -4.312047 7.474343 67 61 61
1.308559 -1.467085 7.612936 173 159 152
1.290222 -2.161812 7.489536 181 168 159
1.403520 3.670055 8.105054 22 19 15
1.286537 -2.891610 7.403347 161 152 144
1.320034 -1.859869 7.543083 64 59 56
1.320034 -1.859869 7.543083 64 59 56
1.367181 0.803670 7.792608 87 70 66
1.337794 -1.301641 7.545344 126 111 104
1.330263 -2.584490 7.463634 51 47 44
1.330263 -2.584490 7.463634 51 47 44
1.482659 3.945981 8.143391 73 68 64
1.356630 -2.538590 7.427854 155 148 140
1.464740 2.319585 7.989017 82 75 69
1.413756 -0.817001 7.698882 133 120 111
1.457539 1.554668 7.887314 77 66 62
1.382263 -2.589588 7.418098 125 116 109
1.466790 0.857466 7.849394 89 77 73
1.454995 -0.498047 7.729949 117 100 93
1.559889 4.076344 8.215637 35 31 30
1.407282 -2.815577 7.413529 130 123 117
1.468042 -1.201581 7.674257 132 121 112
1.389987 -2.912494 7.267894 77 69 64
1.376481 -2.931853 7.197719 158 138 129
1.469161 -1.488189 7.619113 35 33 21
1.473180 -1.915720 7.620232 135 122 114
1.606170 5.224872 8.288626 17 22 18
1.606170 5.224872 8.288626 17 22 18
1.555970 1.351770 7.950368 120 113 103
1.481825 -2.210172 7.541835 56 54 50
1.583601 1.775126 8.049974 134 127 122
1.603422 2.915188 8.100963 125 120 114
1.641274 4.055027 8.226542 34 30 27
1.613914 1.770778 8.042621 136 130 124
1.643621 2.520470 8.145602 34 30 29
1.536455 -2.260458 7.611640 144 132 120
1.585941 -1.927351 7.754707 144 131 123
1.647033 0.661730 8.016353 23 13 14
1.642426 -0.097456 7.939206 148 147 139
1.652280 -0.072780 7.968522 39 39 38
1.637218 -1.527438 7.825268 52 43 43
1.642664 -1.151728 7.819050 163 159 154
1.611632 -2.267224 7.662894 151 138 132
1.638263 -0.776569 7.786691 153 153 142
1.666070 -0.213295 7.863029 99 100 94
1.626570 -2.235615 7.641438 67 60 61
1.607795 -2.877654 7.477427 39 37 38
1.476773 -4.025809 6.831234 152 135 128
1.716618 -0.134493 7.786696 173 176 165
1.498469 -3.755626 6.779294 141 126 119
1.692243 -2.721714 7.602215 51 50 45
1.529739 -2.902825 6.865587 165 148 140
1.543843 -2.821240 6.716787 166 149 142
1.742908 -2.610760 7.529740 182 185 178
1.596850 -2.807040 6.672296 147 137 135
1.628380 -2.780813 6.510607 176 158 149
1.904157 -2.622929 7.521047 61 61 59
1.939608 -2.481361 7.530929 182 193 189
3.199363 -0.686134 6.324429 178 180 175
3.212161 -0.612141 6.340290 71 73 73
3.212161 -0.612141 6.340290 71 73 73
3.186145 -0.566487 6.253322 185 189 185
3.204660 -0.750509 6.268632 179 181 178
3.216299 -0.799465 6.271148 56 57 61
3.200993 -0.629967 6.239166 175 180 174
3.210415 -0.689252 6.250167 50 51 56
3.220512 -0.648393 6.166121 177 182 176
3.228719 -0.784577 6.151564 177 182 177
3.228719 -0.784577 6.151564 177 182 177
3.233127 -0.713749 6.145034 174 179 173
3.241091 -0.758441 6.089685 53 59 59
3.262805 -0.645114 6.035014 176 181 175
3.290795 -0.586858 6.006527 69 69 69
3.281637 -0.688820 5.975190 60 60 62
3.291479 -0.726049 5.912071 178 183 179
3.291479 -0.726049 5.912071 178 183 179
3.282433 -0.677146 5.852218 57 56 61
3.271754 -0.752481 5.807910 51 51 53
3.301837 1.003304 5.789978 97 98 93
3.349381 1.027315 5.726914 162 165 162
