ply
format ascii 1.0
element vertex 775
property float x
property float y
property float z
property uchar red
property uchar green
property uchar blue
end_header
-2.5446245670318604 0.7842294573783875 4.291770935058594 149 140 127
-2.5251317024230957 0.46759486198425293 4.292270660400391 118 112 98
-2.523266553878784 0.50864177942276 4.293920516967773 71 59 48
-2.518033027648926 0.5234912037849426 4.2950310707092285 161 158 150
-2.513684034347534 0.5691877007484436 4.349721908569336 115 107 92
-2.4747045040130615 0.7179622650146484 4.370978832244873 37 31 18
-2.324275255203247 -3.5491631031036377 4.266838073730469 81 72 65
-2.324275255203247 -3.5491631031036377 4.266838073730469 81 72 65
-2.052987575531006 0.8669369220733643 3.8992834091186523 28 18 20
-1.97706937789917 0.8626605272293091 3.909233570098877 128 118 122
-1.9677191972732544 0.847253143787384 3.900954008102417 148 136 151
-1.8966811895370483 -3.5095157623291016 4.079604148864746 209 209 206
-1.8853273391723633 -3.5067360401153564 4.0866923332214355 92 84 80
-1.8633143901824951 -3.535604476928711 4.065522193908691 248 249 251
-1.8304375410079956 -3.461310386657715 4.071723937988281 209 201 195
-1.7854350805282593 -3.440974473953247 4.038693428039551 246 245 243
-2.133096933364868 -1.1546993255615234 4.900570869445801 240 232 226
-2.1433799266815186 -0.726105272769928 4.940731048583984 202 196 184
-1.8988451957702637 0.48990321159362793 4.673386096954346 33 24 50
-1.8932760953903198 0.5046790838241577 4.687922954559326 38 33 57
-1.8643698692321777 0.4344783425331116 4.64213752746582 20 17 26
-1.8643698692321777 0.4344783425331116 4.64213752746582 20 17 26
-1.8450626134872437 0.34965780377388 4.609078407287598 165 157 144
-1.8258569240570068 0.35835564136505127 4.618031024932861 156 147 145
-1.8083045482635498 0.48617905378341675 4.668534755706787 66 54 70
-1.8096210956573486 0.6387291550636292 4.717429161071777 98 109 119
-1.5860458612442017 -0.6918203234672546 4.753337860107422 39 27 27
-1.5596331357955933 -1.5014833211898804 4.7747907638549805 125 54 76
-1.7117458581924438 -1.1020820140838623 5.241653919219971 119 120 128
-1.6084623336791992 -0.8491111993789673 4.946617126464844 157 149 155
-1.5630216598510742 -1.4705907106399536 4.823355197906494 40 11 29
-1.6867951154708862 -1.2301113605499268 5.2058610916137695 112 114 125
-1.6867951154708862 -1.2301113605499268 5.2058610916137695 112 114 125
-1.6857086420059204 -1.244408369064331 5.215585231781006 15 13 27
-1.667531967163086 -0.9472728967666626 5.1643385887146 156 153 162
-1.6918176412582397 -1.1687648296356201 5.26131534576416 20 18 29
-1.5753672122955322 -1.3820024728775024 4.907169342041016 34 12 27
-1.572303056716919 -1.3394559621810913 4.921926021575928 125 96 92
-1.5505419969558716 -1.454288363456726 4.8766608238220215 117 51 69
-1.6582659482955933 -1.2275829315185547 5.2273478507995605 70 70 83
-1.6640212535858154 -1.1374670267105103 5.2573418617248535 134 122 125
-1.640637993812561 -1.2764842510223389 5.184093475341797 81 72 83
-1.6335419416427612 -0.9037697315216064 5.191774368286133 46 19 28
-1.6403522491455078 -1.2066508531570435 5.216722011566162 16 16 25
-1.6331881284713745 -1.2300974130630493 5.208991527557373 26 24 35
-1.6210911273956299 -1.2806390523910522 5.179616928100586 33 21 31
-1.6466846466064453 -0.7965590357780457 5.263523578643799 126 101 107
-1.6248105764389038 -1.2149308919906616 5.218514919281006 137 125 134
-1.537157654762268 -1.352953314781189 4.939383029937744 26 12 27
-1.634516716003418 -0.7997522354125977 5.2872772216796875 35 16 22
-1.634516716003418 -0.7997522354125977 5.2872772216796875 35 16 22
-1.6146957874298096 -1.1645381450653076 5.233444690704346 140 137 140
-1.6221011877059937 -0.9762499332427979 5.258704662322998 151 144 151
-1.6154863834381104 -1.0119363069534302 5.245891571044922 122 121 127
-1.5222524404525757 -1.3672147989273071 4.944022178649902 109 54 75
-1.603697419166565 -0.916891872882843 5.245898246765137 45 47 56
-1.6006492376327515 -1.17769193649292 5.249339580535889 40 38 53
-1.5059319734573364 -1.3754531145095825 4.9595489501953125 37 13 27
-1.5968538522720337 -1.1384382247924805 5.259998321533203 138 145 163
-1.5814917087554932 -1.2186330556869507 5.216670513153076 64 33 37
-1.595515251159668 -0.9785994291305542 5.263879776000977 119 119 129
-1.5805584192276 -1.2597105503082275 5.217098236083984 138 123 124
-1.502204418182373 -1.4642958641052246 4.960263252258301 41 4 15
-1.502204418182373 -1.4642958641052246 4.960263252258301 41 4 15
-1.5977815389633179 -1.0556106567382812 5.282891273498535 142 141 146
-1.594194769859314 -1.1763179302215576 5.2720947265625 47 49 65
-1.5916332006454468 -1.162001371383667 5.265457630157471 112 115 125
-1.5838661193847656 -0.9325430989265442 5.2414870262146 141 140 143
-1.561145544052124 -1.2652387619018555 5.181717872619629 74 47 51
-1.4945858716964722 -1.448728322982788 4.96183443069458 132 69 86
-1.5019809007644653 -1.5125505924224854 5.004738807678223 145 104 122
-1.5723985433578491 -0.9595303535461426 5.247668743133545 137 137 143
-1.566920518875122 -0.8680351376533508 5.245121479034424 110 104 107
-1.5655804872512817 -0.9261051416397095 5.247825622558594 51 58 79
-1.5494071245193481 -0.7152906060218811 5.210092067718506 64 58 48
-1.573815941810608 -1.1275004148483276 5.2935285568237305 28 38 58
-1.5600172281265259 -1.0150747299194336 5.253349781036377 138 137 139
-1.5487338304519653 -1.2511708736419678 5.219554901123047 136 123 118
-1.5487338304519653 -1.2511708736419678 5.219554901123047 136 123 118
-1.5576446056365967 -1.155786156654358 5.252940654754639 119 120 127
-1.5576446056365967 -1.155786156654358 5.252940654754639 119 120 127
-1.5545907020568848 -0.9378235936164856 5.248598098754883 140 139 142
-1.4755820035934448 -1.5010048151016235 4.9961161613464355 38 19 31
-1.5523115396499634 -1.0161901712417603 5.261903285980225 149 149 153
-1.5454037189483643 -0.9120901226997375 5.242237091064453 144 143 149
-1.5600180625915527 -0.771776020526886 5.301833152770996 27 18 23
-1.5481563806533813 -0.8163945078849792 5.261322021484375 48 42 53
-1.5411652326583862 -0.9617722034454346 5.240725994110107 143 142 145
-1.4782371520996094 -1.344090223312378 5.03170919418335 23 8 19
-1.536681056022644 -0.8529002070426941 5.246837615966797 31 33 44
-1.5341469049453735 -0.8878524899482727 5.2422003746032715 47 46 59
-1.5309219360351562 -0.981352686882019 5.248804569244385 159 157 163
-1.5321424007415771 -0.8239413499832153 5.255586624145508 139 138 142
-1.4604774713516235 -1.5483934879302979 5.011592864990234 118 73 88
-1.5230990648269653 -0.906684935092926 5.246893882751465 146 146 149
-1.4547820091247559 -1.5102239847183228 5.013314723968506 117 70 88
-1.517578363418579 -0.9685803651809692 5.243030071258545 56 63 73
-1.523454189300537 -1.04983651638031 5.2799248695373535 153 153 154
-1.516337513923645 -0.8341324925422668 5.260421276092529 48 59 79
-1.5129419565200806 -0.8154697418212891 5.257266521453857 140 141 142
-1.234670877456665 0.5487254858016968 4.303694725036621 89 76 42
-1.5060265064239502 -0.8315211534500122 5.2547383308410645 140 140 146
-1.5032914876937866 -0.9115704894065857 5.248394966125488 30 35 53
-1.505757212638855 -0.8688876628875732 5.258277416229248 76 82 93
-1.4971013069152832 -0.9649835228919983 5.234476566314697 170 170 171
-1.4521186351776123 -1.3864983320236206 5.089615821838379 36 15 27
-1.513154149055481 -1.32929265499115 5.305671691894531 20 9 16
-1.4962729215621948 -0.8750050663948059 5.254772663116455 64 62 73
-1.546749472618103 -1.9109987020492554 5.433274269104004 29 30 48
-1.546749472618103 -1.9109987020492554 5.433274269104004 29 30 48
-1.4314359426498413 -1.5101248025894165 5.0434136390686035 82 44 61
-1.5390946865081787 -1.9268255233764648 5.43436336517334 77 75 96
-1.4267524480819702 -1.5250391960144043 5.044073581695557 63 29 46
-1.4854512214660645 -0.9263955354690552 5.251211166381836 66 77 96
-1.4854512214660645 -0.9263955354690552 5.251211166381836 66 77 96
-1.5211591720581055 -1.788737416267395 5.379143714904785 51 51 69
-1.438844919204712 -1.3627246618270874 5.088992118835449 24 14 24
-1.5362299680709839 -1.8870832920074463 5.437533855438232 30 29 49
-1.4433175325393677 -1.4904841184616089 5.10911226272583 28 5 18
-1.4433175325393677 -1.4904841184616089 5.10911226272583 28 5 18
-1.4837321043014526 -0.8555082678794861 5.254257678985596 162 163 165
-1.5313515663146973 -1.9037110805511475 5.4391303062438965 107 107 117
-1.5169376134872437 -1.804395318031311 5.3935065269470215 117 111 119
-1.480612874031067 -0.8027516007423401 5.266661643981934 52 67 86
-1.480612874031067 -0.8027516007423401 5.266661643981934 52 67 86
-1.5269347429275513 -1.922965168952942 5.446651935577393 28 30 58
-1.4331966638565063 -1.4457964897155762 5.115026473999023 33 16 28
-1.4331966638565063 -1.4457964897155762 5.115026473999023 33 16 28
-1.5247446298599243 -1.867661714553833 5.444746494293213 27 28 50
-1.4748485088348389 -0.836845874786377 5.267226696014404 56 71 88
-1.5082899332046509 -1.8163809776306152 5.390519618988037 35 32 56
-1.4255837202072144 -1.3993797302246094 5.095365524291992 135 109 116
-1.474824070930481 -0.9586819410324097 5.271770477294922 65 79 104
-1.4819612503051758 -1.0121138095855713 5.315085411071777 69 80 94
-1.5133872032165527 -1.9340667724609375 5.435413837432861 81 81 101
-1.464227318763733 -1.7656596899032593 5.2779622077941895 118 115 129
-1.5095127820968628 -1.8664116859436035 5.453752517700195 121 117 131
-1.5067951679229736 -1.1016502380371094 5.458482265472412 50 51 62
-1.4882588386535645 -1.730984091758728 5.400124549865723 33 35 56
-1.448844313621521 -0.7599372863769531 5.262434005737305 28 15 21
-1.4981894493103027 -1.9278215169906616 5.444633483886719 31 35 57
-1.4530168771743774 -0.8566901683807373 5.285389423370361 28 32 43
-1.4495681524276733 -0.7932442426681519 5.27595853805542 121 123 129
-1.4741448163986206 -1.6658762693405151 5.372124195098877 27 22 36
-1.4741448163986206 -1.6658762693405151 5.372124195098877 27 22 36
-1.4949357509613037 -1.9090145826339722 5.460770606994629 17 21 39
-1.4801874160766602 -1.263797402381897 5.4064741134643555 159 146 147
-1.4944329261779785 -1.860934853553772 5.463221549987793 28 29 48
-1.453617811203003 -0.9837950468063354 5.32102632522583 58 74 99
-1.453617811203003 -0.9837950468063354 5.32102632522583 58 74 99
-1.4390902519226074 -0.8159112930297852 5.276066303253174 64 78 100
-1.4894551038742065 -1.8896534442901611 5.468733787536621 24 26 47
-1.4314818382263184 -0.8031845688819885 5.281259059906006 157 159 159
-1.4072747230529785 -1.007337212562561 5.194570541381836 115 116 119
-1.443103313446045 -0.9513555765151978 5.333235263824463 164 162 164
-1.4634196758270264 -1.7526694536209106 5.415094375610352 115 113 128
-1.4529449939727783 -1.6631590127944946 5.376559257507324 33 34 53
-1.4746878147125244 -1.0756086111068726 5.468547344207764 113 111 114
-1.4733290672302246 -1.9176068305969238 5.4712300300598145 41 39 60
-1.4350099563598633 -0.9904012680053711 5.374145984649658 61 70 88
-1.4350099563598633 -0.9904012680053711 5.374145984649658 61 70 88
-1.3895078897476196 -1.404391884803772 5.213168621063232 145 141 146
-1.4645839929580688 -1.8707557916641235 5.497820854187012 109 109 119
-1.4645839929580688 -1.8707557916641235 5.497820854187012 109 109 119
-1.4324926137924194 -1.6477782726287842 5.378661632537842 18 23 39
-1.4053856134414673 -1.4533442258834839 5.283486366271973 25 23 40
-1.4053856134414673 -1.4533442258834839 5.283486366271973 25 23 40
-1.4053856134414673 -1.4533442258834839 5.283486366271973 25 23 40
-1.4055767059326172 -0.8275589346885681 5.286884784698486 38 40 49
-1.445803165435791 -1.730530023574829 5.443679332733154 28 30 51
-1.4283525943756104 -0.995238721370697 5.397414684295654 149 148 153
-1.4230271577835083 -0.9908177852630615 5.385842323303223 148 150 153
-1.445751667022705 -1.9175904989242554 5.477585315704346 108 107 121
-1.424085021018982 -1.6519063711166382 5.396694183349609 133 134 148
-1.424085021018982 -1.6519063711166382 5.396694183349609 133 134 148
-1.449755072593689 -1.866950511932373 5.501255989074707 19 22 39
-1.3891797065734863 -1.4659063816070557 5.278645038604736 119 119 126
-1.4195008277893066 -1.6328399181365967 5.394349098205566 34 31 48
-1.372268795967102 -1.3892873525619507 5.222273349761963 130 125 131
-1.417099952697754 -1.6140916347503662 5.3935160636901855 151 144 157
-1.4148293733596802 -0.9719336628913879 5.396854877471924 65 69 83
-1.438385248184204 -1.9036130905151367 5.488198280334473 33 35 56
-1.4513137340545654 -1.0972577333450317 5.538400650024414 105 97 103
-1.3786189556121826 -1.4564626216888428 5.283095359802246 27 27 48
-1.3786189556121826 -1.4564626216888428 5.283095359802246 27 27 48
-1.4206584692001343 -1.6999295949935913 5.446134567260742 139 136 145
-1.4206584692001343 -1.6999295949935913 5.446134567260742 139 136 145
-1.431957483291626 -1.886608362197876 5.49240779876709 117 117 129
-1.4085140228271484 -1.634952425956726 5.407381534576416 142 137 144
-1.3777592182159424 -1.4813965559005737 5.291749477386475 36 39 58
-1.3777592182159424 -1.4813965559005737 5.291749477386475 36 39 58
-1.4265669584274292 -1.9101279973983765 5.490227699279785 117 115 126
-1.4030652046203613 -0.9610588550567627 5.410073757171631 162 161 164
-1.3562721014022827 -1.3898519277572632 5.232892990112305 34 33 48
-1.3562721014022827 -1.3898519277572632 5.232892990112305 34 33 48
-1.4245762825012207 -1.8720293045043945 5.503164291381836 32 36 58
-1.401807188987732 -0.946419358253479 5.41947078704834 61 68 82
-1.401807188987732 -0.946419358253479 5.41947078704834 61 68 82
-1.4166107177734375 -1.7495994567871094 5.477238655090332 25 27 37
-1.420292854309082 -1.895835518836975 5.500583648681641 30 30 40
-1.364616870880127 -1.4681669473648071 5.285153388977051 138 137 146
-1.364616870880127 -1.4681669473648071 5.285153388977051 138 137 146
-1.4240095615386963 -1.8197084665298462 5.532313823699951 20 23 39
-1.4258774518966675 -1.0798091888427734 5.541815757751465 66 56 58
-1.3925153017044067 -0.9367801547050476 5.429818630218506 163 162 166
-1.4045823812484741 -1.881683588027954 5.478471279144287 103 101 115
-1.342560887336731 -1.2362886667251587 5.2390265464782715 129 120 124
-1.3973398208618164 -0.9088535308837891 5.458293914794922 53 72 96
-1.3522592782974243 -1.457000970840454 5.2864203453063965 29 30 49
-1.3522592782974243 -1.457000970840454 5.2864203453063965 29 30 49
-1.3392668962478638 -1.3892695903778076 5.237891674041748 157 155 164
-1.4117282629013062 -1.8424286842346191 5.523958206176758 19 24 45
-1.3528461456298828 -0.8183584809303284 5.294644355773926 146 147 153
-1.3381174802780151 -1.3741799592971802 5.238687038421631 21 18 29
-1.4067264795303345 -1.8651618957519531 5.516109943389893 34 37 52
-1.4067264795303345 -1.8651618957519531 5.516109943389893 34 37 52
-1.4241024255752563 -1.7174817323684692 5.587696552276611 50 55 69
-1.4055057764053345 -1.826514482498169 5.5311198234558105 130 129 136
-1.3413299322128296 -1.419834017753601 5.283742427825928 132 130 141
-1.3408622741699219 -1.4445152282714844 5.288285255432129 156 153 162
-1.3408622741699219 -1.4445152282714844 5.288285255432129 156 153 162
-1.4049351215362549 -1.7873809337615967 5.543994903564453 14 16 30
-1.3405574560165405 -1.4651867151260376 5.2899298667907715 146 145 155
-1.3826631307601929 -0.9094444513320923 5.464372634887695 155 154 159
-1.3950034379959106 -1.8082985877990723 5.532328128814697 36 38 51
-1.3937433958053589 -1.8347012996673584 5.537755012512207 27 26 46
-1.3937433958053589 -1.8347012996673584 5.537755012512207 27 26 46
-1.329393982887268 -1.4325944185256958 5.2929368019104 28 31 58
-1.3927642107009888 -1.7960206270217896 5.550891876220703 128 122 135
-1.3733668327331543 -1.2193453311920166 5.474602699279785 95 57 66
-1.3741035461425781 -0.9323573708534241 5.485499858856201 164 159 163
-1.3150417804718018 -1.418851375579834 5.289279460906982 147 144 156
-1.3150417804718018 -1.418851375579834 5.289279460906982 147 144 156
-1.3150417804718018 -1.418851375579834 5.289279460906982 147 144 156
-1.3160271644592285 -1.4415571689605713 5.297505855560303 151 150 157
-1.4210808277130127 -1.0763331651687622 5.72535514831543 155 147 145
-1.3557238578796387 -0.8078649640083313 5.460810661315918 115 115 125
-1.364834189414978 -0.9075607061386108 5.49973726272583 55 67 87
-1.3793946504592896 -1.8304182291030884 5.560697555541992 34 35 61
-1.3795044422149658 -1.7663612365722656 5.5757222175598145 137 138 146
-1.3790892362594604 -1.293831467628479 5.579524040222168 115 96 98
-1.398144245147705 -1.1093093156814575 5.66028356552124 138 128 124
-1.3984286785125732 -1.689231514930725 5.663271903991699 31 29 41
-1.3734791278839111 -1.815765619277954 5.571479797363281 128 128 141
-1.3734791278839111 -1.815765619277954 5.571479797363281 128 128 141
-1.3735086917877197 -1.7512749433517456 5.589933395385742 22 21 37
-1.3735086917877197 -1.7512749433517456 5.589933395385742 22 21 37
-1.2943634986877441 -1.3865851163864136 5.270687580108643 142 144 149
-1.3688409328460693 -1.8015894889831543 5.579601764678955 25 27 42
-1.3297064304351807 -1.4726752042770386 5.4204888343811035 96 100 113
-1.3836910724639893 -1.086055874824524 5.675046443939209 153 138 138
-1.2894881963729858 -1.4167616367340088 5.2900800704956055 155 155 165
-1.3948291540145874 0.545336127281189 5.731731414794922 147 138 121
-1.3677719831466675 -1.7010363340377808 5.622297286987305 27 26 40
-1.3677719831466675 -1.7010363340377808 5.622297286987305 27 26 40
-1.3752970695495605 -1.6727761030197144 5.657896041870117 89 89 100
-1.2809467315673828 -1.3891489505767822 5.281597137451172 27 32 51
-1.3581655025482178 -1.7988618612289429 5.606829643249512 38 41 59
-1.3581655025482178 -1.7988618612289429 5.606829643249512 38 41 59
-1.3461281061172485 -0.8897494077682495 5.571413516998291 42 48 63
-1.357008695602417 -1.7725465297698975 5.628111362457275 27 31 48
-1.357008695602417 -1.7725465297698975 5.628111362457275 27 31 48
-1.3594379425048828 -1.7597088813781738 5.641956806182861 114 113 123
-1.2688696384429932 -1.3929064273834229 5.29712438583374 158 161 167
-1.3455029726028442 -1.7945942878723145 5.627823352813721 24 26 47
-1.3663400411605835 -1.1142256259918213 5.722005844116211 157 148 151
-1.3663400411605835 -1.1142256259918213 5.722005844116211 157 148 151
-1.3665757179260254 -1.0395947694778442 5.731520175933838 61 66 77
-1.344075083732605 -1.7810224294662476 5.6401143074035645 128 127 134
-1.3516734838485718 -1.7415045499801636 5.675621032714844 40 38 60
-1.3516734838485718 -1.7415045499801636 5.675621032714844 40 38 60
-1.3555552959442139 -1.0819894075393677 5.696120262145996 140 128 130
-1.3611472845077515 -1.052648901939392 5.746890068054199 144 144 150
-1.3344318866729736 -1.1555001735687256 5.664981842041016 130 124 135
-1.3492597341537476 -1.0065858364105225 5.731452465057373 145 142 143
-1.3308225870132446 -1.7747588157653809 5.659050941467285 130 127 134
-1.330130934715271 -1.3169142007827759 5.656601905822754 120 105 106
-1.3401538133621216 -0.986873984336853 5.7317609786987305 162 158 160
-1.322371244430542 -1.3348667621612549 5.672800540924072 95 79 88
-1.24483060836792 -1.3618882894515991 5.344427108764648 34 25 30
-1.3144811391830444 -1.2385799884796143 5.676737308502197 56 68 92
-1.3240629434585571 -0.9923988580703735 5.7208147048950195 64 72 83
-1.3219095468521118 -1.1680524349212646 5.712836742401123 150 141 149
-1.3233426809310913 -1.055716633796692 5.745603561401367 148 146 148
-1.3131275177001953 -1.1927543878555298 5.701357364654541 145 142 153
-1.31873619556427 -1.0080009698867798 5.73209810256958 148 145 143
-1.31873619556427 -1.0080009698867798 5.73209810256958 148 145 143
-1.3194416761398315 -0.9676642417907715 5.738325595855713 147 147 149
-1.3076220750808716 -1.3233554363250732 5.686594486236572 130 115 123
-1.314672589302063 -0.8867003917694092 5.731019496917725 151 147 150
-1.314672589302063 -0.8867003917694092 5.731019496917725 151 147 150
-1.2992490530014038 -1.2919261455535889 5.676088809967041 143 130 135
-1.3086893558502197 -1.1340663433074951 5.719490051269531 126 125 130
-1.2974389791488647 -1.235702633857727 5.6836371421813965 141 135 143
-1.2974389791488647 -1.235702633857727 5.6836371421813965 141 135 143
-1.294800877571106 -1.1137374639511108 5.704165458679199 85 61 64
-1.2903493642807007 -1.311228632926941 5.695517539978027 86 59 61
-1.2865960597991943 -1.2790054082870483 5.689232349395752 60 33 51
-1.2964072227478027 -0.9651191234588623 5.76206636428833 153 152 154
-1.2758543491363525 -1.2909270524978638 5.688980579376221 136 121 126
-1.290541172027588 -0.9844282865524292 5.760255336761475 67 81 95
-1.290541172027588 -0.9844282865524292 5.760255336761475 67 81 95
-1.2828372716903687 -0.9756994843482971 5.762084484100342 74 81 98
-1.2638496160507202 -1.2963840961456299 5.703732967376709 85 55 60
-1.270976185798645 -1.1048845052719116 5.775796413421631 134 122 129
-1.270976185798645 -1.1048845052719116 5.775796413421631 134 122 129
-1.2719628810882568 -0.9761998057365417 5.789759635925293 151 148 149
-1.2674543857574463 -1.0019702911376953 5.794861793518066 66 69 80
-1.2511152029037476 -1.2523887157440186 5.748410224914551 52 62 89
-1.264442801475525 -0.8741608262062073 5.836438179016113 63 65 75
-1.2433218955993652 -1.306783676147461 5.758968830108643 90 57 63
-1.2289936542510986 -1.2863332033157349 5.745792865753174 146 136 136
-1.2289936542510986 -1.2863332033157349 5.745792865753174 146 136 136
-1.284487009048462 -1.0750824213027954 6.020942687988281 54 55 61
-1.2306499481201172 -0.8731124997138977 5.863443851470947 100 98 101
-1.236362338066101 -0.9640694856643677 5.8969550132751465 36 36 43
-1.2182990312576294 -0.9387957453727722 5.857839584350586 153 150 152
-1.2238017320632935 -0.9868955016136169 5.899934768676758 54 57 64
-1.2238017320632935 -0.9868955016136169 5.899934768676758 54 57 64
-1.2052674293518066 -1.300408124923706 5.858956336975098 152 139 142
-1.2052674293518066 -1.300408124923706 5.858956336975098 152 139 142
-1.1663548946380615 -1.6863347291946411 5.684658527374268 19 17 18
-1.2030677795410156 -1.3623907566070557 5.866525173187256 122 105 111
-1.199618935585022 -0.913735568523407 5.873290061950684 165 165 173
-1.2042862176895142 -0.8904972672462463 5.899749755859375 143 143 144
-1.175561547279358 -1.5051511526107788 5.784853935241699 8 4 8
-1.1555352210998535 -1.6623784303665161 5.693553447723389 24 22 26
-1.1555352210998535 -1.6623784303665161 5.693553447723389 24 22 26
-1.1782463788986206 -1.4984848499298096 5.809607028961182 14 9 13
-1.19819176197052 -0.8543194532394409 5.912583827972412 159 154 158
-1.1553250551223755 -1.6118370294570923 5.700835704803467 26 23 22
-1.18771493434906 -0.9288582801818848 5.8863019943237305 159 157 162
-1.1841857433319092 -1.3555821180343628 5.8842997550964355 132 120 128
-1.1896337270736694 -0.8788349032402039 5.914841175079346 59 88 124
-1.1878095865249634 -0.9909524321556091 5.924979209899902 56 77 104
-1.1878095865249634 -0.9909524321556091 5.924979209899902 56 77 104
-1.2018789052963257 -1.0666087865829468 6.009768486022949 37 41 52
-1.1703426837921143 -1.3304351568222046 5.884609222412109 142 131 132
-1.1703426837921143 -1.3304351568222046 5.884609222412109 142 131 132
-1.1271579265594482 -1.6173492670059204 5.73707914352417 20 13 17
-1.1582410335540771 -0.9532003402709961 5.905475616455078 70 77 90
-1.1220625638961792 -1.6900641918182373 5.7378997802734375 18 17 21
-1.1627970933914185 -1.0911732912063599 5.965903282165527 138 126 127
-1.1627970933914185 -1.0911732912063599 5.965903282165527 138 126 127
-1.1123828887939453 -1.6968363523483276 5.732343673706055 13 11 14
-1.1123828887939453 -1.6968363523483276 5.732343673706055 13 11 14
-1.1311790943145752 -1.4755464792251587 5.856092929840088 101 82 82
-1.1450116634368896 -1.0031960010528564 5.931260108947754 149 147 148
-1.144317388534546 -0.8833937644958496 5.953760623931885 68 76 89
-1.144317388534546 -0.8833937644958496 5.953760623931885 68 76 89
-1.1355020999908447 -0.889976441860199 5.953515529632568 78 84 98
-1.1112176179885864 -1.4810919761657715 5.824950695037842 17 8 13
-1.0916115045547485 -1.6896114349365234 5.744159698486328 88 68 69
-1.1300106048583984 -0.9221230745315552 5.959841728210449 159 156 158
-1.1247740983963013 -0.8678445816040039 5.945784568786621 167 165 170
-1.1292916536331177 -1.0923305749893188 6.047751426696777 82 77 82
-1.1166900396347046 -0.9722678661346436 5.98419713973999 54 79 110
-1.0714812278747559 -1.5906684398651123 5.791597366333008 102 81 80
-1.1044799089431763 -0.9933671951293945 6.009965896606445 162 161 159
-1.1422487497329712 -1.3249242305755615 6.216386795043945 51 69 100
-1.1422487497329712 -1.3249242305755615 6.216386795043945 51 69 100
-1.0909751653671265 -0.9220484495162964 6.001143932342529 152 151 153
-1.091447353363037 -0.9911097884178162 6.023600101470947 58 72 88
-1.091447353363037 -0.9911097884178162 6.023600101470947 58 72 88
-1.0872533321380615 -0.9437653422355652 6.004667282104492 64 76 97
-1.0841716527938843 -0.9023175239562988 5.999515056610107 62 79 113
-1.0915461778640747 -1.0816168785095215 6.10102653503418 153 151 155
-1.077767014503479 -1.3936225175857544 6.038693904876709 120 106 105
-1.0714869499206543 -0.8791276812553406 6.020754814147949 159 158 157
-1.0662912130355835 -0.9472486972808838 6.020450592041016 167 163 162
-1.0624233484268188 -0.9072362780570984 6.008342266082764 165 164 176
-1.0756957530975342 -1.1759434938430786 6.093801021575928 150 142 144
-1.0629312992095947 -0.9742988348007202 6.069813251495361 162 160 159
-1.0523887872695923 -1.385133981704712 6.031012058258057 137 127 129
-1.0302737951278687 -0.9197723269462585 6.027849197387695 167 165 167
-1.0302737951278687 -0.9197723269462585 6.027849197387695 167 165 167
-1.0344349145889282 -0.95780348777771 6.054427623748779 163 160 161
-1.0189120769500732 -1.313556432723999 6.029215335845947 89 58 63
-1.0037975311279297 -0.9452203512191772 6.080265998840332 165 168 162
-1.0097715854644775 -1.4231473207473755 6.138637065887451 112 79 86
-0.9988088011741638 -0.96156907081604 6.098695755004883 68 80 100
-1.002978801727295 -1.3300325870513916 6.2408905029296875 71 61 71
-0.9845921993255615 -0.9274765849113464 6.1360979080200195 162 161 157
-0.9859617948532104 -1.460620641708374 6.203000068664551 25 12 17
-0.974918007850647 -0.9584277868270874 6.138531684875488 64 82 105
-0.989098846912384 -1.339400291442871 6.234710693359375 126 108 111
-0.9817363023757935 -0.9905286431312561 6.193182945251465 140 136 144
-0.9816293120384216 -1.3266433477401733 6.234194755554199 44 31 30
-0.9779806137084961 -1.3598392009735107 6.213260173797607 138 115 123
-0.9630763530731201 -0.9341445565223694 6.133150100708008 67 81 108
-0.9578635096549988 -0.8960931897163391 6.122963905334473 154 153 159
-0.9648228287696838 -1.3814541101455688 6.202268123626709 138 125 126
-0.9557069540023804 -1.4548096656799316 6.209848403930664 22 13 16
-0.9480049014091492 -1.5695103406906128 6.219675540924072 99 80 77
-0.9480049014091492 -1.5695103406906128 6.219675540924072 99 80 77
-0.9136275053024292 -0.8717402219772339 6.160431385040283 25 17 18
-0.9141775369644165 -0.8934307098388672 6.170680999755859 166 162 162
-0.8652660846710205 -1.4647746086120605 6.190698146820068 29 19 18
-0.8624716401100159 -0.941645085811615 6.260805606842041 42 27 24
-0.8112682104110718 -2.1308727264404297 6.206450939178467 49 39 45
-0.8112682104110718 -2.1308727264404297 6.206450939178467 49 39 45
-0.7924710512161255 -2.109318971633911 6.134232521057129 48 36 40
-0.7924710512161255 -2.109318971633911 6.134232521057129 48 36 40
-0.8089562654495239 -0.8652472496032715 6.34746789932251 32 19 17
-0.8089562654495239 -0.8652472496032715 6.34746789932251 32 19 17
-0.4740596115589142 2.4682869911193848 3.7447800636291504 89 84 79
-0.44718825817108154 2.466095447540283 3.902247905731201 88 81 71
-0.2956174910068512 2.4876132011413574 3.6766958236694336 55 50 40
-0.1453149914741516 2.4863767623901367 3.813732147216797 118 112 98
-0.16523705422878265 1.5264873504638672 4.462234020233154 153 148 106
-0.14885126054286957 1.4499762058258057 4.523972988128662 81 80 48
-0.13605089485645294 1.692483901977539 4.457822322845459 8 6 2
-0.14470462501049042 1.3799095153808594 4.885993480682373 82 69 49
-0.11957897990942001 1.621654987335205 4.468267440795898 11 6 6
-0.11957897990942001 1.621654987335205 4.468267440795898 11 6 6
-0.09907112270593643 2.4934613704681396 3.7792556285858154 112 106 92
-0.10713677108287811 1.3808938264846802 4.917428970336914 134 124 91
-0.08127783983945847 2.5112574100494385 3.6086325645446777 69 61 50
-0.09803323447704315 1.3971288204193115 4.643186092376709 178 166 142
-0.08390036970376968 1.4045424461364746 4.679730415344238 168 158 135
-0.06912138313055038 1.5416901111602783 4.537729740142822 13 13 10
-0.040026456117630005 2.51010799407959 3.6058106422424316 116 108 99
-0.0452955886721611 1.4119524955749512 4.684131622314453 34 37 20
-0.040626753121614456 1.4409961700439453 4.676031112670898 135 123 106
-0.040626753121614456 1.4409961700439453 4.676031112670898 135 123 106
-0.03477153182029724 1.4554661512374878 4.67635440826416 26 23 11
-0.026567896828055382 1.4053370952606201 4.769900321960449 42 34 21
-0.012877502478659153 1.4242323637008667 4.716306209564209 106 104 90
-0.012877502478659153 1.4242323637008667 4.716306209564209 106 104 90
-0.002491920255124569 1.4538248777389526 4.720146656036377 25 23 13
-0.00039098638808354735 1.3987212181091309 4.799925327301025 169 157 142
0.01306211482733488 1.4416216611862183 4.771518230438232 41 36 25
0.03317650035023689 1.4091050624847412 4.8209967613220215 164 161 131
0.03317650035023689 1.4091050624847412 4.8209967613220215 164 161 131
0.04936646670103073 1.6178828477859497 4.433610439300537 43 51 63
0.0687677264213562 2.5036261081695557 3.8605895042419434 141 133 120
0.06470078229904175 2.5252089500427246 3.6065468788146973 122 115 100
0.06470078229904175 2.5252089500427246 3.6065468788146973 122 115 100
0.07563214004039764 2.51595401763916 3.6499600410461426 118 110 97
0.10010575503110886 2.5065126419067383 3.8683063983917236 90 84 67
0.13403691351413727 1.4140684604644775 4.9899163246154785 114 106 90
0.09498699754476547 2.521190643310547 3.5773231983184814 78 71 48
0.13004480302333832 1.4371246099472046 4.512259483337402 161 107 115
0.10183456540107727 2.527708053588867 3.550786018371582 72 66 50
0.10973984003067017 2.5244219303131104 3.582282066345215 121 115 103
0.10994312912225723 2.5356040000915527 3.5464158058166504 128 123 109
0.14106997847557068 1.6276816129684448 4.356657028198242 78 93 90
0.16905368864536285 1.4070857763290405 5.033900260925293 26 22 12
0.11886543780565262 2.5241856575012207 3.568870782852173 54 48 30
0.1581060290336609 1.4330228567123413 4.62264347076416 153 116 120
0.1581060290336609 1.4330228567123413 4.62264347076416 153 116 120
0.14830228686332703 1.6189744472503662 4.357145309448242 36 54 56
0.12737007439136505 2.5393364429473877 3.5768790245056152 130 126 112
0.15915347635746002 1.6212903261184692 4.36346435546875 79 101 94
0.13757355511188507 2.5259485244750977 3.6169867515563965 119 112 97
0.17264799773693085 2.502101182937622 3.99771785736084 144 136 124
0.18842989206314087 2.5131399631500244 3.877443790435791 148 144 133
0.19716772437095642 2.5109992027282715 3.8846497535705566 82 75 58
0.20223216712474823 2.5184319019317627 3.7813074588775635 116 109 93
0.20978344976902008 2.5393640995025635 3.519578456878662 85 78 62
0.22999122738838196 2.536785364151001 3.5675907135009766 131 124 108
0.29566138982772827 1.5722843408584595 4.356472492218018 163 87 92
0.26361361145973206 2.525326728820801 3.8126816749572754 131 123 112
0.27884641289711 2.511862277984619 3.955508232116699 141 133 120
0.26993879675865173 2.5249874591827393 3.7935500144958496 64 57 38
0.2855609059333801 2.5134105682373047 3.9469053745269775 91 84 67
0.3160962164402008 1.6132079362869263 4.320401191711426 181 177 121
0.3200603723526001 1.515220046043396 4.360735893249512 48 57 50
0.3223186731338501 1.4997230768203735 4.372964859008789 97 109 96
0.29069238901138306 2.5219674110412598 3.819990873336792 70 64 50
0.3179747760295868 2.5105233192443848 4.032365798950195 149 141 128
0.3179747760295868 2.5105233192443848 4.032365798950195 149 141 128
0.3179747760295868 2.5105233192443848 4.032365798950195 149 141 128
0.3904463052749634 1.452582597732544 4.880745887756348 190 175 145
0.3904463052749634 1.452582597732544 4.880745887756348 190 175 145
0.35300442576408386 1.5814268589019775 4.326382637023926 65 53 69
0.35926151275634766 1.5289167165756226 4.34459114074707 149 144 99
0.35926151275634766 1.5289167165756226 4.34459114074707 149 144 99
0.35926151275634766 1.5289167165756226 4.34459114074707 149 144 99
0.3724587857723236 1.4965074062347412 4.36222505569458 92 105 106
0.33104950189590454 2.518369197845459 3.8252766132354736 84 77 58
0.37718865275382996 1.5520209074020386 4.341014385223389 62 73 69
0.3475632071495056 2.5191116333007812 3.9019081592559814 92 83 69
0.3627510368824005 2.5135109424591064 4.011886119842529 160 152 139
0.3174813687801361 2.5466482639312744 3.5508010387420654 79 71 58
0.3214230239391327 2.547407388687134 3.572176694869995 130 122 109
0.4185335636138916 1.5486871004104614 4.336353778839111 33 45 59
0.3900875747203827 2.5289535522460938 3.8312511444091797 142 136 122
0.3624754250049591 2.559544086456299 3.4798381328582764 88 81 66
0.43959110975265503 2.520881175994873 4.042185306549072 107 99 86
0.4619588553905487 2.522423267364502 4.086477279663086 151 145 141
0.5192503929138184 1.3258768320083618 4.5199294090271 152 157 156
0.5181295275688171 1.3361231088638306 4.509540557861328 26 34 42
0.4925690293312073 1.651099681854248 4.261376857757568 53 71 95
0.42666640877723694 2.5426957607269287 3.668063163757324 129 120 110
0.5353242754936218 1.3463128805160522 4.491123199462891 30 35 42
0.5353242754936218 1.3463128805160522 4.491123199462891 30 35 42
0.5003246665000916 2.516871929168701 4.130218505859375 98 91 73
0.5401381254196167 1.3227640390396118 4.487301349639893 31 41 40
0.5406620502471924 1.3785918951034546 4.473251819610596 46 54 64
0.523809552192688 1.5751429796218872 4.290743350982666 44 55 61
0.554475724697113 1.3242367506027222 4.4961419105529785 74 89 93
0.554475724697113 1.3242367506027222 4.4961419105529785 74 89 93
0.5351791381835938 1.5906665325164795 4.284337520599365 58 68 73
0.4897831380367279 2.5325753688812256 3.8672046661376953 88 81 65
0.5658795237541199 1.302054524421692 4.497070789337158 90 100 108
0.5658795237541199 1.302054524421692 4.497070789337158 90 100 108
0.5758822560310364 1.2866089344024658 4.5066704750061035 88 97 108
0.4827529489994049 2.5476856231689453 3.6932895183563232 134 127 110
0.5273207426071167 2.5296072959899902 3.945202350616455 107 100 82
0.5705428123474121 1.6502348184585571 4.230749130249023 8 20 38
0.5024666786193848 2.557192802429199 3.5822854042053223 131 123 106
0.5832115411758423 2.531172037124634 4.099889755249023 144 136 123
0.5856884121894836 2.5363800525665283 3.9348795413970947 140 133 117
0.5575444102287292 2.5526909828186035 3.727126359939575 144 138 125
0.6225450038909912 2.5308074951171875 4.037453651428223 149 141 128
0.6902496814727783 1.39104425907135 4.371207237243652 64 78 86
0.7021353244781494 1.4089336395263672 4.362939834594727 11 16 21
0.7109255194664001 1.384509563446045 4.371142387390137 46 56 56
0.628250241279602 2.551462411880493 3.7891438007354736 147 137 121
0.7364548444747925 1.347559928894043 4.434331893920898 94 110 120
0.7336285710334778 1.378728985786438 4.360721588134766 156 163 162
0.7309629917144775 1.410961389541626 4.342479228973389 24 33 41
0.739923357963562 1.3484379053115845 4.3921051025390625 54 64 66
0.73490971326828 1.4122567176818848 4.360197067260742 35 51 59
0.7462981939315796 1.4052671194076538 4.3466410636901855 145 154 155
0.7889812588691711 1.295048713684082 4.541277885437012 37 39 44
0.7432639002799988 1.5409691333770752 4.277032852172852 49 70 97
0.768806517124176 1.3591711521148682 4.416680812835693 176 181 180
0.6772858500480652 2.5532920360565186 3.8334827423095703 142 133 118
0.7607665657997131 1.417385220527649 4.327154159545898 52 68 70
0.7762231230735779 1.3162662982940674 4.403051853179932 28 32 36
0.7914345264434814 1.3521240949630737 4.407270908355713 61 80 85
0.6950139403343201 2.5539562702178955 3.835254430770874 141 134 116
0.8048754930496216 1.344940423965454 4.419925212860107 45 61 60
1.4954686164855957 -3.0222597122192383 8.078280448913574 31 30 26
1.4862741231918335 -2.8843634128570557 7.871471405029297 138 132 117
0.7990649342536926 1.6480787992477417 4.1638312339782715 169 103 106
0.9010699987411499 1.3309447765350342 4.607728958129883 87 101 108
0.757330596446991 2.5614542961120605 3.8249785900115967 146 139 121
0.8220067024230957 1.5733283758163452 4.177148818969727 86 91 80
0.9008470177650452 1.35258150100708 4.563516616821289 149 153 155
0.9008470177650452 1.35258150100708 4.563516616821289 149 153 155
0.8266850113868713 1.6015033721923828 4.1759352684021 143 139 108
0.7446142435073853 2.5666420459747314 3.7405402660369873 137 128 111
1.609060287475586 -2.9832711219787598 8.077268600463867 63 56 49
0.8333104252815247 1.6431633234024048 4.1724114418029785 40 41 43
0.9105736613273621 1.3555688858032227 4.539963245391846 65 83 88
0.8679215312004089 1.4052785634994507 4.30837869644165 167 170 168
0.9330500364303589 1.3520562648773193 4.5992279052734375 172 174 172
0.8456671833992004 1.583768367767334 4.172539710998535 129 105 95
0.8160089254379272 2.554851531982422 3.964663505554199 147 140 124
0.7589071393013 2.5708506107330322 3.691831588745117 137 128 111
0.7918285131454468 2.5602850914001465 3.8242645263671875 94 87 69
0.8583767414093018 2.542904853820801 4.112624168395996 119 111 97
0.8661230802536011 1.657172441482544 4.146151542663574 163 88 91
0.8721953630447388 2.5486953258514404 4.11969518661499 59 51 33
0.8735751509666443 1.6076492071151733 4.166757583618164 25 36 35
0.7680550217628479 2.579355478286743 3.6355247497558594 155 148 136
0.8596442341804504 2.557678461074829 4.00262975692749 147 139 126
1.7204594612121582 -3.000953435897827 7.96958065032959 90 80 80
0.9034547805786133 2.5506751537323 4.074695587158203 132 124 113
1.7539575099945068 -3.147792339324951 7.892922401428223 160 153 134
0.8864655494689941 2.56223726272583 3.958343744277954 102 95 77
1.062524676322937 1.3380992412567139 4.718106746673584 32 43 44
1.8485610485076904 -3.1401073932647705 7.991999626159668 157 148 131
1.8489817380905151 -3.111856698989868 7.946226119995117 153 143 133
0.9622363448143005 2.5575501918792725 4.118442535400391 79 72 56
0.9453597068786621 2.558770179748535 4.0210161209106445 80 73 55
0.8953707814216614 2.5751278400421143 3.809713363647461 101 93 77
1.1562395095825195 -2.9339566230773926 4.864346504211426 123 118 105
1.151047945022583 -2.9190592765808105 4.814713001251221 33 27 24
0.8688032031059265 2.5887293815612793 3.6406638622283936 151 141 130
0.9757883548736572 1.737622618675232 4.058780193328857 4 1 6
0.9790567755699158 1.7275699377059937 4.065347194671631 63 76 82
0.984720766544342 2.560417413711548 4.024821758270264 133 124 114
0.9745959043502808 2.567074775695801 3.9748430252075195 147 141 123
0.9958852529525757 2.560452699661255 4.049240589141846 135 128 118
1.895809531211853 -3.058526039123535 7.716862678527832 36 29 20
0.9378898739814758 2.5791397094726562 3.8085250854492188 148 141 125
0.9378898739814758 2.5791397094726562 3.8085250854492188 148 141 125
1.1566704511642456 -2.8662328720092773 4.687011241912842 197 196 192
1.8944714069366455 -3.0342512130737305 7.672765731811523 44 37 33
1.1020030975341797 1.380131483078003 4.46221923828125 87 100 107
1.1569420099258423 -2.8622748851776123 4.5690436363220215 190 186 177
1.1725482940673828 -2.8839969635009766 4.585631370544434 189 188 184
0.9564527273178101 2.587730884552002 3.7360875606536865 150 142 131
1.228440523147583 -2.881068229675293 4.672933101654053 201 201 201
1.2300022840499878 1.3635952472686768 4.6505608558654785 22 28 34
1.2464460134506226 1.3557742834091187 4.7022271156311035 161 162 159
1.0124058723449707 2.5828239917755127 3.807310104370117 152 149 134
1.0775413513183594 2.578998327255249 3.9671192169189453 151 146 135
1.1073743104934692 -2.7725179195404053 4.0590105056762695 120 113 104
1.1073743104934692 -2.7725179195404053 4.0590105056762695 120 113 104
1.0014296770095825 2.596968412399292 3.6717982292175293 99 87 69
1.09965980052948 -2.7631888389587402 3.94842267036438 109 101 92
1.0886040925979614 -2.764857530593872 3.869652509689331 72 66 56
1.0836423635482788 -2.7414257526397705 3.8326592445373535 64 57 49
1.1673593521118164 2.572057008743286 4.0994462966918945 29 23 12
1.134513020515442 -2.7754931449890137 3.985618829727173 72 64 53
1.0706151723861694 -2.7442100048065186 3.7666454315185547 54 50 41
1.0595777034759521 -2.7329587936401367 3.72226881980896 93 88 77
1.1135203838348389 2.5878396034240723 3.8344810009002686 100 93 75
1.0510525703430176 2.6096928119659424 3.6355693340301514 139 132 116
1.2827256917953491 -2.793158769607544 4.384700298309326 79 75 65
1.2594693899154663 -2.786613941192627 4.296602725982666 68 66 57
1.3211233615875244 -2.799689769744873 4.451193809509277 78 80 77
1.6429266929626465 1.4842225313186646 5.403087139129639 35 34 42
1.2166520357131958 1.7304261922836304 4.026191234588623 43 59 82
1.176370620727539 2.5934195518493652 3.861379861831665 162 155 140
1.3582831621170044 -2.804481029510498 4.439625263214111 49 49 44
1.1154450178146362 2.6147751808166504 3.6427085399627686 146 139 122
1.3822970390319824 -2.8319809436798096 4.489612102508545 57 58 52
1.660724401473999 1.509033203125 5.337322235107422 57 51 58
1.2337843179702759 2.591069221496582 3.954493999481201 139 134 116
2.3576467037200928 -2.962454319000244 7.399873733520508 44 34 32
1.1668174266815186 2.6172022819519043 3.672452926635742 131 124 106
1.4608701467514038 1.3971364498138428 4.5913825035095215 8 18 18
1.2931700944900513 2.596097469329834 3.977489471435547 136 131 115
1.236374020576477 2.607821226119995 3.789395570755005 90 83 67
1.7374482154846191 1.5270594358444214 5.293914318084717 72 65 72
1.2681074142456055 2.6090610027313232 3.808598279953003 146 138 124
1.3023995161056519 -2.712646722793579 3.9061543941497803 108 100 88
1.2717607021331787 2.614370107650757 3.8016300201416016 79 72 54
1.5808348655700684 -2.839388370513916 4.676349639892578 30 29 16
1.2777676582336426 2.614654779434204 3.7720096111297607 156 149 133
1.3127268552780151 2.6084678173065186 3.869277000427246 97 90 70
1.3604786396026611 2.602668523788452 3.9726998805999756 126 118 107
1.258272409439087 2.632453441619873 3.652078628540039 150 142 128
1.2704122066497803 2.6302990913391113 3.666121482849121 145 138 122
1.2904330492019653 2.636014699935913 3.6523845195770264 137 130 114
1.4458554983139038 2.5990734100341797 4.0606465339660645 81 73 59
1.7182687520980835 -2.909414291381836 4.807620048522949 72 63 54
2.6530439853668213 -2.8933515548706055 7.424680233001709 61 55 54
1.4814904928207397 2.6391968727111816 3.812344789505005 92 84 63
1.8062223196029663 1.5757137537002563 4.626560688018799 79 91 88
1.999982237815857 1.5598390102386475 5.09946346282959 45 59 59
1.480501413345337 2.641728401184082 3.753328800201416 101 94 75
2.090949058532715 1.5530071258544922 5.253146648406982 57 51 56
1.7587666511535645 1.5704694986343384 4.439426422119141 42 43 42
1.9873486757278442 1.564895749092102 4.9956488609313965 44 57 60
2.064729690551758 1.5540872812271118 5.177956581115723 170 149 125
2.0242011547088623 1.5601104497909546 5.046900272369385 57 63 66
2.022099018096924 1.5731865167617798 4.991540908813477 46 53 62
2.171957015991211 1.5456985235214233 5.342330455780029 125 89 93
2.1658873558044434 1.5531014204025269 5.3016438484191895 136 95 100
1.6242212057113647 2.6335995197296143 3.9624087810516357 81 75 55
1.5809317827224731 2.647146463394165 3.85874605178833 98 91 73
2.018575429916382 1.5757852792739868 4.897160530090332 67 56 68
2.1820032596588135 1.558264136314392 5.2729949951171875 130 92 91
1.9058865308761597 1.5786943435668945 4.598640441894531 41 49 64
1.5585790872573853 2.6566405296325684 3.7369978427886963 146 139 126
2.265277624130249 1.5606194734573364 5.376019477844238 126 98 102
1.8743126392364502 1.5869722366333008 4.4553046226501465 146 88 100
1.8743126392364502 1.5869722366333008 4.4553046226501465 146 88 100
1.6379817724227905 2.650564670562744 3.851959466934204 135 128 110
2.039752721786499 1.561610460281372 4.764612674713135 186 178 126
2.0927271842956543 1.5478440523147583 4.842813491821289 55 58 69
2.0201714038848877 1.5704151391983032 4.678699016571045 49 61 67
2.1745002269744873 1.564077615737915 4.992801666259766 92 57 60
1.7430247068405151 2.645512580871582 4.003440856933594 20 13 7
2.2617921829223633 1.5601447820663452 5.172698020935059 62 69 81
1.7151057720184326 2.6480720043182373 3.92097544670105 158 151 134
1.7209218740463257 2.645970106124878 3.931882858276367 81 73 54
1.9736948013305664 1.5754954814910889 4.5155839920043945 181 174 135
2.1350979804992676 1.5595725774765015 4.872146129608154 196 178 148
2.068124294281006 1.581385850906372 4.689932823181152 154 152 137
2.068124294281006 1.581385850906372 4.689932823181152 154 152 137
1.666020154953003 2.66282057762146 3.7750673294067383 139 132 113
1.644288420677185 2.6694281101226807 3.726128101348877 159 152 136
1.6400063037872314 2.671481132507324 3.7108588218688965 87 81 60
2.319812297821045 1.551387071609497 5.215980052947998 89 92 76
2.2714836597442627 1.5571584701538086 5.076961517333984 58 62 71
2.1190624237060547 1.5766352415084839 4.745152473449707 50 60 68
1.7015563249588013 2.6656460762023926 3.8030636310577393 148 144 125
2.0996899604797363 1.5831812620162964 4.669445991516113 45 63 67
2.2060673236846924 1.5546460151672363 4.884286403656006 52 39 46
1.7257091999053955 2.667741298675537 3.8189597129821777 135 129 112
1.6979447603225708 2.668966770172119 3.7607452869415283 145 136 119
2.059513807296753 1.5825084447860718 4.535645961761475 74 63 69
2.149500846862793 1.5833418369293213 4.713982582092285 56 60 64
2.1050071716308594 1.5879651308059692 4.6137003898620605 109 76 58
2.0634520053863525 1.5888183116912842 4.522112846374512 51 53 69
1.7857317924499512 2.6621220111846924 3.9038639068603516 125 118 102
1.7268959283828735 2.674670934677124 3.7693305015563965 146 139 121
2.0848186016082764 1.586137294769287 4.536200046539307 165 96 89
2.0600268840789795 1.5931971073150635 4.4801201820373535 156 105 97
2.133418560028076 1.5839530229568481 4.603228569030762 75 46 54
2.133418560028076 1.5839530229568481 4.603228569030762 75 46 54
2.377969980239868 1.556470513343811 5.1128668785095215 59 57 63
2.440776824951172 1.5580312013626099 5.239359378814697 71 71 59
1.768275260925293 2.6828110218048096 3.768183708190918 142 135 117
2.2371089458465576 1.6128722429275513 4.731954574584961 149 85 80
2.2371089458465576 1.6128722429275513 4.731954574584961 149 85 80
2.1330173015594482 1.589703917503357 4.515497207641602 165 94 88
2.213989496231079 1.577491283416748 4.66975212097168 155 95 85
1.7948925495147705 2.678799629211426 3.7785515785217285 149 140 123
1.840000867843628 2.671703338623047 3.866478204727173 142 135 117
2.340045213699341 1.5666624307632446 4.883012294769287 98 99 95
2.638453245162964 1.5614396333694458 5.4747467041015625 153 150 135
2.578979730606079 1.5600050687789917 5.323690414428711 123 84 83
2.4015920162200928 1.5500706434249878 4.950475692749023 49 51 67
2.581437349319458 1.5623235702514648 5.287384033203125 48 41 42
1.881800651550293 2.6895313262939453 3.8037452697753906 146 139 119
1.881800651550293 2.6895313262939453 3.8037452697753906 146 139 119
2.3571691513061523 -2.8736412525177 4.758136749267578 43 39 27
2.3571691513061523 -2.8736412525177 4.758136749267578 43 39 27
2.364802837371826 -2.8947055339813232 4.762350559234619 151 142 125
2.2822623252868652 1.5935512781143188 4.594988822937012 69 61 70
2.2779650688171387 1.6001099348068237 4.57668924331665 59 59 67
2.10381817817688 2.6537342071533203 4.204710006713867 114 107 91
2.290881633758545 1.601897954940796 4.552557468414307 56 41 54
2.525808811187744 1.558530569076538 5.003157615661621 71 64 71
2.525808811187744 1.558530569076538 5.003157615661621 71 64 71
2.485954761505127 1.5549075603485107 4.909839630126953 61 49 58
2.2748324871063232 1.6258628368377686 4.474318981170654 51 46 60
2.3586478233337402 1.599740982055664 4.632388114929199 155 85 73
2.3586478233337402 1.599740982055664 4.632388114929199 155 85 73
1.9592833518981934 2.693230390548706 3.8407375812530518 136 129 114
1.9592833518981934 2.693230390548706 3.8407375812530518 136 129 114
1.9592833518981934 2.693230390548706 3.8407375812530518 136 129 114
2.2963638305664062 1.6333798170089722 4.490794658660889 54 52 57
2.3340160846710205 1.6168785095214844 4.555810451507568 145 80 70
2.5677952766418457 1.5476489067077637 4.996816635131836 164 160 92
2.366002082824707 1.6144928932189941 4.608000755310059 186 178 133
2.3146190643310547 1.6624280214309692 4.4928741455078125 172 158 124
2.3146190643310547 1.6624280214309692 4.4928741455078125 172 158 124
2.579928159713745 1.5758483409881592 4.991670608520508 62 60 66
2.6272387504577637 1.5584686994552612 5.06058931350708 168 166 111
2.5836586952209473 1.5836576223373413 4.9581685066223145 129 96 90
2.4200313091278076 1.6234055757522583 4.650513648986816 49 61 65
2.328092575073242 1.7139534950256348 4.469722270965576 43 48 53
2.7034873962402344 1.5555068254470825 5.170063018798828 168 169 129
2.47914719581604 1.6081794500350952 4.746856689453125 44 53 55
2.4695546627044678 1.6350194215774536 4.723917007446289 59 70 74
2.699871778488159 1.5536495447158813 5.143442153930664 52 59 54
2.5097475051879883 1.609791874885559 4.786240577697754 153 95 96
2.6861307621002197 1.557740569114685 5.112785816192627 59 69 70
2.4065635204315186 1.6783100366592407 4.58965539932251 46 56 62
2.0486204624176025 2.693469285964966 3.904496192932129 132 123 106
2.895902395248413 1.5406270027160645 5.4779815673828125 104 88 89
2.3386032581329346 1.7883350849151611 4.442173957824707 74 73 78
2.465144634246826 1.6478586196899414 4.669332981109619 174 168 134
2.888282299041748 1.5491467714309692 5.429531097412109 111 87 95
2.07403564453125 2.6983535289764404 3.9109127521514893 138 131 114
2.7473719120025635 1.5580919981002808 5.164237976074219 49 57 62
2.3860156536102295 1.790022373199463 4.498588562011719 122 70 76
2.459390878677368 1.6661300659179688 4.630832672119141 42 49 54
2.429150104522705 1.7193900346755981 4.574892520904541 46 56 58
2.486008405685425 1.698934555053711 4.665508270263672 46 56 60
2.418280601501465 1.782908320426941 4.531063556671143 152 140 95
2.5412206649780273 1.6667439937591553 4.738792896270752 172 160 114
2.4980852603912354 1.7657275199890137 4.631399631500244 154 143 109
2.4980852603912354 1.7657275199890137 4.631399631500244 154 143 109
2.497344732284546 1.7607860565185547 4.627487659454346 154 143 109
2.560513973236084 1.719578742980957 4.725644588470459 50 44 48
2.5441677570343018 1.7455893754959106 4.684859275817871 123 73 74
2.6341052055358887 1.701743245124817 4.829056262969971 148 108 100
2.900631904602051 1.5632679462432861 5.2850022315979 122 89 79
3.2328572273254395 -2.600558042526245 5.825722694396973 152 145 129
2.759068250656128 1.6654224395751953 4.972350597381592 85 88 84
2.1552603244781494 2.7133004665374756 3.8945016860961914 123 116 98
2.91544508934021 1.6063694953918457 5.243330001831055 52 44 42
2.8569796085357666 1.629122018814087 5.131452560424805 34 29 31
2.823385000228882 1.6577612161636353 5.070165634155273 103 81 77
3.193995714187622 1.5286815166473389 5.7081451416015625 34 30 27
2.8237147331237793 1.6845954656600952 5.038315296173096 93 82 86
2.23437237739563 2.7109429836273193 3.9658567905426025 118 111 93
2.287173271179199 2.710784435272217 3.991323709487915 118 111 93
2.2900137901306152 2.729938507080078 3.917330265045166 119 112 94
2.4778225421905518 2.702847957611084 4.207846164703369 112 104 91
3.526299238204956 -2.5748324394226074 5.939887046813965 41 34 27
2.3559889793395996 2.7213523387908936 3.9733121395111084 121 114 98
3.560297727584839 -2.5837998390197754 5.9294843673706055 136 128 113
3.5274438858032227 -2.5556204319000244 5.833080768585205 145 137 118
