ply
format ascii 1.0
element vertex 886
property float x
property float y
property float z
property uchar red
property uchar green
property uchar blue
end_header
-5.138412 1.947910 8.135773 129 129 127
-4.881357 4.208287 7.850610 30 26 26
-4.862465 4.564893 7.842601 23 22 20
-4.838487 3.361343 7.811680 107 96 92
-4.809896 3.804410 7.807940 31 31 31
-4.809896 3.804410 7.807940 31 31 31
-4.790791 4.195915 7.879404 42 40 39
-4.850644 4.997131 8.000282 35 32 30
-4.777315 -2.748261 7.924271 90 90 92
-4.773313 5.092030 8.023494 25 21 20
-4.673213 2.637246 7.893218 52 48 47
-4.679211 3.094668 7.907509 98 92 90
-4.892945 1.714460 8.288753 73 73 75
-4.669980 3.403099 7.926259 96 86 84
-4.443971 -3.071212 7.545215 134 116 112
-4.853157 2.031113 8.288404 53 53 55
-4.853157 2.031113 8.288404 53 53 55
-4.659219 3.084440 7.957819 43 31 34
-4.642452 4.101961 7.984369 107 113 103
-4.775097 -0.999877 8.215322 44 47 54
-4.718451 -1.897067 8.119538 38 39 51
-4.921517 1.810085 8.470134 254 253 248
-4.777871 -1.446998 8.299396 104 108 111
-4.766109 -1.869679 8.303370 34 33 45
-4.619484 3.675677 8.049520 119 119 117
-4.768505 -1.489202 8.310061 38 41 50
-4.724740 -1.974816 8.239177 34 33 46
-4.761690 -0.886726 8.324649 46 45 50
-4.682206 -0.930423 8.249142 88 88 90
-4.694084 -1.066950 8.285966 34 37 44
-4.686489 -1.341264 8.292696 29 27 39
-4.516515 3.371401 8.000879 78 68 67
-4.516515 3.371401 8.000879 78 68 67
-5.547882 0.278843 9.859771 65 59 59
-5.264815 -2.440078 9.369272 71 70 75
-4.553803 3.900033 8.108254 111 110 108
-4.735818 -1.139291 8.435882 74 79 82
-4.752234 -1.096424 8.473942 35 38 44
-4.910210 -0.773263 8.784904 185 160 156
-4.467440 3.060570 7.997343 39 29 28
-4.599187 -0.978118 8.264199 44 44 50
-4.679377 -1.284746 8.420959 43 41 52
-5.066214 1.710306 9.120994 174 166 163
-4.645093 -0.882026 8.371525 44 43 49
-4.104335 -1.396883 7.399099 88 92 95
-4.454479 3.114748 8.044946 121 116 110
-12.413930 0.683932 22.434252 112 102 103
-4.446054 2.219939 8.060941 136 135 134
-6.217194 1.250214 11.300927 254 254 254
-4.474973 3.107724 8.146749 28 22 22
-4.653207 -2.198089 8.483718 73 74 78
-6.061944 -0.226566 11.053203 83 77 76
-6.061944 -0.226566 11.053203 83 77 76
-4.631564 -1.793713 8.453720 33 36 41
-4.077742 -1.167698 7.455691 109 110 111
-4.602752 -1.237847 8.428760 78 79 83
-4.156786 -1.167571 7.614383 31 30 38
-4.608792 2.022037 8.443505 117 115 113
-4.441778 3.131364 8.137421 112 109 103
-4.397045 2.812680 8.059608 35 30 31
-7.331626 -4.054063 13.446012 29 28 35
-6.272023 0.552523 11.544863 199 174 164
-5.028009 1.692567 9.257041 124 114 112
-18.730326 -5.170380 34.603214 38 37 43
-4.381932 -2.874450 8.097654 166 166 166
-4.580882 -1.279813 8.474446 37 36 42
-4.088532 -1.543023 7.569991 81 81 83
-4.537437 -1.711622 8.401011 81 81 83
-4.423738 4.604637 8.196032 99 96 91
-4.377773 3.867389 8.122452 132 132 132
-5.879490 0.481337 10.918493 77 67 68
-5.868483 0.560025 10.914569 83 69 69
-6.114481 -2.953052 11.417149 79 80 82
-5.870399 0.138979 10.977967 230 192 173
-4.059533 -0.972815 7.596494 31 30 36
-6.274578 1.899333 11.752357 238 222 218
-7.008707 -3.326221 13.145364 29 28 33
-5.811243 -0.506429 10.906494 234 188 170
-5.811243 -0.506429 10.906494 234 188 170
-4.569673 2.044271 8.581444 120 119 117
-4.318199 3.809563 8.111121 136 136 136
-4.540207 -0.949960 8.537860 86 84 85
-5.119716 -2.035384 9.656787 36 35 43
-4.466132 -1.773544 8.423655 36 35 43
-5.167928 -2.517425 9.769084 82 82 82
-3.646689 -1.127376 6.897248 79 78 83
-4.444036 -2.120234 8.434994 34 33 40
-4.287044 3.679896 8.139081 93 89 90
-4.099849 -3.060763 7.783663 51 47 48
-4.024149 -2.889541 7.652988 37 36 42
-4.061754 -3.265994 7.731463 87 83 80
-4.068069 -3.097207 7.747792 67 61 61
-7.271327 -1.489262 13.852795 24 23 30
-4.487307 -0.893222 8.554783 44 43 50
-3.561320 -0.799981 6.788448 39 39 47
-5.659425 0.236836 10.798815 61 51 50
-3.944456 -1.326529 7.527025 48 47 54
-4.316888 3.480374 8.243007 67 46 43
-5.898056 -2.510201 11.264733 47 48 50
-3.903622 -2.044077 7.456733 35 35 43
-3.903622 -2.044077 7.456733 35 35 43
-4.457194 -1.271907 8.515621 37 36 43
-5.690673 0.861664 10.895568 252 245 237
-5.639532 -0.692624 10.886808 74 58 58
-3.977322 -3.286530 7.692184 152 134 124
-5.828603 1.270663 11.269650 105 94 92
-5.726912 -2.786111 11.086293 34 33 39
-4.014887 -3.097716 7.770877 156 139 129
-5.642070 -0.763545 10.942016 223 187 173
-4.326049 -2.498213 8.390129 29 28 34
-4.464608 -0.966206 8.665154 86 88 91
-3.977680 -3.748153 7.720463 139 123 110
-4.370225 -1.781471 8.509423 34 33 39
-11.747494 -3.274224 22.883842 32 31 36
-4.265519 4.496845 8.315272 118 117 114
-3.948491 -3.442957 7.701658 152 136 121
-4.965498 -2.483951 9.689271 69 69 72
-4.205329 3.475897 8.216721 58 41 38
-3.859708 -1.889161 7.561209 30 29 35
-4.413664 -1.551404 8.647998 87 89 93
-4.574965 -0.805492 9.001347 230 216 213
-4.380113 2.003982 8.619138 116 116 116
-3.187714 -0.914275 6.276275 44 43 50
-4.360623 -0.895680 8.605556 45 44 50
-16.697174 -5.842819 32.980389 43 42 50
-5.689921 0.672403 11.239284 186 172 168
-3.441651 -1.119071 6.798548 39 38 47
-4.884136 -2.136338 9.650570 36 37 45
-11.280947 -3.439689 22.317997 98 98 100
-5.472862 -0.780846 10.838260 231 194 179
-3.130708 -1.246107 6.201432 88 89 91
-3.402616 -1.353685 6.739923 88 89 91
-4.177078 3.885015 8.285463 56 49 50
-4.359643 1.965058 8.665770 135 130 127
-5.774780 1.437662 11.485089 253 253 251
-4.332767 -1.036275 8.625840 41 40 48
-4.523685 -0.842883 9.012269 108 102 101
-5.673872 -0.556315 11.303702 69 63 62
-5.673872 -0.556315 11.303702 69 63 62
-4.233445 -2.113455 8.471114 27 26 32
-4.348291 -0.968166 8.704640 87 87 87
-4.173047 4.141679 8.376244 124 125 120
-4.278250 -1.791528 8.595781 32 30 40
-4.295937 -2.201055 8.633795 72 72 76
-5.674636 -0.740198 11.406132 63 54 52
-4.124527 3.183235 8.297341 98 88 88
-3.459660 -1.121777 6.968048 80 81 85
-4.152765 3.840715 8.370665 141 140 138
-4.255608 -2.398795 8.602073 35 35 40
-4.439074 -0.770737 9.000946 127 83 80
-4.129958 4.281401 8.384333 17 16 14
-4.094121 3.851193 8.317305 117 113 114
-5.606517 0.496111 11.419837 70 66 65
-3.385775 -1.016086 6.900703 37 36 42
-4.129534 5.344738 8.434750 93 95 97
-7.509286 0.704005 15.422754 109 104 103
-3.788287 -3.394716 7.781371 144 130 120
-4.512316 1.990608 9.280135 139 135 133
-5.537724 -0.003882 11.394026 191 179 179
-4.173562 -2.134083 8.591408 29 28 36
-4.140818 -2.375900 8.543311 32 33 38
-4.140818 -2.375900 8.543311 32 33 38
-5.493692 0.045647 11.341064 68 59 60
-4.245627 -0.974555 8.767319 83 83 84
-3.327511 -2.022152 6.871888 27 28 34
-4.194327 -2.242042 8.670858 32 31 38
-4.194327 -2.242042 8.670858 32 31 38
-5.384757 0.681658 11.132684 72 66 66
-4.775665 -2.308318 9.883931 75 75 77
-3.056281 -1.369940 6.330404 81 81 83
-3.354514 -1.437776 6.954570 28 28 36
-4.167815 -1.790974 8.641576 28 28 36
-5.336237 0.048692 11.072468 58 54 54
-3.722517 -1.957492 7.729661 77 76 79
-2.543423 2.705807 5.285967 116 115 110
-4.179823 -1.035324 8.687839 40 39 45
-6.040103 2.104080 12.565055 131 111 108
-4.022303 3.638232 8.384604 112 110 109
-6.739391 0.639712 14.050834 106 101 98
-3.387462 -1.274267 7.064352 25 27 32
-4.482968 1.856640 9.351783 98 81 74
-4.037762 3.533953 8.425688 97 95 96
-4.007374 2.807762 8.381349 119 118 114
-3.763106 -3.462136 7.882706 86 78 75
-4.357008 -0.807138 9.144841 240 206 189
-4.357008 -0.807138 9.144841 240 206 189
-3.681409 -1.692550 7.735778 42 43 47
-4.001628 3.882584 8.409183 85 83 84
-3.680193 -2.079232 7.732676 29 28 34
-3.671824 -2.069046 7.718247 32 31 37
-4.434289 1.796026 9.323212 104 85 78
-3.014155 -0.927261 6.340562 38 37 45
-4.012295 4.301457 8.469511 18 18 18
-5.421580 0.706031 11.450463 63 58 58
-5.385927 -0.394235 11.376905 228 178 153
-4.023034 5.810943 8.515151 98 103 104
-4.113434 -1.033106 8.738817 42 41 47
-3.636522 -1.908111 7.728759 35 34 40
-3.624406 -2.132047 7.713301 35 35 38
-4.141855 -0.972754 8.820107 84 84 84
-2.515579 -1.565818 5.357365 25 26 30
-4.123698 -2.043817 8.799358 79 79 79
-4.097203 -2.091417 8.749300 35 34 40
-4.807128 -2.219996 10.267922 83 83 84
-3.641757 -1.999555 7.778403 33 32 38
-3.641757 -1.999555 7.778403 33 32 38
-4.118165 -2.220741 8.806892 75 75 75
-3.312255 -1.783839 7.082885 75 75 75
-4.000430 3.963647 8.572811 21 21 22
-4.000430 3.963647 8.572811 21 21 22
-2.971441 -1.309350 6.368323 34 34 43
-4.059460 -2.414661 8.734307 37 36 40
-5.151083 -0.799829 11.083158 240 194 173
-5.745310 1.991724 12.376622 204 167 153
-3.936571 3.581959 8.493607 138 138 138
-3.917072 3.572562 8.462170 142 141 143
-4.014707 -2.692759 8.702655 32 31 37
-4.030434 -2.318603 8.741556 36 35 40
-4.033280 -2.665697 8.755462 81 81 83
-3.638934 -3.996510 7.911714 132 118 109
-2.692684 -0.850408 5.856009 34 35 40
-4.012637 -0.908272 8.739654 39 38 43
-4.102226 2.128902 8.965371 38 38 38
-5.232111 -0.805049 11.464388 250 216 200
-3.023879 0.528087 6.664911 227 198 190
-3.861807 3.631840 8.536910 136 136 137
-2.661214 -1.203715 5.893336 29 28 33
-3.965860 -1.803157 8.784405 29 28 33
-3.921875 -0.900703 8.695401 37 36 41
-4.021576 -0.981652 8.926056 92 89 90
-3.865729 4.551719 8.589480 105 105 103
-3.978713 -1.897721 8.841455 87 88 90
-3.166616 -0.883701 7.067522 33 32 40
-4.366715 1.852937 9.746195 106 87 81
-4.282787 1.715764 9.570709 159 145 143
-3.654730 0.740519 8.179441 200 168 153
-5.120815 1.547874 11.473617 235 221 220
-2.887982 -0.562443 6.473510 217 190 184
-3.723822 -0.173276 8.347780 119 103 102
-3.941215 -1.575669 8.842993 37 36 42
-3.589886 -0.746199 8.061300 73 68 68
-3.803704 3.679565 8.557571 122 120 121
-2.629661 -1.549791 5.916311 39 39 41
-3.812914 3.862250 8.580378 121 119 120
-5.216142 -2.999042 11.748355 36 38 43
-5.240566 -1.775861 11.806826 115 115 115
-5.240566 -1.775861 11.806826 115 115 115
-3.890994 -2.128497 8.771389 82 82 84
-3.824060 4.969959 8.649116 98 98 96
-3.779004 3.960140 8.577299 117 115 114
-3.780828 5.047119 8.587151 112 111 109
-2.821520 -1.566991 6.419919 29 30 35
-3.831550 6.196634 8.725237 94 93 89
-3.814855 -1.853737 8.685789 99 103 105
-6.161430 -2.510770 14.030567 28 29 34
-3.557043 -3.164343 8.099602 138 131 125
-5.151618 -1.467102 11.743517 35 34 43
-2.367075 -1.565073 5.411721 28 29 34
-2.222467 -1.082468 5.089637 79 80 82
-3.932333 -0.995388 9.018001 95 95 97
-3.845565 -1.805279 8.825369 30 31 36
-2.570894 -1.470221 5.914160 73 74 77
-3.837474 -2.418827 8.840407 22 28 29
-3.837474 -2.418827 8.840407 22 28 29
-3.411196 -1.999069 7.859436 30 33 39
-5.393222 0.587632 12.455436 111 92 90
-3.709480 2.798198 8.604877 96 93 92
-3.709480 2.798198 8.604877 96 93 92
-3.794973 6.234593 8.808915 105 106 106
-2.369727 -1.439708 5.513879 28 32 35
-3.716578 3.640881 8.652790 136 136 136
-2.549622 -1.275528 5.934011 44 43 48
-4.149244 1.879722 9.669060 123 95 86
-4.362852 -1.741194 10.170587 47 48 52
-4.913392 2.149899 11.479577 107 87 80
-3.634736 3.888996 8.526072 17 17 17
-3.833969 -0.979674 9.002131 104 103 104
-3.673678 2.748249 8.637429 41 41 41
-4.897167 0.332836 11.514487 93 74 73
-3.458490 -3.147643 8.135522 126 103 99
-4.742707 -0.157328 11.167002 246 201 180
-4.305849 -2.531847 10.151725 71 71 74
-5.110647 -0.624745 12.048420 242 202 185
-2.501851 -1.433711 5.906636 32 32 37
-3.872025 -1.055011 9.152853 48 47 53
-3.711530 6.205289 8.793771 100 104 105
-2.155306 -1.034659 5.119178 31 31 39
-3.032056 -1.647123 7.208948 80 80 82
-4.907949 -0.838565 11.675288 66 57 58
-3.670354 3.198166 8.735669 77 72 69
-3.672796 4.742065 8.748619 42 42 42
-3.629592 3.676152 8.654759 82 80 83
-3.313832 -2.153058 7.912324 29 30 35
-3.809099 -0.989984 9.102419 100 98 99
-2.998271 -2.103931 7.167649 73 74 78
-3.329256 -1.936957 7.963517 34 34 39
-3.617054 2.770444 8.660249 84 81 80
-3.624794 3.200263 8.685658 98 97 93
-3.624794 3.200263 8.685658 98 97 93
-3.596699 3.114185 8.623183 31 21 20
-3.621671 3.631541 8.701497 116 116 114
-3.749882 -1.038198 9.029337 49 48 54
-2.285429 -1.180548 5.513772 43 42 49
-2.276526 -1.437903 5.497684 37 38 43
-1.980861 -0.683338 4.783397 36 35 40
-4.711873 1.564768 11.386206 125 115 113
-3.995640 1.851034 9.707856 171 152 145
-3.575042 3.520430 8.744795 67 58 53
-1.720508 -0.820790 4.208401 24 24 33
-4.908211 1.420758 12.014994 112 97 95
-4.963471 1.777414 12.179283 85 74 72
-4.010944 1.909515 9.845177 146 119 109
-4.880458 -0.121385 12.022458 62 54 52
-4.574574 1.862907 11.268893 167 152 149
-3.253546 -1.625680 8.017855 30 32 44
-3.517762 3.905704 8.701580 154 154 154
-4.201098 -2.578594 10.396824 73 72 77
-4.201098 -2.578594 10.396824 73 72 77
-5.111038 -1.270646 12.665374 125 120 117
-3.643661 -2.607811 9.033364 31 30 35
-1.957770 -0.831772 4.854818 84 85 87
-3.662314 -1.383375 9.090444 38 36 47
-3.699672 1.996451 9.227862 138 130 128
-3.513182 3.646956 8.768460 139 137 138
-1.931312 -1.244826 4.833575 37 37 42
-1.515273 -0.632949 3.794747 48 47 52
-4.866206 1.318740 12.213897 108 93 89
-3.636475 -0.942435 9.140067 49 48 53
-3.519485 -3.015321 8.882089 83 83 92
-5.008393 0.856803 12.639254 255 254 238
-3.544684 1.727392 8.951727 153 124 109
-2.175354 -0.668267 5.517313 36 34 45
-4.192291 -1.707956 10.642656 19 18 24
-3.539426 -1.370876 9.014103 38 36 47
-3.491666 4.730259 8.907993 111 110 108
-4.659348 0.129878 11.970405 254 251 242
-4.659348 0.129878 11.970405 254 251 242
-2.340166 -1.504376 6.016870 27 26 34
-2.855890 -0.788604 7.348615 114 110 109
-3.517518 -2.233964 9.062671 68 71 76
-3.517518 -2.233964 9.062671 68 71 76
-3.722913 -0.774055 9.592015 51 42 42
-3.439260 3.266273 8.882444 102 91 89
-3.245669 -3.170962 8.384656 49 45 46
-4.067346 -1.295725 10.510475 29 27 40
-4.910522 0.606412 12.750854 78 67 65
-3.395253 3.502901 8.824037 112 110 111
-3.427248 4.997264 8.933170 103 103 103
-2.762698 -2.119660 7.208326 33 34 39
-3.183529 -3.199525 8.362771 128 108 104
-2.721867 -1.765018 7.197464 69 70 75
-3.372242 4.705436 8.923432 113 113 113
-3.945769 -1.285037 10.441178 36 37 43
-3.898118 -2.036912 10.331586 30 34 38
-3.499242 2.086626 9.288239 128 122 122
-3.478003 -1.910313 9.278896 33 34 39
-3.341909 4.207864 8.920186 127 127 127
-3.356537 3.952666 8.984712 127 127 127
-3.410241 4.892386 9.142748 20 18 18
-3.324170 3.489954 8.919394 102 100 101
-2.234617 -1.605541 5.999607 29 28 32
-3.010967 -2.175946 8.087897 29 28 32
-3.307018 4.118497 8.941078 131 132 130
-3.659508 1.877323 9.895172 153 118 105
-3.410174 -0.949727 9.261138 39 38 44
-3.405996 -1.327014 9.252111 36 36 41
-2.396590 1.380761 6.529196 142 138 135
-3.295131 -0.971500 9.023197 96 92 92
-3.294502 -2.449070 9.095166 31 30 38
-4.006627 1.820682 11.076050 148 132 125
-3.323883 -2.955593 9.199558 27 29 35
-3.360261 -1.910528 9.308623 32 33 42
-3.015027 -1.023090 8.376745 32 32 40
-3.349296 -1.868583 9.319720 76 77 81
-3.349296 -1.868583 9.319720 76 77 81
-2.328873 1.383419 6.494462 140 135 132
-2.374717 -1.183333 6.629084 18 17 22
-3.250397 6.229160 9.107965 45 46 41
-3.014323 -3.243108 8.457376 126 107 101
-3.242015 5.281638 9.106130 111 111 109
-2.363974 -2.230268 6.675952 75 80 83
-3.194093 4.229793 9.024701 82 82 82
-3.196790 4.422780 9.040851 138 140 137
-2.977649 -3.533928 8.432242 159 139 132
-2.977649 -3.533928 8.432242 159 139 132
-3.283705 1.581712 9.311768 168 156 150
-3.174335 3.930091 9.059802 146 146 146
-3.211869 -2.744454 9.185308 35 33 44
-3.164299 4.405230 9.057223 43 43 42
-3.164299 4.405230 9.057223 43 43 42
-2.916594 -4.295359 8.369020 137 134 135
-3.274216 -1.242384 9.431617 36 36 44
-3.248972 -1.499345 9.388826 35 36 41
-3.234999 -1.915550 9.356093 39 40 45
-2.871224 -1.660845 8.320929 76 79 84
-2.871224 -1.660845 8.320929 76 79 84
-3.126434 -2.118814 9.128235 39 40 45
-3.132199 4.758990 9.202409 123 123 123
-3.432618 1.795165 10.093491 132 114 110
-3.440853 -1.315036 10.141431 51 50 58
-3.095588 5.274521 9.140855 90 89 87
-3.073905 4.231648 9.112226 134 134 133
-3.108361 5.356051 9.297871 92 91 87
-2.854800 -3.221656 8.543024 139 121 117
-2.238159 -1.002956 6.698683 45 43 53
-3.108666 -2.646126 9.311645 32 32 41
-3.063508 -2.735519 9.177653 38 38 46
-3.332580 2.014946 10.000265 122 112 111
-3.018946 4.363235 9.100850 130 130 130
-3.153427 2.150861 9.593037 54 54 54
-3.054793 -1.353497 9.307138 31 29 40
-3.114531 2.166044 9.573285 112 110 111
-3.144079 2.017056 9.698331 138 128 126
-3.112813 2.030668 9.678058 154 144 142
-2.940194 4.099421 9.225191 150 149 146
-3.115698 -0.561517 9.811072 57 56 62
-1.699450 1.221446 5.352877 84 80 79
-3.048467 -1.042557 9.604308 98 97 105
-2.947930 -2.950147 9.293890 34 32 43
-2.935740 5.187549 9.265601 106 105 103
-3.008114 -1.458052 9.585397 39 40 47
-2.885942 4.229589 9.224529 86 80 80
-2.965157 -1.096082 9.483253 55 54 60
-2.862503 3.200468 9.155094 112 112 110
-2.886639 5.121184 9.312655 69 64 61
-2.858373 3.990505 9.280945 149 148 147
-2.684004 -3.368205 8.759816 130 115 112
-2.940014 2.113405 9.722605 73 73 74
-2.814582 3.790284 9.318976 147 147 147
-2.917459 1.323706 9.671279 134 134 139
-2.818060 4.470453 9.357271 53 52 50
-2.792926 6.367908 9.434494 125 125 125
-2.762598 3.718126 9.328038 114 109 106
-2.810520 4.353507 9.501576 130 127 126
-2.810520 4.353507 9.501576 130 127 126
-2.868579 1.819035 9.711600 127 129 127
-2.864998 1.997622 9.817515 132 130 129
-2.745648 4.957127 9.458994 118 118 118
-2.739953 4.106827 9.442420 71 67 66
-2.739949 4.163780 9.459366 157 157 157
-2.695116 3.730519 9.360462 141 138 137
-2.681019 4.822777 9.450348 128 128 128
-2.714185 6.404116 9.618447 62 58 57
-2.629150 3.798690 9.467586 99 95 93
-2.748014 1.982984 9.946059 127 127 127
-2.748014 1.982984 9.946059 127 127 127
-2.664224 3.406088 9.668464 106 96 94
-2.610796 5.163823 9.526071 72 64 62
-2.602306 3.696676 9.519595 125 121 120
-2.721763 2.118909 10.000962 131 130 127
-2.721763 2.118909 10.000962 131 130 127
-2.664241 6.574093 9.840839 119 119 117
-2.581117 4.472474 9.527199 152 152 152
-2.591160 4.203299 9.594074 162 156 156
-2.593328 -0.793923 9.629642 152 152 154
-2.554591 4.112599 9.492460 40 38 39
-2.589921 -0.911695 9.698290 105 103 114
-2.563736 3.726330 9.634314 120 110 108
-2.520691 3.756960 9.500984 117 107 105
-2.569745 -0.333709 9.718185 92 91 96
-2.621331 0.784285 9.979297 75 71 72
-2.313652 -3.414466 8.971300 158 155 154
-2.301980 -3.449360 8.934634 164 163 161
-2.301980 -3.449360 8.934634 164 163 161
-2.484124 5.166547 9.675687 87 83 82
-2.545328 -0.076503 9.914151 253 253 251
-2.542265 -0.008829 9.908235 253 253 251
-2.409285 3.804336 9.621243 141 132 131
-2.352557 3.293045 9.398680 102 87 79
-2.462597 2.939335 10.009012 70 66 63
-2.491489 1.911474 10.133019 78 77 83
-2.481757 1.780323 10.101775 161 153 151
-2.330479 3.922266 9.603051 140 140 139
-2.356153 5.426625 9.732943 110 110 110
-2.314809 2.277550 9.576159 80 79 78
-2.318182 4.450089 9.686486 78 76 81
-2.322435 3.799218 9.708736 119 114 111
-2.322435 3.799218 9.708736 119 114 111
-2.331092 6.467750 9.784928 113 113 113
-2.415153 2.100632 10.189586 163 160 158
-2.277219 3.716155 9.661242 31 27 26
-2.309737 5.429040 9.839997 37 33 33
-2.292358 5.444449 9.808415 121 115 115
-2.321415 6.458240 9.942310 49 49 49
-2.396894 2.138246 10.359213 80 80 81
-2.244200 4.313309 9.754686 127 125 126
-2.232281 4.500435 9.769711 121 120 120
-2.202884 3.634875 9.661580 128 119 119
-2.264985 2.337869 10.051394 158 150 147
-2.173928 4.664763 9.798818 107 102 101
-2.149369 3.691539 9.732792 133 128 127
-2.151314 3.365148 9.742144 123 113 111
-2.115602 4.921065 9.874748 64 50 49
-2.193079 2.092506 10.301642 151 149 150
-2.073716 4.362007 9.773650 76 66 64
-2.068628 5.347284 9.780788 33 32 30
-2.055872 2.332688 9.770432 82 82 82
-2.048938 4.121055 9.871543 135 130 127
-2.029189 3.876452 9.889700 140 139 137
-4.816341 11.054683 23.759413 104 100 97
-1.887652 -3.379916 9.320101 127 109 105
-2.023202 3.404877 10.015199 13 12 13
-2.021409 5.473441 10.036142 28 26 25
-2.021409 5.473441 10.036142 28 26 25
-1.311553 5.745978 6.726298 122 122 114
-1.909573 2.882879 9.965339 43 40 39
-1.931435 4.170878 10.092943 132 131 129
-1.925689 4.168547 10.075903 135 134 132
-1.839044 4.200169 9.997465 117 116 113
-1.825278 3.723372 10.010373 68 47 46
-1.871563 -1.961529 10.477561 253 253 251
-1.754578 4.847869 9.998962 76 66 64
-1.756938 3.993113 10.143012 125 120 117
-1.221304 1.258325 7.367517 135 122 119
-2.073796 5.309721 12.812913 14 5 8
-1.622974 3.976707 10.091757 115 107 104
-1.435670 2.886067 10.342186 107 104 101
-1.361259 5.079293 10.033636 121 121 121
-1.414087 5.217209 10.467444 57 52 48
-1.391994 2.311968 10.391039 169 165 162
-1.380603 3.336733 10.389687 124 109 106
-1.324275 5.010068 10.078581 64 58 54
-1.353117 2.494967 10.398334 87 83 82
-1.342627 2.437589 10.366878 165 160 157
-0.654111 4.242352 5.197979 133 134 128
-1.299863 2.704914 10.379796 150 149 147
-1.323459 3.768946 10.615135 136 116 114
-1.296503 2.852129 10.433082 140 139 137
-1.306335 4.271865 10.588188 131 122 123
-1.287784 3.694107 10.489903 140 122 118
-1.302437 4.706737 10.622865 112 105 102
-0.902912 1.291673 7.400682 161 150 148
-5.122431 18.798908 42.171207 113 108 105
-1.245218 4.358546 10.605971 117 106 104
-1.305694 2.340403 11.184590 63 63 65
-1.320171 2.324693 11.320318 75 75 77
-0.692020 1.050605 5.965191 80 77 77
-1.232713 3.026094 10.653503 103 102 100
-1.206204 3.025717 10.537002 133 133 128
-1.209311 3.147019 10.583924 127 117 113
-1.178665 2.650138 10.483629 103 99 98
-1.191675 4.233661 10.682801 128 118 117
-1.393333 6.086527 12.513714 33 27 27
-1.181261 4.110853 10.623114 126 116 115
-1.119972 2.328581 10.616006 139 134 130
-1.109159 5.350019 10.766220 85 87 86
-0.948894 5.001541 9.239786 148 148 148
-0.948894 5.001541 9.239786 148 148 148
-1.079511 3.510471 10.710229 123 102 99
-0.908969 5.049859 9.085147 77 77 73
-0.908969 5.049859 9.085147 77 77 73
-0.917812 5.103529 9.208351 59 59 57
-0.898911 5.029419 9.120193 127 130 125
-0.536472 0.955765 5.531708 145 137 135
-0.514991 0.941874 5.455359 145 139 136
-0.527065 1.002191 5.751429 67 62 63
-0.969825 5.383273 10.769480 136 136 136
-1.100041 2.098614 12.213078 142 132 130
-0.812292 5.446579 9.269295 123 129 127
-0.902369 4.394162 10.845606 113 99 91
-0.719071 5.546762 9.173497 61 62 64
-0.845682 5.355618 11.186783 28 18 17
-0.823858 5.280219 10.932038 106 95 89
-0.653370 5.239133 9.008661 122 125 124
-0.827213 1.950587 11.433749 121 110 108
-0.761006 3.850691 10.899865 113 93 87
-0.761006 3.850691 10.899865 113 93 87
-0.733544 5.418483 10.884512 140 141 146
-0.616415 5.071569 9.148559 78 78 76
-0.717997 2.480697 10.918612 126 125 123
-0.717997 2.480697 10.918612 126 125 123
-0.716075 3.892083 10.965069 122 105 98
-0.596674 5.639820 9.179539 101 103 102
-0.619486 5.171472 9.531668 101 103 100
-0.564209 5.296237 9.065331 59 59 59
-0.564209 5.296237 9.065331 59 59 59
-0.571548 5.742721 9.517112 46 50 49
-0.528924 6.405296 9.355657 105 107 104
-0.439303 5.497114 9.185723 122 123 118
-0.410517 5.267907 8.780290 39 40 35
-0.511727 4.517024 11.306978 102 87 84
-0.506951 4.862076 11.249879 34 24 23
-0.478720 5.318266 10.801715 130 142 142
-0.509346 -0.216874 11.541268 100 100 99
-0.509346 -0.216874 11.541268 100 100 99
-0.344322 5.106981 9.211836 71 71 69
-0.384192 4.419589 11.243999 42 24 22
-0.319878 5.729168 9.403319 24 24 26
-0.081420 1.698021 2.442091 106 106 102
-0.297100 5.003736 9.218506 98 103 98
-0.385169 1.923652 11.901078 111 105 102
-0.382450 1.920642 11.877173 111 105 102
-0.374445 2.345648 11.822514 130 125 122
-0.372310 1.450726 11.894482 40 30 29
-0.355376 0.584869 11.737726 36 32 31
-0.343019 3.527540 11.377894 117 105 99
-0.298058 5.451292 10.486056 76 78 75
-0.311221 5.347328 11.403654 19 15 12
-0.246237 5.545473 9.261031 22 22 24
-0.304670 -0.266786 11.509374 64 58 58
-0.302553 1.825470 11.695883 133 122 118
-0.224461 5.501829 9.362843 99 99 99
-0.253893 3.133446 11.353704 130 129 125
-0.237525 3.842386 11.427415 125 109 109
-0.237621 0.145119 11.388945 133 112 107
-0.200087 5.112905 9.639769 137 141 140
-0.227165 3.604305 11.363302 115 101 99
-0.217472 1.442524 11.458075 37 28 24
-0.197929 -0.242367 11.328688 74 64 62
-0.197008 3.953745 11.427154 118 104 101
-0.176097 5.126053 10.355755 125 127 126
-0.095002 5.053858 9.770997 152 153 148
-0.075706 5.027587 9.557025 58 57 56
-0.081461 2.378068 11.194117 145 137 134
0.013944 2.289698 10.947003 149 141 137
0.013944 2.289698 10.947003 149 141 137
0.044996 1.771267 10.771911 145 116 105
0.061978 1.883213 10.881419 150 128 121
0.064693 -0.140688 10.618963 182 155 144
0.081306 2.675922 10.808730 34 19 15
0.082131 1.037941 10.654557 164 131 118
0.082112 0.584739 10.633248 94 55 51
0.116484 -0.216992 10.661355 110 75 65
0.116484 -0.216992 10.661355 110 75 65
0.173533 4.732367 10.422438 51 41 39
0.186626 5.263179 10.627369 21 16 15
0.186813 2.656631 10.562961 44 27 25
0.186784 -0.411058 10.338468 175 158 150
0.220184 -0.202456 10.294635 144 104 94
0.239462 1.401811 10.262278 89 49 43
0.267073 3.504199 10.379843 122 111 109
0.292869 0.204009 10.097965 109 70 65
0.315881 5.207241 10.315232 34 29 22
0.307392 0.251916 10.054857 184 144 134
0.316917 -1.101353 9.830233 197 179 166
0.342436 1.451383 10.038131 164 143 135
0.347416 0.938247 9.976633 174 146 135
0.360254 0.212250 9.940271 117 83 68
0.364339 -1.358172 9.884039 109 89 85
0.372276 0.650558 9.880814 178 153 141
0.398028 -0.982898 9.702883 201 180 169
0.415783 3.897850 10.010005 112 97 95
0.323949 5.972125 7.631055 69 69 67
0.421997 1.021619 9.772533 170 137 126
0.452063 -0.494686 9.612631 191 163 151
0.352598 5.853562 7.273129 88 87 82
0.478074 3.391691 9.753111 66 42 41
0.481865 4.287887 9.802928 105 102 97
0.478871 0.253336 9.629759 184 148 136
0.493672 3.852355 9.765917 118 100 96
0.535637 5.128788 9.696457 92 81 77
0.522205 -0.192034 9.487984 177 160 152
0.534689 4.223981 9.641340 35 26 27
0.529465 1.361470 9.558193 107 69 64
0.541662 2.572256 9.588656 57 31 29
0.540128 0.988228 9.522960 109 64 60
0.420372 5.859897 7.270694 143 144 142
0.558697 1.818770 9.444341 167 153 150
0.579941 1.377035 9.465674 117 88 82
0.589772 2.094664 9.359692 148 129 123
0.604859 4.609200 9.491390 45 35 33
0.596844 1.756180 9.380112 73 46 44
0.616202 2.147374 9.378234 84 48 41
0.618468 2.170825 9.328951 151 113 104
0.615266 1.849727 9.265677 167 158 156
0.505291 5.861187 7.234392 80 81 72
0.656427 2.961639 9.358132 47 22 22
0.496741 5.829914 7.049740 90 91 83
0.668952 1.230617 9.170252 154 101 90
0.668952 1.230617 9.170252 154 101 90
0.689091 1.818033 9.056645 126 94 88
0.691208 0.997393 9.023714 187 158 149
0.729469 2.964745 9.086830 143 125 121
0.731325 1.772010 9.002534 175 160 156
0.731069 1.383231 8.986068 165 146 139
0.739577 1.191007 8.886044 167 146 141
0.769650 3.721165 9.011442 41 37 34
0.772120 1.745166 8.985101 52 40 40
0.773574 3.327232 8.945458 138 127 123
0.755817 -1.262361 8.661912 165 149 140
0.777464 0.984630 8.919093 80 66 66
0.781729 0.267439 8.842881 186 176 172
0.779612 -0.010637 8.815832 116 102 99
0.781771 0.266552 8.839683 186 176 172
0.787692 1.369405 8.864511 63 48 48
0.796667 2.932467 8.929078 150 130 126
0.770057 -1.604310 8.461707 160 140 133
0.805914 1.389029 8.784880 171 157 154
0.807967 -1.980528 8.723879 166 148 141
0.821136 -0.113234 8.753389 89 76 68
0.825535 0.253157 8.772435 82 66 63
0.825535 0.253157 8.772435 82 66 63
0.825432 1.671616 8.732023 158 143 138
0.797678 -2.720555 8.401972 150 133 125
0.847409 3.363762 8.917547 129 118 116
0.846687 -0.494408 8.690786 92 74 66
0.861823 2.116297 8.708002 84 64 64
0.921465 3.280729 8.571480 136 123 121
0.921515 -0.444088 8.394073 175 162 155
0.921465 -0.443173 8.384984 175 162 155
0.946808 4.443296 8.603193 33 28 26
0.956827 3.674686 8.618010 34 24 22
0.958221 4.497871 8.626272 114 107 98
0.933999 1.380284 8.424977 158 148 140
0.959773 1.765369 8.464467 157 149 144
0.958147 2.462886 8.431846 75 50 48
0.982709 4.034847 8.484190 45 37 35
0.987064 4.063955 8.463071 114 104 102
0.991267 4.434609 8.488088 26 22 19
0.998138 1.396725 8.389842 152 145 135
1.004335 2.478643 8.393746 25 25 17
1.018298 2.870344 8.423609 43 33 32
1.019756 3.649110 8.415827 47 33 33
1.035966 4.063308 8.489154 37 32 29
1.033214 5.204948 8.454950 47 36 34
1.014101 0.990457 8.281271 72 61 59
1.021075 0.949177 8.226844 141 127 124
1.027557 0.621076 8.264255 70 59 58
1.035032 2.449407 8.291101 54 45 40
1.043227 3.229807 8.341593 49 45 36
1.027787 1.357819 8.216210 51 41 39
1.009292 -1.538326 8.044393 69 58 52
1.032840 1.386729 8.217007 160 151 146
1.023608 -2.258910 8.062319 169 155 150
1.051999 1.722993 8.246070 54 50 49
1.065309 1.765914 8.260429 163 152 148
1.065309 1.765914 8.260429 163 152 148
1.057441 0.261975 8.125282 61 51 49
1.065003 0.660650 8.137125 160 151 143
1.069825 1.364704 8.126074 60 51 49
1.086353 2.466548 8.209054 76 58 54
1.067631 -1.546637 8.060230 62 57 51
1.067631 -1.546637 8.060230 62 57 51
1.083866 2.140152 8.182350 139 121 111
1.085978 2.461541 8.191633 76 58 54
1.078825 0.629751 8.108275 66 53 48
1.054662 -1.907395 7.907068 165 152 144
1.064007 -2.239662 7.956438 171 160 155
1.067397 -1.898805 7.964264 78 67 63
1.067397 -1.898805 7.964264 78 67 63
1.083028 0.950807 8.059718 149 134 127
1.079370 -0.812618 8.021933 101 85 77
1.079370 -0.812618 8.021933 101 85 77
1.097264 0.991509 8.111558 47 37 35
1.082349 -1.954979 7.876368 130 118 111
1.081453 -2.651039 7.821097 166 148 141
1.093558 -1.861797 7.876502 165 151 143
1.129344 4.358819 8.128312 28 26 27
1.131752 -0.100177 7.832545 153 139 130
1.171288 4.337482 8.017871 45 40 36
1.168403 2.228031 8.009701 145 127 117
1.151265 -0.457513 7.751326 171 154 144
1.172208 0.804144 7.822680 138 124 115
1.205099 5.125451 8.002551 92 88 84
1.117337 -0.092111 7.391118 159 144 137
1.211641 2.415097 7.898255 138 119 109
1.214402 2.811834 7.882474 40 30 30
1.232600 5.135641 7.981040 90 87 82
1.194490 0.308728 7.741352 174 159 150
1.163333 -4.169077 7.442662 134 117 109
1.184926 -1.300394 7.553022 189 176 159
1.207580 1.708267 7.700385 153 142 136
1.242620 4.682982 7.871874 20 18 25
1.237399 3.550035 7.841676 30 29 27
1.237081 3.126227 7.805363 120 106 98
1.195065 -2.017941 7.524164 190 176 163
1.188356 -2.733414 7.435801 175 158 148
1.262336 4.310824 7.868368 29 29 23
1.262336 4.310824 7.868368 29 29 23
1.240033 3.168671 7.733546 131 122 117
1.220614 -1.475662 7.569371 79 68 62
1.253422 1.670894 7.710482 128 113 106
1.252651 1.669159 7.689768 126 111 104
1.238393 -1.198383 7.558053 185 172 156
1.249583 -0.394696 7.581628 176 163 155
1.249583 -0.394696 7.581628 176 163 155
1.252139 0.245397 7.585084 159 142 131
1.232742 -1.173270 7.456102 183 167 152
1.284108 1.705975 7.687640 40 36 33
1.258978 -0.243768 7.506325 98 87 81
1.258978 -0.243768 7.506325 98 87 81
1.284369 1.396850 7.587104 76 65 61
1.239382 -2.798489 7.313761 174 161 150
1.326718 2.419506 7.729128 31 27 23
1.255722 -4.219585 7.303103 67 61 61
1.283942 -1.442253 7.467447 173 159 152
1.265911 -2.123864 7.344383 181 168 159
1.376749 3.600152 7.950808 22 19 15
1.261786 -2.838181 7.254328 161 152 144
1.295247 -1.827782 7.398302 64 59 56
1.295247 -1.827782 7.398302 64 59 56
1.294344 -1.485762 7.382587 150 132 121
1.342071 0.787699 7.649889 87 70 66
1.313251 -1.280453 7.404992 126 111 104
1.304904 -2.537840 7.316195 51 47 44
1.304904 -2.537840 7.316195 51 47 44
1.317593 -2.888531 7.317227 134 126 123
1.453818 3.868717 7.984270 73 68 64
1.331092 -2.493461 7.283071 155 148 140
1.437124 2.275371 7.838596 82 75 69
1.387438 -0.804256 7.554494 133 120 111
1.430664 1.525270 7.742482 77 66 62
1.356276 -2.543542 7.273593 125 116 109
1.439613 0.840312 7.704165 89 77 73
1.428025 -0.491071 7.585962 117 100 93
1.529960 3.998357 8.058906 35 31 30
1.380617 -2.764762 7.267497 130 123 117
1.484089 1.706315 7.785467 42 31 28
1.440670 -1.181863 7.529607 132 121 112
1.364301 -2.861027 7.127447 77 69 64
1.351238 -2.880224 7.059067 158 138 129
1.441794 -1.463238 7.475038 35 33 21
1.445319 -1.882392 7.473238 135 122 114
1.575502 5.125761 8.131676 17 22 18
1.575502 5.125761 8.131676 17 22 18
1.526844 1.325458 7.801942 120 113 103
1.453886 -2.171335 7.395927 56 54 50
1.553494 1.740571 7.897501 134 127 122
1.610166 4.391034 8.170162 23 23 23
1.573041 2.859705 7.948131 125 120 114
1.609833 3.977494 8.069910 34 30 27
1.583375 1.736465 7.891058 136 130 124
1.612034 2.471512 7.989697 34 30 29
1.507136 -2.220227 7.462858 144 132 120
1.638121 3.605028 8.080432 24 20 17
1.555213 -1.892941 7.601785 144 131 123
1.629885 1.008881 7.934300 36 33 28
1.615518 0.647500 7.863154 23 13 14
1.611108 -0.097662 7.787559 148 147 139
1.605885 0.291466 7.762310 41 38 34
1.620576 -0.073445 7.815373 39 39 38
1.605538 -1.500722 7.671933 52 43 43
1.611355 -1.132457 7.668658 163 159 154
1.580664 -2.226586 7.512279 151 138 132
1.607660 -0.764529 7.640357 153 153 142
1.634880 -0.211419 7.715499 99 100 94
1.595542 -2.195895 7.492376 67 60 61
1.577346 -2.825900 7.330976 39 37 38
1.449856 -3.952329 6.695824 152 135 128
1.685238 -0.134071 7.644022 173 176 165
1.472178 -3.690427 6.650733 141 126 119
1.659586 -2.671993 7.451186 51 50 45
1.504329 -2.856920 6.745424 165 148 140
1.519455 -2.779096 6.604839 166 149 142
1.710244 -2.564734 7.384754 182 185 178
1.536374 -3.897471 6.532495 166 152 143
1.545897 -3.694112 6.544365 136 118 110
1.572203 -2.766255 6.563779 147 137 135
1.579537 -3.595737 6.476686 161 143 137
1.609241 -2.761025 6.447798 173 155 145
1.604467 -2.742484 6.409403 176 158 149
1.869040 -2.577553 7.378902 61 61 59
1.904002 -2.438793 7.389496 182 193 189
1.646778 -2.714176 6.294300 167 150 141
1.666327 -4.192127 6.142241 59 57 58
1.715921 -3.886975 6.064240 132 117 110
1.743707 -2.688871 6.062159 181 159 148
1.786333 -3.463081 5.961409 154 137 129
2.743947 6.301633 8.656878 39 43 42
1.965344 -2.584445 5.599517 165 148 138
3.136946 5.954370 7.389296 54 54 52
3.169729 -0.681807 6.265466 178 180 175
3.182212 -0.608409 6.280839 71 73 73
3.182212 -0.608409 6.280839 71 73 73
3.158309 -0.563460 6.198381 185 189 185
3.176044 -0.745878 6.212237 179 181 178
3.187423 -0.794394 6.214391 56 57 61
3.173224 -0.626471 6.184698 175 180 174
3.182236 -0.685220 6.194925 50 51 56
3.194101 -0.645044 6.115197 177 182 176
3.202289 -0.780231 6.100762 177 182 177
3.202289 -0.780231 6.100762 177 182 177
3.206979 -0.709997 6.094944 174 179 173
3.215975 -0.754612 6.042070 53 59 59
3.238972 -0.642344 5.990585 176 181 175
3.267518 -0.584590 5.963732 69 69 69
3.258946 -0.686028 5.933501 60 60 62
3.270083 -0.723323 5.873242 178 183 179
3.270083 -0.723323 5.873242 178 183 179
3.262570 -0.674992 5.816439 57 56 61
3.252789 -0.750130 5.773823 51 51 53
3.283618 0.997415 5.758056 97 98 93
3.332479 1.021837 5.698061 162 165 162
2.536090 0.913912 3.857867 142 144 136
-6.493311 -2.482161 11.933152 83 83 85
-6.817616 -2.673867 11.929272 77 81 84
