ply
format ascii 1.0
element vertex 481
property float x
property float y
property float z
property uchar red
property uchar green
property uchar blue
end_header
-1.920445 1.255321 2.915865 37 31 28
-1.910010 1.038381 2.916367 39 29 30
-1.906004 -0.369312 2.910887 61 43 38
-1.907419 1.052379 2.915892 160 147 145
-1.904684 0.364158 2.913393 108 98 97
-1.911169 1.901398 2.929325 86 87 71
-1.344789 1.333714 2.068424 29 25 21
-1.899330 0.831023 2.923001 154 140 136
-1.897610 1.527083 2.922729 120 105 99
-1.898053 1.542099 2.923817 112 97 92
-1.894766 1.484126 2.920628 143 138 134
-1.894766 1.484126 2.920628 143 138 134
-1.886515 0.377114 2.919598 186 172 167
-1.760503 -1.333495 2.725011 47 32 27
-1.925783 1.305413 2.981370 89 74 71
-1.882549 0.581789 2.921265 45 35 35
-1.889779 1.922973 2.935193 24 22 23
-1.881348 1.886676 2.924640 32 28 27
-1.878634 0.977998 2.923943 121 112 107
-1.786135 -0.094726 2.783916 176 159 152
-1.866014 -0.364199 2.913432 83 65 64
-1.882506 2.083076 2.941674 21 20 16
-1.838734 -1.431479 2.880547 132 112 101
-1.866739 0.827183 2.924984 162 145 138
-1.864882 0.980281 2.926801 26 22 23
-1.811773 -2.392776 2.846046 129 105 93
-1.854619 -0.136160 2.920672 159 130 122
-1.858682 1.036656 2.928226 90 79 78
-1.494411 -0.720431 2.355976 51 38 34
-1.823711 -1.394204 2.874994 142 127 114
-1.868962 1.912347 2.946749 97 90 80
-1.859096 1.482740 2.931427 146 137 130
-1.869350 2.105565 2.954907 92 87 81
-1.840500 -0.905391 2.912066 151 126 108
-1.848496 0.140588 2.931589 182 166 156
-1.822534 -1.118978 2.891574 145 126 118
-1.827846 -1.172482 2.903664 145 126 120
-1.837724 1.265363 2.922945 162 151 147
-1.838320 1.007720 2.931908 145 130 124
-1.828966 1.474122 2.918666 147 139 133
-1.856389 2.112442 2.962946 91 87 80
-1.795587 -1.661562 2.874842 132 115 107
-1.827280 -0.133816 2.927448 144 115 107
-1.825397 -0.097719 2.929446 176 158 148
-1.818521 -0.121287 2.930980 86 72 72
-1.830743 1.892023 2.951631 18 17 13
-1.819355 1.268901 2.938888 158 149 143
-1.777457 -1.677592 2.877623 61 52 47
-1.816969 1.698687 2.942515 109 100 96
-1.825373 2.113820 2.956214 87 76 73
-1.780099 -1.398544 2.891550 143 134 115
-1.792454 -0.862679 2.920057 138 125 116
-1.798515 1.676601 2.931738 29 26 27
-1.776880 -1.364528 2.896841 139 122 107
-1.800020 -0.125884 2.937237 74 54 49
-1.802175 1.707602 2.940594 32 28 27
-1.796475 1.509604 2.934621 132 121 115
-1.798756 1.504973 2.942716 94 82 76
-1.801353 1.881545 2.949387 28 25 25
-1.778339 -1.174232 2.914213 140 121 109
-1.755893 -1.848860 2.887701 133 114 100
-1.787010 1.462999 2.941839 41 32 30
-1.784976 1.694278 2.946119 108 104 99
-1.748962 -1.402628 2.900034 137 126 120
-1.770788 -0.369068 2.937518 94 75 69
-1.773919 -0.121507 2.943749 93 74 70
-1.770151 1.249122 2.943240 137 110 107
-1.763829 -0.096502 2.933506 174 155 149
-1.774293 0.379397 2.950934 182 165 157
-1.755528 -0.862872 2.919875 146 130 118
-1.773633 2.097240 2.953762 22 21 17
-1.773633 2.097240 2.953762 22 21 17
-1.746856 -1.152595 2.910192 57 49 46
-1.742077 -1.329306 2.903311 120 101 94
-1.754757 -0.907403 2.927615 70 49 42
-1.751621 -0.807856 2.926992 139 120 105
-1.738256 -1.290390 2.907549 136 121 110
-1.741425 -1.140199 2.918218 44 37 31
-1.750073 -0.349823 2.936467 178 153 146
-1.736674 -1.211389 2.913935 152 134 122
-1.611256 1.541993 2.711271 18 11 11
-1.728349 -1.176756 2.915116 142 125 113
-1.738188 -0.720287 2.933389 129 107 96
-1.736941 -0.636401 2.935304 120 101 94
-1.746106 2.111832 2.958150 88 85 70
-1.732403 -0.370137 2.947526 99 75 66
-1.725132 1.485827 2.950704 130 121 114
-1.715688 -0.831073 2.937972 138 124 115
-1.715913 -0.632895 2.941478 61 46 43
-1.681435 -1.715367 2.898946 129 111 97
-1.699848 -0.847434 2.931732 139 121 111
-1.710649 -0.261804 2.952351 177 147 137
-1.723404 2.297231 2.975301 21 19 17
-1.701215 -0.848244 2.937569 142 124 114
-1.678029 -1.692019 2.898899 42 36 33
-1.709618 1.031717 2.957216 133 112 111
-1.723546 2.316997 2.982382 82 75 69
-1.703361 -0.216886 2.949207 179 153 140
-1.690830 -1.692671 2.932365 126 110 103
-1.698346 -0.165800 2.949120 169 144 133
-1.718343 1.705414 2.985653 108 102 98
-1.695057 -0.604651 2.949923 154 130 120
-1.690528 1.256622 2.962916 42 27 27
-1.649628 -1.953296 2.892690 129 107 96
-1.683571 -0.161272 2.957491 65 50 49
-1.682588 -0.138228 2.957372 103 86 86
-1.687633 -0.377565 2.979718 72 52 49
-1.676749 0.863875 2.969207 172 157 154
-1.666608 -0.350001 2.952775 174 151 137
-1.667880 -0.148056 2.959607 181 154 145
-1.667355 -0.123628 2.959525 174 155 149
-1.751540 1.763368 3.111278 20 16 13
-1.661745 -0.104718 2.954533 184 166 156
-1.693119 1.726427 3.011628 45 36 31
-1.662926 0.600619 2.959233 173 160 151
-1.660172 -0.133544 2.955380 89 69 60
-1.662256 0.141800 2.959829 183 166 158
-1.655093 0.816825 2.968955 32 23 21
-1.644658 -0.375696 2.963389 59 42 40
-1.613055 -1.697650 2.909629 48 39 30
-1.641758 -0.129440 2.969671 95 76 70
-1.641758 -0.129440 2.969671 95 76 70
-1.624721 -0.188249 2.954278 177 147 136
-1.633611 0.139583 2.974948 185 169 164
-1.628149 -0.608492 2.964916 160 136 129
-1.621220 0.143757 2.975710 172 154 148
-1.614986 -0.101345 2.964550 175 154 147
-1.613133 0.613516 2.976734 165 147 143
-1.634766 2.327869 3.020917 22 20 19
-1.543218 1.844283 2.875386 88 89 73
-1.580594 -0.864641 2.953279 143 123 112
-1.654899 1.988843 3.108902 100 94 90
-1.572823 -0.375064 2.983138 83 69 66
-1.561064 -0.872617 2.962901 140 118 106
-1.566052 0.602998 2.980654 184 167 160
-1.572982 2.107833 2.996440 24 16 14
-1.542062 -1.138055 2.952604 132 120 108
-1.537176 -1.444152 2.950764 63 52 46
-1.520466 -2.220684 2.929128 135 116 106
-1.550984 1.036177 2.991421 142 126 122
-1.531179 -1.469342 2.958481 136 114 102
-1.531279 -1.469132 2.959013 136 114 102
-1.538236 1.136686 2.986462 143 133 131
-1.520769 1.267397 2.989599 116 111 107
-1.520829 1.246479 2.991807 30 26 25
-1.528655 2.316540 3.010349 13 9 6
-1.515385 1.058624 2.991024 163 154 150
-1.512861 -0.106521 2.987943 180 166 157
-1.510860 -0.383479 2.995412 73 49 46
-1.226312 1.712331 2.437962 25 19 16
-1.494535 2.292595 2.984926 19 17 13
-1.469578 -2.271984 2.940495 64 49 43
-1.460343 -2.095304 2.930774 82 74 68
-1.478355 -0.139797 2.976507 172 143 135
-1.489014 1.274276 3.008494 111 108 100
-1.476528 1.899380 2.995375 27 23 22
-1.446953 -2.025855 2.938259 138 125 116
-1.444917 -2.126455 2.939532 145 129 120
-1.471478 -0.383399 2.995851 62 44 42
-1.465811 -0.639300 2.998574 78 65 58
-1.440577 -1.485923 2.961285 127 105 94
-1.446723 -1.463642 2.975999 33 24 22
-1.424342 -2.240833 2.938096 141 112 95
-1.424342 -2.240833 2.938096 141 112 95
-1.422891 -2.008173 2.955750 80 62 48
-1.421956 -1.456351 2.960796 44 34 32
-1.584340 2.089157 3.299160 8 4 2
-1.437179 -0.355458 3.000272 178 158 148
-1.412380 -1.985111 2.955338 141 127 116
-1.235147 1.098999 2.593390 123 118 112
-1.419707 -1.147035 2.980833 135 119 105
-1.592610 2.117994 3.346893 16 17 11
-1.430889 0.140125 3.010950 186 171 166
-1.402250 -1.694672 2.953092 134 117 107
-1.400927 -1.664304 2.961552 145 125 115
-1.402216 -0.874096 2.982109 141 122 111
-1.392513 -1.524612 2.968243 153 129 117
-1.393313 -1.480109 2.974461 146 122 110
-1.395372 -1.150800 2.982080 140 123 113
-1.384349 -1.434481 2.966459 128 110 100
-1.403357 -0.143075 3.014671 179 151 144
-1.392981 -1.166248 2.993930 61 47 38
-1.388918 -0.912176 2.994940 67 51 46
-1.372564 -1.778811 2.965199 174 161 161
-1.372564 -1.778811 2.965199 174 161 161
-1.383841 -1.082359 2.991182 145 125 116
-1.397946 -0.132413 3.022595 100 77 74
-1.384050 -0.953299 2.993969 82 66 61
-1.376484 -1.154419 2.988202 144 124 113
-1.368862 -1.177933 2.983100 60 45 39
-1.377744 -0.626412 3.015308 86 67 60
-1.391818 0.358708 3.050676 55 36 32
-1.391818 0.358708 3.050676 55 36 32
-1.373923 -0.614551 3.012153 168 145 137
-1.466341 2.030295 3.216474 11 8 8
-1.366501 -0.926223 3.000030 131 107 95
-1.363107 -0.934368 2.999074 137 113 101
-1.363107 -0.934368 2.999074 137 113 101
-1.358843 -0.891023 2.999593 139 119 108
-1.364148 -0.410610 3.018019 161 139 128
-1.365662 -0.396119 3.022633 94 68 67
-1.364559 -0.410688 3.021295 161 139 128
-1.364559 -0.410688 3.021295 161 139 128
-1.364876 -0.112668 3.030149 191 173 163
-1.355841 1.896795 3.013490 27 21 21
-1.333579 -2.010742 2.969582 89 69 64
-1.319616 -2.584197 2.941489 58 28 28
-1.352609 -0.576216 3.015685 88 69 62
-1.352609 -0.576216 3.015685 88 69 62
-1.053033 1.323653 2.351381 107 104 96
-1.351429 -0.543640 3.021454 89 69 60
-1.348675 -0.503114 3.021839 104 84 77
-1.351201 0.092788 3.034422 179 156 146
-1.339583 -0.881133 3.009268 88 65 58
-1.056464 1.166253 2.376712 22 12 11
-1.339155 -0.393974 3.023073 99 85 82
-1.328941 -1.160721 3.005268 143 121 108
-1.335075 0.599822 3.024318 191 174 166
-1.336091 -0.485156 3.031263 165 143 131
-1.317861 -0.884854 3.010771 137 115 101
-1.324278 -0.371650 3.030647 163 141 130
-1.321511 -0.365373 3.029963 170 148 137
-1.325420 -0.117198 3.048760 188 171 163
-1.315164 0.128414 3.042393 193 176 166
-1.302245 -0.648461 3.021760 100 84 76
-1.230009 1.808192 2.855881 95 92 87
-1.308075 0.597082 3.038461 196 172 160
-1.301748 0.376059 3.034059 201 182 175
-1.295457 -0.387124 3.027647 83 65 57
-1.297425 2.341895 3.054153 82 79 73
-1.292383 0.644304 3.045575 178 144 135
-1.283800 0.800830 3.025883 126 102 95
-1.242727 1.855992 2.946397 12 11 7
-1.280232 0.382992 3.045703 131 105 104
-1.238334 1.868101 2.953958 93 94 78
-1.272872 0.369119 3.051391 197 171 165
-1.253043 -0.647732 3.006990 101 82 75
-1.261995 0.580958 3.044682 78 50 47
-1.272548 2.338534 3.071993 10 6 3
-1.233247 -2.614093 2.985521 67 42 38
-1.257699 0.595504 3.044494 199 179 166
-1.245667 -0.390171 3.044179 97 78 72
-1.224532 1.706344 3.046230 99 97 98
-1.221268 0.600848 3.039497 210 188 174
-1.223924 1.944401 3.084409 96 93 88
-1.204217 -0.647606 3.044462 86 70 65
-1.204387 1.698368 3.057705 20 19 17
-1.179669 -1.997956 2.996835 145 127 113
-1.195150 -0.636294 3.046132 174 154 145
-1.195291 1.274750 3.046481 28 26 26
-1.194226 1.473649 3.061971 26 25 21
-1.198038 0.130452 3.073086 190 170 159
-1.183889 2.120580 3.058970 23 20 19
-1.180475 1.499077 3.062873 108 97 93
-1.169789 -0.902176 3.036279 158 141 131
-1.137565 -2.611370 2.981921 66 40 41
-1.168161 0.129245 3.071134 199 179 170
-1.166111 1.720659 3.076155 92 85 82
-1.145682 -0.925146 3.046707 63 48 45
-1.155748 -0.128587 3.077171 124 95 91
-1.149383 1.273300 3.067043 18 8 7
-1.129652 -1.464263 3.019964 78 63 56
-1.145901 0.602767 3.067551 156 129 119
-1.143220 -0.645679 3.061299 97 75 67
-1.127699 -1.194036 3.028163 66 48 46
-1.127699 -1.194036 3.028163 66 48 46
-1.137574 0.364107 3.069791 212 184 170
-1.137129 1.503079 3.069153 107 102 95
-1.134858 -0.367591 3.078122 184 165 158
-1.106692 -1.172360 3.023938 150 123 112
-1.124259 -0.118567 3.079266 182 162 149
-1.108053 -0.900905 3.044030 156 138 126
-1.116415 -0.394656 3.074563 97 79 76
-1.111106 0.340446 3.069003 220 184 170
-1.114413 -0.172324 3.079189 184 157 146
-1.112208 0.015371 3.087753 192 171 167
-1.109141 0.125896 3.082889 224 213 209
-1.109141 0.125896 3.082889 224 213 209
-1.081158 -2.319567 3.004230 128 100 89
-1.076483 -2.562677 2.995878 128 109 102
-1.090244 -1.226337 3.036094 156 134 120
-1.078344 -2.452990 3.006691 133 114 100
-1.085615 -1.360750 3.028360 146 123 109
-1.094619 0.379820 3.072583 235 199 185
-1.094619 0.379820 3.072583 235 199 185
-1.074563 -2.416198 3.018093 142 123 112
-1.071357 -1.420767 3.024038 56 42 35
-1.092604 0.125717 3.085453 220 208 203
-1.071846 -1.308106 3.032825 80 63 55
-1.071846 -1.308106 3.032825 80 63 55
-1.073890 -1.192091 3.042000 84 61 53
-1.085535 -0.384645 3.077046 98 77 74
-1.069916 -1.263942 3.038479 82 59 53
-1.082186 -0.672550 3.073588 61 43 39
-1.063216 -1.440309 3.028593 141 119 106
-1.059417 -1.788861 3.025749 53 43 41
-1.063929 -1.236721 3.040681 91 70 62
-1.063929 -1.236721 3.040681 91 70 62
-1.060139 -1.226568 3.035567 79 58 48
-1.052888 -2.575943 3.018424 124 105 98
-1.056750 -1.400192 3.032076 144 118 103
-1.066291 -0.704292 3.070341 142 122 109
-1.059564 -0.930473 3.052395 90 71 65
-1.052904 -1.451449 3.037711 139 113 100
-1.060271 -0.909125 3.058667 157 138 122
-1.046659 -1.953277 3.024609 139 119 109
-1.068383 -0.142888 3.089920 124 103 97
-1.061098 -0.363668 3.079075 178 154 143
-1.029263 -2.608802 2.988053 82 55 46
-1.045576 -1.214535 3.036735 49 29 20
-1.061244 -0.366670 3.088845 176 152 140
-1.045155 -0.886831 3.060569 42 32 28
-1.039065 -0.663946 3.081920 67 52 47
-1.017558 -1.758602 3.026125 84 56 52
-1.031843 -0.702696 3.073398 53 40 32
-1.031843 -0.702696 3.073398 53 40 32
-1.031871 -0.702598 3.074258 53 40 32
-1.031871 -0.702598 3.074258 53 40 32
-1.019773 -0.717857 3.074744 148 121 110
-1.021934 -0.254793 3.097740 112 83 75
-1.021021 0.271899 3.099877 217 184 167
-1.021499 -0.134246 3.101769 131 104 93
-1.007367 -0.679798 3.083759 146 116 109
-1.010575 -0.331737 3.100422 183 149 137
-1.003725 0.572307 3.088446 83 60 54
-0.994495 0.893204 3.077198 129 110 95
-0.994495 0.893204 3.077198 129 110 95
-0.999228 1.285794 3.096358 111 101 99
-0.968575 -2.573306 3.019908 128 111 103
-0.994665 -0.141831 3.110244 73 50 46
-0.991926 0.323839 3.103813 194 163 148
-0.981645 -0.933637 3.077031 99 74 70
-0.986595 -0.360739 3.096198 176 152 140
-0.970924 0.605308 3.091737 130 111 99
-0.968476 0.577583 3.103198 130 112 100
-0.967235 0.125489 3.108486 199 177 166
-0.962493 0.802889 3.095372 101 87 78
-0.963559 0.160267 3.120090 203 178 167
-0.963151 0.348531 3.119072 77 62 59
-0.938839 0.730979 3.098187 47 33 32
-0.933685 0.809797 3.104391 37 27 26
-0.933616 0.530360 3.104507 131 113 101
-0.933616 0.530360 3.104507 131 113 101
-0.932325 0.837907 3.105650 132 113 106
-0.928162 0.941429 3.093133 126 108 94
-0.924950 0.606382 3.107620 156 137 131
-0.915685 1.070667 3.099988 116 106 92
-0.897632 -1.493969 3.070866 90 63 52
-0.903531 1.030524 3.096203 122 90 78
-0.894472 1.053921 3.102245 30 26 25
-0.897655 0.367880 3.125968 152 141 135
-0.893316 0.121495 3.129011 180 156 146
-0.891920 -0.124617 3.127615 170 153 137
-0.885351 1.265374 3.107107 30 29 25
-0.869790 -2.594296 3.054109 128 110 98
-0.885546 0.821543 3.111553 36 31 28
-0.884319 0.602995 3.119864 154 131 122
-0.878833 1.291001 3.122216 126 120 114
-0.873622 1.216734 3.113133 109 107 105
-0.866357 1.932280 3.113706 21 19 19
-0.866994 0.121457 3.134366 155 142 130
-0.873484 0.293073 3.161771 108 79 71
-0.854236 0.743533 3.118747 82 48 46
-0.846508 1.043424 3.119859 120 101 94
-0.836131 0.745723 3.113385 62 33 31
-0.836057 1.225007 3.122467 99 95 92
-0.838956 0.344562 3.136975 68 57 53
-0.823312 -1.213743 3.081516 83 70 63
-0.823312 -1.213743 3.081516 83 70 63
-0.831632 0.105673 3.136876 59 43 30
-0.819058 1.117338 3.125925 95 87 84
-0.822296 -0.142775 3.142977 58 43 40
-0.815919 -0.649776 3.120427 156 136 125
-0.809510 0.354618 3.142718 42 33 31
-0.805911 0.604879 3.131150 174 158 154
-0.795875 1.272240 3.130669 31 25 22
-0.797492 0.104518 3.140661 58 45 36
-0.791880 -0.672031 3.121157 84 67 58
-0.791951 1.076815 3.121774 108 100 98
-0.769457 1.057706 3.129818 41 30 27
-1.119939 2.198457 4.565331 99 91 89
-0.767511 0.839359 3.137647 128 104 101
-0.765819 0.592250 3.146254 65 42 39
-0.744000 -1.219841 3.091853 86 58 52
-0.754657 0.845052 3.138324 128 95 91
-0.745273 0.820992 3.129769 43 25 21
-0.747027 1.067203 3.144014 106 94 90
-0.737026 0.592486 3.133643 54 40 37
-0.721042 -1.522741 3.093988 110 66 59
-0.732016 0.610359 3.149974 161 144 137
-0.713994 -1.637590 3.098880 103 70 61
-0.696447 -1.747109 3.104341 145 128 120
-0.694619 -0.962060 3.113086 95 75 64
-0.686096 -1.235094 3.108012 101 69 56
-0.688222 -0.978620 3.122448 158 136 123
-0.670199 -1.210469 3.110662 168 142 129
-1.294573 -0.731877 6.075560 156 134 120
-0.668429 -0.506718 3.152812 134 115 101
-0.650581 -1.502801 3.107150 170 146 142
-0.659846 -0.451339 3.152415 128 110 96
-0.661345 0.039339 3.164748 61 50 46
-0.658705 0.095772 3.162728 67 56 50
-0.658166 0.403767 3.161777 141 124 112
-0.653743 0.484104 3.160333 131 113 101
-0.648099 0.556499 3.163553 133 115 103
-0.642301 0.349856 3.166708 62 44 42
-0.625298 -1.507899 3.113297 176 154 140
-0.633066 -0.464034 3.167812 146 116 103
-0.626745 0.845595 3.165679 119 112 101
-0.619329 0.388709 3.164588 92 71 67
-0.616023 0.860344 3.162785 42 33 31
-0.600701 -2.434466 3.090431 132 118 109
-0.613389 0.606954 3.174632 158 139 133
-0.609351 1.046587 3.168630 27 23 24
-0.607809 1.028294 3.170151 35 26 28
-0.605309 0.831141 3.175572 25 21 18
-0.605087 0.390755 3.178679 160 148 144
-0.604745 0.413678 3.177950 137 122 119
-0.589212 0.852361 3.183055 99 89 83
-0.586530 1.929504 3.182381 21 21 21
-0.586530 1.929504 3.182381 21 21 21
-0.586670 1.956487 3.185910 86 82 81
-0.580383 -0.598370 3.167466 169 138 120
-0.578725 -0.391519 3.160884 154 128 115
-0.582571 1.024271 3.189269 110 106 103
-0.579431 0.606776 3.187993 128 117 111
-0.578354 0.502741 3.182544 135 120 117
-1.674097 3.798144 9.256519 89 81 78
-1.607747 3.768252 9.076772 31 26 23
-0.536553 0.352943 3.195230 82 53 45
-0.503015 -1.820271 3.149606 60 34 33
-0.503015 -1.820271 3.149606 60 34 33
-0.492275 -0.416046 3.180145 76 57 48
-0.481012 0.414002 3.198313 149 143 143
-0.468562 0.841210 3.215439 24 20 19
-0.459389 -1.242465 3.165387 105 81 77
-0.461469 0.827142 3.199419 28 24 23
-0.460925 0.446146 3.201169 100 82 78
-0.442660 -1.789774 3.157376 119 96 88
-0.439154 1.532168 3.206537 92 84 78
-0.437154 0.404543 3.214722 107 95 93
-0.431017 0.408531 3.204441 125 116 114
-0.413206 0.871732 3.211491 68 61 59
-0.409711 1.295435 3.215200 18 14 13
-0.401788 1.282289 3.198038 34 29 26
-0.396972 1.057585 3.200280 26 24 24
-0.384292 0.409067 3.215209 88 80 78
-0.380644 0.541424 3.207459 74 60 59
-0.375206 0.556874 3.225878 143 138 137
-0.365742 -1.855453 3.162687 126 113 105
-0.370072 0.368694 3.217447 147 133 128
-0.355324 -1.918383 3.167322 117 103 94
-0.360244 0.420709 3.235442 87 76 72
-0.349532 0.044920 3.218665 134 116 112
-0.348097 0.576999 3.217032 92 81 79
-0.340956 -2.471483 3.147108 43 34 32
-0.337229 -1.820821 3.156003 53 37 36
-0.337229 -1.820821 3.156003 53 37 36
-0.338808 0.518990 3.220681 135 133 132
-0.327893 0.368020 3.233234 152 139 133
-0.325435 0.589918 3.238579 53 39 36
-0.315536 -2.672631 3.150153 108 94 88
-0.319970 -0.910954 3.203224 73 55 47
-0.317523 -0.342581 3.217621 85 66 60
-0.309891 -2.059737 3.172689 112 107 103
-0.306416 -0.264949 3.226060 129 104 97
-0.306061 -0.300274 3.225693 138 115 106
-0.302956 0.610027 3.236223 141 132 128
-0.301611 0.117642 3.226402 141 126 121
-0.276932 0.124317 3.237003 107 98 96
-0.271552 0.598954 3.235435 48 37 35
-0.269450 0.347166 3.240047 49 44 41
-0.258311 0.549955 3.246109 42 23 19
-0.252391 0.515631 3.235761 113 103 101
-0.244428 0.529371 3.251591 42 26 25
-0.207874 0.123271 3.241670 101 96 93
-0.170225 0.783442 3.264197 145 139 130
-0.146000 0.121928 3.252393 111 98 89
-0.144900 0.593357 3.251608 36 30 28
-0.144381 0.097496 3.245410 33 24 25
-0.119896 -0.163513 3.254787 41 34 31
