ply
format ascii 1.0
element vertex 781
property float x
property float y
property float z
property uchar red
property uchar green
property uchar blue
end_header
-1.9320493936538696 -2.00968599319458 4.03698205947876 50 54 58
-1.8777145147323608 0.5686078667640686 4.017836570739746 206 206 201
-1.8481684923171997 0.49549123644828796 3.9757602214813232 172 163 156
-1.8240382671356201 0.025958308950066566 3.9455854892730713 68 62 57
-1.8161193132400513 0.013871326111257076 3.943629264831543 171 156 149
-1.9402964115142822 2.6975595951080322 4.242168426513672 153 153 147
-1.832783818244934 2.97615909576416 4.388427734375 141 133 130
-1.816703200340271 2.9520978927612305 4.401243209838867 51 45 45
-1.7162668704986572 2.3383288383483887 4.373924732208252 139 134 130
-1.744683861732483 2.9308807849884033 4.450245380401611 38 36 37
-1.6665159463882446 1.2967312335968018 4.305579662322998 44 35 36
-1.6480439901351929 1.1065374612808228 4.289623260498047 169 165 160
-1.6420724391937256 1.0847262144088745 4.281351089477539 130 117 112
-1.5944465398788452 0.25538548827171326 4.1753315925598145 71 63 55
-1.6884430646896362 2.398468255996704 4.430037021636963 179 178 176
-1.6501315832138062 2.903571844100952 4.523115634918213 118 109 101
-1.6458680629730225 2.947946786880493 4.550368785858154 113 110 107
-1.6390045881271362 2.9339935779571533 4.555502414703369 49 44 43
-1.4938775300979614 -0.23138150572776794 4.197033405303955 190 183 177
-1.4904282093048096 -0.22103022038936615 4.197030067443848 155 147 139
-1.4785722494125366 -0.24765536189079285 4.198988914489746 148 135 129
-1.4760751724243164 -0.2398635298013687 4.203920364379883 190 183 173
-1.40469229221344 -1.0362344980239868 4.203352928161621 193 189 180
-1.4837263822555542 2.582303047180176 4.6658453941345215 85 80 76
-1.4308445453643799 1.2788389921188354 4.512824058532715 53 52 44
-1.4831405878067017 2.6644833087921143 4.696920871734619 174 173 171
-1.3361144065856934 -1.0583434104919434 4.267175197601318 178 175 170
-1.4933544397354126 3.295365333557129 4.790574550628662 87 83 82
-1.4549365043640137 2.5947022438049316 4.666509628295898 135 124 118
-1.4510927200317383 -2.120596408843994 4.659544467926025 78 75 68
-1.4607329368591309 3.136134386062622 4.777577877044678 151 148 145
-1.4433822631835938 2.9396588802337646 4.745461463928223 156 155 153
-1.4241764545440674 2.084824800491333 4.691100120544434 137 121 112
-1.2694064378738403 -2.805826425552368 4.450593948364258 144 138 132
-1.2222440242767334 -1.0846744775772095 4.358774662017822 181 173 170
-1.3553402423858643 3.640941619873047 5.01216983795166 152 158 158
-1.2994602918624878 2.920137405395508 4.915940284729004 53 49 46
-1.2994602918624878 2.920137405395508 4.915940284729004 53 49 46
-1.318795084953308 3.551866292953491 5.030589580535889 119 121 120
-1.2717119455337524 2.37093448638916 4.921683311462402 47 38 38
-1.1512082815170288 -0.8632931709289551 4.504530906677246 70 65 61
-1.1512082815170288 -0.8632931709289551 4.504530906677246 70 65 61
-1.1014381647109985 -3.0227229595184326 4.330196380615234 67 69 66
-1.2640247344970703 2.928947925567627 4.9714484214782715 153 150 145
-1.2407810688018799 2.3882880210876465 4.921271324157715 132 129 124
-1.1251873970031738 -0.9875766038894653 4.469175338745117 172 168 159
-1.1187334060668945 -1.1294242143630981 4.456089973449707 161 153 149
-1.102585792541504 -1.0980632305145264 4.474511623382568 192 191 186
-1.0693858861923218 -0.8426908850669861 4.533022403717041 197 198 193
-1.097641110420227 0.2068294733762741 4.671632766723633 189 185 179
-1.1340118646621704 1.7545536756515503 4.902960300445557 145 140 137
-1.1395670175552368 2.922543525695801 5.099645614624023 53 45 39
-1.0334982872009277 1.478139877319336 4.924441337585449 179 172 167
-0.9884560108184814 2.354924440383911 5.156363010406494 185 183 177
-0.9904327392578125 2.5667428970336914 5.166403293609619 141 132 126
-0.9334890842437744 0.734770655632019 4.912752628326416 174 167 161
-0.9366856813430786 0.72120600938797 4.95247745513916 139 132 124
-1.0136264562606812 3.644270181655884 5.400025367736816 73 77 73
-0.8451683521270752 -3.0465922355651855 4.541081428527832 64 64 63
-0.8798896074295044 -0.27337005734443665 4.905963897705078 161 146 139
-0.8798896074295044 -0.27337005734443665 4.905963897705078 161 146 139
-0.9720723032951355 3.6405861377716064 5.420955181121826 147 152 156
-0.8284245133399963 -0.6616901159286499 4.83269739151001 153 144 139
-0.7658690214157104 3.5841948986053467 5.54910945892334 79 79 79
-0.29737958312034607 0.4931681752204895 2.2328672409057617 155 147 141
-0.6641782522201538 -0.43530723452568054 5.071788311004639 153 142 139
-0.6586330533027649 -0.6509624719619751 5.034538745880127 183 177 174
-0.6544995903968811 -0.6071745753288269 5.0422892570495605 164 159 155
-0.6434383988380432 -0.9394758343696594 5.0278425216674805 106 105 93
-0.6821710467338562 -0.1646191030740738 5.369831085205078 56 50 47
-0.6180533170700073 -1.7154169082641602 4.906086444854736 165 164 151
-0.6150170564651489 -0.9454370141029358 5.045367240905762 78 70 59
-0.5825488567352295 -1.505876064300537 4.969300746917725 150 141 134
-0.5801442861557007 -1.5017567873001099 4.960596561431885 154 145 138
-0.4267997741699219 -2.0406315326690674 5.101999759674072 136 129 123
-0.4410509467124939 0.05469580367207527 5.403847694396973 145 129 121
-0.396690309047699 -1.2732362747192383 5.202756881713867 153 144 137
-0.385172039270401 -2.0777883529663086 5.139614582061768 61 55 50
-0.41240888833999634 2.8794469833374023 5.8460516929626465 40 37 30
-0.33295896649360657 -0.4477168917655945 5.530766010284424 102 89 83
-0.29257750511169434 -1.5095211267471313 5.2843241691589355 145 137 131
-0.2532004117965698 2.8661906719207764 6.0028886795043945 56 47 45
-0.2126021683216095 -2.34660005569458 5.182291507720947 42 39 34
-0.23146949708461761 0.46351388096809387 5.683404922485352 154 145 138
-0.20839427411556244 0.44574886560440063 5.697486877441406 152 141 135
-0.20839427411556244 0.44574886560440063 5.697486877441406 152 141 135
-0.21644876897335052 2.8936209678649902 6.053709983825684 164 161 157
-0.06944762170314789 -1.8077517747879028 5.46426248550415 135 128 119
-0.052992478013038635 2.8704099655151367 6.229639053344727 50 44 44
-0.008327938616275787 1.2246521711349487 6.034010887145996 148 137 133
0.004107153043150902 -2.1648612022399902 5.541690826416016 47 46 41
0.004107153043150902 -2.1648612022399902 5.541690826416016 47 46 41
0.0392598919570446 -2.205043077468872 5.56914758682251 129 112 102
0.04918844625353813 0.2856888473033905 5.978455066680908 45 39 38
0.17213115096092224 2.8666374683380127 6.410888195037842 164 165 159
0.1619040071964264 -1.9343113899230957 5.799018383026123 53 45 43
0.2850854694843292 1.404573917388916 6.356027126312256 142 133 126
0.35695186257362366 -0.5106638669967651 6.185173511505127 147 131 120
0.43374964594841003 3.616375684738159 6.875558853149414 78 78 78
0.48194238543510437 2.27548885345459 6.712529182434082 153 148 144
0.4903348982334137 -0.007184272166341543 6.428438663482666 150 132 122
0.5399162769317627 -0.8988558053970337 6.363931655883789 22 19 14
0.6846528053283691 1.37367844581604 6.772324085235596 136 128 118
0.6862711310386658 -1.1566312313079834 6.373598575592041 152 143 136
0.7994041442871094 2.5698068141937256 7.097687721252441 157 157 149
0.789949893951416 2.227757215499878 7.00148344039917 149 148 143
0.7915729284286499 2.1722428798675537 6.97869873046875 135 122 116
1.1429380178451538 0.9863187074661255 7.20257043838501 129 115 108
1.3286552429199219 3.5744574069976807 7.766206741333008 46 46 48
1.3042726516723633 2.7660763263702393 7.570288181304932 39 38 36
1.2817084789276123 0.08580654114484787 7.222404479980469 136 118 108
1.279528021812439 -1.292507290840149 7.158138751983643 136 123 115
1.3872365951538086 0.12243207544088364 7.445143222808838 36 35 34
1.6056398153305054 1.5813273191452026 7.815087795257568 143 139 132
1.442227840423584 -2.756847858428955 6.925474166870117 50 41 36
1.6418811082839966 0.05679923668503761 7.552822113037109 123 105 99
1.8799796104431152 3.5708084106445312 8.33128547668457 78 78 77
1.7140719890594482 -0.762039840221405 7.589324951171875 124 107 100
1.7081239223480225 -0.7569385170936584 7.549324035644531 124 107 100
1.6777998208999634 -1.3519221544265747 7.412085056304932 53 45 40
1.7813624143600464 0.43260324001312256 7.827662467956543 138 115 102
1.9761173725128174 3.5737967491149902 8.467069625854492 58 58 59
2.2072036266326904 2.4278364181518555 8.477811813354492 40 28 27
2.0188143253326416 -2.0312812328338623 7.711305618286133 51 42 39
2.2571425437927246 -1.4794683456420898 8.107895851135254 55 51 42
2.4772961139678955 2.3036887645721436 8.79731273651123 138 129 120
2.4772961139678955 2.3036887645721436 8.79731273651123 138 129 120
2.3054065704345703 -0.8450083136558533 8.131620407104492 126 108 103
2.50555157661438 1.475900650024414 8.697664260864258 42 38 35
2.6652796268463135 2.8059804439544678 9.113913536071777 127 123 122
2.714341878890991 3.577110767364502 9.255613327026367 78 84 79
2.8874919414520264 -1.6131116151809692 8.80428409576416 46 37 38
2.8360185623168945 -2.1495678424835205 8.595632553100586 128 115 107
2.846398115158081 -1.8849211931228638 8.55604076385498 55 47 47
2.921750783920288 -2.1228559017181396 8.500181198120117 127 110 104
3.137603282928467 -1.980970859527588 8.88205623626709 146 130 117
3.809279441833496 2.7049930095672607 10.26945972442627 42 35 34
3.6791892051696777 -2.3311400413513184 9.385255813598633 130 115 112
3.64680552482605 -2.6268997192382812 9.301009178161621 137 124 118
3.8863425254821777 -1.1024644374847412 9.885211944580078 154 136 125
3.7403762340545654 -2.6680421829223633 9.440302848815918 134 118 111
4.21804141998291 0.7534786462783813 10.566402435302734 61 56 53
4.589238166809082 2.3218932151794434 11.139641761779785 145 126 120
3.9566597938537598 -3.7509496212005615 9.582000732421875 69 61 58
4.238189220428467 -1.1890753507614136 10.184408187866211 144 134 132
4.218006610870361 -1.8193378448486328 10.05933952331543 157 144 143
4.252813816070557 -2.5312883853912354 10.011994361877441 160 141 134
4.2584757804870605 -2.645531177520752 9.9752197265625 155 135 129
4.2584757804870605 -2.645531177520752 9.9752197265625 155 135 129
4.416968822479248 -1.8441888093948364 10.06806468963623 41 33 30
4.5977654457092285 -1.6318116188049316 10.470361709594727 159 143 136
5.186771869659424 1.7477710247039795 11.697199821472168 155 144 134
4.354159355163574 -3.030521869659424 9.808882713317871 150 132 130
4.852480411529541 -1.2740919589996338 10.807281494140625 143 130 126
4.780290126800537 -2.5786826610565186 10.377264976501465 146 131 128
4.6491570472717285 -4.136490821838379 10.073508262634277 68 58 58
4.922824859619141 -3.398904800415039 10.655320167541504 163 150 144
4.844387531280518 -4.502618312835693 10.473959922790527 120 106 104
4.767634391784668 -4.0533447265625 10.279090881347656 153 142 136
5.417138576507568 0.525728702545166 11.672743797302246 163 146 139
5.417138576507568 0.525728702545166 11.672743797302246 163 146 139
4.87691068649292 -3.240168809890747 10.44033432006836 62 58 57
4.968661785125732 -4.6092610359191895 10.624245643615723 125 114 112
4.891190528869629 -3.928190231323242 10.442944526672363 54 49 46
4.829311370849609 -3.252213716506958 10.305765151977539 75 71 70
4.8990607261657715 -3.977102279663086 10.454710006713867 123 112 110
5.479665756225586 0.23245741426944733 11.516892433166504 59 50 49
5.89877462387085 1.9078083038330078 12.276991844177246 74 65 63
5.241075038909912 -3.1941399574279785 10.838081359863281 168 155 154
5.3915252685546875 -2.9748752117156982 10.95214557647705 174 163 160
5.432689666748047 -1.331892728805542 10.98553466796875 184 168 165
5.552398681640625 -4.778781890869141 10.98289680480957 152 140 134
5.491336822509766 -4.683450222015381 10.71853256225586 127 114 111
5.918142795562744 -3.340147018432617 11.534797668457031 174 159 156
5.861128807067871 -3.0381791591644287 11.37921142578125 199 185 182
5.811988830566406 -4.835197925567627 11.242889404296875 156 142 139
6.23982572555542 -2.8288514614105225 12.007781028747559 206 198 195
6.387598514556885 -1.4210400581359863 12.22646713256836 194 181 173
6.387598514556885 -1.4210400581359863 12.22646713256836 194 181 173
6.360317707061768 -1.8207343816757202 12.052611351013184 191 175 172
6.063905715942383 -4.891262531280518 11.474151611328125 161 148 142
6.181488037109375 -3.4901041984558105 11.576430320739746 194 177 171
9.84945011138916 2.2079267501831055 18.337739944458008 147 152 148
6.385781764984131 -2.45168399810791 11.835182189941406 213 207 204
6.285608768463135 -4.409923076629639 11.632006645202637 185 171 167
6.347428798675537 -5.340641021728516 11.73874282836914 177 164 158
9.953496932983398 1.8977540731430054 17.99214744567871 207 211 210
9.844911575317383 1.9821727275848389 17.70009422302246 107 83 68
-1.1525349617004395 -2.061464786529541 4.745635509490967 53 47 48
-1.1270419359207153 -2.0304088592529297 4.766903877258301 163 159 150
-1.0053478479385376 -2.6293768882751465 4.808060169219971 151 145 133
-7.5015106201171875 -7.724956035614014 15.004034042358398 114 104 95
-0.8585553169250488 -0.39412444829940796 5.165077209472656 173 168 163
-0.8066810369491577 -2.092658281326294 5.050772666931152 156 154 139
-0.7759678959846497 -0.40390250086784363 5.251572132110596 179 176 171
-0.3399624228477478 -2.473043203353882 5.420652389526367 53 48 44
-0.42159029841423035 2.6585962772369385 6.112156867980957 153 145 135
0.28008919954299927 -0.9016492962837219 6.237990856170654 136 122 113
0.435032457113266 2.342719793319702 6.856424808502197 162 155 151
1.012338399887085 3.8354969024658203 6.710257053375244 141 143 132
1.1218668222427368 1.6181594133377075 7.427796840667725 88 73 69
1.1366840600967407 0.8405024409294128 7.351138114929199 146 124 110
1.3404734134674072 0.34082698822021484 2.9534473419189453 136 128 125
1.6366959810256958 2.2102630138397217 8.022830963134766 43 37 31
2.3628337383270264 2.542417287826538 8.835182189941406 135 122 113
2.382931709289551 2.4228336811065674 8.845041275024414 146 132 121
2.530984401702881 2.167815923690796 8.871345520019531 158 145 136
2.5636255741119385 2.1425275802612305 8.83733081817627 160 147 138
2.7830638885498047 0.8218802213668823 8.971301078796387 155 141 128
2.812898874282837 0.7087441086769104 8.985817909240723 160 145 134
3.1672301292419434 2.762091636657715 9.586569786071777 138 133 129
3.354285717010498 2.754087448120117 9.764004707336426 138 130 128
3.4251956939697266 2.1393933296203613 9.806904792785645 138 126 121
3.0546324253082275 -2.8822078704833984 8.736550331115723 55 41 38
3.0546324253082275 -2.8822078704833984 8.736550331115723 55 41 38
3.1400954723358154 -2.1929798126220703 8.867831230163574 144 130 117
3.8142943382263184 -2.359828472137451 9.556983947753906 132 114 109
4.327661991119385 1.35724937915802 10.490592002868652 148 139 134
3.866701126098633 -3.0192744731903076 9.430750846862793 63 53 50
4.501188278198242 1.6378649473190308 10.556894302368164 158 155 148
3.9937233924865723 -3.9457833766937256 9.46806526184082 123 106 99
4.177325248718262 -2.7646563053131104 9.648042678833008 143 124 118
4.243884563446045 -3.05094051361084 9.804153442382812 138 120 116
4.631872177124023 -1.7641782760620117 10.552135467529297 163 148 145
4.631872177124023 -1.7641782760620117 10.552135467529297 163 148 145
4.495673179626465 -1.8856477737426758 10.183525085449219 148 133 128
5.092750072479248 2.586838960647583 11.420378684997559 55 54 46
4.373570442199707 -4.083629131317139 9.814090728759766 58 48 47
4.801589012145996 -1.929141640663147 10.604586601257324 71 62 63
5.256168365478516 1.3107850551605225 11.48841381072998 153 143 141
4.577971935272217 -3.835458993911743 10.012870788574219 151 136 129
4.745212078094482 -3.518332004547119 10.295299530029297 147 136 132
4.8057942390441895 -3.4341280460357666 10.425674438476562 165 151 145
4.930816173553467 -3.7280735969543457 10.605803489685059 135 124 122
4.750678539276123 -4.5172905921936035 10.18117904663086 61 50 48
4.898460388183594 -3.8709254264831543 10.468841552734375 147 133 130
4.925766944885254 -3.2008817195892334 10.481266021728516 153 143 141
6.1011552810668945 2.206346273422241 12.334229469299316 153 138 135
6.714085102081299 3.3274283409118652 13.177994728088379 101 99 102
6.714085102081299 3.3274283409118652 13.177994728088379 101 99 102
5.832028865814209 -2.456082582473755 11.508156776428223 173 155 151
6.5049333572387695 1.878851294517517 12.742576599121094 156 147 144
5.431419849395752 -4.613296031951904 10.736817359924316 86 71 64
6.683368682861328 0.5174585580825806 12.916070938110352 162 151 149
6.721699237823486 1.4050114154815674 12.906987190246582 171 162 157
6.955122947692871 2.1505937576293945 13.245794296264648 69 64 64
6.591606140136719 -1.8662818670272827 12.608506202697754 185 170 167
7.866642475128174 3.114593029022217 14.899062156677246 163 164 158
6.467862129211426 -2.5119056701660156 12.235177993774414 206 190 190
6.583378314971924 -2.5528512001037598 12.455721855163574 205 190 190
6.192251205444336 -4.8589606285095215 11.51923656463623 168 154 151
-1.3529682159423828 -2.157346725463867 4.947910308837891 164 165 154
-1.3373273611068726 -2.1652047634124756 4.935458183288574 158 154 149
-1.4521186351776123 1.095908522605896 5.226154327392578 132 109 103
-1.3037034273147583 -2.1673507690429688 4.925009250640869 53 47 48
-1.336377739906311 -1.2241843938827515 5.010261535644531 178 174 170
-1.2716248035430908 -2.189815044403076 4.92344331741333 135 131 125
-1.3317981958389282 -0.6985447406768799 5.065884590148926 147 133 127
-1.287089228630066 -2.1421613693237305 4.960290908813477 163 159 150
-1.412864089012146 2.930515766143799 5.595160961151123 139 127 115
-1.2055848836898804 -0.5182095766067505 5.162438869476318 173 168 164
-1.1618902683258057 -2.218750476837158 5.03022575378418 140 133 125
-1.2116259336471558 -0.031115002930164337 5.233234405517578 178 166 157
-1.086222529411316 -2.7696022987365723 5.030830383300781 154 148 134
-1.0849790573120117 -2.229851722717285 5.106413841247559 130 120 111
-1.0324219465255737 -2.780735731124878 5.041816234588623 44 40 39
-1.0295274257659912 -2.83469295501709 5.052486419677734 124 117 111
-1.0575419664382935 -2.1645681858062744 5.128483295440674 159 159 151
-1.0616120100021362 -0.7193425893783569 5.25118350982666 148 139 134
-1.1149905920028687 0.8171705007553101 5.420830249786377 187 182 176
-1.0226465463638306 -1.3165137767791748 5.224723815917969 134 123 117
-0.9630902409553528 -2.4587531089782715 5.1144490242004395 130 123 115
-1.0222349166870117 0.149754136800766 5.397768974304199 152 134 127
-0.9454265832901001 -2.209329605102539 5.2620978355407715 156 154 139
-0.9072690606117249 -1.942004919052124 5.270402431488037 135 124 120
-0.9268913269042969 0.7119730114936829 5.5574951171875 146 127 118
-0.8037987947463989 -1.605038046836853 5.385347366333008 147 143 134
-0.7721536159515381 -1.0421050786972046 5.462616443634033 62 55 47
-0.6977719664573669 -2.8997442722320557 5.451980113983154 48 43 40
-0.6443651914596558 -3.4588966369628906 5.341288089752197 43 36 28
-0.6443651914596558 -3.4588966369628906 5.341288089752197 43 36 28
-0.608564555644989 -1.9353967905044556 5.521017551422119 139 130 123
-1.6119859218597412 1.6456727981567383 8.03576946258545 129 109 98
-0.4768015146255493 -2.2406206130981445 5.59567403793335 136 129 121
-0.49231886863708496 -0.8131754398345947 5.791770935058594 151 139 133
-0.47643473744392395 -2.2777698040008545 5.668688774108887 143 134 125
-0.5016103982925415 1.363598108291626 6.014445781707764 84 69 67
-0.44052189588546753 -2.323033094406128 5.639167785644531 126 112 101
-0.3692135214805603 -1.3396910429000854 5.754622459411621 150 140 133
-0.3634335696697235 -1.1064718961715698 5.793310165405273 141 130 124
-0.43576931953430176 3.954333543777466 6.570864677429199 142 148 145
-0.31568512320518494 -3.5676777362823486 5.6891865730285645 41 34 33
-0.27954813838005066 -1.3503062725067139 5.844035625457764 134 124 114
-0.2612883150577545 -1.7234373092651367 5.890295028686523 35 27 25
-0.2612883150577545 -1.7234373092651367 5.890295028686523 35 27 25
-0.23980973660945892 -2.9607105255126953 5.810276031494141 48 44 41
-0.20375066995620728 -1.9579333066940308 5.844910621643066 136 123 114
-0.2205064594745636 -0.44068601727485657 6.052520275115967 96 79 71
-0.2205064594745636 -0.44068601727485657 6.052520275115967 96 79 71
-0.2205064594745636 -0.44068601727485657 6.052520275115967 96 79 71
-0.1976388543844223 -2.297738790512085 5.852708339691162 137 124 115
-0.17333528399467468 1.1958544254302979 6.276727676391602 127 107 101
-0.06146714836359024 -3.5713751316070557 5.866036891937256 46 32 31
-0.06066996231675148 -1.1100419759750366 6.096709251403809 152 147 128
-0.04832379147410393 0.6441013216972351 6.353473663330078 167 162 159
-0.02589334361255169 -1.1491307020187378 6.164888381958008 58 50 45
-0.03592924028635025 1.5204708576202393 6.4856133460998535 162 153 146
0.00877118855714798 -0.8440751433372498 6.250864028930664 146 137 132
0.04425821453332901 -2.052002191543579 6.081215858459473 54 47 41
0.08639832586050034 -3.532520294189453 5.907847881317139 41 33 30
0.07631810754537582 -0.6029590368270874 6.3161797523498535 129 109 100
0.1705213338136673 3.9276113510131836 6.8013434410095215 121 121 119
0.20236842334270477 -2.3686063289642334 6.219926834106445 126 117 101
0.3608754575252533 0.016880057752132416 6.662740230560303 150 127 109
0.604270875453949 3.9635839462280273 6.688999652862549 126 128 125
0.6558029651641846 3.985295295715332 6.682667255401611 130 132 129
0.5705452561378479 3.0349056720733643 7.3035569190979 53 42 38
0.5906445384025574 -0.9495460391044617 6.7269768714904785 48 33 30
0.625303328037262 -1.8943074941635132 6.632093906402588 136 106 88
0.7571535110473633 2.9687914848327637 7.424045085906982 63 57 54
0.8834202885627747 3.9271395206451416 6.834627151489258 119 115 102
0.7177484631538391 -3.341827869415283 6.466262340545654 41 30 25
0.887897253036499 -3.3632729053497314 6.694742679595947 111 90 73
1.1195091009140015 -1.0576741695404053 7.205608367919922 48 34 31
1.3758443593978882 2.9580368995666504 7.992807388305664 136 128 125
1.5271036624908447 3.7875185012817383 8.349977493286133 79 79 77
1.3810365200042725 -3.1611270904541016 7.075295925140381 50 38 32
1.450907588005066 -1.0281579494476318 7.461781024932861 128 114 105
1.6374741792678833 3.8837478160858154 7.485392093658447 185 190 186
1.4334958791732788 -0.9713912606239319 5.433295726776123 51 39 33
1.4882358312606812 -3.2654154300689697 7.318366050720215 33 29 20
1.6840319633483887 -0.17754095792770386 7.7443413734436035 148 131 113
1.6589596271514893 -1.3603235483169556 7.581357955932617 115 102 93
1.6501294374465942 -1.9715319871902466 7.561049938201904 110 90 81
1.8105350732803345 -2.325150966644287 7.607247829437256 52 41 39
1.9354710578918457 -0.2067691534757614 8.045812606811523 138 116 105
2.068638801574707 -2.7069993019104004 7.836805820465088 47 36 32
2.464632272720337 -0.17708580195903778 8.48312759399414 143 121 114
2.506713628768921 -0.5925318598747253 8.400073051452637 126 108 101
2.6412339210510254 -2.084895610809326 8.307329177856445 124 109 104
2.656831979751587 -2.8269195556640625 8.403334617614746 40 36 35
2.870936870574951 -0.05114856734871864 8.9173002243042 136 125 119
3.0795812606811523 -2.920010566711426 8.837116241455078 55 41 38
3.147045850753784 -2.9204397201538086 8.858091354370117 56 47 41
3.390434980392456 -3.466869020485319e-05 9.312642097473145 149 131 121
3.2015559673309326 -2.545574188232422 8.801127433776855 61 50 44
3.3127176761627197 -2.9989218711853027 9.10702896118164 60 48 42
3.318993091583252 -2.5104048252105713 8.842884063720703 136 119 111
3.5283453464508057 -2.6319758892059326 9.146862983703613 59 51 49
3.5935943126678467 -2.6903762817382812 9.1985502243042 131 112 106
3.798267126083374 -2.3459489345550537 9.507099151611328 132 114 109
3.8159079551696777 -3.782229423522949 9.568760871887207 45 39 40
4.343320369720459 2.1704084873199463 10.475807189941406 153 133 124
3.889636516571045 -3.6742544174194336 9.404885292053223 63 52 48
3.9455008506774902 -3.699946641921997 9.409713745117188 124 110 107
3.9886624813079834 -3.937716484069824 9.464426040649414 123 106 99
4.169503211975098 -2.848485231399536 9.898905754089355 132 119 111
4.205324172973633 -2.8061439990997314 9.902953147888184 61 52 45
4.168292045593262 -2.757262706756592 9.621245384216309 143 124 118
4.3979291915893555 -2.1472461223602295 10.030474662780762 66 65 63
4.216298580169678 -4.053395748138428 9.666303634643555 56 46 42
4.533396244049072 -2.565467596054077 10.146997451782227 143 125 121
4.942773818969727 1.2162296772003174 10.943841934204102 63 63 62
4.465474605560303 -3.430288791656494 9.976849555969238 150 137 128
4.579461097717285 -3.20802640914917 10.225863456726074 68 61 55
4.470553398132324 -4.533782005310059 10.025016784667969 48 38 36
4.496255874633789 -2.1158313751220703 9.914132118225098 86 71 66
4.615539073944092 -1.8404818773269653 10.131488800048828 71 62 63
4.594326496124268 -3.870410203933716 10.16129207611084 67 62 59
4.499772071838379 -4.046172618865967 9.850306510925293 65 57 53
4.499772071838379 -4.046172618865967 9.850306510925293 65 57 53
4.613016605377197 -3.873908281326294 10.09898853302002 151 136 129
4.601196765899658 -3.717198371887207 9.953309059143066 136 121 118
4.829009532928467 -3.4540205001831055 10.485669136047363 165 151 145
4.962935924530029 0.2907339334487915 10.594795227050781 167 154 146
4.946579456329346 -2.59611439704895 10.70658016204834 159 144 140
4.851202011108398 -3.23221755027771 10.492002487182617 153 147 141
4.851202011108398 -3.23221755027771 10.492002487182617 153 147 141
4.83589506149292 -4.626603603363037 10.40439224243164 61 50 48
4.868548393249512 -3.839010000228882 10.400480270385742 147 133 130
4.7936015129089355 -4.181509971618652 10.229656219482422 74 62 61
4.9665727615356445 -3.4988725185394287 10.591450691223145 65 64 68
5.447293758392334 -2.111783981323242 11.565454483032227 83 69 68
4.8976030349731445 -2.171907901763916 10.26410961151123 93 80 79
4.97534704208374 -3.6167209148406982 10.493032455444336 24 23 24
5.299522399902344 -2.7422311305999756 11.169472694396973 64 52 52
5.206782817840576 -2.6850197315216064 10.849252700805664 161 146 142
5.244860649108887 -3.3661341667175293 10.921303749084473 63 57 52
5.698689937591553 -1.797826886177063 11.663496017456055 166 147 146
5.633670330047607 -2.436127185821533 11.462264060974121 79 63 63
5.541192054748535 -2.7255375385284424 11.243847846984863 71 67 58
5.861464500427246 1.5984044075012207 11.727388381958008 165 151 142
5.612404823303223 -2.436546564102173 11.333487510681152 171 155 152
5.872827529907227 -3.617610216140747 11.817900657653809 52 43 43
5.734574317932129 -3.5254006385803223 11.508447647094727 55 45 44
6.237984657287598 3.0121240615844727 12.160544395446777 101 99 102
6.237984657287598 3.0121240615844727 12.160544395446777 101 99 102
6.42034912109375 -3.0433149337768555 12.77442741394043 193 184 181
6.1951494216918945 1.3185756206512451 12.045795440673828 124 109 104
5.928915500640869 -3.1339097023010254 11.590031623840332 113 103 102
7.2746171951293945 2.4996490478515625 14.122671127319336 151 135 131
7.347562313079834 2.847414255142212 13.889227867126465 163 164 158
6.562540531158447 0.5564419627189636 12.30568790435791 179 174 170
6.562540531158447 0.5564419627189636 12.30568790435791 179 174 170
6.376039981842041 -3.6339755058288574 12.096232414245605 84 73 69
7.860755920410156 1.6489660739898682 14.698949813842773 110 120 121
7.294881820678711 -2.135148286819458 13.601178169250488 200 187 181
-0.3976093530654907 -0.4512123465538025 5.549300193786621 99 80 74
-0.17129042744636536 -0.12700989842414856 5.818474769592285 107 79 78
-9.956510543823242 1.9596858024597168 39.80051803588867 114 89 81
1.3775129318237305 -3.0964808464050293 6.94558572769165 41 30 26
1.3840113878250122 -3.065727949142456 6.945334434509277 113 87 72
1.5670822858810425 -1.241227626800537 7.402870178222656 159 157 158
3.5495290756225586 -1.0501676797866821 9.389586448669434 140 123 111
3.79569673538208 -1.1228783130645752 9.708430290222168 160 142 138
3.5963387489318848 -2.6879475116729736 9.193207740783691 130 111 104
3.645286798477173 -2.9834322929382324 9.251184463500977 64 55 53
4.423017501831055 1.6830544471740723 10.644547462463379 154 147 141
4.397644996643066 -4.421584129333496 9.802473068237305 51 44 37
5.08721399307251 -0.7289916276931763 10.867149353027344 145 117 113
4.765384674072266 -3.767068862915039 10.080296516418457 100 91 92
-0.6052172780036926 -2.1185250282287598 5.201878070831299 138 128 118
-0.5957220792770386 -0.7121687531471252 5.367726802825928 170 167 160
-0.45318296551704407 -0.2118346393108368 5.593474864959717 143 129 120
-0.41318416595458984 -0.4409155547618866 5.59369421005249 147 138 131
-0.4132118225097656 -0.4407810866832733 5.593863010406494 147 138 131
-7.51642370223999 1.2642751932144165 14.761231422424316 104 86 79
-0.367060124874115 0.10576527565717697 5.749457359313965 114 92 86
-0.17334286868572235 1.7968149185180664 6.198031902313232 120 110 101
-0.08256754279136658 0.2518221139907837 6.102771759033203 131 111 103
0.41134145855903625 -2.6195805072784424 6.100736618041992 45 37 32
0.46924102306365967 3.7255992889404297 7.141819953918457 70 73 72
0.5153771638870239 -3.20255446434021 6.113900184631348 48 38 36
0.5326842069625854 -0.015712102875113487 6.639891624450684 50 41 34
0.7236201167106628 3.7455227375030518 7.0803632736206055 172 174 170
0.8243674039840698 -0.4098762571811676 6.87849760055542 150 127 111
1.1333616971969604 -1.0367822647094727 7.088293075561523 122 103 89
1.1916807889938354 -1.3223848342895508 7.079051494598389 127 104 91
1.3411788940429688 3.673506736755371 7.955854892730713 106 110 111
1.2878373861312866 -0.721820056438446 7.264914512634277 130 120 107
1.2883071899414062 -0.7213924527168274 7.269390106201172 130 120 107
1.5909212827682495 3.7405970096588135 7.341569423675537 168 169 164
1.3533754348754883 -0.7367604374885559 7.32867956161499 145 134 129
1.3821322917938232 -2.8146135807037354 7.020796298980713 42 34 31
1.375304102897644 -3.0912513732910156 6.9910454750061035 113 87 72
1.7151691913604736 3.733644485473633 7.576189041137695 129 130 125
1.4674564599990845 -2.206052541732788 7.199775218963623 104 87 79
1.5622093677520752 -1.2493832111358643 7.447521686553955 159 157 158
2.029982805252075 3.725226879119873 7.764533519744873 118 121 110
1.8902227878570557 1.2580623626708984 8.1452054977417 40 34 25
2.085772752761841 3.727313756942749 7.801525592803955 129 129 131
2.0881595611572266 3.736562490463257 7.769316673278809 183 183 186
2.0692191123962402 1.5973094701766968 8.389554023742676 75 62 56
2.2729434967041016 3.7157764434814453 7.969416618347168 112 112 112
2.0152089595794678 -1.1252977848052979 7.834599494934082 126 109 100
2.207376718521118 1.21083402633667 8.429047584533691 35 33 29
2.059011220932007 -3.2687675952911377 7.642907619476318 45 31 30
2.249549627304077 -1.472094178199768 8.071693420410156 45 35 32
2.5191547870635986 2.442361354827881 8.912677764892578 133 116 109
2.606146812438965 2.7590854167938232 9.030985832214355 37 30 30
2.379910707473755 -1.479608416557312 8.223289489746094 118 104 96
2.3698713779449463 -2.7360188961029053 8.060633659362793 47 36 32
2.559920310974121 -0.33690735697746277 8.556366920471191 37 30 25
2.862819194793701 2.1272976398468018 9.189531326293945 148 133 125
2.9437077045440674 3.662443161010742 8.574405670166016 137 137 137
2.59806227684021 -2.1548655033111572 8.345144271850586 45 35 33
2.816328763961792 -0.07436856627464294 8.863923072814941 50 36 35
2.815126657485962 -1.5599675178527832 8.702788352966309 129 117 109
3.1572070121765137 2.3886878490448 9.453255653381348 149 141 138
3.1201770305633545 1.1010733842849731 9.324235916137695 136 117 111
2.850463390350342 -2.519819498062134 8.567164421081543 38 26 28
3.039299726486206 -2.8713715076446533 8.700489044189453 38 33 29
3.421121597290039 0.16370713710784912 9.487140655517578 37 27 26
3.806149959564209 -2.6718087196350098 9.493666648864746 138 121 115
4.301324844360352 1.9082114696502686 10.450827598571777 147 130 123
4.42961311340332 2.552849292755127 10.744022369384766 126 113 107
4.36273193359375 1.3085862398147583 10.517365455627441 51 47 46
4.674385070800781 1.3172301054000854 10.81104850769043 160 155 153
4.32565975189209 -1.5528813600540161 10.082433700561523 143 123 122
4.340034008026123 -1.5312896966934204 10.06421184539795 67 57 57
4.340034008026123 -1.5312896966934204 10.06421184539795 67 57 57
4.450338840484619 -2.1767165660858154 10.162888526916504 66 60 58
5.090496063232422 2.509927988052368 11.372774124145508 145 136 130
4.2577924728393555 -3.7462637424468994 9.768074035644531 57 49 46
5.16413688659668 2.4401235580444336 11.480913162231445 140 127 121
4.719588279724121 -0.5707054138183594 10.527056694030762 107 82 77
4.719588279724121 -0.5707054138183594 10.527056694030762 107 82 77
4.729510307312012 -1.8722060918807983 10.520835876464844 168 153 146
4.412168502807617 -4.1411943435668945 9.933877944946289 66 55 49
4.478585720062256 -3.8239316940307617 10.024016380310059 62 52 50
4.529763221740723 -3.3792574405670166 10.063468933105469 81 70 68
4.719555377960205 -2.1996548175811768 10.413259506225586 164 150 147
4.440942764282227 -4.5005598068237305 9.950116157531738 51 44 37
5.644901275634766 2.2247090339660645 11.894306182861328 159 155 152
5.701658248901367 2.4978318214416504 11.980579376220703 63 58 53
5.6596269607543945 1.7806166410446167 11.712841987609863 111 99 96
5.0346245765686035 -2.924818754196167 10.682672500610352 170 157 156
5.120762825012207 -2.282216787338257 10.772216796875 60 50 49
4.922756671905518 -4.330976963043213 10.473280906677246 126 117 112
-0.6933664679527283 2.308574914932251 5.535938262939453 162 163 153
-0.6781641244888306 2.2800285816192627 5.538999557495117 46 42 41
-0.2829957902431488 1.215610384941101 5.115664482116699 122 102 91
-0.4207083284854889 -2.3265674114227295 5.081098556518555 47 39 37
-0.4207083284854889 -2.3265674114227295 5.081098556518555 47 39 37
-5.72968864440918 6.4088568687438965 11.32496452331543 124 113 104
-0.574580729007721 2.8812196254730225 5.7485032081604 134 123 112
-0.3634664714336395 -2.0429999828338623 5.193225383758545 121 113 102
-0.3983256220817566 -0.7508006691932678 5.352629661560059 133 117 110
-0.4279172718524933 0.07414158433675766 5.46229362487793 42 37 33
-0.3844379186630249 -1.2912209033966064 5.308643817901611 138 131 123
-0.4624038636684418 1.4108037948608398 5.621077537536621 126 113 104
-0.3334408402442932 -2.3828282356262207 5.181150436401367 112 103 94
-0.3544539213180542 -1.8400737047195435 5.250848770141602 114 102 92
-0.442175030708313 0.6185442209243774 5.545382499694824 46 37 38
-0.442175030708313 0.6185442209243774 5.545382499694824 46 37 38
-0.39418578147888184 -0.747461199760437 5.38537073135376 35 34 32
-0.37747347354888916 -1.5445252656936646 5.308825492858887 49 44 40
-0.42550748586654663 0.3316062390804291 5.5119099617004395 45 41 40
-0.4553811252117157 1.170795202255249 5.61786413192749 31 26 29
-0.4553811252117157 1.170795202255249 5.61786413192749 31 26 29
-0.448994517326355 0.885278582572937 5.5901665687561035 35 31 28
-0.37831857800483704 -1.2836381196975708 5.345089912414551 50 45 42
-0.3498985171318054 -1.8238023519515991 5.271786689758301 48 45 40
-0.38968026638031006 -0.21176496148109436 5.447633743286133 47 44 39
-0.4687424600124359 2.2661492824554443 5.7339653968811035 44 38 38
-0.3768927752971649 -0.7645927667617798 5.390324592590332 159 155 149
-0.4584091603755951 1.4277074337005615 5.6573567390441895 35 34 32
-0.38246211409568787 -0.4710777699947357 5.420602321624756 48 38 37
-0.37889713048934937 -0.7659279108047485 5.394595623016357 157 152 147
-0.4371930956840515 0.863366961479187 5.598663806915283 158 150 139
-0.35633131861686707 -1.5206900835037231 5.3215789794921875 149 146 137
-0.47997045516967773 2.552964448928833 5.787249565124512 59 54 50
-0.43993961811065674 1.1859996318817139 5.637010097503662 153 151 137
-0.45018497109413147 1.7381457090377808 5.6954874992370605 156 153 135
-0.37911728024482727 0.02946179173886776 5.478963851928711 136 118 112
-0.3733302354812622 -0.2229847013950348 5.461320877075195 150 140 131
-0.3365316092967987 -1.8426103591918945 5.290122032165527 114 107 101
-0.3142051100730896 -2.373845338821411 5.222498893737793 51 44 36
-0.30288180708885193 -2.611659288406372 5.192124843597412 108 98 88
-0.3031601905822754 -2.350295305252075 5.238911151885986 114 105 97
-0.3325631022453308 0.5765333771705627 5.619246482849121 131 112 105
-0.3331524133682251 0.5784305334091187 5.621342182159424 130 110 103
0.40952298045158386 1.8735241889953613 4.886908054351807 40 38 35
-0.35105007886886597 2.8796615600585938 5.97665548324585 133 128 125
-0.2501021921634674 0.567665159702301 5.706411361694336 131 108 100
-0.19304236769676208 0.8832447528839111 5.818102836608887 160 157 150
-0.14013709127902985 -1.633310079574585 5.525425434112549 107 95 83
-0.17278917133808136 0.42469391226768494 5.758458137512207 43 40 35
-0.14839397370815277 -1.6445168256759644 5.5478925704956055 106 93 82
-0.12831220030784607 -1.1600691080093384 5.568804740905762 139 126 119
-0.22639071941375732 2.2617690563201904 6.019972801208496 37 35 35
-0.2049848735332489 1.4240050315856934 5.916020393371582 43 38 35
-0.11919254064559937 -1.1918386220932007 5.559391975402832 130 117 109
-0.11919254064559937 -1.1918386220932007 5.559391975402832 130 117 109
-0.13803541660308838 -0.7704923748970032 5.625457763671875 45 41 38
-0.16282257437705994 0.5220725536346436 5.784242630004883 152 145 141
-0.1544574648141861 0.3296263813972473 5.7568511962890625 166 164 160
-0.14214998483657837 -0.5197405815124512 5.66461706161499 48 43 39
-0.14197532832622528 0.009370381943881512 5.717851638793945 133 121 115
-0.1392907351255417 -0.013451237231492996 5.724366664886475 76 65 61
-0.2177043855190277 2.832298994064331 6.096898078918457 42 40 43
-0.12066329270601273 -0.7443985939025879 5.641515731811523 163 162 153
-0.2073998600244522 2.860065221786499 6.109228610992432 143 143 139
-0.10521260648965836 -1.2862292528152466 5.581822395324707 136 130 117
-0.13088983297348022 -0.0007291178917512298 5.745833396911621 157 150 142
-0.09613561630249023 -2.1595137119293213 5.5000762939453125 49 46 40
-0.11451403796672821 -0.2254200428724289 5.717540740966797 171 171 165
-0.07298008352518082 -2.3968758583068848 5.47015380859375 126 120 104
-0.05952930077910423 -1.0781587362289429 5.644256114959717 120 105 100
-0.030592866241931915 -2.174586534500122 5.510071277618408 120 106 97
-0.029161451384425163 -1.842222809791565 5.602727890014648 137 124 107
0.04254741221666336 -2.7111432552337646 5.52899694442749 45 30 30
0.0031166074331849813 2.4918198585510254 6.267481803894043 124 111 102
0.020417097955942154 1.3587661981582642 6.1215949058532715 137 114 108
-0.0006015388062223792 2.2867984771728516 6.273953437805176 149 149 139
0.01760868728160858 1.7054283618927002 6.1984992027282715 162 162 150
0.04677392914891243 1.109598994255066 6.089408874511719 37 32 28
0.027887603268027306 1.6843878030776978 6.204311847686768 44 39 35
0.06101818382740021 0.8217636346817017 6.072860240936279 46 39 29
0.058073971420526505 1.1328763961791992 6.127566814422607 147 139 125
0.07566137611865997 0.5739957094192505 6.048925399780273 163 154 145
0.08314377814531326 0.019481534138321877 5.986006736755371 171 171 163
0.045197151601314545 2.568418502807617 6.337356090545654 162 164 143
0.09462566673755646 -0.829235851764679 5.895636081695557 41 37 33
0.09709252417087555 0.03204382583498955 5.996683120727539 127 101 92
0.10036297887563705 -0.2881680428981781 5.963089466094971 46 38 35
0.09517767280340195 0.26500648260116577 6.0387067794799805 44 36 34
0.12053032219409943 -1.3624707460403442 5.822904109954834 61 50 44
0.12489056587219238 -1.5921512842178345 5.794601917266846 51 40 39
0.11460922658443451 -0.8552154302597046 5.8998894691467285 157 153 144
0.12468614429235458 -1.056631088256836 5.87746524810791 144 139 132
0.1378832459449768 -1.6189707517623901 5.812219619750977 134 125 116
0.14630645513534546 -1.9679433107376099 5.765760898590088 39 31 28
0.15745152533054352 -2.4996252059936523 5.72736120223999 42 32 27
0.16219180822372437 -1.9598345756530762 5.782671928405762 125 120 114
0.1692499816417694 -2.1812331676483154 5.755366325378418 112 103 89
0.16660450398921967 -2.184584379196167 5.763701438903809 115 106 91
0.15298646688461304 2.85982346534729 6.503940582275391 159 157 146
0.22251251339912415 -1.6982275247573853 5.8666887283325195 125 107 96
0.25903210043907166 2.8087446689605713 6.619846820831299 127 114 110
0.2705203890800476 2.2484982013702393 6.560047626495361 44 42 40
-3.133582353591919 3.8101189136505127 13.625494956970215 30 20 18
0.2964244484901428 1.6514161825180054 6.462843418121338 46 41 37
0.2922581434249878 2.2099146842956543 6.549370765686035 126 116 112
0.30265671014785767 -0.2849019765853882 6.213350296020508 139 130 123
0.32057201862335205 1.3954198360443115 6.424796104431152 147 141 137
0.3325693905353546 -1.1349155902862549 6.105069637298584 45 35 34
0.32803577184677124 0.48989689350128174 6.3291239738464355 33 24 23
0.32822027802467346 0.2454317808151245 6.308739185333252 49 40 36
0.3508279323577881 -0.045710328966379166 6.288853645324707 31 26 20
0.37477514147758484 -0.3603457510471344 6.235241889953613 154 135 121
0.3762572109699249 -1.3912341594696045 6.107645511627197 144 136 128
0.37530022859573364 -0.8458941578865051 6.185974597930908 164 155 148
0.3623158931732178 3.5197417736053467 6.815216541290283 115 120 114
0.38560226559638977 -2.54266619682312 5.953628063201904 42 30 30
0.3980002999305725 -1.7335788011550903 6.079379558563232 125 117 106
0.40738919377326965 -2.275136947631836 6.013509750366211 50 40 38
0.417172908782959 -1.7068846225738525 6.089230060577393 47 39 36
0.4187389314174652 -2.83142352104187 5.9372172355651855 21 17 16
0.5169969201087952 2.5048787593841553 6.827348709106445 114 98 92
0.5400336384773254 1.781510353088379 6.739919185638428 141 130 124
0.5431737899780273 2.5188300609588623 6.85042142868042 50 41 40
0.5290627479553223 -0.022084709256887436 6.498178958892822 149 130 113
0.5441007614135742 1.3371870517730713 6.674497127532959 42 39 32
0.5447571873664856 1.0702565908432007 6.641630172729492 37 33 24
0.5493166446685791 2.834307909011841 6.908665657043457 39 38 36
0.5404374003410339 0.7530123591423035 6.609767913818359 134 116 104
0.5448167324066162 1.932390809059143 6.785974025726318 38 34 30
0.5540874004364014 3.5325398445129395 7.029293537139893 119 119 117
0.5609618425369263 2.484985828399658 6.875056743621826 130 113 105
0.5550530552864075 0.1865423023700714 6.5391130447387695 130 108 95
0.5731862783432007 1.0593217611312866 6.66724157333374 45 40 36
0.5816564559936523 2.8770484924316406 6.954459190368652 141 136 130
0.5713143348693848 -0.025953438133001328 6.538452625274658 50 41 34
0.5713143348693848 -0.025953438133001328 6.538452625274658 50 41 34
0.5920931696891785 -0.04765350744128227 6.5417160987854 154 151 142
0.5818026661872864 -0.9405102133750916 6.436881065368652 145 129 116
0.6087319850921631 -0.35637348890304565 6.535035610198975 42 37 31
0.6181854009628296 -0.9330618381500244 6.451470375061035 128 109 102
0.6365995407104492 -1.7561594247817993 6.355106830596924 54 44 42
0.6378996968269348 -2.608555555343628 6.211944580078125 48 38 36
0.6483533382415771 -1.4919309616088867 6.383294105529785 129 120 103
0.6784735918045044 -2.2912025451660156 6.279351234436035 112 105 95
0.6798433661460876 -3.168266773223877 6.157012462615967 41 31 29
0.7244849801063538 1.3683249950408936 6.86913537979126 141 128 119
0.7339320182800293 2.843468427658081 7.122591495513916 47 43 42
0.7339320182800293 2.843468427658081 7.122591495513916 47 43 42
0.7565367817878723 2.857172727584839 7.141515254974365 125 112 106
0.7829670906066895 2.524000883102417 7.095168590545654 51 46 42
0.8088655471801758 3.5807814598083496 7.240767002105713 107 115 112
0.8111221790313721 1.6083394289016724 7.011234283447266 50 47 40
0.8381955623626709 1.0224782228469849 6.960161209106445 42 37 32
0.7936861515045166 -3.2160840034484863 6.314154148101807 36 25 23
0.8447577953338623 -0.702449381351471 6.770020484924316 124 102 94
0.8640480041503906 -0.6850302219390869 6.782979488372803 45 37 31
0.86646568775177 -0.9583091735839844 6.74432897567749 38 33 30
0.86646568775177 -0.9583091735839844 6.74432897567749 38 33 30
0.9586614370346069 2.8501639366149902 7.349790573120117 135 126 117
0.8926200866699219 -2.093125820159912 6.580333232879639 53 44 37
0.8926200866699219 -2.093125820159912 6.580333232879639 53 44 37
0.9323951005935669 -0.43459588289260864 6.88509464263916 155 139 124
0.9203134179115295 -1.8740556240081787 6.623936176300049 104 90 81
0.9299746751785278 -2.402308464050293 6.557292461395264 49 39 36
0.9913161993026733 -0.6711519360542297 6.8813982009887695 129 111 101
1.0566703081130981 2.515706777572632 7.387045383453369 50 41 42
1.0844539403915405 2.4976327419281006 7.401151180267334 50 43 40
1.2629886865615845 3.610185146331787 7.0406904220581055 111 112 106
1.1044234037399292 1.8789132833480835 7.312748908996582 42 38 33
1.1247124671936035 2.424903631210327 7.404022693634033 124 114 105
1.0925772190093994 0.7138699889183044 7.193577289581299 34 24 23
1.0861138105392456 -0.7104991674423218 6.997805118560791 44 35 28
1.1146374940872192 -0.12093553692102432 7.0987725257873535 140 126 113
1.121930480003357 -1.0159136056900024 6.982250690460205 44 36 26
1.126714825630188 -0.991311252117157 6.999332904815674 141 125 115
1.1501251459121704 -0.6911106109619141 7.074790000915527 134 121 105
1.1521795988082886 -1.0269793272018433 7.000094890594482 122 103 89
1.1540288925170898 -1.5734468698501587 6.943694591522217 50 45 38
1.3154510259628296 2.8293962478637695 7.728090763092041 132 128 117
1.1469569206237793 -3.5789685249328613 6.58650016784668 33 20 17
1.1862167119979858 -2.158137798309326 6.852628707885742 47 40 37
1.3221373558044434 2.782886028289795 7.701342582702637 37 36 34
1.3248776197433472 2.561824321746826 7.67185640335083 76 67 64
1.3651914596557617 3.481616258621216 7.797458171844482 88 87 84
1.3427939414978027 1.9405932426452637 7.574085235595703 62 49 47
1.3028318881988525 0.2267862856388092 7.325471878051758 133 110 96
1.3646080493927002 2.1442949771881104 7.632439136505127 145 131 122
1.3513754606246948 1.359264612197876 7.5249924659729 92 77 68
1.2962373495101929 -0.7170916199684143 7.22270393371582 130 120 107
1.3251930475234985 -0.11831243336200714 7.303246021270752 131 109 96
1.3814852237701416 0.967985987663269 7.527415752410889 41 36 32
1.373931884765625 0.20940600335597992 7.412412643432617 158 140 129
1.3904582262039185 0.39677301049232483 7.4853835105896 49 41 39
1.3859680891036987 -0.19396914541721344 7.3874969482421875 40 30 28
1.605991005897522 3.614034414291382 7.464869976043701 123 123 118
1.4043163061141968 -0.7668850421905518 7.331815719604492 36 26 20
1.4359502792358398 -1.334712028503418 7.247918605804443 46 36 33
1.4562016725540161 -0.7306587100028992 7.391658306121826 134 116 102
1.6452964544296265 2.4701249599456787 7.977786064147949 29 28 27
1.4731237888336182 -2.178957462310791 7.1588826179504395 106 89 80
1.6037944555282593 0.987140417098999 7.763564586639404 157 152 151
1.6603741645812988 2.1705031394958496 7.898420333862305 142 136 130
1.6252840757369995 1.2419692277908325 7.807457447052002 40 36 34
1.6146893501281738 0.9676227569580078 7.791482448577881 43 30 29
1.6277881860733032 1.1654905080795288 7.785808563232422 78 68 66
1.6150398254394531 0.6457546353340149 7.738526344299316 128 108 99
1.6309983730316162 0.6160736680030823 7.735456943511963 45 35 32
1.642055630683899 0.657757580280304 7.766049385070801 46 38 35
1.6353529691696167 0.3788143992424011 7.736475467681885 45 35 34
1.657900333404541 0.6272150874137878 7.766021728515625 123 108 100
1.759779930114746 2.792032241821289 8.153717041015625 35 29 31
1.6680408716201782 -0.5203519463539124 7.625746250152588 42 38 29
1.7175993919372559 -0.7652335166931152 7.607816219329834 129 107 93
1.80159592628479 0.43254029750823975 7.895371437072754 150 123 113
1.6871439218521118 -2.2054283618927 7.354780673980713 112 90 76
1.6810986995697021 -2.2864022254943848 7.442803859710693 43 39 36
2.002006769180298 3.4984452724456787 8.463744163513184 92 90 92
1.903639554977417 0.007999525405466557 7.938222408294678 148 123 109
2.0272023677825928 -2.0533952713012695 7.795511722564697 39 31 23
2.0539565086364746 -2.722940683364868 7.677879333496094 44 37 30
2.409686326980591 2.411083459854126 8.785296440124512 152 138 129
2.251220226287842 -1.4818575382232666 8.136707305908203 45 35 32
2.251220226287842 -1.4818575382232666 8.136707305908203 45 35 32
2.5174105167388916 2.3459360599517822 8.958924293518066 142 128 115
2.686160087585449 3.5244123935699463 9.190984725952148 87 86 87
2.5513648986816406 -1.802337646484375 8.36687183380127 122 104 94
2.5943965911865234 -2.1403915882110596 8.313433647155762 45 35 33
3.096757650375366 2.6715078353881836 9.438775062561035 50 47 43
2.830251455307007 -1.3264726400375366 8.716317176818848 117 102 96
2.855348825454712 -1.6016403436660767 8.757819175720215 55 45 35
2.825010061264038 -2.137158155441284 8.572335243225098 140 117 109
2.8667373657226562 -1.953832983970642 8.692992210388184 111 97 89
2.953644037246704 -3.1460394859313965 8.54269027709961 51 43 40
3.1404271125793457 -1.9892144203186035 8.906705856323242 152 132 117
3.4265387058258057 -0.4312017560005188 9.40020751953125 161 143 133
3.757155656814575 2.6795198917388916 10.163507461547852 45 41 44
3.250399112701416 -2.312931537628174 8.95776081085205 110 91 87
3.4306747913360596 -1.133110523223877 9.325225830078125 150 121 113
3.4559988975524902 -1.3469854593276978 9.355022430419922 152 132 125
3.424375057220459 -1.656069040298462 9.2538480758667 127 112 106
3.573557138442993 -1.0586706399917603 9.501116752624512 140 123 111
3.6344516277313232 -2.6121926307678223 9.287758827209473 142 123 116
3.856626272201538 -1.0947272777557373 9.84620475769043 162 142 133
3.829007148742676 -1.7650617361068726 9.571250915527344 55 44 38
3.856407403945923 -2.0891170501708984 9.648550033569336 57 48 49
3.9699208736419678 -1.1340601444244385 9.876639366149902 160 146 143
3.8183553218841553 -2.4348742961883545 9.553235054016113 117 100 93
3.8183553218841553 -2.4348742961883545 9.553235054016113 117 100 93
3.886591911315918 -1.8174749612808228 9.671317100524902 133 114 108
3.8328847885131836 -2.7459564208984375 9.600127220153809 60 48 45
3.8686118125915527 -2.40752911567688 9.596681594848633 50 46 43
4.14331579208374 -0.27825090289115906 10.104635238647461 140 113 104
4.080488681793213 -1.546705722808838 9.90493106842041 142 124 114
3.940563678741455 -2.7267277240753174 9.502640724182129 137 123 112
4.099788188934326 -1.5926843881607056 9.856637001037598 101 82 78
4.130251407623291 -1.5116618871688843 9.92380142211914 74 64 65
4.142913341522217 -2.132488965988159 9.860040664672852 63 50 51
4.21952486038208 -2.517620086669922 9.924640655517578 159 137 124
4.2238264083862305 -2.618720054626465 9.897459983825684 165 143 132
4.4267096519470215 -0.8512117862701416 10.228507041931152 101 83 80
4.460184097290039 -1.5091626644134521 10.292000770568848 162 149 143
4.187658786773682 -3.3844714164733887 9.665876388549805 56 52 49
4.461500644683838 -1.8612173795700073 10.170027732849121 39 35 32
4.312925338745117 -3.113945722579956 9.889436721801758 63 60 53
4.466670513153076 -2.1866307258605957 10.21667194366455 66 60 58
4.371853351593018 -3.158128261566162 9.925249099731445 136 115 112
5.02923583984375 1.3254873752593994 11.194486618041992 157 147 138
4.439586639404297 -3.089344024658203 10.015559196472168 161 148 143
4.716399192810059 -1.225622296333313 10.468873023986816 150 146 143
4.614336013793945 -1.9037827253341675 10.18104362487793 157 142 139
4.366147518157959 -4.4815568923950195 9.8277587890625 103 90 84
4.682283878326416 -2.563913106918335 10.261470794677734 150 132 127
4.749022483825684 -2.215963363647461 10.366791725158691 71 62 57
4.576007843017578 -3.9037082195281982 10.09784984588623 87 73 72
4.815247058868408 -2.8925795555114746 10.407196044921875 62 59 52
4.752030372619629 -3.239438533782959 10.221292495727539 167 157 148
4.835194110870361 -3.30892276763916 10.432242393493652 167 157 147
4.675362586975098 -4.533123970031738 10.141966819763184 54 45 40
4.918673515319824 -3.2667577266693115 10.517294883728027 42 40 41
4.9407219886779785 -3.2865383625030518 10.568817138671875 41 39 40
4.916851043701172 -4.003513813018799 10.497783660888672 136 123 120
3.6125648021698 -1.3147649765014648 6.675544261932373 165 148 144
