ply
format ascii 1.0
element vertex 1020
property float x
property float y
property float z
property uchar red
property uchar green
property uchar blue
end_header
-6.204921722412109 -3.363618850708008 9.407205581665039 140 123 113
-7.355807304382324 5.590600967407227 11.196199417114258 130 105 102
-6.2746782302856445 -2.29634690284729 9.552717208862305 142 124 108
-7.180789470672607 3.7430667877197266 10.965497016906738 147 122 117
-6.05392599105835 -3.5882985591888428 9.252425193786621 146 129 113
-7.828537940979004 8.775365829467773 12.010908126831055 98 90 78
-6.138688087463379 -3.3915531635284424 9.450191497802734 129 109 98
-7.79528284072876 8.695449829101562 12.000675201416016 21 17 16
-6.309441566467285 -1.727174162864685 9.716232299804688 125 100 93
-7.635494232177734 7.645584583282471 11.768145561218262 28 20 18
-6.952969074249268 2.8000903129577637 10.751544952392578 39 24 21
-6.374359130859375 -1.6765506267547607 9.897534370422363 57 43 42
-6.919579029083252 2.7790591716766357 10.7471342086792 130 103 97
-6.3246378898620605 -0.7947335243225098 9.829314231872559 105 81 69
-6.085928916931152 -3.4198179244995117 9.487783432006836 44 33 29
-6.172795295715332 -2.387223720550537 9.624777793884277 132 119 111
-6.231307506561279 -2.167064905166626 9.724442481994629 130 109 99
-6.376689434051514 -0.7308571338653564 9.980639457702637 175 154 141
-5.7475266456604 -5.154245376586914 9.00682544708252 127 104 96
-6.958375453948975 3.7120485305786133 10.904878616333008 138 117 114
-7.496414661407471 6.752865791320801 11.779017448425293 35 30 30
-5.5074663162231445 -5.710093975067139 8.65980339050293 121 97 85
-6.3491530418396 -0.42476579546928406 10.00274658203125 170 137 128
-6.841506481170654 2.816112995147705 10.7896089553833 34 22 22
-6.349761486053467 -0.2580973505973816 10.036187171936035 176 145 134
-7.430643081665039 6.762385845184326 11.755346298217773 41 33 30
-6.301067352294922 -1.657826542854309 9.96833324432373 154 134 120
-5.572812557220459 -5.855711936950684 8.877023696899414 132 109 95
-7.242691993713379 5.7468485832214355 11.59046459197998 55 39 36
-6.416886329650879 0.01228646282106638 10.27820110321045 54 43 42
-6.289679050445557 -0.8400697112083435 10.10922908782959 80 60 59
-6.186771392822266 -0.7391854524612427 10.000487327575684 173 149 139
-6.313118934631348 -0.017873365432024002 10.216890335083008 181 154 143
-6.338361740112305 0.07029089331626892 10.258336067199707 168 146 137
-6.338602066040039 0.14078599214553833 10.27559757232666 182 160 149
-5.447760105133057 -5.796382904052734 8.847330093383789 139 122 111
-6.694815635681152 2.879697561264038 10.88193130493164 176 166 163
-7.653886795043945 9.918002128601074 12.480536460876465 83 80 72
-6.603265285491943 2.8939590454101562 10.797944068908691 128 109 105
-6.4017181396484375 1.5029367208480835 10.49526596069336 155 138 131
-6.154036998748779 -0.8410744667053223 10.102779388427734 56 33 33
-5.498624324798584 -5.080567836761475 9.030130386352539 45 32 26
-5.551846027374268 -5.10066556930542 9.158024787902832 117 97 87
-5.599536895751953 -4.005798816680908 9.281442642211914 95 68 59
-5.9330034255981445 -1.636199951171875 9.854281425476074 160 135 130
-6.319795608520508 1.1907731294631958 10.498743057250977 160 141 136
-6.119718074798584 0.14870303869247437 10.25853443145752 173 151 140
-6.361265659332275 1.7739232778549194 10.674180030822754 156 129 122
-5.976512432098389 -1.6769109964370728 10.033655166625977 161 138 134
-6.41681432723999 2.889366388320923 10.838680267333984 160 146 137
-6.724084854125977 4.822226047515869 11.408486366271973 114 99 96
-5.661376476287842 -2.4931836128234863 9.654255867004395 139 125 109
-6.724930763244629 4.99885892868042 11.513375282287598 135 121 118
-5.45292854309082 -5.261903762817383 9.368688583374023 52 41 37
-5.903990268707275 -0.8430776596069336 10.200674057006836 88 69 63
-6.364583969116211 3.0446977615356445 11.036538124084473 139 117 111
-6.320312976837158 2.8753387928009033 10.992568016052246 180 165 155
-6.331238746643066 3.0759074687957764 11.02130126953125 103 81 78
-5.440180778503418 -4.400019645690918 9.47994613647461 62 49 43
-5.440180778503418 -4.400019645690918 9.47994613647461 62 49 43
-6.222538471221924 1.8408478498458862 10.861966133117676 172 148 146
-7.236464023590088 9.894131660461426 12.633389472961426 20 11 12
-5.4448676109313965 -3.3754494190216064 9.506558418273926 132 115 107
-4.969708442687988 -6.491048336029053 8.72107982635498 136 110 98
-6.485826015472412 4.7001190185546875 11.439044952392578 145 130 125
-6.481786251068115 4.804506778717041 11.454020500183105 156 143 138
-6.8927412033081055 7.835085868835449 12.211739540100098 96 90 83
-6.410654067993164 5.088516712188721 11.408476829528809 148 137 134
-7.213498115539551 10.966598510742188 12.839934349060059 77 75 71
-6.5199503898620605 5.715732574462891 11.638567924499512 114 106 104
-5.396247863769531 -3.4078781604766846 9.691000938415527 134 115 104
-5.363864421844482 -3.3840043544769287 9.639307975769043 129 109 98
-5.131215572357178 -5.123409748077393 9.232388496398926 127 113 104
-6.4899468421936035 5.632606506347656 11.683466911315918 24 21 16
-6.473940849304199 5.7143354415893555 11.655008316040039 108 101 98
-5.749514102935791 0.12129379063844681 10.371246337890625 177 162 155
-6.399887561798096 4.763808727264404 11.552363395690918 54 40 37
-4.874906063079834 -6.731839656829834 8.86178207397461 56 41 35
-6.560649871826172 6.794641971588135 11.956816673278809 116 108 107
-5.598757743835449 -0.8777041435241699 10.245981216430664 53 32 29
-5.502101421356201 -1.7128063440322876 10.136367797851562 151 129 118
-4.918603897094727 -6.09535551071167 9.06873607635498 138 125 112
-5.543020248413086 -0.8998274803161621 10.229673385620117 150 118 113
-5.360159873962402 -2.545623540878296 9.893588066101074 140 118 105
-4.884552478790283 -6.379499435424805 9.017483711242676 143 126 116
-6.3855438232421875 5.734216690063477 11.796181678771973 23 15 13
-6.539596080780029 7.6696600914001465 12.198907852172852 18 14 13
-5.044521808624268 -4.482675075531006 9.429018020629883 125 103 92
-4.78400993347168 -6.6947102546691895 8.950634002685547 139 107 92
-5.051586627960205 -4.397292613983154 9.450169563293457 24 15 13
-4.867477893829346 -6.058294296264648 9.165517807006836 68 46 44
-5.020763397216797 -4.420990467071533 9.499496459960938 28 21 15
-4.870815753936768 -6.027182579040527 9.22938060760498 135 119 106
-5.346895217895508 -0.7741517424583435 10.196748733520508 172 152 141
-5.093638896942139 -3.443293571472168 9.72618293762207 137 119 107
-4.915637969970703 -5.17614221572876 9.391847610473633 132 116 103
-4.915637969970703 -5.17614221572876 9.391847610473633 132 116 103
-4.9889116287231445 -4.0521626472473145 9.567642211914062 169 158 145
-5.5972580909729 1.0356404781341553 10.74443244934082 187 173 162
-5.610004425048828 0.9467021226882935 10.858948707580566 81 64 64
-4.9451518058776855 -4.515212535858154 9.576502799987793 143 121 110
-5.116482734680176 -2.5645015239715576 9.9077730178833 130 111 97
-5.60115385055542 1.8306883573532104 10.946648597717285 173 144 140
-4.742325782775879 -5.366471290588379 9.301483154296875 169 162 152
-4.742325782775879 -5.366471290588379 9.301483154296875 169 162 152
-5.391481876373291 0.08800102025270462 10.586182594299316 193 174 166
-5.0427069664001465 -2.6792643070220947 9.900625228881836 52 41 39
-5.552640914916992 0.9867955446243286 10.91960620880127 121 98 94
-4.97985315322876 -3.49100923538208 9.817046165466309 142 122 111
-4.860998630523682 -5.3571457862854 9.587166786193848 66 52 39
-5.131727695465088 -1.671832799911499 10.11831283569336 121 92 81
-4.943755626678467 -3.564830780029297 9.78565788269043 53 38 31
-5.111093997955322 -1.6921193599700928 10.196566581726074 154 130 118
-4.997209548950195 -2.7488114833831787 9.976014137268066 135 109 96
-5.020846843719482 -2.644775629043579 10.062318801879883 138 118 105
-5.172861099243164 -0.9885110855102539 10.41646957397461 161 139 128
-4.395590782165527 -7.684586048126221 8.86291790008545 47 30 23
-4.395590782165527 -7.684586048126221 8.86291790008545 47 30 23
-5.274202823638916 0.08299873769283295 10.658129692077637 187 169 159
-5.764519214630127 4.713416576385498 11.663698196411133 29 23 23
-4.41951322555542 -6.740162372589111 8.968472480773926 144 112 97
-5.326754093170166 0.8551661372184753 10.88646125793457 176 153 147
-4.883373260498047 -2.5763001441955566 9.980712890625 89 65 56
-4.883373260498047 -2.5763001441955566 9.980712890625 89 65 56
-5.048348426818848 -1.2091784477233887 10.326595306396484 97 76 70
-5.05811071395874 -1.25482976436615 10.423271179199219 163 138 131
-5.506009578704834 2.8643076419830322 11.360138893127441 193 173 164
-5.1147050857543945 -0.8680886626243591 10.61446762084961 159 137 129
-6.107313632965088 8.884288787841797 12.757980346679688 22 18 17
-5.129725933074951 0.06505858153104782 10.726534843444824 195 179 166
-6.249485492706299 10.990777969360352 13.095006942749023 72 72 65
-5.2277302742004395 0.987061619758606 10.988835334777832 191 173 163
-5.231486797332764 0.9857713580131531 10.996916770935059 191 173 163
-4.924814224243164 -1.8367515802383423 10.360086441040039 94 74 65
-4.659776210784912 -3.4896230697631836 9.845770835876465 146 124 110
-5.380214214324951 2.84159255027771 11.379570007324219 181 160 151
-4.78314733505249 -2.721989870071411 10.13923454284668 60 48 36
-5.2147536277771 1.9372884035110474 11.079434394836426 198 181 170
-5.300888538360596 3.003983736038208 11.384571075439453 177 141 130
-5.790447235107422 7.822700500488281 12.509424209594727 98 91 85
-5.198592662811279 1.9779267311096191 11.2409029006958 86 66 62
-4.818988800048828 -1.8632842302322388 10.461692810058594 99 82 75
-5.147032260894775 1.9185370206832886 11.217309951782227 196 170 163
-4.655774116516113 -2.7245283126831055 10.148621559143066 57 39 32
-5.229919910430908 2.8477365970611572 11.503043174743652 197 177 168
-4.800257682800293 -0.933050274848938 10.629109382629395 101 83 80
-4.666450500488281 -1.7773857116699219 10.38766098022461 169 150 141
-5.299906253814697 6.615588665008545 12.086374282836914 20 12 10
-4.111965179443359 -6.074202060699463 9.422245025634766 141 122 107
-4.108964443206787 -6.074904441833496 9.419174194335938 143 124 109
-5.445667266845703 8.7354736328125 12.5809326171875 82 83 78
-5.471118927001953 7.804616451263428 12.657570838928223 18 17 18
-4.914175987243652 0.994842529296875 11.37283706665039 194 172 161
-5.199184417724609 5.743871688842773 12.082499504089355 23 22 20
-5.340354919433594 6.845893859863281 12.481898307800293 100 97 90
-3.8190226554870605 -7.747747421264648 9.012088775634766 64 33 28
-5.206955909729004 5.988540172576904 12.312984466552734 91 87 80
-5.205945014953613 6.752228260040283 12.325566291809082 93 86 75
-5.239081382751465 6.413588523864746 12.430551528930664 84 77 69
-4.676579475402832 0.9757107496261597 11.135377883911133 193 175 165
-4.642493724822998 -0.037332236766815186 11.099593162536621 92 74 70
-4.642493724822998 -0.037332236766815186 11.099593162536621 92 74 70
-4.545957088470459 0.22356396913528442 10.884330749511719 191 164 157
-4.545957088470459 0.22356396913528442 10.884330749511719 191 164 157
-3.7784316539764404 -7.170979976654053 9.06581974029541 131 108 93
-5.305787086486816 7.888732433319092 12.739153861999512 88 84 75
-4.560912132263184 -0.9365358352661133 10.958199501037598 99 76 69
-4.505444526672363 -0.9638165235519409 10.843424797058105 99 77 69
-4.548418045043945 0.1931162029504776 10.944975852966309 136 103 94
-4.752157211303711 1.947303295135498 11.451241493225098 178 132 119
-5.2567524909973145 6.887790679931641 12.719508171081543 18 14 13
-4.6422505378723145 1.8829662799835205 11.348860740661621 215 188 177
-4.7518463134765625 2.7897534370422363 11.621644973754883 30 21 12
-4.487232685089111 0.03388349339365959 11.013591766357422 191 168 156
-5.016506671905518 6.751014709472656 12.347480773925781 101 98 85
-4.427327632904053 -0.9775357246398926 10.954780578613281 88 70 59
-4.426533222198486 0.04338064789772034 10.95738410949707 182 163 149
-3.7261810302734375 -6.999072551727295 9.29857349395752 131 109 96
-3.9717116355895996 -4.370372295379639 9.92658805847168 155 133 120
-3.632573127746582 -7.6070404052734375 9.08444595336914 130 108 97
-3.6771936416625977 -7.344839096069336 9.208127975463867 131 116 105
-4.2784600257873535 -0.1487218290567398 10.726343154907227 183 157 144
-4.009968280792236 -3.744532823562622 10.06009292602539 153 130 114
-3.9482078552246094 -4.158876419067383 9.923568725585938 147 124 106
-3.6734235286712646 -7.237603664398193 9.256591796875 137 120 112
-4.077047824859619 -2.7602546215057373 10.374085426330566 150 125 113
-3.956899881362915 -3.94954776763916 10.0668363571167 65 53 47
-3.9509198665618896 -3.877838373184204 10.086159706115723 73 57 52
-4.347163677215576 0.9473788738250732 11.108438491821289 224 213 207
-4.240213871002197 -0.9674936532974243 10.833918571472168 94 74 66
-4.359828472137451 0.8644832372665405 11.14443302154541 194 172 165
-3.8986549377441406 -4.452045917510986 9.974525451660156 136 116 104
-3.773036241531372 -5.458786487579346 9.675333976745605 48 37 36
-3.878845453262329 -4.495031833648682 10.027130126953125 136 108 92
-3.856328248977661 -4.567710876464844 9.991534233093262 86 66 57
-4.0032734870910645 -2.807349681854248 10.370438575744629 76 59 49
-3.6933743953704834 -5.942867755889893 9.573354721069336 135 112 101
-4.06542444229126 -2.034198522567749 10.538951873779297 144 122 111
-4.0034074783325195 -2.731457471847534 10.384604454040527 156 137 123
-4.258558750152588 -0.05351739749312401 11.082866668701172 109 86 73
-3.4782416820526123 -7.739763259887695 9.06013011932373 86 57 49
-3.8659775257110596 -3.7123379707336426 10.096071243286133 49 22 11
-4.159999847412109 -0.8633511066436768 10.888094902038574 167 143 131
-4.446101665496826 3.132995128631592 11.685565948486328 94 75 67
-4.004085540771484 -2.693422317504883 10.517365455627441 38 27 23
-4.004085540771484 -2.693422317504883 10.517365455627441 38 27 23
-3.9921576976776123 -1.9022248983383179 10.636188507080078 56 43 41
-3.6299004554748535 -5.365513801574707 9.68769645690918 74 52 41
-4.161016941070557 -0.08413516730070114 11.137516975402832 70 45 41
-3.9464468955993652 -1.9142735004425049 10.595600128173828 48 36 33
-3.9228029251098633 -2.0898187160491943 10.610477447509766 137 114 102
-4.0393476486206055 -0.696158766746521 10.942200660705566 95 76 69
-4.0393476486206055 -0.696158766746521 10.942200660705566 95 76 69
-3.8987135887145996 -1.8612637519836426 10.596291542053223 59 39 32
-3.917487144470215 -2.016836166381836 10.65066909790039 142 116 103
-3.925605535507202 -1.942563533782959 10.699193954467773 52 31 23
-3.742992401123047 -2.6187822818756104 10.228036880493164 158 130 116
-4.084116458892822 -0.13697004318237305 11.18116283416748 105 85 77
-3.8671271800994873 -1.9531224966049194 10.621114730834961 143 116 108
-3.971602439880371 -0.740101158618927 10.936826705932617 185 152 135
-3.9977920055389404 -0.4946476221084595 11.01505184173584 183 146 128
-4.797089099884033 8.998047828674316 13.261512756347656 14 10 9
-3.292708158493042 -7.637338638305664 9.175736427307129 124 110 98
-3.723618745803833 -2.811662435531616 10.447086334228516 100 74 65
-3.798264980316162 -1.8243738412857056 10.659377098083496 154 136 122
-4.112999439239502 1.717383623123169 11.555899620056152 194 162 147
-3.7822184562683105 -1.9663951396942139 10.679693222045898 131 100 89
-4.657013893127441 8.997556686401367 13.19554615020752 91 87 75
-4.032503128051758 1.0158569812774658 11.496264457702637 38 13 9
-3.576880931854248 -4.659243583679199 10.200526237487793 100 71 60
-4.121079444885254 2.8483989238739014 11.795638084411621 126 110 99
-3.972830057144165 0.9443625211715698 11.431751251220703 196 175 164
-3.9989078044891357 1.083301067352295 11.567270278930664 200 176 162
-3.705864429473877 -1.9666129350662231 10.768501281738281 49 23 22
-3.9788897037506104 1.0540409088134766 11.59832763671875 136 98 84
-4.025291919708252 1.8646103143692017 11.74022102355957 124 108 100
-4.410707473754883 7.811326503753662 12.860302925109863 82 79 70
-3.4439823627471924 -4.631227970123291 10.139886856079102 95 65 57
-4.105553150177002 3.7459447383880615 12.207024574279785 34 26 24
-3.9493539333343506 2.534332752227783 11.768256187438965 131 113 103
-3.9493539333343506 2.534332752227783 11.768256187438965 131 113 103
-3.889232635498047 0.9408619403839111 11.646482467651367 190 163 153
-3.454303026199341 -3.673987627029419 10.343244552612305 157 133 117
-3.817333698272705 0.8484691381454468 11.528149604797363 168 131 121
-3.317891836166382 -4.600466728210449 10.0857572555542 86 56 45
-4.0294060707092285 4.821322441101074 12.25936222076416 119 105 93
-3.9836368560791016 4.657316207885742 12.249655723571777 113 84 70
-2.99941349029541 -7.710683345794678 9.319011688232422 121 107 98
-3.614245653152466 -0.0011114790104329586 11.278417587280273 170 145 138
-4.037425518035889 6.806244373321533 12.722107887268066 107 102 96
-3.991121768951416 5.852760314941406 12.678139686584473 116 115 113
-3.606679916381836 0.9186285138130188 11.574049949645996 159 139 127
-4.107410430908203 8.906218528747559 13.259254455566406 17 17 17
-4.036441802978516 6.991177558898926 13.133828163146973 108 105 100
-3.7753190994262695 4.513154029846191 12.295085906982422 116 98 84
-3.7789676189422607 4.725603103637695 12.411767959594727 117 101 88
-3.158925771713257 -3.76446795463562 10.424479484558105 81 60 55
-3.158925771713257 -3.76446795463562 10.424479484558105 81 60 55
-3.6393930912017822 3.4638946056365967 12.075337409973145 151 131 127
-3.828015089035034 5.582197666168213 12.72114086151123 87 83 80
-3.475353956222534 0.8565505146980286 11.597036361694336 49 34 31
-3.2543280124664307 -1.8836098909378052 10.9629487991333 161 138 130
-3.375356435775757 -0.07432924211025238 11.389471054077148 58 36 35
-3.517518997192383 1.8730647563934326 11.906909942626953 134 125 123
-3.269648313522339 -1.072603464126587 11.088347434997559 132 105 93
-3.503145217895508 2.8367838859558105 12.045961380004883 180 165 160
-3.1790175437927246 -1.9293196201324463 10.998560905456543 28 10 2
-3.156409502029419 -1.9575014114379883 10.934822082519531 75 57 47
-2.922532081604004 -4.660866737365723 10.225696563720703 98 66 54
-3.5639615058898926 4.864151477813721 12.472688674926758 119 111 108
-3.8802239894866943 10.099635124206543 13.760303497314453 56 51 47
-3.20857572555542 -0.04425543174147606 11.448522567749023 152 131 122
-3.248507499694824 0.8492084741592407 11.673628807067871 36 26 21
-3.385603427886963 2.8012094497680664 12.212933540344238 64 39 35
-2.9800851345062256 -2.912889003753662 10.775906562805176 89 70 62
-2.9800851345062256 -2.912889003753662 10.775906562805176 89 70 62
-2.8490400314331055 -4.70659875869751 10.31464672088623 164 135 121
-2.89274001121521 -3.7952489852905273 10.499512672424316 75 47 36
-2.89274001121521 -3.7952489852905273 10.499512672424316 75 47 36
-3.051863193511963 3.076775074005127 11.086579322814941 91 67 63
-2.6762149333953857 -6.724010944366455 9.73484992980957 54 38 38
-3.3524885177612305 2.8670029640197754 12.279317855834961 163 148 145
-3.3501052856445312 2.8660290241241455 12.271803855895996 163 148 145
-3.198319911956787 0.9397162795066833 11.75157356262207 95 77 70
-3.3047993183135986 3.7323215007781982 12.242137908935547 40 21 21
-2.6285130977630615 -6.97379732131958 9.742439270019531 124 104 93
-2.7760062217712402 -4.771928310394287 10.343398094177246 108 63 50
-2.7845072746276855 -3.7032623291015625 10.451886177062988 96 54 45
-2.762671709060669 -4.730607032775879 10.371914863586426 118 79 65
-2.713407278060913 -4.841285228729248 10.330164909362793 151 133 125
-3.161086320877075 2.9353394508361816 12.039298057556152 143 116 108
-2.624035358428955 -5.3934197425842285 10.130716323852539 146 131 125
-2.827242612838745 -1.857680082321167 10.931676864624023 153 132 113
-2.7477409839630127 -2.9366607666015625 10.705554962158203 68 47 39
-2.75335955619812 -3.126595973968506 10.738892555236816 84 66 56
-2.640152931213379 -4.719244480133057 10.33089828491211 116 79 66
-2.965808629989624 -0.10558131337165833 11.638367652893066 52 35 29
-2.6766719818115234 -3.830137014389038 10.512842178344727 81 43 32
-2.724933385848999 -2.9899168014526367 10.723450660705566 155 136 120
-2.8339920043945312 -1.083724021911621 11.191622734069824 152 126 114
-2.6048784255981445 -4.721053600311279 10.348564147949219 122 83 69
-2.6738712787628174 -3.802816152572632 10.678559303283691 164 137 125
-2.7944910526275635 -0.9645307064056396 11.340436935424805 153 130 114
-2.9698214530944824 2.7629148960113525 12.120436668395996 41 18 10
-3.2488811016082764 6.948761463165283 13.38498306274414 13 4 3
-2.498455286026001 -4.648291110992432 10.291815757751465 177 159 153
-2.7347335815429688 -1.2013707160949707 11.274209022521973 144 126 115
-2.302838087081909 -8.095036506652832 9.554497718811035 88 65 59
-2.845238208770752 0.8016120195388794 11.804488182067871 58 50 47
-2.8908214569091797 1.835905909538269 12.021688461303711 154 134 123
-2.8837015628814697 2.0010766983032227 12.003811836242676 146 127 113
-2.8661746978759766 2.3130645751953125 12.028440475463867 128 110 95
-2.298346757888794 -7.99948263168335 9.707962989807129 110 97 94
-2.872138738632202 2.6119086742401123 12.147100448608398 125 108 92
-2.868823766708374 1.808693289756775 12.153270721435547 45 34 27
-2.6269326210021973 -1.239994764328003 11.274357795715332 140 108 97
-2.7415225505828857 0.8239662051200867 11.885703086853027 53 39 36
-2.850367546081543 3.819643974304199 12.444329261779785 112 98 90
-2.5996837615966797 -1.0002192258834839 11.38421630859375 154 128 111
-2.8391759395599365 3.600480794906616 12.452418327331543 96 76 67
-2.4015605449676514 -4.789031982421875 10.582255363464355 167 139 125
-2.813872814178467 3.8884360790252686 12.469975471496582 44 34 32
-2.7831501960754395 2.8360095024108887 12.351228713989258 159 136 129
-2.781689405441284 2.775110960006714 12.407169342041016 41 34 27
-3.132162094116211 10.08007526397705 13.990921974182129 11 10 8
-2.842470407485962 4.719385623931885 12.731493949890137 19 17 18
-2.842470407485962 4.719385623931885 12.731493949890137 19 17 18
-2.8448498249053955 4.651247024536133 12.755376815795898 19 17 17
-2.5202465057373047 -1.1304843425750732 11.419990539550781 130 98 88
-2.1130499839782715 -7.781621932983398 9.667397499084473 115 99 87
-2.6520748138427734 1.9094101190567017 12.154613494873047 111 83 79
-2.566603899002075 0.7633726596832275 11.865193367004395 122 97 90
-2.4011759757995605 -1.7031241655349731 11.14441967010498 171 139 122
-2.962859630584717 9.085335731506348 13.851126670837402 78 69 64
-2.6535041332244873 2.8304245471954346 12.413874626159668 141 127 124
-2.6079916954040527 2.389070987701416 12.230704307556152 128 114 111
-2.7818024158477783 5.841625213623047 13.073322296142578 12 9 4
-2.716575860977173 4.858479976654053 12.894928932189941 89 84 80
-2.7118113040924072 5.925810813903809 13.06629753112793 24 19 16
-2.313518524169922 -1.5786242485046387 11.151972770690918 152 119 104
-2.7131552696228027 5.842886924743652 13.097648620605469 26 22 19
-2.320005178451538 -1.230661153793335 11.316076278686523 166 135 117
-2.6034128665924072 4.680503845214844 12.73349666595459 101 97 94
-2.7730085849761963 7.929775238037109 13.555828094482422 12 11 9
-2.3015685081481934 -1.080330729484558 11.353716850280762 59 34 29
-2.3015685081481934 -1.080330729484558 11.353716850280762 59 34 29
-2.750176191329956 8.043328285217285 13.799458503723145 20 17 14
-2.634843111038208 6.848673343658447 13.250099182128906 88 83 79
-2.626305103302002 6.832702159881592 13.22214412689209 91 86 82
-2.355555772781372 2.0195472240448 12.312276840209961 165 156 154
-2.257671356201172 1.9992927312850952 12.011503219604492 81 63 61
-2.0770695209503174 -2.079611301422119 11.346625328063965 52 33 27
-2.2064151763916016 2.0147712230682373 12.189031600952148 151 150 148
-2.110605001449585 -1.033125638961792 11.660381317138672 158 129 113
-1.9631116390228271 -3.9293737411499023 10.951305389404297 80 63 53
-2.063082456588745 -1.1796022653579712 11.58886432647705 141 109 98
-2.071208953857422 -1.0357657670974731 11.74255084991455 154 125 109
-2.201784133911133 3.7237253189086914 12.624871253967285 21 15 15
-2.1258063316345215 2.128185987472534 12.204568862915039 94 76 74
-1.8002848625183105 -5.557775020599365 10.38965892791748 118 94 84
-1.906365156173706 -2.921600103378296 11.125737190246582 186 174 162
-2.224929094314575 4.731753826141357 13.036775588989258 106 98 95
-2.0562312602996826 1.9840734004974365 12.313812255859375 100 90 89
-1.7720043659210205 -3.7582638263702393 10.708473205566406 142 119 105
-2.0222878456115723 1.998295545578003 12.250123023986816 121 112 113
-2.0474188327789307 2.142832040786743 12.42501163482666 93 84 85
-1.9654873609542847 0.7905891537666321 11.947141647338867 53 33 29
-2.0097973346710205 2.004997491836548 12.465808868408203 151 147 146
-1.8584805727005005 -0.8302499055862427 11.577913284301758 160 128 107
-1.8584805727005005 -0.8302499055862427 11.577913284301758 160 128 107
-1.8876988887786865 -0.11791273206472397 11.957295417785645 164 145 135
-2.0619046688079834 5.822262287139893 13.148399353027344 88 78 73
-1.9006015062332153 2.726388931274414 12.60506534576416 100 89 85
-1.8536150455474854 1.9972875118255615 12.337611198425293 79 62 62
-1.7357537746429443 -1.1880929470062256 11.579001426696777 144 106 93
-1.8473044633865356 2.5924315452575684 12.543261528015137 132 127 126
-1.7976092100143433 1.8330631256103516 12.330520629882812 137 126 120
-1.5607978105545044 -3.7908787727355957 10.814570426940918 144 117 110
-1.4487712383270264 -7.425119876861572 10.116374969482422 34 24 22
-1.7719507217407227 2.092050790786743 12.388113021850586 73 61 59
-1.7918052673339844 2.0524659156799316 12.534332275390625 93 81 79
-1.538143515586853 -4.418128490447998 10.809558868408203 118 89 75
-1.6126261949539185 -2.0838868618011475 11.408686637878418 75 55 44
-1.6469510793685913 -1.0784598588943481 11.717669486999512 96 66 55
-1.7288525104522705 0.8183453679084778 12.315009117126465 81 52 46
-1.4629069566726685 -5.687443256378174 10.465042114257812 48 37 31
-1.4629069566726685 -5.687443256378174 10.465042114257812 48 37 31
-1.6610654592514038 0.576622724533081 11.951297760009766 130 107 102
-1.4983936548233032 -4.7069292068481445 10.82153606414795 35 22 20
-1.70834481716156 2.6470649242401123 12.407025337219238 93 79 78
-1.4824472665786743 -4.842694282531738 10.799452781677246 50 37 31
-1.396131157875061 -6.270559310913086 10.34957504272461 120 114 108
-1.6697298288345337 2.4121339321136475 12.37858772277832 140 135 134
-1.3143953084945679 -8.039217948913574 9.848207473754883 106 91 78
-1.6582306623458862 2.3376734256744385 12.470118522644043 70 60 59
-1.6538254022598267 1.8349319696426392 12.466569900512695 156 138 129
-1.4793757200241089 -2.8005597591400146 11.216757774353027 61 46 41
-1.3885997533798218 -5.698239803314209 10.553725242614746 36 27 27
-1.3886497020721436 -5.749819755554199 10.549928665161133 112 107 103
-1.654002070426941 2.719454526901245 12.621233940124512 42 27 22
-1.5214927196502686 -1.0228499174118042 11.653970718383789 60 42 38
-1.616877555847168 2.765597343444824 12.632681846618652 46 29 25
-1.4365330934524536 -2.682762622833252 11.336688041687012 121 108 99
-1.5038974285125732 -0.565798819065094 11.869271278381348 144 131 122
-1.5880379676818848 2.8182411193847656 12.74204158782959 143 138 134
-1.2750880718231201 -6.126565933227539 10.406278610229492 111 106 103
-1.448706865310669 -1.1666430234909058 11.826957702636719 57 32 23
-1.448706865310669 -1.1666430234909058 11.826957702636719 57 32 23
-1.4153250455856323 -1.2102938890457153 11.719566345214844 136 90 76
-1.404665231704712 -0.8875908255577087 11.747000694274902 151 126 114
-1.291419267654419 -3.998823404312134 10.978955268859863 115 96 90
-1.4423772096633911 0.8768333196640015 12.309225082397461 107 104 97
-1.3271286487579346 -2.1051809787750244 11.355561256408691 45 36 29
-1.457863211631775 2.76369047164917 12.714509963989258 41 31 29
-1.3071831464767456 -1.6963257789611816 11.508553504943848 158 121 95
-1.356885313987732 -0.14879931509494781 12.06519889831543 112 93 87
-1.3934425115585327 2.473809242248535 12.556270599365234 116 112 109
-1.406858205795288 2.562351942062378 12.71998119354248 41 21 18
-1.3959710597991943 2.8579230308532715 12.912988662719727 125 115 112
-1.3430256843566895 2.4670722484588623 12.671829223632812 24 7 8
-1.2756096124649048 -0.19937583804130554 12.108050346374512 34 22 18
-1.171661615371704 -2.965029001235962 11.242316246032715 113 102 98
-1.0270590782165527 -7.41859769821167 10.197309494018555 24 14 13
-1.0645638704299927 -5.624842643737793 10.635278701782227 94 89 85
-1.1176273822784424 -1.1133061647415161 11.834061622619629 123 108 101
-1.1076306104660034 -0.9593051671981812 11.800650596618652 117 104 96
-0.9153666496276855 -7.424419403076172 10.196358680725098 34 22 22
-1.035540223121643 1.6771327257156372 12.498647689819336 96 87 84
-1.0750116109848022 2.7988929748535156 13.088664054870605 21 19 17
-0.9590327143669128 2.7216880321502686 12.785408020019531 32 27 26
-0.9010162353515625 0.8452945351600647 12.103890419006348 116 98 84
-7.342496395111084 4.947488307952881 11.464366912841797 121 103 99
-6.9808526039123535 1.8772166967391968 10.835307121276855 168 135 128
-6.837267875671387 1.0468018054962158 10.675530433654785 198 180 165
-6.831581115722656 1.9912614822387695 10.808707237243652 193 175 165
-7.0875163078308105 7.778950214385986 12.128847122192383 29 25 25
-6.791957378387451 0.11656830459833145 10.524237632751465 178 158 149
-6.5889716148376465 -0.12286350131034851 10.431201934814453 180 148 137
-6.615941524505615 1.8272262811660767 10.871580123901367 179 159 152
-6.552494049072266 1.0517611503601074 10.649554252624512 191 174 164
-6.443732738494873 -1.8196370601654053 10.043006896972656 66 49 41
-6.467609405517578 -0.8061966300010681 10.249813079833984 115 86 78
-6.467609405517578 -0.8061966300010681 10.249813079833984 115 86 78
-6.518277168273926 1.8443812131881714 10.797042846679688 152 134 130
-6.406154632568359 -0.0010173969203606248 10.390960693359375 88 57 53
-6.451976776123047 1.1195051670074463 10.692435264587402 175 149 144
-6.394006729125977 1.0345821380615234 10.59653091430664 195 177 165
-6.431021213531494 1.128527283668518 10.707138061523438 184 166 156
-6.602810859680176 8.73784065246582 12.207622528076172 75 74 66
-6.476465225219727 8.56753158569336 12.077038764953613 30 29 27
-6.456702709197998 3.8561320304870605 11.340655326843262 171 157 152
-6.277217864990234 0.9429271221160889 10.601766586303711 98 68 66
-6.189152240753174 -2.7596964836120605 9.888541221618652 141 112 102
-6.4200439453125 5.220858573913574 11.562176704406738 71 64 56
-6.304608345031738 6.558690071105957 11.628786087036133 26 26 28
-6.316410541534424 6.693848133087158 11.79334831237793 106 105 102
-6.269526958465576 8.468158721923828 12.01048755645752 28 24 23
-6.208868503570557 4.704006671905518 11.421173095703125 60 48 45
-6.261022090911865 7.553335666656494 11.987597465515137 27 27 25
-6.008081912994385 0.10254445672035217 10.447900772094727 191 174 164
-5.84240198135376 -0.8879628777503967 10.373947143554688 73 54 48
-5.698675155639648 1.8171247243881226 10.943714141845703 182 149 142
-5.603352069854736 3.7663962841033936 11.306529998779297 168 146 140
-5.584504127502441 4.582215309143066 11.39490795135498 87 77 75
-5.417944431304932 -0.8258868455886841 10.502501487731934 178 156 147
-5.308818340301514 0.9522412419319153 10.81591510772705 136 107 101
-5.3192138671875 9.289334297180176 12.259087562561035 20 19 23
-5.330336093902588 3.700129508972168 11.382023811340332 28 17 16
-5.312305450439453 6.596811294555664 11.94951057434082 102 98 97
-5.249351978302002 3.745093822479248 11.373632431030273 136 118 108
-5.276577472686768 4.5627264976501465 11.583145141601562 78 75 70
-5.078644752502441 -3.36997127532959 9.820255279541016 65 48 40
-5.081484317779541 -3.182568311691284 9.881176948547363 96 78 70
-5.081484317779541 -3.182568311691284 9.881176948547363 96 78 70
-5.224664211273193 4.598965167999268 11.543791770935059 34 30 29
-5.19822883605957 4.509895324707031 11.504779815673828 35 31 31
-5.0635271072387695 -2.855905055999756 9.952136039733887 80 61 54
-5.109371185302734 -0.8794119954109192 10.442008972167969 113 89 85
-5.1400556564331055 3.6603848934173584 11.2841157913208 39 31 29
-5.137827396392822 0.06202581152319908 10.694618225097656 192 170 160
-5.118655681610107 -1.8158221244812012 10.333680152893066 99 75 63
-4.938292980194092 -4.705836772918701 9.380707740783691 56 38 34
-5.132614612579346 -0.9885417222976685 10.524195671081543 66 52 49
-5.178884029388428 4.68666934967041 11.613868713378906 111 104 97
-5.119725704193115 1.9470423460006714 11.062636375427246 115 86 83
-5.124986171722412 -0.008857929147779942 10.760218620300293 106 79 74
-5.124986171722412 -0.008857929147779942 10.760218620300293 106 79 74
-5.160258769989014 6.53564977645874 11.957390785217285 27 25 26
-5.102660655975342 2.2473247051239014 11.090715408325195 142 115 111
-5.102660655975342 2.2473247051239014 11.090715408325195 142 115 111
-5.0671491622924805 -1.7621054649353027 10.341397285461426 80 58 46
-5.081742286682129 2.7014622688293457 11.127038955688477 96 68 68
-4.991217613220215 -2.7823116779327393 9.972164154052734 137 111 98
-5.047977924346924 -1.5403878688812256 10.33631420135498 160 130 119
-5.104464530944824 0.9855261445045471 10.96867847442627 203 183 173
-5.031514644622803 -0.9393051862716675 10.490150451660156 53 34 27
-4.852688789367676 -5.069947242736816 9.318305015563965 149 127 116
-5.026036262512207 -1.0418791770935059 10.554117202758789 158 128 118
-4.98060417175293 -0.9751201272010803 10.453083038330078 157 125 116
-5.030914783477783 6.329953193664551 11.953763008117676 102 95 88
-4.966343879699707 3.715818405151367 11.338172912597656 126 116 106
-4.9420247077941895 0.9775781035423279 10.942269325256348 199 180 173
-4.662106990814209 -3.4079155921936035 9.863329887390137 108 79 71
-4.8017168045043945 0.3881869316101074 10.981876373291016 175 147 136
-4.750701427459717 6.523453712463379 11.967860221862793 97 93 92
-4.682449817657471 2.710127353668213 11.353803634643555 158 129 121
-4.6173200607299805 -2.803795576095581 10.183908462524414 139 113 99
-4.409645080566406 2.5806801319122314 10.60140323638916 58 40 36
-4.618502140045166 7.427396297454834 12.244738578796387 25 25 25
-4.2853193283081055 -6.715190410614014 8.801408767700195 94 68 61
-4.41391658782959 -2.6797215938568115 10.093615531921387 70 52 40
-4.509905815124512 -0.1261301338672638 10.889755249023438 185 159 142
-4.486440181732178 2.778780460357666 11.551542282104492 49 42 36
-4.4648613929748535 1.950433373451233 11.345019340515137 237 202 187
-4.4648613929748535 1.950433373451233 11.345019340515137 237 202 187
-4.4427337646484375 -1.7997393608093262 10.599077224731445 172 149 135
-4.1687164306640625 -7.6154279708862305 8.736737251281738 65 34 30
-4.362990856170654 0.9134202003479004 11.190657615661621 169 131 123
-4.253066539764404 -2.7352466583251953 10.178780555725098 66 49 42
-4.302385330200195 2.737370014190674 11.405413627624512 51 40 31
-4.06195068359375 -7.685739517211914 8.856003761291504 60 38 27
-4.192890644073486 2.7148826122283936 11.518893241882324 101 79 75
-4.217379093170166 2.7910425662994385 11.729857444763184 51 36 34
-4.203850269317627 1.5283273458480835 11.46848201751709 215 182 165
-4.082752227783203 3.6241397857666016 11.792095184326172 107 92 87
-4.149299621582031 -0.011508096009492874 11.33834457397461 124 100 88
-4.053540229797363 2.705488681793213 11.624462127685547 128 111 103
-4.027045726776123 -1.955259919166565 10.695496559143066 51 35 26
-3.9826602935791016 -2.0353450775146484 10.656764030456543 43 29 29
-3.9826602935791016 -2.0353450775146484 10.656764030456543 43 29 29
-4.009572505950928 3.179414987564087 11.805279731750488 38 27 27
-4.009572505950928 3.179414987564087 11.805279731750488 38 27 27
-4.033499240875244 1.0350688695907593 11.507676124572754 55 30 26
-3.976390838623047 -1.961619257926941 10.702245712280273 164 147 131
-3.969034194946289 3.746973991394043 11.810674667358398 134 120 114
-3.9910507202148438 2.7568912506103516 11.79775333404541 122 102 101
-3.996009349822998 -1.0298939943313599 11.072856903076172 141 112 98
-3.997260093688965 1.5461827516555786 11.60940933227539 170 139 131
-4.005182266235352 1.615088939666748 11.659134864807129 159 132 123
-3.9565930366516113 3.4050211906433105 11.85081958770752 119 103 102
-3.9081575870513916 3.658508777618408 11.837387084960938 38 30 27
-3.9130449295043945 5.434701442718506 12.244918823242188 23 23 23
-3.8422698974609375 4.601208209991455 11.874439239501953 36 31 31
-3.8779587745666504 3.7061595916748047 11.855062484741211 133 121 118
-3.9442784786224365 -1.0347636938095093 11.183632850646973 143 113 102
-3.899029493331909 4.097275733947754 12.096138954162598 70 39 37
-3.8262763023376465 4.702076435089111 12.029121398925781 102 94 89
-3.676757574081421 -6.929845333099365 9.104866981506348 55 41 38
-3.8044397830963135 3.8741767406463623 11.87451171875 74 43 38
-3.7029500007629395 -5.503058910369873 9.588167190551758 143 121 110
-3.7889351844787598 3.67138409614563 11.829769134521484 44 36 34
-3.798513889312744 2.8449530601501465 11.93846321105957 147 118 116
-3.6909632682800293 8.496641159057617 12.863450050354004 16 16 19
-3.7278900146484375 3.7973058223724365 12.050226211547852 114 86 83
-3.6943743228912354 3.3983957767486572 11.979829788208008 76 48 45
-3.6976256370544434 2.8458850383758545 11.973857879638672 151 132 132
-3.8926761150360107 1.722028374671936 12.657090187072754 98 73 68
-3.7171707153320312 2.944401264190674 12.190086364746094 91 60 55
-3.682884931564331 1.861128568649292 11.880264282226562 52 38 35
-3.6737122535705566 2.8224596977233887 12.073986053466797 73 52 50
-3.6727993488311768 0.9054493308067322 11.860255241394043 72 54 49
-3.558347702026367 3.813370704650879 12.138199806213379 129 111 97
-3.492290735244751 -2.815154790878296 10.56373405456543 93 69 57
-3.480916738510132 3.8098251819610596 12.201695442199707 122 108 103
-3.515307664871216 2.828430652618408 12.156076431274414 67 42 37
-3.44352126121521 2.890514850616455 12.259472846984863 137 113 108
-3.4150197505950928 3.62208890914917 12.419981002807617 120 96 92
-3.3529703617095947 3.8136181831359863 12.198835372924805 119 90 84
-3.2651045322418213 2.8171117305755615 12.164979934692383 52 32 33
-3.315366744995117 3.0140271186828613 12.51356029510498 89 61 60
-3.277222156524658 -1.9620766639709473 11.739429473876953 149 127 114
-3.14851975440979 3.9182777404785156 12.702268600463867 107 89 84
-2.9563064575195312 -7.676588535308838 9.111897468566895 62 40 27
-3.0901594161987305 -1.1244856119155884 11.759222984313965 140 114 103
-3.0374250411987305 1.8742446899414062 12.319570541381836 65 44 43
-3.054766893386841 -0.03533952310681343 12.24829387664795 133 106 95
-3.0060532093048096 0.5854419469833374 12.488840103149414 55 46 44
-2.990670680999756 0.4268578290939331 12.38899040222168 66 57 52
-2.9838576316833496 -1.2160476446151733 11.943161964416504 146 124 111
-2.87961745262146 3.8809661865234375 12.890249252319336 32 32 32
-2.9645588397979736 -0.024803264066576958 12.405237197875977 133 115 103
-2.889460802078247 2.60469913482666 12.837299346923828 68 62 62
-2.909153699874878 2.086042642593384 12.85307502746582 74 63 59
-2.8773388862609863 2.83552622795105 12.942183494567871 128 113 113
-2.8773839473724365 0.9696198105812073 12.620063781738281 140 121 114
-2.846525192260742 2.3173320293426514 12.830747604370117 134 120 117
-2.852370262145996 2.179245710372925 12.834537506103516 136 126 124
-2.85678768157959 2.0889194011688232 12.864599227905273 141 132 127
-2.8569984436035156 -0.0859714224934578 12.293817520141602 64 49 44
-2.843254804611206 1.9964348077774048 12.78456974029541 148 140 138
-2.831768035888672 -1.1460741758346558 12.030795097351074 59 46 40
-2.850292205810547 2.0796048641204834 13.09526538848877 99 79 78
-2.6889779567718506 -6.861572265625 9.771230697631836 61 42 37
-2.628618001937866 -7.807389736175537 9.44919490814209 113 96 86
-2.5965774059295654 -7.841243267059326 9.288715362548828 53 39 35
-2.718730926513672 -1.128682255744934 12.237332344055176 65 45 35
-2.563015937805176 -8.131180763244629 9.367975234985352 115 105 103
-2.608577013015747 1.9404313564300537 13.024215698242188 82 57 53
-2.295377254486084 2.2322425842285156 13.78330135345459 97 89 87
-2.295377254486084 2.2322425842285156 13.78330135345459 97 89 87
-2.1783480644226074 5.155341148376465 14.218328475952148 28 28 26
-2.1321420669555664 3.1287105083465576 13.93353271484375 99 95 93
-2.174691677093506 -1.1663845777511597 12.787611961364746 63 45 39
-2.135681629180908 -0.15110790729522705 13.3297700881958 76 51 47
-2.022261381149292 2.843493938446045 14.042679786682129 122 120 121
-1.976467490196228 3.0600311756134033 14.359950065612793 91 82 81
-1.8546903133392334 1.0246115922927856 14.170772552490234 128 109 103
-1.8739153146743774 -0.21654877066612244 14.020113945007324 69 48 46
-1.8102130889892578 1.0704965591430664 14.35919189453125 84 64 63
-1.7662075757980347 1.0883537530899048 14.323054313659668 125 118 112
-1.784339427947998 -0.561344563961029 13.868661880493164 67 56 50
-1.784339427947998 -0.561344563961029 13.868661880493164 67 56 50
-1.7693350315093994 -0.9401127696037292 13.759994506835938 68 55 51
-1.7304341793060303 1.1387419700622559 14.482765197753906 41 36 33
-1.7304341793060303 1.1387419700622559 14.482765197753906 41 36 33
-1.740012288093567 -0.6147977113723755 13.891670227050781 129 116 105
-1.6467816829681396 2.013301134109497 14.216392517089844 36 34 38
-1.6120152473449707 3.0828704833984375 14.50655746459961 65 55 56
-1.5451234579086304 2.8764560222625732 14.947020530700684 51 41 41
-1.5214656591415405 3.2937419414520264 14.995923042297363 94 90 87
-1.4786137342453003 -0.13419009745121002 14.528953552246094 103 89 88
-8.580815315246582 9.886072158813477 12.260505676269531 25 24 24
-8.40754508972168 8.843406677246094 11.950860023498535 31 28 29
-8.556262969970703 10.012206077575684 12.363228797912598 92 83 82
-8.310375213623047 7.180075645446777 11.67542839050293 123 109 109
-8.258102416992188 5.844845771789551 11.41256046295166 56 45 44
-8.509148597717285 10.046637535095215 12.414072036743164 99 95 94
-8.4152193069458 9.000985145568848 12.121487617492676 95 95 85
-8.448296546936035 9.920594215393066 12.325056076049805 18 15 14
-8.249709129333496 6.8935322761535645 11.597555160522461 149 142 140
-8.249709129333496 6.8935322761535645 11.597555160522461 149 142 140
-8.086978912353516 4.850682735443115 11.230077743530273 44 32 32
-8.07848072052002 4.910583972930908 11.234010696411133 168 154 151
-8.311036109924316 9.987017631530762 12.322375297546387 86 88 75
-8.201061248779297 8.854931831359863 12.090901374816895 28 26 25
-7.940736293792725 3.9347591400146484 11.10219955444336 158 144 143
-7.908290386199951 4.567647457122803 11.199291229248047 132 121 117
-7.99375057220459 7.867344379425049 11.838364601135254 104 102 96
-7.876930236816406 6.771786212921143 11.494319915771484 156 146 145
-7.829387664794922 5.822583198547363 11.366755485534668 162 154 153
-8.00423526763916 9.817941665649414 12.226390838623047 24 24 24
-8.00423526763916 9.817941665649414 12.226390838623047 24 24 24
-7.839521884918213 4.8158745765686035 11.24642276763916 86 75 75
-7.910661220550537 7.887461185455322 11.812070846557617 28 27 28
-7.8527374267578125 7.720064163208008 11.7212553024292 27 25 26
-7.770276069641113 3.8999087810516357 11.073426246643066 175 155 146
-7.807820796966553 4.829615592956543 11.271514892578125 158 149 145
-7.726612091064453 2.860434055328369 10.887374877929688 47 28 27
-7.775742053985596 5.843738555908203 11.46063232421875 173 161 155
-7.763559818267822 6.929803371429443 11.60019588470459 136 126 124
-7.794869899749756 6.92311954498291 11.656280517578125 82 71 69
-7.728764057159424 4.678035736083984 11.228666305541992 157 137 130
-7.647814750671387 2.0133156776428223 10.736549377441406 185 170 161
-7.87327241897583 9.863492012023926 12.24221420288086 87 84 75
-7.7093987464904785 6.714041709899902 11.603720664978027 44 38 38
-7.901691913604736 10.837045669555664 12.525992393493652 22 23 17
-7.933486461639404 10.960021018981934 12.599417686462402 86 82 79
-7.420621395111084 6.7757954597473145 11.623095512390137 126 120 119
-7.268167495727539 -0.01963416486978531 10.371286392211914 172 137 127
-7.215675354003906 -0.8808332085609436 10.19920825958252 96 69 60
-7.15081787109375 -0.010029280558228493 10.386435508728027 169 132 121
-7.1212921142578125 0.03784158080816269 10.407283782958984 94 74 67
-7.127562999725342 0.925531804561615 10.572525024414062 165 130 122
-7.12123441696167 0.9239839911460876 10.564271926879883 165 130 122
-7.158824920654297 2.0036754608154297 10.82213020324707 186 167 160
-7.043726444244385 0.020456861704587936 10.42415714263916 93 66 53
-6.884983539581299 -2.826298713684082 9.853443145751953 164 132 112
-6.994773864746094 1.9215062856674194 10.80795669555664 85 61 51
-6.935375213623047 0.03753020614385605 10.442709922790527 98 71 67
-6.874608039855957 0.1337525099515915 10.386378288269043 182 162 153
-6.811735153198242 -0.8885531425476074 10.247916221618652 102 79 71
-6.893038272857666 3.767573833465576 11.178437232971191 151 121 118
-6.693997383117676 -2.6594417095184326 9.876703262329102 154 138 125
-6.719985008239746 -0.813792884349823 10.234541893005371 190 158 147
-6.982851982116699 10.775921821594238 12.652486801147461 19 19 18
-6.807151794433594 7.693706035614014 11.925084114074707 99 98 95
-6.525458335876465 -2.6437225341796875 9.842368125915527 154 134 120
-6.57831335067749 -0.12684553861618042 10.383894920349121 180 148 137
-6.5508246421813965 1.045247197151184 10.62117862701416 191 174 164
-6.472666263580322 -1.8334451913833618 10.067212104797363 66 49 41
-6.428947925567627 -0.0048854779452085495 10.412039756774902 88 57 53
-6.452241897583008 1.0359700918197632 10.694818496704102 195 177 165
-6.455563068389893 1.8255531787872314 10.821996688842773 172 143 138
-4.039885997772217 4.8580322265625 6.333364009857178 27 27 28
-6.377810478210449 0.009687996469438076 10.489355087280273 103 74 69
-6.377810478210449 0.009687996469438076 10.489355087280273 103 74 69
-6.398136615753174 1.0509227514266968 10.692152976989746 187 167 156
-6.490091800689697 8.595046997070312 12.117620468139648 30 29 27
-6.247666835784912 -0.2069743424654007 10.344321250915527 184 152 141
-6.309222221374512 4.7721991539001465 11.405718803405762 162 152 151
-6.31635046005249 5.727132320404053 11.689568519592285 92 88 85
-6.180769443511963 4.680019855499268 11.43000316619873 123 105 100
-5.764788627624512 -2.631359815597534 9.942957878112793 155 130 118
-5.893678188323975 1.8373874425888062 10.966087341308594 172 140 133
-5.967206001281738 8.532241821289062 12.205889701843262 27 27 29
-5.608954906463623 -0.914996325969696 10.387292861938477 53 34 29
-5.511363506317139 -1.8218148946762085 10.24142074584961 80 61 52
-5.436295509338379 -0.0004775245033670217 10.688098907470703 117 89 85
-4.838047981262207 0.040834710001945496 9.318305015563965 98 70 67
-5.275491237640381 3.6361184120178223 11.369254112243652 125 104 99
-5.416440486907959 8.616610527038574 12.605466842651367 23 25 25
-5.212075710296631 -1.0090992450714111 10.483609199523926 166 142 132
-5.190675258636475 -1.7684073448181152 10.314273834228516 100 74 61
-5.366689682006836 7.764604568481445 12.40598201751709 26 25 30
-5.361664772033691 7.752504825592041 12.39444351196289 25 24 29
-5.083929061889648 -2.8699750900268555 9.991084098815918 80 61 54
-5.17783784866333 0.8455736637115479 10.878844261169434 178 150 139
-5.052366256713867 -3.515211582183838 9.81188678741455 145 126 115
-5.122975826263428 -1.3353081941604614 10.423284530639648 110 84 77
-5.1202802658081055 -1.4776777029037476 10.393675804138184 102 78 71
-5.106719970703125 -1.5897191762924194 10.341397285461426 97 73 65
-5.106719970703125 -1.5897191762924194 10.341397285461426 97 73 65
-5.119058132171631 -0.9476001858711243 10.498785018920898 100 82 76
-5.042479991912842 -3.2951345443725586 9.899173736572266 152 132 121
-5.148330211639404 2.7461960315704346 11.319464683532715 96 68 68
-5.016786098480225 -2.8048183917999268 10.025101661682129 137 111 98
-5.016786098480225 -2.8048183917999268 10.025101661682129 137 111 98
-5.099752426147461 -0.8649892210960388 10.608846664428711 170 143 132
-5.07055139541626 -0.8461179137229919 10.556714057922363 168 141 130
-5.201922416687012 6.5726189613342285 12.184751510620117 34 32 33
-4.9187846183776855 -4.693073749542236 9.527510643005371 157 131 118
-4.902157783508301 -5.121573448181152 9.41881275177002 149 127 116
-4.907364368438721 -4.404079437255859 9.561934471130371 133 111 99
-4.956518650054932 -0.9207929372787476 10.521337509155273 85 61 58
-4.977891445159912 2.8166701793670654 11.29812240600586 204 182 168
-4.87545919418335 -2.6358747482299805 10.10916805267334 146 119 108
-4.773334503173828 -5.460387706756592 9.367940902709961 172 157 147
-4.834059715270996 -3.5450353622436523 9.914669036865234 143 121 108
-4.953701972961426 5.667514801025391 12.050259590148926 21 19 20
-4.5821661949157715 -6.138578414916992 9.25997257232666 83 64 54
-4.728143692016602 2.8308374881744385 11.495221138000488 151 127 115
-4.562882900238037 -1.830448865890503 10.439434051513672 95 72 60
-4.516324520111084 1.78641939163208 11.303707122802734 216 177 165
-4.4703240394592285 1.9407413005828857 11.3635835647583 237 202 187
-4.4703240394592285 1.9407413005828857 11.3635835647583 237 202 187
-4.473587512969971 0.9629411697387695 11.2317476272583 217 200 193
-4.473587512969971 0.9629411697387695 11.2317476272583 217 200 193
-4.356014728546143 -2.6815266609191895 10.22407341003418 155 133 119
-4.463444232940674 0.5454670786857605 11.179220199584961 191 167 163
-4.431278228759766 -0.8568465113639832 10.837410926818848 177 153 144
-4.120471000671387 -3.6184449195861816 9.993342399597168 70 53 45
-4.229066371917725 4.0168328285217285 11.843583106994629 125 108 95
-4.229066371917725 4.0168328285217285 11.843583106994629 125 108 95
-4.142443656921387 -2.6729390621185303 10.269577026367188 159 139 125
-4.198205947875977 2.707097291946411 11.65408706665039 69 47 45
-4.2038397789001465 1.5238372087478638 11.481493949890137 215 182 165
-4.054007053375244 -4.461249828338623 9.785595893859863 78 60 48
-4.044173717498779 -3.541060447692871 9.982939720153809 151 123 109
-3.9543769359588623 -5.205565929412842 9.371800422668457 88 70 60
-4.111871719360352 3.6538026332855225 11.913076400756836 107 92 87
-4.102961540222168 -0.0129325520247221 11.176340103149414 124 100 88
-4.087924003601074 2.7344539165496826 11.77344036102295 128 111 103
-3.9495861530303955 -3.6137161254882812 10.073704719543457 81 59 46
-3.9038186073303223 -3.9730215072631836 9.950963020324707 88 66 53
-3.9038186073303223 -3.9730215072631836 9.950963020324707 88 66 53
-3.9590368270874023 -2.0172226428985596 10.589411735534668 43 29 29
-3.902482748031616 -3.7527875900268555 10.038802146911621 91 68 54
-4.0104522705078125 4.231554985046387 12.033646583557129 129 115 105
-4.014473915100098 -0.04199006035923958 11.2335844039917 96 69 61
-4.034422397613525 1.8269139528274536 11.694918632507324 67 47 44
-4.005492210388184 3.356642961502075 11.884000778198242 42 32 32
-3.884847402572632 -3.715843915939331 10.018178939819336 82 58 46
-3.8654792308807373 -4.316354751586914 9.834454536437988 60 41 35
-3.831012725830078 -4.258047580718994 9.89321231842041 140 117 103
-3.988515615463257 6.842846870422363 12.782424926757812 24 24 24
-3.908362865447998 -0.832839846611023 10.979884147644043 177 152 136
-3.9535305500030518 5.654637336730957 12.45328140258789 25 23 24
-3.935732126235962 2.8522391319274902 11.85247802734375 134 113 107
-3.9242939949035645 4.721492767333984 12.219937324523926 36 31 31
-3.9052679538726807 5.4479265213012695 12.464900016784668 95 94 92
-3.8453924655914307 3.742345094680786 12.089323043823242 44 36 34
-3.7996206283569336 2.8449103832244873 11.960182189941406 147 118 116
-3.801851987838745 1.9037047624588013 11.793445587158203 123 112 107
-3.7303550243377686 0.9453760981559753 11.610845565795898 173 147 134
-3.7171497344970703 3.4222888946533203 12.094536781311035 76 48 45
-3.7511508464813232 1.6196811199188232 11.994789123535156 98 73 68
-3.6863973140716553 5.027266025543213 12.512334823608398 93 89 88
-3.641893148422241 5.722123622894287 12.711453437805176 31 29 34
-3.5923407077789307 1.8142802715301514 11.886880874633789 61 43 43
-3.4841904640197754 4.773280143737793 12.529500961303711 36 31 31
-3.49324631690979 1.8559328317642212 11.957183837890625 46 35 35
-3.4393420219421387 3.5109703540802 12.278362274169922 136 116 109
-3.438209295272827 3.8426315784454346 12.389520645141602 110 86 84
-3.423248767852783 4.83452033996582 12.670084953308105 100 92 89
-3.3914849758148193 3.868314743041992 12.41268539428711 119 90 84
-3.388573169708252 0.8800265789031982 11.735574722290039 39 25 24
-3.2598164081573486 2.8112597465515137 12.163971900939941 52 32 33
-3.2707231044769287 2.895871639251709 12.305078506469727 149 134 131
-2.8745064735412598 3.8593826293945312 12.850738525390625 32 32 32
-2.8243587017059326 2.0045461654663086 12.327149391174316 74 63 59
-2.8188047409057617 -1.3754879236221313 11.404938697814941 125 107 95
-2.8452911376953125 4.723803997039795 13.175630569458008 101 101 99
-2.8284032344818115 3.961240291595459 12.952037811279297 84 76 73
-2.793731927871704 2.1121206283569336 12.464520454406738 136 126 124
-2.7914912700653076 2.019294500350952 12.446859359741211 141 132 127
-2.7208194732666016 -5.018313407897949 10.210981369018555 107 72 61
-2.750441551208496 -1.0934141874313354 11.55622386932373 59 46 40
-2.715749502182007 -1.6588233709335327 11.358919143676758 134 112 101
-2.5521371364593506 1.8764256238937378 12.620039939880371 82 57 53
-2.532541036605835 -0.9726105332374573 11.6377534866333 146 120 106
-2.4025378227233887 7.179887294769287 14.114980697631836 81 77 76
-2.408168315887451 3.9696662425994873 13.382497787475586 73 69 68
-2.24739146232605 -1.0749045610427856 11.842289924621582 63 49 40
-2.1959872245788574 5.98325252532959 13.837637901306152 39 33 33
-2.2140700817108154 2.104464292526245 12.96603012084961 97 89 87
-2.192084789276123 4.1144328117370605 13.47685432434082 63 59 58
-2.1751155853271484 5.249446392059326 13.728893280029297 61 58 54
-2.143314838409424 4.9451470375061035 13.618877410888672 28 28 26
-2.0333244800567627 3.98638916015625 13.657440185546875 131 126 120
-2.011357307434082 2.6825177669525146 13.152019500732422 74 66 64
-2.016040325164795 2.1295840740203857 13.065702438354492 83 75 76
-1.9519644975662231 2.1914145946502686 13.280898094177246 80 73 71
-1.6966558694839478 -1.1566003561019897 12.318721771240234 58 41 31
-1.60115385055542 1.8964078426361084 13.415268898010254 36 34 38
-1.549796223640442 2.6158626079559326 13.611492156982422 100 98 100
-1.3449710607528687 0.9741687178611755 13.310134887695312 86 88 87
-1.283596396446228 3.8580634593963623 14.356927871704102 126 122 119
-1.2486131191253662 4.5020551681518555 14.693364143371582 136 129 129
-1.1412662267684937 -0.16688907146453857 13.05555248260498 36 27 25
-1.103672981262207 0.8717796802520752 13.451288223266602 33 31 32
-6.201854228973389 3.1120734214782715 10.619260787963867 148 130 126
-6.398037910461426 1.6717255115509033 10.505943298339844 158 139 132
-6.083352088928223 2.982037305831909 10.571521759033203 166 146 139
-5.900627136230469 3.56496262550354 10.485891342163086 167 157 150
-8.869187355041504 8.027576446533203 12.407349586486816 34 30 29
-9.47570514678955 8.078402519226074 13.131889343261719 36 31 29
-9.47570514678955 8.078402519226074 13.131889343261719 36 31 29
-8.17360782623291 7.047822952270508 12.11892318725586 136 129 121
-7.821800708770752 6.961508274078369 11.69643497467041 126 115 109
-7.800930023193359 6.946878910064697 11.669767379760742 128 118 112
-8.054635047912598 6.866079330444336 11.956425666809082 53 44 45
-8.504884719848633 4.903592109680176 12.072720527648926 33 28 26
-8.487626075744629 5.227906703948975 12.170709609985352 155 141 128
-8.59988784790039 3.0633702278137207 11.851580619812012 137 119 112
-8.17660903930664 5.14368200302124 11.982866287231445 142 132 123
-7.817624568939209 5.00054407119751 11.636296272277832 152 143 136
-8.118607521057129 2.9889421463012695 11.4732027053833 146 123 117
-6.557960510253906 7.039302825927734 10.7811861038208 40 32 24
-7.399637222290039 5.743325233459473 11.520617485046387 57 49 47
-8.020644187927246 1.1391575336456299 11.0035400390625 176 156 145
-7.27003812789917 2.9656059741973877 10.888901710510254 156 139 129
-7.194860935211182 1.089184045791626 10.38592529296875 174 157 152
-7.027586936950684 4.722126483917236 11.26799201965332 63 48 47
-7.12845516204834 0.17492489516735077 10.099259376525879 174 160 154
-5.544278621673584 5.0290679931640625 10.192622184753418 100 99 89
-6.449970245361328 1.8170422315597534 10.59480094909668 161 144 136
-6.534370422363281 1.6964150667190552 10.7053861618042 158 139 132
-6.312229156494141 3.131601572036743 10.893319129943848 76 61 58
-6.215260982513428 3.038867712020874 10.803345680236816 166 146 139
-6.215260982513428 3.038867712020874 10.803345680236816 166 146 139
-6.366871356964111 -0.0656336173415184 10.197906494140625 75 62 57
-6.270410537719727 -0.33865153789520264 10.016772270202637 88 69 64
-6.129829406738281 -0.10316101461648941 9.92995834350586 175 151 138
-6.304781913757324 -0.8567150831222534 10.063214302062988 78 59 54
-6.504703044891357 -0.5265076756477356 2.3579978942871094 188 194 189
-10.040338516235352 0.3362823724746704 5.352032661437988 64 66 63
-24.507593154907227 -0.30872440338134766 13.344050407409668 138 143 140
-9.027664184570312 0.10570288449525833 9.385114669799805 150 150 144
-9.028531074523926 0.170575350522995 9.412150382995605 160 154 150
-9.441256523132324 1.0123056173324585 10.110434532165527 100 73 69
-9.305869102478027 9.331692695617676 12.337715148925781 110 108 95
-9.076797485351562 0.14941179752349854 9.582390785217285 153 138 133
-8.760494232177734 -0.7556819915771484 9.061731338500977 123 108 103
-9.047477722167969 9.155405044555664 12.24763011932373 32 28 27
-8.721736907958984 -0.8061263561248779 9.124604225158691 44 41 42
-8.873292922973633 9.121898651123047 12.140869140625 94 91 84
-8.554019927978516 -2.61708664894104 8.420573234558105 107 82 77
-8.657208442687988 -0.7240393161773682 9.233649253845215 161 133 121
-8.536998748779297 -3.4633986949920654 8.322309494018555 148 126 121
-8.517831802368164 -3.5347771644592285 8.338833808898926 54 49 46
-8.517574310302734 -3.6002676486968994 8.333428382873535 149 123 114
-8.47447395324707 -3.472015380859375 8.36699104309082 152 130 122
-8.445204734802246 9.016677856445312 11.968259811401367 28 27 27
-8.518556594848633 -1.164245843887329 9.151318550109863 120 91 85
-8.808792114257812 6.095980167388916 11.709091186523438 30 21 22
-8.44032096862793 -1.8286570310592651 8.977747917175293 151 126 116
-8.661216735839844 0.06229490786790848 9.849695205688477 58 49 50
-8.456306457519531 7.968418121337891 11.897525787353516 124 125 113
-8.589458465576172 7.1266984939575195 11.827595710754395 148 141 135
-8.449973106384277 -2.813438653945923 8.777679443359375 120 91 85
-8.896519660949707 4.160727024078369 11.37350845336914 161 151 148
-8.639646530151367 6.023608684539795 11.638422012329102 80 71 71
-8.433577537536621 6.985852241516113 11.766382217407227 36 30 30
-8.594820976257324 5.0877814292907715 11.442416191101074 146 136 135
-8.580512046813965 0.055478911846876144 9.979141235351562 83 63 58
-8.680708885192871 3.14680814743042 11.047120094299316 128 108 103
-8.061868667602539 7.81850528717041 11.740388870239258 114 101 92
-8.258792877197266 6.027984619140625 11.503238677978516 102 87 81
-8.580301284790039 4.007704257965088 11.331175804138184 62 56 56
-8.411706924438477 5.087156772613525 11.466935157775879 156 147 142
-7.853579044342041 8.575129508972168 11.749207496643066 30 27 22
-8.233626365661621 -2.6189279556274414 8.991114616394043 142 124 114
-8.702799797058105 2.039303779602051 10.945840835571289 89 68 63
-8.243239402770996 -2.6256253719329834 9.004081726074219 142 125 115
-8.304336547851562 5.971594333648682 11.617270469665527 32 28 19
-8.538764953613281 0.9528055191040039 10.48304271697998 153 126 119
-8.302274703979492 -1.898478388786316 9.347750663757324 156 129 120
-8.521836280822754 1.0931448936462402 10.526348114013672 172 156 149
-8.558431625366211 1.9499202966690063 10.84338665008545 142 123 119
-8.23676586151123 -1.727655053138733 9.373647689819336 163 139 129
-8.22038459777832 -2.1318817138671875 9.2384033203125 187 182 179
-7.854503631591797 7.844803810119629 11.722831726074219 35 31 28
-8.251957893371582 -2.260072946548462 9.291568756103516 157 131 117
-8.251957893371582 -2.260072946548462 9.291568756103516 157 131 117
-8.495046615600586 3.1374855041503906 11.205771446228027 170 155 148
-8.407819747924805 1.109716534614563 10.528702735900879 173 160 154
-8.419877052307129 2.07423734664917 10.841226577758789 166 156 147
-8.167475700378418 -3.4979023933410645 8.912771224975586 152 131 122
-8.392011642456055 1.167425513267517 10.61691665649414 71 53 53
-7.956275939941406 4.938634872436523 11.232996940612793 156 145 141
-8.174617767333984 -0.7921313643455505 9.811803817749023 148 128 120
-8.105302810668945 -2.5445358753204346 9.214483261108398 167 144 128
-8.260942459106445 0.031721774488687515 10.195305824279785 79 64 61
-8.333902359008789 1.1163487434387207 10.62421989440918 167 147 145
-8.333902359008789 1.1163487434387207 10.62421989440918 167 147 145
-8.290148735046387 2.012697458267212 10.851426124572754 80 65 58
-8.17528247833252 -0.8892756104469299 9.838802337646484 62 50 50
-8.17528247833252 -0.8892756104469299 9.838802337646484 62 50 50
-8.22376823425293 -4.192082405090332 8.92212200164795 157 130 119
-8.22376823425293 -4.192082405090332 8.92212200164795 157 130 119
-8.22376823425293 -4.192082405090332 8.92212200164795 157 130 119
-8.199894905090332 0.09343205392360687 10.235979080200195 183 168 153
-8.242633819580078 -4.695202827453613 8.872231483459473 58 46 40
-8.102551460266113 -1.9269294738769531 9.519794464111328 170 146 130
-8.102551460266113 -1.9269294738769531 9.519794464111328 170 146 130
-8.240117073059082 2.7139525413513184 11.111907005310059 166 133 118
-8.104145050048828 -0.8050387501716614 9.892112731933594 84 70 66
-8.095291137695312 -0.871841311454773 9.864376068115234 83 69 66
-8.095291137695312 -0.871841311454773 9.864376068115234 83 69 66
-8.095291137695312 -0.871841311454773 9.864376068115234 83 69 66
-7.992914199829102 -2.7294347286224365 9.227787971496582 64 54 52
-8.114226341247559 -0.46250995993614197 10.064483642578125 171 146 137
-8.07541275024414 -0.015464951284229755 10.166382789611816 161 132 126
-8.01788330078125 -1.8512858152389526 9.552891731262207 55 45 43
-7.900238037109375 4.917685031890869 11.414677619934082 150 138 124
-8.012001037597656 -2.6628177165985107 9.310535430908203 146 140 127
-7.983591079711914 -1.7395468950271606 9.634127616882324 167 141 124
-7.964170932769775 -2.614633321762085 9.363224029541016 62 52 51
-8.003495216369629 -0.7726215720176697 9.97091007232666 166 142 134
-7.607895374298096 5.805980205535889 11.386306762695312 161 146 139
-7.939033508300781 -2.7302286624908447 9.30620002746582 60 53 50
-8.108134269714355 1.006116509437561 10.661486625671387 83 69 66
-7.892930030822754 -3.7708635330200195 9.0004243850708 150 131 118
-7.947074890136719 3.045724868774414 11.110475540161133 166 152 149
-8.048773765563965 1.0803457498550415 10.65614128112793 169 154 148
-7.683736801147461 4.823009014129639 11.282111167907715 50 40 41
-7.941119194030762 -3.7967984676361084 9.068228721618652 148 130 117
-7.904061794281006 -2.6833276748657227 9.40609073638916 155 137 129
-7.973992824554443 0.11122985184192657 10.370512008666992 167 149 145
-7.143612861633301 7.401824951171875 11.408123970031738 28 26 27
-7.968715667724609 1.0689291954040527 10.730741500854492 172 155 148
-7.903097152709961 -3.6635401248931885 9.228302001953125 146 133 124
-7.903097152709961 -3.6635401248931885 9.228302001953125 146 133 124
-7.877439975738525 2.0127570629119873 10.949491500854492 64 48 48
-7.92921781539917 0.9136596322059631 10.694510459899902 156 129 122
-7.846747875213623 -4.632287979125977 8.939818382263184 63 53 51
-7.069063186645508 7.443845748901367 11.450003623962402 97 95 77
-7.87302827835083 0.511925458908081 10.550101280212402 154 127 118
-7.1537184715271 6.535031318664551 11.363746643066406 30 26 22
-7.121521949768066 6.60118293762207 11.381451606750488 108 103 99
-7.8449225425720215 -4.664133548736572 9.063217163085938 136 112 105
-7.734681129455566 0.04932287707924843 10.329834938049316 67 53 44
-7.285131454467773 4.743648052215576 11.171171188354492 62 57 54
-7.865872859954834 -5.587076663970947 8.901588439941406 156 143 132
-7.689858913421631 -0.9556604027748108 10.068490028381348 68 57 53
-7.7213335037231445 -3.6456735134124756 9.31558895111084 133 116 108
-7.671379089355469 -2.841571807861328 9.50726318359375 121 101 92
-7.671379089355469 -2.841571807861328 9.50726318359375 121 101 92
-7.748654365539551 -5.620853900909424 8.888580322265625 71 63 60
-7.748654365539551 -5.620853900909424 8.888580322265625 71 63 60
-7.672615051269531 -2.837228536605835 9.605216026306152 48 47 46
-7.011834621429443 5.583963871002197 11.206503868103027 61 50 50
-7.612039566040039 -2.8867955207824707 9.537408828735352 40 38 34
-7.612039566040039 -2.8867955207824707 9.537408828735352 40 38 34
-7.577676296234131 -0.930941104888916 10.0955171585083 70 54 53
-7.62073278427124 -4.686013698577881 9.100394248962402 73 62 60
-7.5595383644104 -2.7289302349090576 9.617316246032715 147 129 125
-7.717090606689453 -5.741964340209961 9.012779235839844 148 128 122
-7.562881946563721 -3.658552885055542 9.422873497009277 145 126 115
-7.299457550048828 2.8858144283294678 11.074402809143066 62 47 46
-7.531856536865234 1.0738773345947266 10.86478042602539 174 157 152
-6.790946006774902 5.5744853019714355 11.162672996520996 146 138 135
-7.6682658195495605 -5.647573947906494 9.104537963867188 138 121 114
-7.4658331871032715 -4.66375207901001 9.199797630310059 143 130 122
-7.363890171051025 -1.8494408130645752 9.966887474060059 47 38 33
-7.234617233276367 1.962153434753418 10.956478118896484 83 66 62
-7.477736949920654 -4.83296012878418 9.254093170166016 148 131 122
-7.499876976013184 -5.250674247741699 9.177295684814453 136 119 111
-7.258624076843262 1.0644453763961792 10.771777153015137 171 157 148
-7.221749782562256 0.11850511282682419 10.517127990722656 167 154 145
-7.30246639251709 -3.634335517883301 9.493568420410156 158 139 125
-6.775474548339844 3.715784788131714 11.054162979125977 129 105 102
-7.341597557067871 -4.805615425109863 9.315306663513184 151 133 123
-7.383040904998779 -6.593264102935791 8.988212585449219 56 43 44
-6.795434951782227 2.821444511413574 10.967684745788574 63 51 50
-6.950336456298828 0.9550526142120361 10.662744522094727 84 65 61
-7.095618724822998 -3.25767183303833 9.596375465393066 161 138 122
-7.2006964683532715 -5.616725921630859 9.125716209411621 66 55 54
-7.007590293884277 -2.7117552757263184 9.7953462600708 150 132 122
-7.0467329025268555 -5.555061340332031 9.058611869812012 67 59 57
-6.102921485900879 5.359395980834961 10.918061256408691 106 102 96
-6.104674339294434 5.281785488128662 10.926509857177734 25 22 21
-6.529721260070801 2.903172731399536 10.992246627807617 161 148 143
-6.936529636383057 -4.731932640075684 9.307888984680176 151 134 126
-6.985457897186279 -4.647983551025391 9.430009841918945 145 130 121
-6.924952983856201 -3.826758623123169 9.621811866760254 146 125 118
-7.01815938949585 -6.41893196105957 9.105620384216309 147 125 111
-6.846719264984131 -3.75002121925354 9.693103790283203 57 48 46
-6.722154140472412 -0.9229761362075806 10.39793586730957 82 67 64
-6.641213417053223 -0.33356761932373047 10.462940216064453 178 148 137
-6.580275535583496 -0.03397244215011597 10.523529052734375 93 79 78
-6.510747909545898 0.0971408411860466 10.550113677978516 169 151 141
-6.537621974945068 -0.0727558583021164 10.5679349899292 168 146 136
-6.154759883880615 2.743046760559082 10.848884582519531 76 62 58
-6.728277206420898 -5.5661821365356445 9.228215217590332 65 56 50
-6.728277206420898 -5.5661821365356445 9.228215217590332 65 56 50
-5.960119724273682 3.6521294116973877 10.827957153320312 164 151 145
-6.566756725311279 -2.513786554336548 9.95566463470459 138 125 118
-5.83540678024292 4.45346736907959 10.89174747467041 52 45 46
-6.615525245666504 -4.603597164154053 9.460315704345703 137 122 115
