ply
format ascii 1.0
element vertex 439
property float x
property float y
property float z
property uchar red
property uchar green
property uchar blue
end_header
-7.691374778747559 -1.90349543094635 11.968576431274414 180 177 172
-7.524005889892578 -1.8892241716384888 11.933533668518066 188 185 180
-7.413841724395752 -2.123792886734009 11.94966983795166 175 168 160
-6.917252540588379 -8.182539939880371 11.160183906555176 22 21 27
-7.643763065338135 -0.06259904056787491 12.349370956420898 150 135 128
-7.430769920349121 -2.587088108062744 12.00761604309082 174 167 157
-7.713026523590088 -0.2393556386232376 12.50766372680664 161 148 142
-7.034093379974365 -4.900609016418457 11.457708358764648 63 57 57
-8.031852722167969 3.6308937072753906 13.1185302734375 141 124 116
-7.380130767822266 -2.0309884548187256 12.062517166137695 65 55 53
-7.662827491760254 0.020092559978365898 12.558599472045898 55 47 44
-7.338489055633545 -2.2620253562927246 12.04006576538086 80 74 68
-7.338489055633545 -2.2620253562927246 12.04006576538086 80 74 68
-7.977715015411377 3.556215763092041 13.230854034423828 40 38 39
-8.06790828704834 4.494628429412842 13.39846134185791 50 46 45
-7.272668361663818 -2.0789051055908203 12.080911636352539 173 167 161
-8.27299976348877 6.701123237609863 13.75433349609375 155 139 124
-7.466686725616455 -0.18825578689575195 12.420998573303223 171 163 160
-7.60051155090332 1.177829384803772 12.661905288696289 50 42 40
-8.545842170715332 9.25558853149414 14.276542663574219 127 123 113
-7.937281131744385 2.328542470932007 13.358546257019043 65 54 52
-8.315374374389648 6.904459476470947 14.009696006774902 50 45 42
-8.828486442565918 11.874914169311523 14.88033390045166 129 119 109
-8.529186248779297 9.412389755249023 14.443367958068848 47 44 39
-7.44153356552124 1.0630488395690918 12.62072467803955 169 155 142
-7.160767078399658 -1.0372200012207031 12.160650253295898 149 131 127
-7.418062686920166 0.5858939290046692 12.67160415649414 172 156 141
-8.537070274353027 9.430191993713379 14.640491485595703 139 132 126
-7.383849143981934 2.361654043197632 13.070501327514648 175 170 167
-6.1782050132751465 -6.143589973449707 11.528639793395996 139 132 124
-6.84995174407959 1.4547040462493896 12.985987663269043 181 171 162
-6.84995174407959 1.4547040462493896 12.985987663269043 181 171 162
-6.926432132720947 3.489572763442993 13.423175811767578 169 169 161
-6.3029937744140625 -1.8953583240509033 12.541951179504395 172 169 164
-5.869889736175537 -5.1240644454956055 11.742303848266602 138 127 121
-6.036384105682373 -3.191615343093872 12.080397605895996 139 125 116
-5.8840718269348145 -5.5374531745910645 11.821859359741211 135 126 121
-6.634782791137695 3.309220552444458 13.495172500610352 160 141 134
-6.2963337898254395 -0.9994051456451416 12.828679084777832 54 48 47
-6.024266242980957 -1.9455201625823975 12.280336380004883 79 68 62
-5.818774223327637 -5.103283405303955 11.878507614135742 44 40 37
-6.0530853271484375 -3.1047418117523193 12.358320236206055 61 53 50
-6.7692646980285645 5.250968933105469 13.890168190002441 157 140 127
-6.709428787231445 5.215668678283691 13.785696983337402 157 141 128
-6.736357688903809 5.48330020904541 13.858675003051758 159 144 131
-6.581502914428711 4.536516189575195 13.54417610168457 52 42 40
-6.563851356506348 3.3998196125030518 13.564383506774902 35 30 30
-5.726405143737793 -3.964935541152954 11.852027893066406 42 38 35
-5.536949634552002 -5.82603645324707 11.472372055053711 157 155 142
-7.1573591232299805 10.558341026306152 14.858052253723145 119 109 107
-6.676982879638672 5.548755645751953 13.894570350646973 58 49 47
-6.676982879638672 5.548755645751953 13.894570350646973 58 49 47
-6.686648368835449 5.720010757446289 13.968718528747559 42 36 36
-6.1601643562316895 0.10174570232629776 12.883929252624512 47 38 29
-6.582638740539551 4.995861530303955 13.811436653137207 158 145 138
-6.813594341278076 7.053134441375732 14.307682991027832 50 41 38
-6.346755504608154 1.1472867727279663 13.336960792541504 45 37 34
-5.861483097076416 -3.060359239578247 12.341252326965332 48 43 38
-6.725165843963623 7.129222393035889 14.305411338806152 177 176 167
-6.009915828704834 1.0688774585723877 13.091049194335938 153 136 128
-5.438540458679199 -4.129368782043457 12.045145988464355 148 141 133
-5.779006004333496 0.17348827421665192 12.963079452514648 189 188 180
-5.4679412841796875 -2.1036295890808105 12.511937141418457 152 141 137
-5.411128520965576 -2.117398500442505 12.675756454467773 151 142 135
-6.7168965339660645 13.605710983276367 15.733389854431152 42 39 34
-4.943599224090576 -5.8801398277282715 11.599077224731445 155 152 143
-5.80987548828125 3.6479389667510986 13.780328750610352 162 154 143
-5.814409255981445 2.359733819961548 13.832754135131836 46 45 35
-4.894767761230469 -5.143538951873779 12.010946273803711 140 124 116
-6.156963348388672 10.755804061889648 15.21268367767334 143 136 127
-5.585472583770752 4.549184799194336 14.101483345031738 148 127 116
-5.560352802276611 4.528698444366455 14.048226356506348 146 126 115
-5.52241849899292 6.930714130401611 14.475876808166504 135 110 103
-4.635613918304443 -4.240303039550781 12.266676902770996 125 112 103
-5.367915153503418 5.928635597229004 14.330585479736328 171 168 161
-4.374635696411133 -4.038148403167725 11.708524703979492 127 115 106
-4.710430145263672 -2.112143039703369 12.725175857543945 157 144 138
-4.692132949829102 -2.765904188156128 12.7381591796875 150 141 133
-4.9386186599731445 0.17637214064598083 13.43251895904541 177 176 171
-5.2512125968933105 6.833988666534424 14.35407543182373 141 123 114
-4.525323867797852 -4.153219223022461 12.3903169631958 57 48 45
-5.4438605308532715 8.634587287902832 14.923596382141113 152 149 132
-4.26518440246582 -8.16939640045166 11.715217590332031 35 32 25
-5.902772903442383 13.956950187683105 16.217838287353516 39 35 25
-4.771595001220703 -0.7859500050544739 13.124820709228516 38 28 20
-4.771595001220703 -0.7859500050544739 13.124820709228516 38 28 20
-5.462894439697266 8.467195510864258 15.027190208435059 164 163 157
-5.2367095947265625 6.063817977905273 14.406895637512207 151 141 132
-4.950345039367676 1.868497610092163 13.623824119567871 155 141 128
-5.177118301391602 4.625936985015869 14.249838829040527 41 33 30
-4.878442287445068 0.048312801867723465 13.442811965942383 52 45 42
-4.2929182052612305 -4.948051452636719 11.832179069519043 51 41 39
-4.541266441345215 -3.168761968612671 12.544836044311523 153 140 131
-4.324089527130127 -6.154850006103516 12.00838851928711 50 46 40
-4.613321304321289 -2.2117760181427 12.826678276062012 56 50 44
-4.650831699371338 -2.0729851722717285 12.92988395690918 57 48 41
-4.650828838348389 -0.8785808086395264 12.971813201904297 177 178 170
-4.380655765533447 -4.488765239715576 12.24072551727295 162 159 152
-4.979015827178955 2.3315560817718506 13.911338806152344 46 41 38
-4.326114177703857 -4.789760112762451 12.089669227600098 146 144 132
-4.481215476989746 -3.0376975536346436 12.531302452087402 58 49 44
-4.685380935668945 -0.7130447030067444 13.145790100097656 179 181 170
-4.853976249694824 1.2183003425598145 13.643796920776367 54 47 39
-4.322906494140625 -4.9798455238342285 12.161359786987305 160 157 147
-4.445683002471924 -4.070827960968018 12.532548904418945 147 137 128
-4.445683002471924 -4.070827960968018 12.532548904418945 147 137 128
-4.3160624504089355 -4.153112888336182 12.199483871459961 150 140 131
-5.100047588348389 4.8096232414245605 14.471943855285645 175 174 171
-5.002231597900391 6.310286521911621 14.494397163391113 144 136 132
-4.940492630004883 4.693256378173828 14.382731437683105 55 44 39
-5.225891590118408 9.706157684326172 15.385286331176758 37 33 30
-4.099592685699463 -4.154411792755127 12.26540756225586 151 142 129
-4.002925872802734 -4.130093574523926 12.325399398803711 145 133 121
-3.9744715690612793 -2.184206485748291 12.764331817626953 158 139 124
-3.760768413543701 1.0603622198104858 13.639634132385254 148 131 123
-3.732419967651367 2.263676404953003 14.018397331237793 132 108 99
-3.066767454147339 -8.063986778259277 11.795085906982422 54 43 41
-3.0885050296783447 -6.979071617126465 11.905874252319336 126 113 105
-3.6584973335266113 3.2066597938537598 14.160634994506836 149 130 123
-3.389810085296631 -0.7796610593795776 13.12096118927002 112 95 87
-3.202721118927002 -3.96769642829895 12.599726676940918 134 122 110
-3.5447542667388916 2.3373937606811523 14.000146865844727 44 37 31
-3.699397325515747 5.965921401977539 14.66075611114502 161 158 151
-3.7415032386779785 5.909996032714844 14.83423900604248 42 33 34
-3.7612709999084473 7.296961784362793 14.978436470031738 35 31 28
-3.7422990798950195 7.14937162399292 14.923169136047363 32 28 27
-3.6057543754577637 3.4777910709381104 14.40478229522705 46 41 38
-3.803670883178711 8.343273162841797 15.225554466247559 36 36 31
-3.953054428100586 11.059192657470703 15.864900588989258 57 52 48
-3.070464849472046 -5.215612411499023 12.341744422912598 134 118 109
-3.070464849472046 -5.215612411499023 12.341744422912598 134 118 109
-3.059523344039917 -5.756298065185547 12.291815757751465 129 119 110
-3.375178337097168 0.0005690553807653487 13.575088500976562 133 110 102
-3.344435930252075 -1.0361279249191284 13.492085456848145 31 25 22
-3.148470401763916 -4.239219665527344 12.71127986907959 144 127 117
-3.4694502353668213 1.0852786302566528 14.032367706298828 138 115 107
-3.767874002456665 8.278436660766602 15.318345069885254 136 125 119
-3.3618874549865723 0.7715428471565247 13.703662872314453 150 137 129
-3.178962469100952 -3.122143030166626 13.014262199401855 66 58 55
-3.0432043075561523 -5.194189071655273 12.536450386047363 50 45 41
-3.3446950912475586 1.1542154550552368 13.80704402923584 50 42 40
-3.291881799697876 0.2932085394859314 13.636329650878906 52 47 41
-2.8990719318389893 -6.041419506072998 12.045761108398438 47 40 34
-3.209077835083008 0.09682238847017288 13.37685489654541 51 41 39
-3.413851261138916 2.2189013957977295 14.255265235900879 141 121 112
-3.0650835037231445 -3.198883533477783 12.836153984069824 149 142 132
-3.0650835037231445 -3.198883533477783 12.836153984069824 149 142 132
-2.7123093605041504 -9.87254810333252 11.37903881072998 45 35 33
-3.2545392513275146 -0.01247144304215908 13.709972381591797 139 114 107
-3.2260854244232178 1.1180083751678467 13.746471405029297 170 161 154
-2.811640739440918 -7.1914286613464355 12.116601943969727 51 42 33
-3.048487901687622 -1.210418701171875 13.411906242370605 141 126 120
-2.936901330947876 -1.0830689668655396 13.283963203430176 157 143 140
-2.846848726272583 -3.165095567703247 13.038512229919434 138 120 110
-3.2235889434814453 7.617658615112305 15.194990158081055 153 143 131
-2.7686941623687744 1.2409882545471191 13.795757293701172 176 164 158
-2.3936681747436523 -2.935016393661499 13.005426406860352 149 139 136
-2.337069272994995 -2.079583168029785 13.049776077270508 145 130 123
-2.593813419342041 4.664315700531006 14.874984741210938 146 121 114
-2.5144753456115723 6.112784385681152 15.17313003540039 146 142 137
-2.5653059482574463 14.028413772583008 16.858627319335938 120 103 96
-2.1405813694000244 4.445112228393555 14.446995735168457 141 120 111
-2.399803638458252 11.336203575134277 16.263885498046875 151 149 137
-1.8887639045715332 -2.8704233169555664 12.98887825012207 143 127 112
-1.9190518856048584 -0.9517686367034912 13.302159309387207 49 35 32
-2.1000497341156006 3.9109342098236084 14.675829887390137 141 123 116
-1.9121670722961426 -0.8534075617790222 13.479948997497559 141 126 121
-2.2932353019714355 11.298148155212402 16.351858139038086 42 33 34
-2.153475046157837 8.597275733947754 15.75158977508545 39 35 32
-2.2976150512695312 14.126995086669922 16.91642189025879 50 40 41
-2.2943596839904785 14.115348815917969 16.901172637939453 50 40 41
-2.0392234325408936 5.989351749420166 15.104180335998535 33 23 24
-1.9172199964523315 3.5870919227600098 14.516104698181152 181 180 177
-2.0428109169006348 7.236227989196777 15.475578308105469 31 25 25
-1.783616542816162 -0.94440096616745 13.56823444366455 50 41 32
-1.783616542816162 -0.94440096616745 13.56823444366455 50 41 32
-1.8275737762451172 0.044853728264570236 13.964040756225586 56 45 43
-1.747178077697754 -2.070070505142212 13.470196723937988 33 29 28
-1.9312511682510376 4.855659484863281 14.932854652404785 120 101 93
-1.967621088027954 6.1042938232421875 15.231155395507812 166 163 158
-1.716989278793335 -2.3352210521698 13.306863784790039 57 48 43
-1.716989278793335 -2.3352210521698 13.306863784790039 57 48 43
-1.6171513795852661 -6.341129302978516 12.541481971740723 104 91 83
-1.966443419456482 6.655963897705078 15.32399845123291 158 151 142
-1.8448055982589722 2.1550793647766113 14.39562702178955 71 60 53
-2.146901845932007 12.8579683303833 16.915794372558594 41 37 34
-1.7319226264953613 -0.07242037355899811 13.8035249710083 169 162 154
-1.6939806938171387 -0.8468664288520813 13.610331535339355 175 175 167
-1.5261775255203247 -8.291119575500488 12.283768653869629 51 44 38
-1.7201191186904907 1.5758074522018433 14.158833503723145 165 152 143
-1.5359597206115723 -6.331136226654053 12.723550796508789 51 42 37
-1.677193284034729 1.2630800008773804 14.07327651977539 179 179 169
-1.6736881732940674 1.263562560081482 14.0546236038208 179 179 169
-1.6495507955551147 1.613792896270752 14.056144714355469 104 77 63
-1.4558775424957275 -4.9716715812683105 12.72938060760498 135 117 105
-1.5432147979736328 0.43235352635383606 13.782180786132812 74 56 50
-1.283548355102539 -4.158854961395264 13.112960815429688 44 37 34
-1.3115872144699097 -3.1037399768829346 13.433029174804688 62 49 41
-1.2612944841384888 -4.0528883934021 13.071374893188477 128 114 105
-1.3882004022598267 3.5787088871002197 14.671948432922363 171 169 160
-1.4293416738510132 7.1781086921691895 15.585366249084473 114 94 87
-1.1416943073272705 -4.966531276702881 12.743334770202637 146 130 111
-1.1121852397918701 -0.8924890756607056 13.70970344543457 142 130 120
-0.9092527627944946 -5.1329026222229 13.039673805236816 121 108 99
-0.7632843255996704 -7.800580978393555 11.707243919372559 53 42 35
-0.8174167275428772 -0.8117678761482239 13.80171012878418 155 149 137
-0.7154313325881958 -4.016148567199707 13.023452758789062 120 113 100
-0.716414213180542 -1.9193800687789917 13.38443660736084 146 139 131
-0.782347559928894 13.790962219238281 16.932723999023438 127 114 105
-0.7090317010879517 5.937805652618408 15.343782424926758 138 109 101
-0.5952906012535095 -3.9905848503112793 12.924248695373535 126 115 102
-0.7284200191497803 13.372828483581543 17.214723587036133 113 104 98
-0.7049940228462219 13.194014549255371 17.172714233398438 110 101 92
-0.6947625279426575 13.536301612854004 17.11430549621582 103 97 91
-0.6088700890541077 4.9001264572143555 15.274328231811523 160 156 145
-0.6103761792182922 5.82070779800415 15.377663612365723 128 103 96
-0.5600047707557678 2.6642918586730957 14.63907241821289 140 122 112
-0.6003976464271545 7.3595194816589355 15.825982093811035 46 41 37
-0.6531638503074646 13.757287979125977 17.24653434753418 48 41 38
-0.6528390645980835 14.20117473602295 17.283374786376953 55 47 44
-0.6380879878997803 12.88196086883545 17.105913162231445 35 32 27
-0.5329594016075134 3.704056978225708 14.66125774383545 145 123 110
-0.5341874957084656 3.4901978969573975 14.931805610656738 45 35 34
-0.5795620679855347 10.102438926696777 16.590208053588867 39 36 31
-0.47786298394203186 -1.1192922592163086 13.85059642791748 122 98 86
-0.4418238401412964 -1.430211067199707 13.759631156921387 128 106 93
-0.448069304227829 4.878393173217773 15.281050682067871 167 160 150
-0.4475230872631073 4.873276710510254 15.273497581481934 167 160 150
-0.4173640012741089 2.401447057723999 14.533361434936523 171 171 161
-0.43925872445106506 5.673242568969727 15.436830520629883 155 143 131
-0.42933201789855957 3.671117067337036 15.282322883605957 151 147 138
-0.4658900499343872 14.382695198059082 17.339828491210938 156 154 144
-0.3587600886821747 -3.215418577194214 13.479247093200684 122 100 89
-0.37468278408050537 0.3432469964027405 14.175765037536621 159 137 124
-0.35916340351104736 -1.038786768913269 14.016528129577637 48 41 35
-0.34062618017196655 1.1539654731750488 14.474072456359863 47 36 32
-0.27991971373558044 -1.9925891160964966 13.504935264587402 57 47 45
-0.27947998046875 -3.153200626373291 13.665817260742188 65 51 42
-0.1971932202577591 -1.8824374675750732 13.485053062438965 135 131 119
-0.14977805316448212 -3.423006296157837 13.245880126953125 138 124 113
-0.14676883816719055 -3.1614177227020264 13.392091751098633 148 134 124
0.05998103320598602 2.317786931991577 15.035514831542969 141 114 103
0.2411659210920334 8.613960266113281 16.177072525024414 48 36 36
0.21662388741970062 -10.37514591217041 12.354989051818848 37 28 23
0.3899661600589752 -0.9099082350730896 13.983108520507812 141 137 125
0.42991921305656433 2.2613487243652344 14.65886116027832 137 109 98
0.7773779034614563 14.785689353942871 17.88699722290039 137 130 125
0.8086835741996765 12.99608325958252 17.451642990112305 47 38 33
0.7485126256942749 4.931451320648193 15.676532745361328 161 154 148
0.9080888628959656 14.642117500305176 17.923494338989258 47 42 38
1.004736304283142 11.596217155456543 17.078325271606445 147 147 136
1.067063570022583 14.678890228271484 17.87391471862793 150 142 132
0.8722423911094666 -1.1240686178207397 14.02376651763916 137 120 110
1.1182305812835693 12.949370384216309 17.492727279663086 47 42 38
1.0829898118972778 10.04289436340332 16.642169952392578 160 155 151
1.1385623216629028 10.013469696044922 16.758541107177734 44 39 36
1.155259609222412 8.85716724395752 16.710163116455078 37 37 28
1.155259609222412 8.85716724395752 16.710163116455078 37 37 28
1.1888983249664307 11.564559936523438 17.089876174926758 160 153 147
1.1446384191513062 7.337553024291992 16.23200225830078 129 109 101
1.2256208658218384 8.926284790039062 16.63422393798828 137 127 118
1.2037678956985474 6.29569673538208 16.01162338256836 82 67 62
1.2703958749771118 10.152109146118164 16.819440841674805 151 149 136
1.2376282215118408 7.397088527679443 16.277021408081055 33 29 26
1.194018006324768 3.5995986461639404 15.350478172302246 46 39 36
1.1650270223617554 1.1431626081466675 14.8080415725708 133 113 103
1.2757201194763184 6.197879791259766 16.000831604003906 170 165 156
1.180138349533081 1.4690935611724854 14.739853858947754 146 129 121
1.1452245712280273 -0.7590869665145874 14.29425048828125 125 104 93
1.1187137365341187 -3.045785665512085 13.827935218811035 122 104 93
1.1163378953933716 -3.0067739486694336 13.643182754516602 123 105 93
1.21426522731781 0.05180298537015915 14.680174827575684 56 45 39
1.2776968479156494 3.675990581512451 15.397193908691406 166 162 154
1.2014240026474 -2.143270492553711 14.215185165405273 55 45 35
1.2844380140304565 -0.9207101464271545 14.175978660583496 163 156 143
1.346250057220459 1.2802027463912964 14.726245880126953 165 152 139
1.2705271244049072 -3.0430827140808105 13.779253959655762 143 136 121
1.6140577793121338 10.51933479309082 17.4123477935791 138 131 125
1.2390129566192627 -5.245162010192871 13.33001708984375 45 38 31
1.2390129566192627 -5.245162010192871 13.33001708984375 45 38 31
1.3123801946640015 -2.0785837173461914 13.950875282287598 66 56 47
1.4488897323608398 0.6306449770927429 14.719937324523926 147 121 106
1.457067847251892 0.08029049634933472 14.728862762451172 53 44 40
1.3481173515319824 -5.133336544036865 13.307398796081543 120 106 97
1.386593222618103 -4.34787654876709 13.606234550476074 122 112 100
1.7389440536499023 8.923389434814453 16.93846893310547 39 28 26
1.8001776933670044 9.804198265075684 16.592798233032227 133 114 108
1.6631007194519043 2.594974994659424 15.271585464477539 146 118 104
1.9045497179031372 7.427508354187012 16.260290145874023 151 141 130
1.7292505502700806 -2.0186009407043457 14.342733383178711 128 113 100
1.640275239944458 -7.552387237548828 13.353586196899414 46 37 35
2.0799973011016846 3.6767890453338623 15.566727638244629 155 147 138
2.1809420585632324 3.5557401180267334 15.854243278503418 124 97 86
1.884818434715271 -5.3870368003845215 13.696784019470215 48 39 34
1.884818434715271 -5.3870368003845215 13.696784019470215 48 39 34
2.1741549968719482 3.542651414871216 15.769103050231934 122 95 84
2.6914615631103516 14.969877243041992 18.42878532409668 146 147 141
2.7320668697357178 13.272124290466309 17.914663314819336 145 140 134
2.5468497276306152 7.497901439666748 16.503746032714844 146 142 132
2.4396018981933594 2.620626449584961 15.612807273864746 150 127 113
2.831493377685547 11.665990829467773 17.790597915649414 122 105 96
2.9669907093048096 14.8142728805542 18.478845596313477 45 44 36
2.896528959274292 13.197958946228027 17.96633529663086 46 37 32
2.7546114921569824 8.825284957885742 16.995737075805664 37 32 29
2.8519887924194336 10.663900375366211 17.59621238708496 131 116 111
2.8502707481384277 10.59506607055664 17.490558624267578 134 120 114
2.3605713844299316 -1.5918922424316406 14.455451011657715 145 124 107
2.9866561889648438 13.400003433227539 17.931875228881836 140 133 125
2.9276444911956787 10.5104341506958 17.545082092285156 56 47 45
2.7611734867095947 5.718883037567139 16.404935836791992 64 53 46
2.8417117595672607 8.678871154785156 16.842153549194336 136 127 118
3.075892210006714 14.329795837402344 18.12479019165039 124 105 98
2.981541633605957 10.524015426635742 17.546772003173828 129 117 107
2.8566384315490723 7.690113067626953 16.778823852539062 156 149 143
2.9690816402435303 10.262444496154785 17.212188720703125 150 142 133
2.963148355484009 7.643119812011719 16.954933166503906 37 26 25
2.6711959838867188 1.1158772706985474 15.174248695373535 137 115 102
2.5986328125 -2.011720657348633 14.700976371765137 134 117 101
2.630072593688965 -1.1832021474838257 14.82847785949707 151 132 115
2.630072593688965 -1.1832021474838257 14.82847785949707 151 132 115
2.738588571548462 0.19423602521419525 15.33052921295166 146 124 109
2.8609204292297363 1.235140085220337 15.426032066345215 38 32 29
2.799276828765869 -1.1425895690917969 14.722362518310547 123 107 98
2.8460586071014404 0.16653543710708618 14.926904678344727 154 144 133
2.8702175617218018 -1.056392788887024 14.795708656311035 28 16 4
3.1460459232330322 1.1852476596832275 15.612322807312012 126 102 90
2.803372621536255 -4.26922607421875 13.901473999023438 57 44 36
3.9318666458129883 13.524319648742676 18.567874908447266 41 37 35
2.9318766593933105 -4.449955463409424 13.840588569641113 132 104 83
2.793795347213745 -8.110086441040039 12.642852783203125 50 40 33
2.9697725772857666 -7.270691871643066 12.979570388793945 40 30 29
2.9697725772857666 -7.270691871643066 12.979570388793945 40 30 29
4.055266857147217 9.302160263061523 17.671077728271484 126 119 101
3.4284021854400635 -2.0961532592773438 14.84505558013916 133 127 124
4.006311416625977 6.435842990875244 16.984560012817383 138 125 119
4.473658084869385 13.474333763122559 18.487262725830078 142 142 142
4.248052597045898 9.015570640563965 17.333412170410156 142 127 120
4.393580913543701 11.604334831237793 17.542505264282227 144 145 139
4.703197002410889 13.331871032714844 18.519187927246094 41 35 31
4.888749122619629 15.060084342956543 18.833349227905273 149 148 146
4.6270833015441895 10.285866737365723 17.717235565185547 43 38 34
4.5742034912109375 9.165754318237305 17.479228973388672 61 52 47
4.698975086212158 11.821370124816895 17.92627716064453 144 135 129
4.674973487854004 7.564586639404297 17.149023056030273 40 32 29
4.366005897521973 1.3554037809371948 15.869248390197754 33 26 19
4.011976718902588 -3.1597254276275635 14.45081901550293 121 100 91
4.750151634216309 7.4662981033325195 17.09857749938965 110 92 85
4.693671226501465 2.5300214290618896 16.580726623535156 45 37 34
4.425357818603516 -1.004787802696228 15.621521949768066 125 102 93
4.571012020111084 1.5662760734558105 16.05030059814453 38 28 25
4.26787805557251 -2.0860402584075928 14.842120170593262 129 119 110
4.631461143493652 1.9224872589111328 15.972265243530273 131 113 101
4.593695163726807 0.08841171860694885 15.82464599609375 44 35 30
4.597178936004639 -0.06215079873800278 15.689847946166992 122 103 96
4.546363830566406 -1.0030955076217651 15.398635864257812 133 124 119
4.367833614349365 -3.132145404815674 14.77845287322998 65 55 51
4.250803470611572 -5.351535320281982 14.322665214538574 98 80 66
4.417985439300537 -4.555775165557861 14.740447044372559 46 35 29
4.462880611419678 -3.187445640563965 14.79410171508789 128 119 110
4.26057243347168 -5.324227809906006 13.896468162536621 43 34 30
4.665787696838379 -1.1526843309402466 15.134156227111816 109 88 83
4.991899490356445 1.3691341876983643 16.145565032958984 141 123 113
5.5096025466918945 10.132184982299805 17.425094604492188 141 137 128
4.8758134841918945 -1.0570180416107178 15.387606620788574 132 118 109
6.194501876831055 13.542993545532227 18.760452270507812 147 140 134
6.343567371368408 10.796220779418945 18.729318618774414 34 30 28
6.4342360496521 13.507658004760742 18.727331161499023 146 145 139
6.241870880126953 7.7930426597595215 17.901050567626953 103 80 70
6.532055854797363 11.898595809936523 18.625120162963867 105 91 86
6.258895397186279 7.724671840667725 17.545324325561523 34 26 24
6.8000359535217285 13.748188972473145 19.042680740356445 144 139 135
6.350425720214844 6.398965358734131 17.431631088256836 35 26 21
6.333343029022217 5.3086042404174805 17.0771427154541 141 127 119
6.267464637756348 2.7713589668273926 16.857789993286133 62 51 49
6.287710666656494 0.10707515478134155 16.3278865814209 48 37 33
6.163256645202637 -1.0762877464294434 15.935591697692871 132 118 109
6.138347625732422 -2.0632810592651367 15.719597816467285 50 39 33
6.446513652801514 0.21250592172145844 16.431730270385742 129 113 100
6.182167053222656 -2.0944020748138428 15.488251686096191 120 110 97
6.250495433807373 -3.4725990295410156 15.642804145812988 43 38 32
7.47384786605835 13.349509239196777 18.70451545715332 144 142 137
6.062887668609619 -5.606333255767822 14.690444946289062 40 30 24
8.665582656860352 15.676105499267578 19.853839874267578 130 120 111
8.552384376525879 13.732059478759766 19.536733627319336 35 30 26
8.483613014221191 12.639988899230957 19.366161346435547 58 49 46
7.357701301574707 4.2659687995910645 16.788240432739258 131 109 95
8.421396255493164 10.81390380859375 19.120723724365234 47 39 37
8.518235206604004 13.417327880859375 19.246129989624023 120 107 99
8.412480354309082 10.204042434692383 18.912864685058594 61 58 53
7.32772970199585 0.191466823220253 16.426424026489258 110 107 90
8.48644733428955 10.674017906188965 18.990495681762695 125 118 108
7.283426761627197 3.5689382553100586 16.22515869140625 108 87 77
8.029342651367188 7.501707077026367 17.628049850463867 92 73 64
7.930645942687988 4.261021614074707 17.10306739807129 140 123 113
8.104198455810547 5.211724281311035 17.436458587646484 144 135 132
7.947462558746338 4.48681640625 17.08715057373047 137 120 110
8.598248481750488 7.956725120544434 18.479202270507812 31 27 24
7.785945892333984 -0.8226277232170105 16.68190574645996 120 99 94
8.076679229736328 5.052032947540283 17.260883331298828 45 35 32
7.58234977722168 -0.7338055968284607 16.156909942626953 130 110 111
7.897139072418213 3.7538528442382812 16.7554931640625 34 30 27
8.12969970703125 4.944997310638428 17.238210678100586 100 81 75
8.106954574584961 2.5415525436401367 17.18734359741211 38 31 25
8.062438011169434 3.8883800506591797 16.94487762451172 127 124 120
7.653508186340332 -1.081248164176941 15.974843978881836 31 26 22
9.09406566619873 -2.6552228927612305 18.97718048095703 40 26 23
8.024579048156738 2.418990135192871 16.725669860839844 115 98 91
7.953719139099121 0.04377516731619835 16.436248779296875 31 26 23
6.8539838790893555 -8.574562072753906 13.968582153320312 103 79 65
7.936671733856201 -0.9444360136985779 16.04372215270996 118 108 99
7.0354461669921875 -7.507091045379639 13.997889518737793 35 22 18
7.6278767585754395 -3.1560966968536377 14.996137619018555 97 82 75
7.533112525939941 -5.323403835296631 14.621236801147461 100 83 73
10.361794471740723 15.200976371765137 19.9259033203125 39 35 35
8.438730239868164 -1.1986459493637085 15.902935981750488 126 118 113
10.578639030456543 13.831500053405762 19.729324340820312 134 127 111
10.029203414916992 6.599236965179443 18.539695739746094 114 93 88
10.073894500732422 8.294045448303223 18.52692413330078 109 101 93
-7.292469024658203 7.791430950164795 14.238245010375977 156 149 143
-4.988978385925293 -0.8845993876457214 13.389039039611816 163 162 158
-4.155444622039795 -3.045424699783325 13.594730377197266 132 125 115
-8.996647834777832 1.3743098974227905 13.091490745544434 111 97 91
-8.967190742492676 1.3231067657470703 13.049493789672852 169 166 159
-8.581035614013672 12.08497428894043 14.791326522827148 123 123 113
-8.510968208312988 12.036389350891113 14.806525230407715 161 169 161
-7.552944660186768 -2.143059015274048 12.306412696838379 70 66 65
-7.470926761627197 -0.12123474478721619 12.577735900878906 137 132 129
-7.850938320159912 9.17578411102295 14.309863090515137 126 122 121
-6.177938938140869 -2.9882524013519287 12.172737121582031 164 163 161
-5.893072128295898 1.2586429119110107 13.266873359680176 165 164 162
-5.664457321166992 -1.0640393495559692 12.623810768127441 134 130 131
-5.514936447143555 -2.090921640396118 12.586324691772461 136 131 128
-4.998437404632568 -0.03133443742990494 13.390854835510254 133 123 122
-4.772830009460449 -2.128592014312744 12.860921859741211 121 114 110
-4.876572132110596 1.3502427339553833 13.832171440124512 170 168 163
-4.537625312805176 -4.117757320404053 12.507549285888672 55 54 51
-4.109920501708984 -8.978872299194336 11.365972518920898 44 44 44
-4.31289529800415 0.007913577370345592 13.831239700317383 124 111 105
-3.915989637374878 -0.7290098667144775 14.38774585723877 127 123 122
