ply
format ascii 1.0
element vertex 746
property float x
property float y
property float z
property uchar red
property uchar green
property uchar blue
end_header
-3.245269298553467 -1.9111802577972412 5.132827281951904 55 54 53
-3.2433717250823975 -1.7725656032562256 5.131785869598389 59 54 55
-3.2261786460876465 -1.7498786449432373 5.249748706817627 216 202 198
-3.080566883087158 0.5729268789291382 5.351211071014404 42 41 39
-2.989976644515991 -2.1892192363739014 5.214236259460449 219 203 203
-3.077272415161133 0.42490705847740173 5.372239589691162 193 195 194
-2.9295568466186523 -1.7675285339355469 5.170299053192139 106 105 101
-2.9467966556549072 0.6948539614677429 5.3354973793029785 76 76 73
-2.847370147705078 -1.8485822677612305 5.192022800445557 86 78 76
-2.841252088546753 -1.4831929206848145 5.311204433441162 181 161 160
-2.8163485527038574 -0.8696935176849365 5.296231746673584 167 146 141
-2.8092079162597656 0.005493660923093557 5.306553840637207 123 109 103
-2.7960734367370605 -1.3972439765930176 5.29031229019165 229 215 204
-2.7960734367370605 -1.3972439765930176 5.29031229019165 229 215 204
-2.7267251014709473 0.7104353904724121 5.21992826461792 62 62 62
-2.2372446060180664 0.26688244938850403 5.438944339752197 170 174 177
-2.126359701156616 -1.4290940761566162 5.287021160125732 81 73 72
-2.1319682598114014 -0.9759951829910278 5.321727275848389 96 82 81
-2.1258180141448975 -1.1049795150756836 5.3077239990234375 99 85 85
-2.142461061477661 -0.5276780724525452 5.369358539581299 103 86 83
-2.131896734237671 -0.6868910193443298 5.350039005279541 115 94 91
-2.1436760425567627 0.17341378331184387 5.398280620574951 103 99 100
-1.726017713546753 -1.5707244873046875 5.419853210449219 100 94 96
-1.5003935098648071 -0.4614329934120178 5.407538414001465 203 199 198
-1.4551212787628174 -1.293552279472351 5.506876468658447 106 92 92
-1.351566195487976 -0.8840280175209045 5.510921001434326 135 102 100
-1.3425562381744385 -0.4773866534233093 5.526297092437744 119 99 98
-1.179276704788208 -1.2943471670150757 5.486746311187744 90 86 100
-1.143409252166748 -0.05217600613832474 5.530509948730469 167 171 182
-1.1420133113861084 -0.6657962203025818 5.586811542510986 213 213 225
-1.143828272819519 0.08730583637952805 5.790360927581787 71 85 110
-1.1445045471191406 0.08917177468538284 5.7988715171813965 68 82 105
-1.044504165649414 -1.0510509014129639 5.562280178070068 181 180 186
-1.0390712022781372 -0.330222487449646 5.60186767578125 191 192 197
-1.0111057758331299 0.01806376501917839 5.544345855712891 229 238 249
-1.0201083421707153 -0.028789188712835312 5.651424407958984 229 238 252
-0.9693795442581177 -1.1371207237243652 5.6202521324157715 43 59 83
-0.9452747702598572 -0.7063113451004028 5.576685428619385 224 231 241
-0.9375922679901123 -1.1624724864959717 5.600675582885742 143 140 150
-0.8489511013031006 -0.9386423826217651 5.477134704589844 82 85 105
-0.7823691368103027 -0.5044137835502625 5.5133514404296875 178 177 182
-0.7799529433250427 -0.016136707738041878 5.598379611968994 101 100 106
-0.7509369850158691 -0.66729736328125 5.632449626922607 64 64 77
-0.7333251237869263 -0.30027666687965393 5.615307807922363 219 210 203
-0.7144381999969482 -1.201218843460083 5.544471263885498 79 74 79
-0.7111319899559021 -1.6134886741638184 5.542619705200195 215 210 209
-0.649303138256073 -0.8594234585762024 5.507080554962158 187 177 178
-0.6375192999839783 0.24056509137153625 5.541340351104736 138 146 148
-0.6265057325363159 -0.9249180555343628 5.53165340423584 142 130 132
-0.6106312870979309 0.29405301809310913 5.6042022705078125 164 164 164
-0.5625330209732056 0.6830359697341919 5.603956699371338 58 57 59
-0.5565763115882874 -0.7958452105522156 5.57547664642334 202 188 185
-0.5642558336257935 -0.672649621963501 5.665284156799316 186 171 166
-0.5375007390975952 -1.3407423496246338 5.539774417877197 148 132 131
-0.3655201494693756 -0.8490084409713745 5.797057628631592 135 120 115
-0.3574467897415161 -1.0805304050445557 5.784889221191406 135 124 120
-0.05690345913171768 -1.046006202697754 5.899967193603516 87 78 75
0.03676751255989075 -0.5439175367355347 5.999870777130127 93 89 87
0.2178971916437149 2.7194762229919434 5.780055522918701 122 111 109
0.24479225277900696 1.3293497562408447 5.890103340148926 142 129 123
0.4186572730541229 2.9423229694366455 5.760196208953857 172 183 178
0.4179954528808594 2.7189347743988037 5.734442234039307 108 101 98
0.45453861355781555 0.015170193277299404 5.905122756958008 209 209 204
0.45493319630622864 0.5190069675445557 5.858950138092041 204 205 200
0.4660964608192444 1.015671730041504 5.78510856628418 207 212 208
0.5080814361572266 -0.003711139550432563 5.9193572998046875 185 180 177
0.49939456582069397 1.6187301874160767 5.800403594970703 144 149 145
0.5156556367874146 3.1011812686920166 5.706387519836426 106 110 109
0.5332174301147461 2.9893343448638916 5.794837474822998 177 186 183
0.5500234365463257 0.015442506410181522 5.935001373291016 207 213 209
0.551730215549469 1.0383155345916748 5.942146301269531 206 214 209
0.5662130117416382 -0.5188570618629456 5.975013732910156 96 96 94
0.5686565637588501 -0.0646379142999649 5.944273948669434 187 187 184
0.5706451535224915 -0.06358057260513306 5.9530534744262695 191 191 189
0.5698843002319336 0.46093660593032837 5.910704612731934 194 196 193
0.5640708208084106 3.444550037384033 5.817209243774414 174 186 182
0.5729489922523499 2.5581095218658447 5.8946943283081055 187 198 194
0.5608346462249756 3.2578184604644775 5.778539180755615 178 190 186
0.5850102305412292 -0.5534812808036804 6.009343147277832 193 194 191
0.5769658088684082 0.4902919828891754 5.8848419189453125 112 106 102
0.6814133524894714 -0.21311423182487488 6.080413341522217 215 224 221
-3.532989740371704 -1.6332871913909912 5.56177282333374 201 191 190
-3.603048086166382 -2.3035366535186768 5.637211799621582 167 157 158
-3.396040916442871 -2.0944039821624756 5.490851402282715 217 210 207
-3.3171541690826416 -1.5282211303710938 5.459673881530762 230 221 216
-3.3171541690826416 -1.5282211303710938 5.459673881530762 230 221 216
-2.9122753143310547 0.9007004499435425 5.152588367462158 160 164 165
-3.0901083946228027 -1.7598575353622437 5.249809265136719 95 114 112
-3.033848762512207 -1.8938052654266357 5.324644565582275 131 136 137
-3.033848762512207 -1.8938052654266357 5.324644565582275 131 136 137
-2.877304792404175 0.4593643546104431 5.51324987411499 180 188 190
-2.712120294570923 -1.7747694253921509 5.0636067390441895 204 200 199
-2.711068630218506 -1.4362775087356567 5.183675289154053 241 230 227
-2.6884348392486572 -1.4721698760986328 5.185352325439453 245 228 221
-2.6502156257629395 -1.656455159187317 5.099957466125488 242 229 221
-1.6874414682388306 -1.0237312316894531 3.680992603302002 91 85 87
-2.2400550842285156 -0.3807404041290283 5.61801290512085 104 98 99
-2.132671594619751 -0.8151233196258545 5.325778484344482 85 76 77
-2.005821466445923 -1.180069923400879 4.997053623199463 89 87 91
-1.9449286460876465 -1.2953861951828003 4.829397201538086 82 79 84
-1.7224000692367554 -1.4884475469589233 4.521149635314941 121 118 129
-1.8118104934692383 -1.1900650262832642 4.861587047576904 234 231 243
-1.854397177696228 -0.8231828808784485 5.179410457611084 191 201 206
-1.7193090915679932 -0.9994186758995056 5.025088310241699 253 252 255
-3.8479206562042236 0.1217138022184372 2.4823482036590576 170 169 164
-3.937870502471924 -0.2377069890499115 2.6174747943878174 173 171 172
-3.9015588760375977 0.10393111407756805 2.6193675994873047 173 172 168
-3.9504008293151855 -0.23472440242767334 2.653364419937134 187 186 182
-3.919379711151123 0.09402568638324738 2.692032814025879 169 165 164
-4.005964279174805 -0.28527459502220154 2.8461599349975586 143 134 135
-3.981379747390747 0.0683259442448616 2.8556175231933594 157 153 152
-4.056051731109619 -0.28149229288101196 3.1044139862060547 168 163 160
-4.025394439697266 0.07274740189313889 3.1369943618774414 162 161 161
-4.050666809082031 0.029791872948408127 3.2719199657440186 150 142 142
-4.07777738571167 -0.13809651136398315 3.4778125286102295 155 151 150
-4.119903564453125 -0.47449108958244324 3.5461196899414062 146 136 135
-4.090687274932861 -0.14352044463157654 3.630622625350952 152 144 141
-4.04123067855835 0.3415357768535614 3.6452138423919678 141 137 137
-4.098024368286133 -0.5322445034980774 3.6735901832580566 64 64 65
-4.098024368286133 -0.5322445034980774 3.6735901832580566 64 64 65
-4.06719970703125 -0.365130752325058 3.8103020191192627 53 53 55
-4.077217102050781 -0.3934977054595947 3.8866708278656006 156 147 142
-3.9653377532958984 -0.065090112388134 4.081064224243164 50 50 50
-4.022607803344727 -0.5708828568458557 4.154850959777832 133 127 127
-4.020085334777832 -0.7821427583694458 4.189247131347656 131 125 125
-3.923506498336792 -0.2503588795661926 4.259151458740234 144 141 140
-3.9044394493103027 -0.12409856170415878 4.310762882232666 132 123 126
-3.859447717666626 0.5491836071014404 4.4232497215271 149 147 150
-3.8753340244293213 -0.6171239614486694 4.453526496887207 120 114 114
-4.911866188049316 1.935085415840149 5.95986795425415 129 128 133
-4.185111999511719 1.3469927310943604 5.169426441192627 133 128 132
-3.759506940841675 0.8025660514831543 4.645351409912109 142 140 141
-3.7504470348358154 0.3026910424232483 4.614710330963135 71 69 73
-3.7646119594573975 -0.16420605778694153 4.605512619018555 140 136 137
-3.752452850341797 0.2549060881137848 4.627601623535156 151 143 141
-3.757702350616455 -0.17797990143299103 4.608659267425537 76 72 72
-3.7788004875183105 -0.6395105123519897 4.61557674407959 139 133 135
-3.7912089824676514 -0.8323573470115662 4.618465900421143 130 126 127
-3.788546323776245 -0.9709092378616333 4.6065673828125 69 69 71
-3.8064146041870117 -1.157984972000122 4.625218868255615 120 118 120
-3.8284595012664795 -1.2783654928207397 4.643846035003662 130 128 130
-3.754080057144165 -1.159545660018921 4.704747676849365 150 142 140
-3.7610671520233154 -1.275429606437683 4.709509372711182 148 140 138
-3.1155333518981934 0.13520115613937378 4.077022075653076 141 137 138
-3.66035795211792 -0.6956486701965332 4.740725040435791 152 138 133
-3.648646593093872 -0.5280733108520508 4.770353317260742 54 52 53
-3.6504414081573486 -0.670661985874176 4.778179168701172 135 125 124
-3.6985743045806885 -1.4942189455032349 4.848522186279297 135 129 131
-3.734807014465332 -1.8112467527389526 4.897531986236572 71 70 74
-3.6046946048736572 -0.66382896900177 4.836733341217041 157 146 145
-2.6256730556488037 -0.8828767538070679 3.5112016201019287 133 129 130
-3.611619234085083 -0.9971855282783508 4.841736316680908 71 69 70
-3.6373515129089355 -1.30609130859375 4.8724751472473145 70 70 72
-3.676578998565674 -1.7757606506347656 4.9006829261779785 130 126 127
-3.6588644981384277 -1.6313104629516602 4.903284549713135 73 73 75
-3.6770598888397217 -1.9615675210952759 4.915916919708252 69 69 71
-3.533749580383301 0.03461142256855965 4.895145893096924 84 79 82
-3.6811912059783936 -2.1187851428985596 4.93020486831665 59 59 61
-3.538804769515991 0.1936369687318802 4.9514336585998535 144 140 141
-3.525735378265381 -0.6889161467552185 4.873929977416992 150 144 145
-3.6083338260650635 -1.790371298789978 4.9434709548950195 127 121 123
-3.5723016262054443 -1.6249791383743286 4.936768054962158 134 127 129
-3.5597646236419678 -1.4763773679733276 4.935816287994385 143 133 134
-3.486302375793457 -0.5500380396842957 4.91689395904541 153 149 148
-3.628699541091919 -2.1048076152801514 4.985569000244141 74 73 79
-3.511648178100586 -1.1258515119552612 4.9203267097473145 150 141 142
-3.5110721588134766 -1.015268325805664 4.9302144050598145 141 135 137
-3.6129424571990967 -2.2678377628326416 4.9994306564331055 125 125 127
-3.4543344974517822 -0.7105106115341187 4.920842170715332 73 67 69
-3.4797163009643555 -0.8739370107650757 4.945652484893799 171 161 160
-3.4840972423553467 -0.9019519090652466 4.95603609085083 162 153 152
-3.607515573501587 -2.2555603981018066 5.017266750335693 69 68 74
-3.4305732250213623 0.43044814467430115 5.008488655090332 161 160 160
-3.4388558864593506 0.8473658561706543 5.064364433288574 81 79 82
-3.5477399826049805 -1.7508996725082397 4.989595413208008 151 147 148
-3.531339168548584 -1.608810544013977 4.993210792541504 78 78 78
-3.4564428329467773 -0.874544084072113 4.9740519523620605 163 157 157
-3.4623405933380127 -1.1275849342346191 4.963688373565674 166 160 160
-3.497239112854004 -1.432843804359436 4.988432884216309 155 146 147
-3.5272624492645264 -1.745568037033081 5.006333827972412 152 146 146
-3.500204086303711 -1.602792739868164 5.018184185028076 72 70 71
-3.500204086303711 -1.602792739868164 5.018184185028076 72 70 71
-3.4779300689697266 -1.4584717750549316 5.005475044250488 156 147 146
-3.4900104999542236 -1.6800637245178223 5.009516716003418 170 161 158
-3.5012524127960205 -1.6885393857955933 5.031194686889648 172 162 160
-3.4813783168792725 -1.5844929218292236 5.017326831817627 156 152 151
-3.420471429824829 -0.7112088799476624 5.009880542755127 185 175 175
-3.3735177516937256 0.3743589520454407 5.051132678985596 80 79 84
-3.4784226417541504 -1.7312679290771484 5.018290042877197 162 160 161
-3.512551784515381 -2.168915033340454 5.031005859375 129 127 128
-3.4954328536987305 -2.0688207149505615 5.035995006561279 134 132 133
-3.3839616775512695 -0.5754972100257874 5.01177453994751 175 165 165
-3.4992775917053223 -2.069628953933716 5.044726371765137 135 133 134
-3.4992775917053223 -2.069628953933716 5.044726371765137 135 133 134
-3.464672327041626 -1.5795812606811523 5.052938461303711 157 151 153
-3.466435194015503 -1.6603487730026245 5.0481181144714355 67 72 76
-3.3595426082611084 -0.4426444470882416 5.047671794891357 176 170 170
-3.4053797721862793 -1.294406533241272 5.040984153747559 86 82 82
-3.3838021755218506 -1.131859540939331 5.04915714263916 180 170 169
-3.3130698204040527 -0.4429822266101837 5.063024997711182 121 110 110
-3.3073465824127197 -0.455917626619339 5.072761058807373 185 177 175
-3.421074867248535 -2.187894105911255 5.093034744262695 141 136 140
-3.3104116916656494 -0.6159325838088989 5.07759428024292 166 152 152
-3.28904128074646 0.20782963931560516 5.130168437957764 161 155 155
-3.2793636322021484 0.19327965378761292 5.114831447601318 80 76 75
-3.3386263847351074 -1.1475001573562622 5.081175327301025 83 77 77
-3.3292980194091797 -1.157505989074707 5.082024097442627 173 160 161
-3.3312363624572754 -1.2695426940917969 5.085738182067871 182 174 172
-3.353069543838501 -1.5663011074066162 5.100663661956787 78 77 82
-3.2820119857788086 -0.4766483008861542 5.1007561683654785 98 84 84
-3.3400423526763916 -1.54799485206604 5.091468811035156 166 161 165
-3.3173985481262207 -1.282044529914856 5.083089828491211 106 102 101
-3.389086961746216 -2.1788504123687744 5.1106109619140625 164 160 160
-3.270212173461914 -0.6054841876029968 5.086879730224609 84 70 70
-3.3609373569488525 -1.692574143409729 5.122651100158691 74 73 78
-3.2459022998809814 0.43469464778900146 5.178027153015137 73 71 72
-2.0745630264282227 -0.4003080129623413 3.281719446182251 182 170 170
-3.251025915145874 0.5804042816162109 5.220211029052734 152 146 146
-3.2627341747283936 -1.1253395080566406 5.084842681884766 188 179 178
-3.290886402130127 -1.2789722681045532 5.124658584594727 102 96 96
-3.2317819595336914 0.6723889112472534 5.232450008392334 138 131 132
-3.2272708415985107 -0.10868089646100998 5.144773006439209 154 141 143
-3.352449417114258 -2.1609606742858887 5.139730453491211 156 151 151
-3.280522584915161 -1.401658296585083 5.111150741577148 197 191 191
-3.2135448455810547 -0.3596039414405823 5.12532377243042 114 101 101
-3.23392653465271 -0.6065073609352112 5.149202346801758 203 194 193
-3.265446186065674 -1.412951946258545 5.123490810394287 90 83 84
-3.259033679962158 -1.2920129299163818 5.139257431030273 199 185 185
-3.2893872261047363 -1.8186767101287842 5.14730978012085 72 71 76
-3.1831858158111572 0.519001841545105 5.227608680725098 98 94 95
-3.2579753398895264 -1.5312238931655884 5.1352057456970215 201 191 190
-3.182581901550293 0.3669512867927551 5.232433319091797 131 127 128
-3.245666265487671 -1.41680908203125 5.149298191070557 105 101 100
-3.18001127243042 -0.6106126308441162 5.131255149841309 202 194 191
-3.1896886825561523 -0.8664047122001648 5.1397223472595215 206 195 194
-3.234865188598633 -1.5318301916122437 5.147015571594238 204 197 197
-3.176882266998291 -0.6249474883079529 5.155724048614502 89 83 83
-3.233203649520874 -1.5598481893539429 5.150558948516846 191 186 183
-3.2690987586975098 -2.113935708999634 5.149771690368652 175 168 167
-3.1673991680145264 -0.3876630961894989 5.170111656188965 183 172 172
-3.2780871391296387 -2.2561070919036865 5.153865814208984 193 185 183
-3.1719136238098145 0.7022750973701477 5.295512676239014 144 138 139
-3.242074966430664 -1.8012276887893677 5.152106285095215 179 177 177
-3.1670703887939453 -0.6156049370765686 5.159153461456299 186 176 175
-3.2638180255889893 -2.0979721546173096 5.159961223602295 75 73 74
-3.2441108226776123 -1.8362256288528442 5.167177677154541 185 177 175
-3.262092113494873 -2.330335855484009 5.144061088562012 176 170 170
-3.1774866580963135 -0.8710874915122986 5.175978183746338 202 195 195
-3.191410541534424 -1.411303162574768 5.145274639129639 203 191 190
-3.1530182361602783 -0.397821843624115 5.192654132843018 193 183 181
-3.241001605987549 -2.061408519744873 5.16170072555542 196 190 188
-3.1420509815216064 0.5266068577766418 5.283129692077637 162 162 164
-3.138887643814087 0.03057902306318283 5.226916313171387 185 178 172
-3.138887643814087 0.03057902306318283 5.226916313171387 185 178 172
-3.157635450363159 -0.8980642557144165 5.174489498138428 206 195 193
-3.1887590885162354 -1.3959994316101074 5.172774314880371 197 187 187
-3.135965585708618 0.7472030520439148 5.328214168548584 62 77 82
-3.193058729171753 -1.6709290742874146 5.171676158905029 117 111 111
-3.19018816947937 -1.692340612411499 5.167865753173828 174 164 162
-3.19018816947937 -1.692340612411499 5.167865753173828 174 164 162
-3.1561155319213867 -1.1581134796142578 5.174613952636719 217 205 200
-3.12705135345459 0.8743001818656921 5.353130340576172 156 159 160
-3.148678779602051 -1.1400303840637207 5.172330856323242 114 102 102
-3.148678779602051 -1.1400303840637207 5.172330856323242 114 102 102
-3.206834316253662 -1.9950224161148071 5.175913333892822 217 210 207
-3.2030653953552246 -2.080404281616211 5.163022518157959 174 168 169
-3.141695976257324 -1.0093028545379639 5.178290843963623 117 107 108
-3.202110528945923 -1.9377243518829346 5.178977012634277 100 96 95
-3.1843650341033936 -1.6818305253982544 5.1808600425720215 232 221 218
-3.1843748092651367 -1.7865383625030518 5.173462390899658 213 203 202
-3.1428914070129395 -1.2690377235412598 5.164311408996582 110 100 101
-3.098698854446411 0.347647100687027 5.265854358673096 125 141 141
-3.1940362453460693 -1.8723790645599365 5.184460639953613 205 195 194
-3.162919521331787 -1.5145766735076904 5.183529853820801 235 226 221
-3.1705121994018555 -1.5212424993515015 5.200382232666016 228 220 218
-3.1114656925201416 0.7563718557357788 5.351752758026123 90 108 110
-3.1594526767730713 -1.4430012702941895 5.192943096160889 229 220 215
-3.1567437648773193 -1.4688916206359863 5.1861677169799805 230 221 216
-3.1888625621795654 -2.0789425373077393 5.177305221557617 197 188 187
-3.152611017227173 -1.5331084728240967 5.177465438842773 120 118 117
-3.152611017227173 -1.5331084728240967 5.177465438842773 120 118 117
-3.1817517280578613 -2.0610287189483643 5.172854900360107 118 110 110
-3.1817517280578613 -2.0610287189483643 5.172854900360107 118 110 110
-3.1471402645111084 -1.4198594093322754 5.195834636688232 235 229 226
-3.1489102840423584 -1.4198356866836548 5.200658321380615 240 235 231
-3.1628060340881348 -2.0553488731384277 5.180125713348389 107 97 96
-3.155475616455078 -1.902502179145813 5.188513278961182 222 216 215
-3.1521172523498535 -1.938258171081543 5.186209678649902 219 211 209
-3.155351161956787 -2.02006196975708 5.182652950286865 214 206 204
-3.1443140506744385 -1.787075400352478 5.193789005279541 105 105 105
-3.060321092605591 0.3577408790588379 5.315277099609375 215 219 218
-3.1316232681274414 -2.0164520740509033 5.1791486740112305 131 128 127
-3.1493890285491943 -1.9033147096633911 5.224230766296387 124 125 126
-3.0634939670562744 0.9675542712211609 5.423640251159668 160 164 165
-3.0500564575195312 0.3839070498943329 5.3362507820129395 90 79 80
-3.0317506790161133 0.3323192894458771 5.329476833343506 134 145 144
-3.0213065147399902 0.6775606870651245 5.371393203735352 124 126 125
-3.0992860794067383 -2.040389060974121 5.197587966918945 247 243 241
-3.017538547515869 0.3557148575782776 5.334767818450928 211 201 193
-3.076712131500244 -1.7482004165649414 5.21110725402832 95 114 112
-3.0913751125335693 -1.970665693283081 5.214160919189453 110 110 110
-2.997408866882324 0.4310636520385742 5.3538498878479 221 227 225
-3.0060222148895264 0.6911783814430237 5.409241199493408 135 136 138
-2.997344493865967 0.47534671425819397 5.396549224853516 148 149 151
-2.9720749855041504 0.3584885597229004 5.351754665374756 211 213 212
-3.0000877380371094 0.6105459928512573 5.431028366088867 131 137 135
-2.978788375854492 0.7140354514122009 5.4260573387146 53 63 75
-2.9701855182647705 0.41465532779693604 5.37657356262207 114 106 101
-2.9581897258758545 0.5732017755508423 5.377474308013916 141 142 142
-2.9997212886810303 -1.9924815893173218 5.240400314331055 234 222 223
-2.956709384918213 -1.8578060865402222 5.195183753967285 131 136 137
-2.956709384918213 -1.8578060865402222 5.195183753967285 131 136 137
-2.763401508331299 4.307305812835693 5.587775230407715 216 225 222
-2.99946928024292 -2.198293685913086 5.242764472961426 222 210 210
-2.963792562484741 -1.7370010614395142 5.239710330963135 238 253 253
-2.9014780521392822 0.16712594032287598 5.366461277008057 166 176 177
-2.892764091491699 0.35563915967941284 5.376209735870361 90 80 78
-2.892764091491699 0.35563915967941284 5.376209735870361 90 80 78
-2.89689040184021 0.3567047715187073 5.38774299621582 90 82 82
-2.89689040184021 0.3567047715187073 5.38774299621582 90 82 82
-2.896730899810791 -0.304474413394928 5.320191383361816 186 196 195
-2.905595302581787 0.3995424807071686 5.425779819488525 141 135 131
-2.9008777141571045 -0.3483338952064514 5.33254861831665 190 201 200
-2.897440195083618 -0.6375949382781982 5.308441638946533 203 211 213
-2.940253973007202 -2.291032314300537 5.186417579650879 220 210 208
-2.8777170181274414 0.3577381670475006 5.4047932624816895 223 227 226
-2.898397922515869 -0.8446171879768372 5.300049781799316 213 224 226
-2.897407293319702 -1.1121907234191895 5.274548530578613 225 236 238
-2.8943395614624023 -1.000495195388794 5.28975248336792 229 241 241
-2.8943395614624023 -1.000495195388794 5.28975248336792 229 241 241
-2.933988571166992 -2.4120383262634277 5.191967964172363 202 191 189
-2.859156370162964 0.4664337933063507 5.425039768218994 208 214 214
-2.911323308944702 -2.3840692043304443 5.168928146362305 208 197 194
-2.91172194480896 -2.384526014328003 5.169982433319092 208 197 194
-2.8643035888671875 0.4061276912689209 5.4322991371154785 139 147 150
-2.879333734512329 -1.2426834106445312 5.27238655090332 211 210 210
-2.9049205780029297 -2.3118362426757812 5.18958854675293 219 205 202
-2.8869073390960693 -1.2284027338027954 5.300044059753418 216 211 209
-2.8403682708740234 0.21913698315620422 5.398905277252197 119 113 113
-2.8617022037506104 -1.0350865125656128 5.287909984588623 174 163 162
-2.8893418312072754 -1.66581392288208 5.263810157775879 145 145 147
-2.876385450363159 -1.5668927431106567 5.2531914710998535 227 226 227
-2.851562738418579 -0.7053098678588867 5.3234381675720215 100 89 89
-2.8812410831451416 -1.94190514087677 5.22966194152832 251 239 236
-2.8788208961486816 -1.7840077877044678 5.247467041015625 194 194 194
-2.877775192260742 -1.6793246269226074 5.2599992752075195 224 227 229
-2.872321128845215 -1.9701179265975952 5.215798377990723 255 249 247
-2.882474899291992 -1.927783727645874 5.245701789855957 139 126 125
-2.833216428756714 -0.6371462941169739 5.333513259887695 148 128 127
-2.85648250579834 -1.7802579402923584 5.252669811248779 198 188 187
-2.8498587608337402 -2.325103521347046 5.178919315338135 145 133 133
-2.769963264465332 0.24002769589424133 5.386131286621094 92 88 87
-2.7789204120635986 -0.05100764334201813 5.3773193359375 128 121 123
-2.7856593132019043 -0.2360110580921173 5.373263359069824 125 109 110
-2.7728161811828613 0.39106613397598267 5.441011905670166 221 225 228
-2.6345086097717285 3.680713415145874 5.5854058265686035 151 157 153
-2.7663991451263428 -0.18791376054286957 5.370981693267822 191 181 180
-2.7615764141082764 0.18062540888786316 5.409597396850586 171 163 161
-2.769043445587158 -0.6002522706985474 5.3300700187683105 107 93 93
-2.7515854835510254 0.41836604475975037 5.431970119476318 216 220 221
-2.7598869800567627 0.48152366280555725 5.459345817565918 176 180 181
-2.7335426807403564 -1.8352253437042236 5.112463474273682 92 88 89
-2.805051326751709 -1.8271422386169434 5.253483772277832 204 200 199
-2.75881290435791 -0.48653438687324524 5.346059322357178 204 189 186
-2.751798629760742 -0.2603916525840759 5.370975494384766 201 193 188
-2.755990982055664 0.009205366484820843 5.414528846740723 186 181 178
-2.7934792041778564 -1.8981884717941284 5.240128040313721 231 222 221
-2.7601897716522217 -0.817474901676178 5.33213472366333 216 205 200
-2.772141933441162 -1.8498071432113647 5.224976062774658 190 184 184
-2.7610485553741455 -1.0307464599609375 5.327203750610352 214 199 196
-2.7515828609466553 -0.6855108141899109 5.356139659881592 218 208 202
-2.76601505279541 -1.4453976154327393 5.286649227142334 105 97 97
-2.730794906616211 -0.19504742324352264 5.385080814361572 132 120 120
-2.7799015045166016 -2.269134283065796 5.203653812408447 202 190 189
-2.7506275177001953 -1.321465253829956 5.287199020385742 235 225 223
-2.769719362258911 -1.8875017166137695 5.247568607330322 225 216 215
-2.7616312503814697 -2.0848450660705566 5.2072248458862305 228 217 215
-2.749150514602661 -1.536024570465088 5.277249813079834 236 227 222
-2.7710278034210205 -2.388277292251587 5.202526569366455 110 108 109
-2.73610782623291 -1.3028614521026611 5.294973850250244 220 209 205
-2.73610782623291 -1.3028614521026611 5.294973850250244 220 209 205
-2.73201847076416 -1.2815308570861816 5.297820568084717 229 218 216
-2.7459514141082764 -1.8530796766281128 5.246016502380371 222 208 207
-2.7319984436035156 -1.4239686727523804 5.288164138793945 244 233 231
-2.726260185241699 -1.4494340419769287 5.283478260040283 251 238 233
-2.705669403076172 -0.799648642539978 5.332315444946289 207 187 186
-2.7223358154296875 -2.3255460262298584 5.155548095703125 170 159 157
-2.7250759601593018 -1.656200647354126 5.2620439529418945 253 244 239
-2.71602463722229 -1.225535273551941 5.304856300354004 100 94 94
-2.704249382019043 -0.9036262631416321 5.331215858459473 203 186 186
-2.712491989135742 -1.432921290397644 5.281887054443359 108 96 95
-2.7182352542877197 -1.6441928148269653 5.269656658172607 145 131 131
-2.711428642272949 -1.870579719543457 5.244313716888428 243 233 231
-2.6807761192321777 -0.6268038153648376 5.357342720031738 194 178 178
-2.6974146366119385 -2.109586477279663 5.2081146240234375 223 213 211
-2.682403087615967 -2.1180579662323 5.1900553703308105 126 112 112
-2.6860527992248535 -1.8376599550247192 5.241032123565674 126 111 110
-2.6624915599823 -1.1249405145645142 5.3080267906188965 211 198 197
-2.6732091903686523 -1.5367801189422607 5.280884265899658 222 208 206
-2.642475128173828 -1.3041019439697266 5.306500434875488 205 194 193
-2.6462180614471436 -1.734305739402771 5.258471965789795 210 199 198
-2.6367056369781494 -1.5277584791183472 5.278677940368652 220 206 204
-2.637773275375366 -1.5291905403137207 5.281589508056641 220 206 204
-2.6008567810058594 -1.0297884941101074 5.324702739715576 201 185 185
-2.594348192214966 -1.5887835025787354 5.25169563293457 200 182 182
-2.5975661277770996 -1.4147858619689941 5.2848711013793945 203 185 185
-2.5917398929595947 -1.2908730506896973 5.296477317810059 208 195 194
-2.5827527046203613 -0.7305324673652649 5.3740057945251465 133 113 114
-2.5764966011047363 -1.020990014076233 5.336792945861816 191 173 173
-2.555598497390747 -0.5294098854064941 5.378973960876465 207 195 195
-2.567265748977661 -1.3124538660049438 5.3089985847473145 191 173 173
-2.5432064533233643 -0.6500694751739502 5.372735500335693 202 188 187
-2.522473096847534 -1.5642679929733276 5.279592514038086 191 179 179
-2.487848997116089 -1.0069595575332642 5.335072994232178 100 90 91
-2.4641454219818115 -1.563401699066162 5.260104179382324 167 153 153
-2.4505274295806885 -1.2896714210510254 5.301358699798584 188 178 176
-2.4505274295806885 -1.2896714210510254 5.301358699798584 188 178 176
-2.4495513439178467 -1.5325238704681396 5.262624740600586 159 147 147
-2.4468441009521484 -1.3530547618865967 5.286159992218018 180 170 170
-2.4388887882232666 -1.106520652770996 5.309122562408447 173 159 159
-2.4071335792541504 -0.6506878733634949 5.365338325500488 181 167 167
-2.408296585083008 -0.6512715220451355 5.369480133056641 181 167 167
-2.4199182987213135 -1.1725879907608032 5.317620754241943 181 171 170
-2.4064106941223145 -1.269512414932251 5.301947116851807 91 85 87
-2.293336868286133 -0.5929993391036987 5.356393337249756 171 164 164
-2.2801685333251953 0.20314547419548035 5.457505226135254 100 114 115
-2.271477222442627 -0.9882181286811829 5.315282821655273 155 154 156
-2.265160083770752 -1.1516321897506714 5.288969993591309 157 157 158
-2.2600185871124268 -1.2570905685424805 5.270824909210205 164 164 164
-2.256298065185547 -1.3022964000701904 5.259147644042969 160 160 160
-2.2178428173065186 0.19763484597206116 5.455790996551514 100 105 111
-2.154534339904785 -0.11921671032905579 5.404353141784668 113 107 109
-2.149451971054077 -0.2469245344400406 5.386800765991211 106 98 100
-2.1406686305999756 -0.37863317131996155 5.365198135375977 104 98 99
-2.113041639328003 -0.28967607021331787 5.373032569885254 141 136 139
-2.0995607376098633 -0.5610198378562927 5.346263885498047 100 87 87
-2.0968117713928223 -0.7917031645774841 5.30635929107666 96 87 88
-2.0922935009002686 -0.8262956738471985 5.3013715744018555 94 84 85
-2.0856149196624756 -0.5233485698699951 5.33791446685791 186 180 180
-2.0868406295776367 -1.511139154434204 5.170884132385254 77 76 81
-2.083813428878784 -1.05828058719635 5.262038230895996 89 83 83
-2.075899124145508 -0.8394268751144409 5.283868312835693 190 185 182
-2.0729877948760986 -0.5163400769233704 5.339457988739014 134 125 127
-2.0650391578674316 -1.1034083366394043 5.237561225891113 194 188 188
-2.0679657459259033 -1.465804100036621 5.178610324859619 77 76 81
-2.0649759769439697 -1.1294925212860107 5.237349987030029 183 173 173
-2.0584566593170166 -1.1722193956375122 5.219146251678467 178 168 169
-2.0592498779296875 -1.243443489074707 5.208932399749756 166 160 161
-2.057900905609131 -0.6998987793922424 5.3052544593811035 192 182 181
-2.043689012527466 -1.288939356803894 5.198624610900879 177 170 170
-2.042057991027832 -1.3508585691452026 5.1859846115112305 194 187 188
-2.042057991027832 -1.3508585691452026 5.1859846115112305 194 187 188
-2.0360305309295654 -1.4159356355667114 5.168194770812988 175 170 174
-2.0360305309295654 -1.4159356355667114 5.168194770812988 175 170 174
-2.0392189025878906 -1.2415105104446411 5.212876796722412 197 190 191
-2.0337746143341064 -1.474003791809082 5.159268379211426 178 174 176
-2.0337746143341064 -1.474003791809082 5.159268379211426 178 174 176
-2.033892869949341 -1.3027864694595337 5.198589324951172 194 190 191
-2.0332577228546143 -1.2201616764068604 5.213798999786377 189 180 181
-2.030517339706421 -1.0399447679519653 5.24476432800293 212 202 202
-2.0306761264801025 -1.117326259613037 5.231900215148926 145 135 136
-2.0269932746887207 -1.1053221225738525 5.22594690322876 209 200 201
-1.9959335327148438 -1.189754605293274 5.202815055847168 220 214 214
-1.990277647972107 -1.504260778427124 5.1334991455078125 189 185 186
-1.9942046403884888 -1.5086513757705688 5.153548240661621 190 184 186
-1.9800994396209717 -1.4532688856124878 5.138656139373779 73 71 82
-1.976629376411438 -1.2055388689041138 5.187815189361572 112 110 115
-1.9672287702560425 -1.489092469215393 5.128687381744385 205 201 202
-1.9676405191421509 -1.2568632364273071 5.17897891998291 117 115 118
-1.9603381156921387 -1.1835685968399048 5.1733856201171875 221 211 210
-1.9599716663360596 -1.6512714624404907 5.104319095611572 121 118 129
-1.9508377313613892 -1.033712387084961 5.217254161834717 233 223 222
-1.9456877708435059 -1.328946590423584 5.152340412139893 232 223 224
-1.9416849613189697 -1.4817057847976685 5.116006851196289 212 206 206
-1.94041109085083 -1.4522862434387207 5.123263359069824 230 224 224
-1.9364713430404663 -1.316085934638977 5.150960922241211 230 220 221
-1.9343355894088745 -1.2503437995910645 5.160311222076416 234 231 243
-1.929080605506897 -1.4324368238449097 5.115030288696289 229 219 218
-1.930870771408081 -1.0602209568023682 5.202609062194824 240 229 229
-1.9281502962112427 -1.0895859003067017 5.191944599151611 246 237 238
-1.9158124923706055 -0.7978828549385071 5.232285976409912 90 86 92
-1.915140151977539 -0.8098807334899902 5.238466739654541 175 171 173
-1.9083834886550903 -1.3431282043457031 5.133180141448975 237 231 231
-1.929797649383545 -1.3255969285964966 5.212463855743408 237 231 231
-1.9128042459487915 -1.4572834968566895 5.121220111846924 164 156 158
-1.9088637828826904 -1.3836952447891235 5.1322503089904785 233 227 227
-1.8958954811096191 -0.7638444304466248 5.231086254119873 188 179 180
-1.894487977027893 -1.2056547403335571 5.152266979217529 201 203 202
-1.8876399993896484 -1.3837127685546875 5.119488716125488 200 200 200
-1.8765658140182495 -0.8274660110473633 5.211889743804932 191 201 206
-1.8759899139404297 -1.0687792301177979 5.168404579162598 231 242 245
-1.8656355142593384 -1.5774152278900146 5.06198787689209 224 214 215
-1.8542178869247437 -0.8602282404899597 5.210585117340088 204 215 221
-1.844609260559082 -0.7964832782745361 5.208303451538086 191 177 177
-1.8394019603729248 -1.6196776628494263 5.04058837890625 194 185 190
-1.8326059579849243 -0.7867481708526611 5.207937240600586 181 168 169
-1.8327995538711548 -0.7862709760665894 5.20990514755249 181 168 169
-1.8214218616485596 -0.8635806441307068 5.1950297355651855 149 143 145
-1.8169994354248047 -0.9727433323860168 5.165791034698486 177 172 176
-1.8125053644180298 -1.025650143623352 5.150478363037109 173 169 171
-1.8042718172073364 -0.8562028408050537 5.178511142730713 184 184 187
-1.7988640069961548 -1.0132744312286377 5.144659996032715 217 217 217
-1.7958706617355347 -0.8659627437591553 5.171977996826172 108 105 112
-1.8011155128479004 -1.2923349142074585 5.097923278808594 175 169 172
-1.8026386499404907 -1.403035283088684 5.078708648681641 151 142 145
-1.7983155250549316 -1.5663145780563354 5.029697418212891 173 164 169
-1.7931394577026367 -0.7653438448905945 5.196174621582031 109 99 105
-1.7931394577026367 -0.7653438448905945 5.196174621582031 109 99 105
-1.7954177856445312 -1.4003528356552124 5.06899356842041 154 145 148
-1.7853174209594727 -0.8101929426193237 5.176641941070557 90 83 90
-1.7835345268249512 -0.9415805339813232 5.151672840118408 81 84 101
-1.775266408920288 -0.9286144971847534 5.149336338043213 81 81 99
-1.7784278392791748 -0.9922922253608704 5.146374225616455 88 96 117
-1.7754417657852173 -1.2817635536193848 5.083797931671143 139 133 135
-1.7715319395065308 -1.537795901298523 5.019443988800049 112 111 116
-1.7727795839309692 -1.019673466682434 5.139772891998291 253 252 255
-1.759648323059082 -0.9467438459396362 5.130936145782471 68 67 83
-1.7560397386550903 -0.9697789549827576 5.119852066040039 75 79 99
-1.7568095922470093 -0.7885531783103943 5.168924808502197 180 168 168
-1.7567167282104492 -0.7878623604774475 5.169270038604736 180 168 168
-1.7551846504211426 -0.9385847449302673 5.150378227233887 136 133 149
-1.7551846504211426 -0.9385847449302673 5.150378227233887 136 133 149
-1.7507978677749634 -1.0179293155670166 5.12185001373291 135 130 139
-1.749903678894043 -0.9794306755065918 5.135087966918945 169 166 173
-1.7486451864242554 -0.8654025793075562 5.156189918518066 89 87 100
-1.7398992776870728 -0.8382453918457031 5.152593612670898 148 143 147
-1.744942545890808 -1.3214129209518433 5.067409515380859 115 112 122
-1.735534429550171 -0.8718176484107971 5.147817611694336 151 149 154
-1.7359129190444946 -0.8425256013870239 5.155599594116211 137 135 140
-1.7161165475845337 -0.8419990539550781 5.134523868560791 141 139 145
-1.6990808248519897 -0.9323849081993103 5.116593837738037 102 98 121
-1.6859116554260254 -0.8426678776741028 5.1257781982421875 124 122 127
-1.6811442375183105 -0.8646122217178345 5.119348526000977 114 111 115
-1.673479676246643 -0.9570328593254089 5.098217964172363 109 108 116
-1.6693962812423706 -0.8551172018051147 5.112189292907715 211 211 213
-1.6693962812423706 -0.8551172018051147 5.112189292907715 211 211 213
-1.6673625707626343 -0.9433628916740417 5.087400913238525 223 223 224
-1.6495511531829834 -0.23592400550842285 5.185355186462402 67 80 89
-1.6542599201202393 -0.23931485414505005 5.215419292449951 65 79 88
-1.6490811109542847 -0.8819633722305298 5.0692877769470215 121 120 124
-1.655921459197998 -0.8660611510276794 5.102453231811523 121 120 124
-1.6476211547851562 -0.38224518299102783 5.181666851043701 67 76 86
-1.6549824476242065 -0.8984456658363342 5.091907978057861 135 135 138
-1.6549824476242065 -0.8984456658363342 5.091907978057861 135 135 138
-1.6355587244033813 -0.3832498788833618 5.171630859375 58 58 68
-1.6397719383239746 -1.0732206106185913 5.051697254180908 153 152 157
-1.640268325805664 -1.160007119178772 5.0332722663879395 140 141 146
-1.640268325805664 -1.160007119178772 5.0332722663879395 140 141 146
-1.6305068731307983 -0.8408578634262085 5.0879082679748535 108 111 120
-1.631517767906189 -0.8688988089561462 5.1094279289245605 91 92 105
-3.084308624267578 -1.9035799503326416 5.271840572357178 156 156 154
-2.770320177078247 -0.6095337867736816 5.230325222015381 141 116 112
-2.8207921981811523 -1.0763663053512573 5.300503730773926 181 157 152
-2.1555659770965576 -0.5304638743400574 5.397436141967773 99 83 83
-1.7917479276657104 -1.4631882905960083 4.879459857940674 214 204 203
-1.6746385097503662 -0.12768228352069855 0.6196005940437317 137 129 127
-1.641923189163208 -0.22391650080680847 0.6169952750205994 71 67 64
-2.2351908683776855 -0.8148034811019897 0.9923819303512573 169 160 155
-2.7145540714263916 -0.7103760242462158 1.4749621152877808 203 203 201
-3.426445960998535 -0.35501641035079956 2.0931382179260254 123 115 111
-3.4869637489318848 -0.4079417884349823 2.2039718627929688 148 140 134
-3.510282039642334 -0.47356611490249634 2.225815534591675 165 160 156
-3.6771838665008545 -0.4383820593357086 2.692737102508545 157 152 146
-3.705228805541992 -0.5642525553703308 2.7136294841766357 160 158 152
-3.487257957458496 -1.5202529430389404 2.5474064350128174 145 136 129
-3.7307496070861816 -0.4240257740020752 2.917132616043091 160 154 151
-3.869335174560547 -0.8110044002532959 3.3731508255004883 140 133 129
-3.8005294799804688 -0.5266135931015015 4.032905101776123 133 118 111
-3.7791199684143066 -1.2619364261627197 4.529816150665283 114 105 105
-3.235398054122925 -0.8687046766281128 3.9918060302734375 138 128 126
-3.6944124698638916 -1.2771457433700562 4.644188404083252 43 33 34
-4.679221153259277 0.4878738522529602 6.081546306610107 160 153 151
-3.5369410514831543 -1.580843210220337 4.967329502105713 162 152 150
-3.5157392024993896 -1.899908185005188 5.019252777099609 150 142 140
-3.4692277908325195 -1.6130186319351196 5.000487327575684 168 157 153
-3.4762754440307617 -1.760272741317749 5.0161662101745605 140 134 131
-3.4662532806396484 -1.5929453372955322 5.02862024307251 74 70 67
-3.4621317386627197 -1.7223879098892212 5.030911922454834 44 43 41
-3.5023281574249268 -2.2160699367523193 5.052701473236084 78 69 64
-3.376452922821045 -1.5534030199050903 5.093535423278809 171 163 161
-3.3640666007995605 -2.0121796131134033 5.1071391105651855 57 49 47
-3.3029696941375732 -1.5132102966308594 5.128979682922363 182 167 164
-3.253520965576172 -1.3872088193893433 5.140616416931152 216 208 205
-3.236279249191284 -1.7143640518188477 5.180080890655518 212 199 193
-3.2074222564697266 -1.3996362686157227 5.188047885894775 89 79 77
-3.1848185062408447 -2.448939085006714 5.149567127227783 163 148 145
-3.1377530097961426 -1.9487903118133545 5.2074737548828125 97 92 89
-3.1089518070220947 -2.5012123584747314 5.186403751373291 164 153 151
-3.0681967735290527 -2.0308666229248047 5.213835716247559 231 219 217
-3.04266357421875 -2.0048794746398926 5.241367340087891 107 99 95
-3.0580906867980957 -2.4783718585968018 5.183130741119385 103 93 92
-3.0335888862609863 -2.0164663791656494 5.228200912475586 223 209 208
-3.0550973415374756 -2.607440710067749 5.1585612297058105 90 85 83
-2.896918296813965 -0.1343321055173874 5.355515956878662 178 184 182
-2.8944239616394043 0.07260161638259888 5.416617393493652 57 53 52
-3.0081334114074707 -2.3364269733428955 5.195436000823975 225 211 208
-2.8770828247070312 -0.29846930503845215 5.3637566566467285 131 117 116
-2.8868513107299805 -0.47477754950523376 5.3561930656433105 85 79 77
-2.8074936866760254 0.378370076417923 5.391034126281738 150 137 134
-2.9830069541931152 -2.409445285797119 5.1858625411987305 220 209 207
-2.829704999923706 -1.0823107957839966 5.320167064666748 181 157 152
-2.7679271697998047 0.007160494104027748 5.447903156280518 184 175 168
-2.8395235538482666 -1.9125020503997803 5.2694783210754395 135 124 123
-2.7503762245178223 -0.8747156262397766 5.372030735015869 223 209 200
-2.7436139583587646 -1.683466911315918 5.285999298095703 244 231 223
-2.6059956550598145 -2.0594124794006348 5.209630012512207 171 155 155
-2.5702545642852783 -1.6759443283081055 5.275679588317871 189 172 170
-2.550352096557617 -1.5702875852584839 5.29478120803833 187 174 174
-2.495023250579834 -1.3667750358581543 5.317582130432129 189 177 175
-2.4459004402160645 -0.3077813982963562 5.4742021560668945 162 147 146
-2.482003927230835 -2.009324550628662 5.190222263336182 152 137 135
-2.2611963748931885 -1.2584168910980225 5.2767252922058105 147 144 143
-2.0935781002044678 -0.6458505988121033 5.3231682777404785 105 84 83
-2.0611159801483154 -1.2040998935699463 5.222400665283203 178 164 164
-2.024895668029785 -1.2485935688018799 5.201709270477295 85 82 90
-1.9965375661849976 -1.2273083925247192 5.177582263946533 209 200 200
-1.9275072813034058 -1.3739705085754395 5.107682228088379 224 214 213
-1.905287265777588 -0.9348049163818359 5.196629524230957 148 148 150
-1.9250651597976685 -0.9704561829566956 5.267618179321289 171 171 171
-1.7855792045593262 -0.817954421043396 5.1640753746032715 94 83 87
-1.7910979986190796 -0.9885411262512207 5.144259452819824 75 74 89
-1.782774567604065 -1.29082190990448 5.050694465637207 164 152 152
-1.7753455638885498 -0.9703378677368164 5.136667728424072 204 204 205
-1.7538492679595947 -0.99617999792099 5.111278057098389 78 77 87
-1.7407829761505127 -0.7730919122695923 5.165545463562012 120 108 108
-1.2681421041488647 -0.29946592450141907 0.43114832043647766 170 159 155
-1.337497353553772 -0.36402982473373413 0.45462602376937866 82 81 79
-1.338068962097168 -0.36088743805885315 0.4616939425468445 213 213 211
-1.2955403327941895 -0.29182514548301697 0.45497119426727295 76 75 73
-1.4657137393951416 -0.42253369092941284 0.5642980933189392 118 110 108
-1.4331504106521606 -0.3557939827442169 0.5617180466651917 211 211 209
-1.3916847705841064 -0.2825281322002411 0.5590969324111938 214 214 212
-1.5571739673614502 -0.3652631938457489 0.6854876279830933 191 184 179
-1.5467559099197388 -0.35828888416290283 0.6849674582481384 55 49 49
-1.5468428134918213 -0.3483842611312866 0.6966055035591125 163 148 145
-1.5668355226516724 -0.36326152086257935 0.7026538252830505 186 181 178
-1.6064083576202393 -0.43430542945861816 0.7152156829833984 201 202 197
-8.38604736328125 0.6357148289680481 2.72647762298584 167 159 155
-1.6603721380233765 -0.3556337356567383 0.8222891092300415 75 70 69
-1.7629305124282837 -0.42910248041152954 0.8857439756393433 190 182 179
-1.935119867324829 -0.45949408411979675 1.0952303409576416 166 151 146
-2.0232596397399902 -0.5642618536949158 1.1651630401611328 173 162 156
-1.9045250415802002 -0.3601295053958893 1.1216299533843994 164 147 140
-2.0936362743377686 -0.6715009808540344 1.2015982866287231 79 71 66
-2.0936362743377686 -0.6715009808540344 1.2015982866287231 79 71 66
-1.9870692491531372 -0.46528300642967224 1.160040020942688 115 110 104
-1.9778916835784912 -0.46266642212867737 1.16311514377594 185 180 174
-2.048936605453491 -0.5501895546913147 1.1958056688308716 192 192 188
-1.9141405820846558 -0.3456099331378937 1.1399232149124146 203 203 200
-2.0621132850646973 -0.5697816014289856 1.2188206911087036 160 149 145
-2.145139217376709 -0.6679937839508057 1.2602230310440063 202 201 199
-2.013070583343506 -0.462512731552124 1.211777925491333 157 146 144
-1.9551743268966675 -0.33801570534706116 1.2218245267868042 183 173 164
-2.018155813217163 -0.3632122576236725 1.286293387413025 157 144 138
-2.3024706840515137 -0.8138795495033264 1.421094536781311 63 62 58
-2.312063217163086 -0.8040889501571655 1.432726502418518 187 186 182
-2.1704204082489014 -0.5770009756088257 1.3702646493911743 170 165 160
-2.097029685974121 -0.45299091935157776 1.3393568992614746 190 188 184
-2.014415740966797 -0.3590160310268402 1.3028768301010132 55 49 49
-2.056765079498291 -0.36583656072616577 1.347999095916748 156 141 137
-2.282036066055298 -0.7041673064231873 1.4724944829940796 154 146 143
-2.216658592224121 -0.4851449728012085 1.5116369724273682 148 140 134
-2.283518075942993 -0.5701794028282166 1.5498201847076416 185 183 179
-2.2748525142669678 -0.5515077114105225 1.549084186553955 181 179 174
-2.379061698913574 -0.7226190567016602 1.6080691814422607 167 164 157
-2.367386817932129 -0.7187049388885498 1.60227370262146 159 154 148
-11.778250694274902 1.3484739065170288 6.9058074951171875 138 123 120
-2.416825771331787 -0.5007654428482056 1.874969482421875 157 152 146
-2.7750751972198486 -1.023055076599121 2.084794759750366 142 137 131
-2.497520923614502 -0.5909527540206909 1.9276620149612427 160 158 152
-2.7405474185943604 -1.039670705795288 2.0686347484588623 70 69 65
-2.583606004714966 -0.7524804472923279 1.9873414039611816 145 136 129
-2.8427772521972656 -1.0409218072891235 2.2838375568389893 137 132 128
-2.9549081325531006 -1.2495672702789307 2.3602793216705322 95 87 84
-2.9363725185394287 -1.2219798564910889 2.3709757328033447 58 54 50
-2.6530747413635254 -0.6162294745445251 2.217256546020508 149 144 141
-3.2153306007385254 -1.289552092552185 3.0007641315460205 121 110 107
-3.1374971866607666 -0.979644775390625 3.2073981761932373 127 116 112
-3.502636194229126 -1.726481318473816 3.537623167037964 52 44 40
-5.029048919677734 -2.981840133666992 5.112393856048584 69 61 59
-5.029048919677734 -2.981840133666992 5.112393856048584 69 61 59
-1.3492711782455444 0.10685256868600845 1.8769934177398682 117 110 110
-3.321382522583008 -1.1994763612747192 4.101394176483154 126 113 105
-3.1622238159179688 -0.7573323845863342 4.120840072631836 139 127 123
-3.4181129932403564 -1.390831470489502 4.368332862854004 140 126 119
-3.4119315147399902 -1.605137825012207 4.848649978637695 157 142 137
-3.369495153427124 -1.1526457071304321 4.9200639724731445 165 150 147
-3.5109665393829346 -2.010355234146118 5.0033955574035645 164 154 152
-3.444361925125122 -1.8807402849197388 4.959115505218506 147 139 136
-3.444361925125122 -1.8807402849197388 4.959115505218506 147 139 136
-3.456181526184082 -1.92827308177948 4.970539093017578 131 125 123
-3.3256688117980957 -1.514387845993042 4.949815273284912 173 162 160
-3.2837581634521484 -1.3017104864120483 5.065532207489014 179 161 159
-3.4464943408966064 -2.245962619781494 5.2275309562683105 136 125 123
-3.2969303131103516 -1.513187289237976 5.117705821990967 182 167 164
-3.3430285453796387 -2.320436716079712 5.257111549377441 189 176 170
-3.296372413635254 -1.9688372611999512 5.239501476287842 195 184 182
-3.2065975666046143 -1.7536119222640991 5.188992023468018 222 208 203
-3.3460750579833984 -2.165959119796753 5.339495658874512 182 172 170
-3.2147836685180664 -1.9888927936553955 5.2621684074401855 216 205 201
-3.2203056812286377 -1.8407737016677856 5.30125093460083 210 200 198
-3.259533166885376 -2.107055425643921 5.371882915496826 119 110 106
-2.7161691188812256 0.006806587800383568 5.039842128753662 166 172 172
-3.1184091567993164 -2.497638463973999 5.301217555999756 193 179 176
-3.0995354652404785 -1.3231725692749023 5.496752738952637 224 240 240
-2.917644500732422 -1.7742919921875 5.16876745223999 110 105 102
-2.8225793838500977 -0.870756983757019 5.171162128448486 215 223 224
-3.0086357593536377 -2.2056257724761963 5.254702091217041 224 210 209
-3.045023202896118 -2.442681074142456 5.290351390838623 220 209 207
-2.8588578701019287 -1.1412736177444458 5.213247776031494 222 233 233
-2.9938948154449463 -1.9950039386749268 5.292018413543701 230 216 213
-2.682692766189575 0.0027403405401855707 5.121706008911133 141 126 125
-2.892889976501465 -1.316148281097412 5.265731334686279 227 237 238
-2.9014601707458496 -1.368240237236023 5.27693510055542 239 248 247
-2.6470324993133545 0.020738428458571434 5.121545314788818 108 97 95
-2.873525381088257 -1.6859004497528076 5.217103004455566 221 234 235
-2.771834135055542 -0.6778974533081055 5.22879695892334 191 175 165
-2.7644460201263428 -0.5589226484298706 5.248030185699463 191 175 162
-2.79482364654541 -0.862301230430603 5.2737650871276855 164 144 136
-2.879324197769165 -1.8659878969192505 5.265886306762695 84 78 76
-2.8158562183380127 -1.4703996181488037 5.257499694824219 183 162 157
-2.8789796829223633 -1.8405404090881348 5.303246021270752 88 80 78
-2.7870383262634277 -1.1759384870529175 5.301021099090576 207 193 182
-2.7453598976135254 -0.6441571116447449 5.355288028717041 206 189 182
-2.7638120651245117 -0.8778403997421265 5.388363838195801 223 209 200
-2.8693184852600098 -2.4202826023101807 5.360876083374023 180 165 160
-2.840580463409424 -1.8097543716430664 5.455255031585693 219 205 202
-2.6730268001556396 -1.332783818244934 5.3745951652526855 208 190 186
-2.735028028488159 -2.2444028854370117 5.337815761566162 97 83 82
-2.695866584777832 -2.2033588886260986 5.285925388336182 169 150 149
-2.6321921348571777 -1.8850880861282349 5.370967388153076 187 170 163
-2.2842860221862793 0.2620217502117157 5.567238807678223 170 178 177
-2.1930932998657227 0.16178318858146667 5.535147666931152 90 89 95
-2.138627767562866 -0.5356096029281616 5.350216865539551 99 83 83
-2.138627767562866 -0.5356096029281616 5.350216865539551 99 83 83
-2.1029396057128906 -0.2740318477153778 5.357559680938721 104 90 89
-2.120788812637329 -0.6893326640129089 5.311479091644287 108 88 87
-2.114089012145996 -0.9626707434654236 5.2608537673950195 91 77 76
-2.099823236465454 -1.082539677619934 5.225985527038574 90 76 76
-2.109545946121216 -1.1438578367233276 5.35761833190918 175 160 160
-2.0753660202026367 -1.1999472379684448 5.263219833374023 178 164 164
-1.9355887174606323 -1.2585744857788086 5.1339826583862305 220 211 213
-1.9143635034561157 -1.3545775413513184 5.092320442199707 224 214 213
-1.8866032361984253 -0.7991502285003662 5.22048282623291 74 70 71
-1.876463770866394 -1.2616113424301147 5.10028076171875 188 188 190
-1.800709843635559 -0.8491618037223816 5.199387550354004 98 86 88
