ply
format ascii 1.0
element vertex 195
property float x
property float y
property float z
property uchar red
property uchar green
property uchar blue
end_header
-15.514123916625977 -1.339438557624817 29.073654174804688 107 83 81
-26.59457015991211 -9.922107696533203 51.32168197631836 173 153 145
-28.512882232666016 -11.563833236694336 55.70136642456055 112 94 90
-20.289560317993164 -5.18307638168335 39.734066009521484 108 89 85
-23.435754776000977 -7.778160572052002 45.89491271972656 111 87 85
-17.14034080505371 -3.032299280166626 33.632530212402344 101 80 77
-47.9851188659668 -29.961633682250977 97.18827819824219 144 116 112
-8.908903121948242 1.2970012426376343 18.41061019897461 132 133 135
-21.84993553161621 -12.065183639526367 47.6316032409668 148 130 126
-16.92009735107422 -7.795886993408203 37.350345611572266 156 141 135
-7.395662307739258 2.0132498741149902 16.72205924987793 84 76 79
-6.699378967285156 2.321230411529541 15.524393081665039 82 76 78
-13.776138305664062 -5.833364963531494 31.958608627319336 66 54 54
-13.693097114562988 -6.0151519775390625 31.857343673706055 46 32 32
-13.599287986755371 -6.186557769775391 31.988243103027344 101 87 87
-16.213375091552734 -10.653297424316406 39.98601531982422 104 88 88
-13.504277229309082 -7.148866653442383 33.35116195678711 101 91 89
-8.08156681060791 -0.4596095681190491 20.117753982543945 127 107 96
-5.509363651275635 1.0947067737579346 15.406221389770508 104 89 89
-4.211501598358154 2.800215244293213 12.237784385681152 84 82 82
-2.8132164478302 3.259586811065674 10.01150131225586 86 86 84
-4.595691680908203 -1.49574875831604 16.387577056884766 32 30 31
-2.620702028274536 3.5272929668426514 9.486703872680664 43 41 43
-2.661295175552368 3.484524965286255 9.674345970153809 111 112 107
-2.661295175552368 3.484524965286255 9.674345970153809 111 112 107
-2.5902950763702393 3.5656137466430664 9.49489974975586 41 40 41
-3.4752159118652344 0.9794619679450989 13.154699325561523 52 42 41
-0.8878576755523682 3.991501808166504 5.844414234161377 67 66 62
-1.1475974321365356 -0.41506028175354004 11.543903350830078 107 97 90
-0.39715123176574707 4.055898189544678 5.28618860244751 75 75 71
-0.3266347646713257 4.056149005889893 5.19045352935791 64 60 57
-0.3204980194568634 4.057928085327148 5.145682334899902 137 139 134
-0.5061175227165222 0.9515208601951599 9.498236656188965 129 120 120
-0.468034029006958 1.320544719696045 9.156371116638184 116 108 106
-0.2976151704788208 -1.485605001449585 11.445841789245605 109 94 89
-0.24564611911773682 0.5692154765129089 9.445511817932129 127 112 107
-0.1693270057439804 2.838782787322998 7.4609479904174805 112 112 110
-0.1689518690109253 1.6801873445510864 8.49482536315918 126 119 117
-0.07460997998714447 4.071578502655029 4.849598407745361 141 142 139
-0.14404065907001495 -0.8423747420310974 10.629255294799805 41 37 36
-0.03672513738274574 4.085142135620117 4.8103108406066895 133 135 130
-0.00589799415320158 -0.7747426629066467 10.31310749053955 127 116 110
0.016623757779598236 4.061432838439941 4.665785789489746 76 75 70
0.10013772547245026 0.5888177752494812 9.130985260009766 35 27 25
0.15791592001914978 -1.3697164058685303 10.743245124816895 38 37 34
0.15791592001914978 -1.3697164058685303 10.743245124816895 38 37 34
0.23607313632965088 -0.2886875867843628 9.917088508605957 52 46 46
0.4348503351211548 0.2147878259420395 9.090985298156738 37 33 32
0.37821725010871887 2.363621234893799 7.30229377746582 115 116 108
0.5900816917419434 -1.932027816772461 10.824461936950684 45 37 34
0.6478258371353149 -2.5973880290985107 11.564878463745117 134 121 114
0.5850507020950317 -1.2904680967330933 10.154973983764648 45 35 34
0.6811702847480774 -1.3408982753753662 10.524446487426758 53 47 47
0.6005584597587585 0.22880341112613678 8.96492862701416 40 34 31
0.5277934074401855 2.3672635555267334 7.2279510498046875 107 97 95
0.7554614543914795 -0.7213508486747742 9.546648979187012 43 31 31
0.6760204434394836 1.0292115211486816 8.15602970123291 130 115 110
0.656332790851593 1.8491495847702026 7.38402795791626 119 110 105
0.656332790851593 1.8491495847702026 7.38402795791626 119 110 105
0.6797916889190674 1.7676931619644165 7.512828826904297 39 37 38
0.5937982201576233 2.9279747009277344 6.541226863861084 122 115 111
0.8440104722976685 -0.21780109405517578 8.989124298095703 56 47 48
0.8734848499298096 -0.6546162366867065 9.219437599182129 147 130 122
1.046999216079712 -2.6207268238067627 10.962647438049316 132 118 111
0.9288194179534912 -0.8879994750022888 9.577077865600586 149 128 117
1.0336229801177979 -1.867939829826355 10.335854530334473 39 33 31
0.8540378212928772 2.682373523712158 6.535416603088379 26 22 21
1.3717350959777832 -2.4372711181640625 10.423456192016602 146 135 129
1.1154415607452393 0.27957701683044434 8.255484580993652 41 38 34
1.2279366254806519 -0.6660454273223877 8.90539264678955 42 38 37
1.26779305934906 -1.1416010856628418 9.13841724395752 144 133 127
1.3265678882598877 -0.6739012002944946 9.018301010131836 60 56 53
1.5328474044799805 -2.564178228378296 10.390650749206543 139 119 112
1.0157721042633057 2.195469856262207 6.794753551483154 121 108 100
1.6097679138183594 -1.134461522102356 9.062529563903809 156 145 141
1.0669963359832764 2.9690940380096436 5.993666648864746 95 94 91
1.4766993522644043 -0.09798073023557663 8.162850379943848 154 143 139
1.2992687225341797 1.4634778499603271 7.140948295593262 117 107 103
1.4326170682907104 0.4495149254798889 7.787978649139404 136 127 122
1.274026870727539 1.8495302200317383 6.866940021514893 39 35 36
1.686444640159607 -1.2177244424819946 9.02531623840332 138 123 116
1.7100239992141724 -1.1777267456054688 9.03654670715332 54 48 49
1.6999295949935913 -1.643463373184204 8.942926406860352 157 142 135
1.763555645942688 -1.1316189765930176 9.01336669921875 150 135 130
1.6602790355682373 -0.5591204762458801 8.38211727142334 148 129 122
1.8024588823318481 -1.6693339347839355 9.106537818908691 164 145 133
1.8186172246932983 -1.7808741331100464 9.159393310546875 145 127 117
1.9857038259506226 -2.5107362270355225 9.890253067016602 143 129 120
1.9054970741271973 -1.2075425386428833 8.847099304199219 154 140 133
1.9626984596252441 -2.2810351848602295 8.88412857055664 149 132 125
1.95843505859375 -1.456343412399292 8.823017120361328 179 160 145
1.95843505859375 -1.456343412399292 8.823017120361328 179 160 145
1.6869919300079346 0.40116631984710693 7.590048313140869 155 148 136
1.9538226127624512 -1.6332380771636963 8.653740882873535 166 149 141
1.3156232833862305 2.9866082668304443 5.740460395812988 43 37 34
1.2796334028244019 3.190962791442871 5.5073957443237305 42 34 32
1.6950932741165161 0.650263786315918 7.30652379989624 148 124 112
1.3404361009597778 2.9702835083007812 5.691178798675537 45 40 37
1.4961860179901123 2.1591949462890625 6.336355686187744 119 105 104
1.4831862449645996 2.2027156352996826 6.266108989715576 63 52 50
1.7811508178710938 0.41643252968788147 7.519989967346191 146 124 112
2.057708501815796 -1.5607081651687622 8.557267189025879 178 161 143
1.9595177173614502 -0.5256021618843079 8.057573318481445 144 131 123
2.027406930923462 -1.1634173393249512 8.330643653869629 153 137 124
2.0695955753326416 -1.5993995666503906 8.419509887695312 169 151 142
1.778630018234253 1.4035300016403198 6.823692798614502 90 79 77
1.612230658531189 2.334663152694702 6.1725993156433105 78 70 68
1.9577573537826538 0.24676913022994995 7.4226603507995605 98 79 75
1.7029260396957397 1.9868546724319458 6.451898097991943 83 73 72
2.682567596435547 1.5801944732666016 6.400375843048096 77 85 81
2.7750964164733887 1.5285600423812866 6.401638984680176 68 69 71
2.7750964164733887 1.5285600423812866 6.401638984680176 68 69 71
2.9145398139953613 1.6122146844863892 6.246842384338379 67 69 66
-43.05065155029297 -20.5728759765625 81.58934783935547 243 236 228
-27.21807289123535 -9.3082275390625 51.75182342529297 220 206 203
-23.380205154418945 -6.4810895919799805 44.58902359008789 144 129 124
-14.218527793884277 0.3851020932197571 26.968704223632812 196 181 174
-16.77839469909668 -1.6118648052215576 32.32015609741211 158 136 130
-18.33255958557129 -2.875093460083008 35.71949768066406 205 190 183
-34.49334716796875 -15.083502769470215 68.6182632446289 181 177 176
1.0635395050048828 -0.9222972989082336 3.613718271255493 138 121 119
-2.775322437286377 3.3964059352874756 10.08279800415039 178 179 174
-4.930770397186279 -2.9435243606567383 18.467220306396484 73 65 63
-0.809808611869812 4.042652606964111 5.801911354064941 145 147 146
-0.2802327275276184 4.012723922729492 4.770236492156982 186 194 192
-0.2590376138687134 4.041722774505615 4.998931884765625 138 143 139
-0.12983308732509613 4.054183483123779 4.894235610961914 205 214 211
-1.143978238105774 -0.9698804616928101 12.05954360961914 170 153 146
0.13193461298942566 -0.32826632261276245 10.01899528503418 94 93 88
0.7509692907333374 1.074686884880066 8.123479843139648 143 133 128
1.0486997365951538 -2.513054847717285 10.779059410095215 114 107 100
0.9460055828094482 2.1249358654022217 6.960171222686768 124 116 114
1.32110595703125 -1.2010306119918823 9.271553993225098 98 93 87
1.2569983005523682 2.154491662979126 6.574980735778809 140 135 131
1.7338042259216309 -1.4785935878753662 9.022838592529297 165 158 152
1.4515883922576904 2.535583734512329 6.029979705810547 183 178 176
1.649181842803955 1.887405276298523 6.505875587463379 183 179 168
1.5838557481765747 2.472561836242676 6.115052700042725 98 93 87
2.217801094055176 -2.2720468044281006 8.987640380859375 110 110 98
1.702160358428955 1.8592382669448853 6.533875465393066 103 98 95
1.702160358428955 1.8592382669448853 6.533875465393066 103 98 95
1.6325346231460571 2.479248046875 6.139218807220459 107 101 95
2.296187400817871 -1.1648530960083008 8.409303665161133 176 163 155
2.021575927734375 1.2156527042388916 7.042061805725098 204 216 210
2.069014549255371 1.189595103263855 7.0995378494262695 144 146 143
-15.179964065551758 0.45249247550964355 28.436931610107422 196 181 174
-14.78625774383545 -9.066413879394531 36.404197692871094 145 135 133
-4.632835865020752 -1.0418529510498047 16.331815719604492 84 73 72
-5.115063667297363 -3.729667901992798 19.347122192382812 71 62 60
-4.037164211273193 -0.4299834966659546 15.206620216369629 70 61 62
-3.8255629539489746 -0.3076244592666626 14.894679069519043 149 136 130
-0.1315937638282776 4.057114124298096 4.900479793548584 205 214 211
-0.04617110639810562 4.064273357391357 4.852501392364502 126 131 129
-1.5899966955184937 -0.15034611523151398 12.00071907043457 168 151 144
-0.3199198842048645 4.158851146697998 5.831264019012451 136 141 137
-1.150901198387146 -0.9632149934768677 12.081735610961914 170 153 146
-1.0881965160369873 -1.0290182828903198 12.059159278869629 102 85 78
-0.8056828379631042 -2.8396449089050293 13.235016822814941 97 85 84
-0.4497525691986084 -0.8350286483764648 11.237512588500977 190 183 173
-0.25150495767593384 -0.9424754977226257 10.991509437561035 180 167 159
-0.2532128691673279 -0.944907009601593 11.009237289428711 184 171 163
-0.25683900713920593 -4.298413276672363 13.799921035766602 100 91 86
-0.23707927763462067 -5.152589797973633 14.509919166564941 96 93 94
0.6804609298706055 -2.5605852603912354 11.205296516418457 97 93 91
0.7118088603019714 1.4500255584716797 7.802807807922363 192 189 182
0.78852778673172 0.3061557710170746 8.745254516601562 198 190 179
1.0425570011138916 -1.897391438484192 10.126800537109375 190 181 176
1.4486171007156372 0.3378804922103882 7.87184476852417 198 193 188
1.7525123357772827 -1.7898088693618774 9.177505493164062 214 207 201
1.8715877532958984 -2.8854174613952637 9.849916458129883 211 199 193
1.774068832397461 -1.715050220489502 9.117154121398926 112 108 105
1.774068832397461 -1.715050220489502 9.117154121398926 112 108 105
1.9587657451629639 -2.978750467300415 9.905233383178711 104 103 100
1.9587657451629639 -2.978750467300415 9.905233383178711 104 103 100
2.1203722953796387 -3.68003249168396 10.255160331726074 145 145 135
2.190060615539551 -2.527801752090454 9.115903854370117 210 203 195
1.6449025869369507 1.9029008150100708 6.533238887786865 177 173 163
1.6462407112121582 1.9054301977157593 6.540647983551025 183 179 168
2.1355183124542236 -1.7365243434906006 8.66564655303955 206 199 191
2.287050724029541 -2.7614195346832275 9.262638092041016 214 207 199
2.2619285583496094 -2.2180063724517822 8.97624397277832 202 202 194
1.797142505645752 2.227419376373291 6.441028118133545 131 128 123
2.3017327785491943 -1.1557650566101074 8.48139476776123 176 163 155
2.4144928455352783 -1.7087212800979614 8.818546295166016 175 160 153
1.907159447669983 1.8682650327682495 6.6667256355285645 177 183 178
2.0257174968719482 1.235442876815796 7.08083438873291 204 216 210
1.9383888244628906 1.8964452743530273 6.654530048370361 99 97 96
1.9383888244628906 1.8964452743530273 6.654530048370361 99 97 96
1.9947675466537476 1.5978764295578003 6.8786301612854 188 194 190
2.2333295345306396 -0.004738517105579376 7.798349857330322 194 193 188
2.1679270267486572 0.8242474794387817 7.4016828536987305 129 130 125
2.239103317260742 0.36104997992515564 7.654168128967285 195 196 194
1.990938663482666 2.0202436447143555 6.561283111572266 194 204 203
2.3789284229278564 -0.4795021712779999 8.122546195983887 213 224 220
2.3913841247558594 0.08123614639043808 7.763581275939941 215 227 223
