ply
format ascii 1.0
element vertex 681
property float x
property float y
property float z
property uchar red
property uchar green
property uchar blue
end_header
-1.9271284341812134 -0.22529616951942444 3.910823345184326 152 153 148
-1.9261443614959717 -0.5331891179084778 3.9197328090667725 69 64 60
-1.9261443614959717 -0.5331891179084778 3.9197328090667725 69 64 60
-1.9400370121002197 0.5333149433135986 3.9821605682373047 122 117 113
-1.901226282119751 -0.24572379887104034 3.9090917110443115 36 35 33
-1.901226282119751 -0.24572379887104034 3.9090917110443115 36 35 33
-1.9247300624847412 0.2825552821159363 3.961104393005371 48 40 41
-1.946645736694336 1.0850818157196045 4.02670431137085 123 123 121
-1.928902268409729 2.3647899627685547 4.094851493835449 25 24 33
-1.9159324169158936 2.133087396621704 4.073563098907471 130 131 125
-1.6585192680358887 0.5648764371871948 3.844330310821533 153 135 129
-1.6593164205551147 0.5474113821983337 3.8517580032348633 47 35 35
-1.6028075218200684 0.8272054195404053 3.942012310028076 171 155 144
-1.5710464715957642 1.0701971054077148 4.022567272186279 58 38 38
-1.521877408027649 -0.4628600478172302 3.9005444049835205 146 123 110
-1.5495407581329346 -0.11561394482851028 3.9812116622924805 167 141 126
-1.5939688682556152 2.5803418159484863 4.12859582901001 120 106 104
-1.5136948823928833 -0.24600805342197418 3.925614595413208 44 38 35
-1.4949982166290283 -0.5491697192192078 3.946948289871216 170 144 130
-1.4984935522079468 0.2957885265350342 4.01839017868042 155 133 121
-1.4872585535049438 0.2758313715457916 4.035738468170166 75 57 53
-1.5179212093353271 1.3501813411712646 4.136350154876709 179 169 162
-1.4965016841888428 0.7950548529624939 4.095142364501953 54 38 39
-1.4621223211288452 0.031239453703165054 4.02406644821167 176 151 131
-1.5021289587020874 1.0824248790740967 4.140560626983643 174 164 155
-1.4830677509307861 0.9382443428039551 4.095305919647217 93 79 74
-1.4783395528793335 0.8173555731773376 4.117670059204102 168 148 142
-1.5158876180648804 2.416050672531128 4.238705635070801 156 151 146
-1.4502118825912476 0.30007514357566833 4.06313419342041 169 142 131
-1.4280927181243896 -0.4998546540737152 4.031370162963867 150 132 123
-1.504023551940918 2.4013924598693848 4.251811504364014 33 30 36
-1.432952642440796 -0.25842779874801636 4.059164047241211 48 37 32
-1.4666004180908203 1.0837070941925049 4.155666351318359 177 163 152
-1.486915946006775 2.4746034145355225 4.236320495605469 64 62 62
-1.420058012008667 -0.5277506113052368 4.067955493927002 59 41 41
-1.420058012008667 -0.5277506113052368 4.067955493927002 59 41 41
-1.4441475868225098 0.8140992522239685 4.215039253234863 171 156 151
-1.423460841178894 0.5300914645195007 4.167400360107422 80 62 60
-1.4161468744277954 0.2472899705171585 4.149136066436768 61 46 43
-1.4501670598983765 1.884151816368103 4.328517436981201 156 145 142
-1.4256547689437866 1.8678536415100098 4.36263370513916 66 56 57
-1.3196707963943481 -0.40837743878364563 4.185750961303711 177 151 136
-1.3196707963943481 -0.40837743878364563 4.185750961303711 177 151 136
-1.3196707963943481 -0.40837743878364563 4.185750961303711 177 151 136
-1.264209270477295 -2.053847312927246 4.16477632522583 163 135 122
-1.2970153093338013 0.545415461063385 4.36336088180542 182 165 157
-1.2126103639602661 -2.1896071434020996 4.2892656326293945 139 119 110
-1.2672444581985474 0.813251793384552 4.4889349937438965 191 176 169
-1.2381583452224731 0.2934492826461792 4.426590442657471 123 97 86
-1.244932770729065 0.5379905700683594 4.456593036651611 187 170 160
-1.2619125843048096 1.3555001020431519 4.537282943725586 174 161 155
-1.2619125843048096 1.3555001020431519 4.537282943725586 174 161 155
-1.235993504524231 0.9152010083198547 4.4841179847717285 100 80 74
-1.226110816001892 0.26729080080986023 4.461167812347412 188 160 149
-1.229960322380066 0.7823290824890137 4.518167972564697 72 54 52
-1.2404224872589111 1.616841197013855 4.590444564819336 175 162 156
-1.2065788507461548 0.8054551482200623 4.4888529777526855 177 160 150
-1.2073559761047363 0.5375863313674927 4.511246204376221 186 167 157
-1.2132277488708496 1.4229673147201538 4.588783264160156 176 149 142
-1.1371232271194458 -2.1218416690826416 4.355953693389893 144 121 111
-1.1773539781570435 0.2408444583415985 4.536471366882324 81 67 64
-1.1795367002487183 0.534288227558136 4.575752258300781 188 173 164
-1.140454649925232 -0.03302934020757675 4.570207118988037 83 61 57
-1.1070427894592285 0.8049123287200928 4.700692653656006 199 185 174
-1.0893919467926025 0.5043749213218689 4.735896587371826 101 77 73
-1.05697500705719 1.3878880739212036 4.861260414123535 178 146 139
-1.054769515991211 1.0787169933319092 4.851562023162842 205 185 180
-1.0451509952545166 0.7973694801330566 4.822255611419678 200 182 172
-1.035664439201355 2.47209095954895 5.038841724395752 106 105 101
-0.9518740773200989 1.3235409259796143 5.020806312561035 48 29 27
-0.9038830399513245 1.6613487005233765 5.113631248474121 135 121 112
-0.8609050512313843 0.23902910947799683 5.045559883117676 181 159 146
-0.8279983401298523 1.607784628868103 5.281262397766113 47 35 35
-0.7907753586769104 1.8405705690383911 5.358510971069336 126 115 109
-0.7768456339836121 1.554286003112793 5.361147880554199 127 99 96
-0.7461556792259216 1.2340425252914429 5.4247331619262695 106 73 68
-0.7234951853752136 1.5296639204025269 5.488068103790283 115 85 80
-0.6388325691223145 1.28294837474823 5.545144557952881 135 119 116
-0.6078081727027893 1.8775298595428467 5.664668083190918 109 107 106
-0.543250322341919 1.1333457231521606 5.778637409210205 152 146 148
-0.44592365622520447 1.1245440244674683 5.854444980621338 98 88 86
-0.41506287455558777 1.092463731765747 6.038079738616943 141 133 131
-0.2824528217315674 1.8765283823013306 5.744054317474365 127 127 125
-0.24715293943881989 1.5129046440124512 5.751649856567383 88 84 83
-0.24715293943881989 1.5129046440124512 5.751649856567383 88 84 83
-0.20279568433761597 1.314925193786621 6.193397521972656 55 56 60
-0.17734473943710327 1.2525904178619385 6.185781955718994 48 49 53
-0.05798039957880974 1.4044305086135864 6.06113338470459 140 136 133
-0.02110985480248928 1.351370096206665 6.072294235229492 47 48 52
0.03663407266139984 1.8814349174499512 5.5238037109375 123 123 123
0.06284953653812408 1.1337350606918335 6.051294326782227 124 119 116
0.14809852838516235 1.4079623222351074 5.831284523010254 76 74 74
0.1609516590833664 3.362546682357788 5.475812911987305 97 97 95
0.18354420363903046 2.1980478763580322 5.400687217712402 112 108 105
0.2749544382095337 1.4249591827392578 5.749579429626465 67 68 72
0.29563331604003906 1.4184985160827637 5.612525463104248 153 149 146
0.32621797919273376 1.5134197473526 5.245885848999023 138 136 137
0.33753669261932373 2.0759713649749756 5.258589744567871 118 112 112
0.3643946349620819 2.265760898590088 5.245424747467041 124 115 116
0.3757880628108978 1.863284707069397 5.246486663818359 126 125 123
0.37956109642982483 1.8085825443267822 5.198955535888672 108 106 107
0.4158456027507782 2.1295812129974365 5.218591690063477 112 102 100
0.44988957047462463 1.8632581233978271 5.1843085289001465 124 124 122
0.4525477886199951 2.783294439315796 5.222015380859375 107 97 95
0.46867719292640686 3.038914442062378 5.225808143615723 97 96 96
0.467800498008728 2.4436564445495605 5.181390762329102 39 35 36
0.49705007672309875 3.6170294284820557 5.238688945770264 82 82 84
0.5174040198326111 3.045835256576538 5.205604553222656 107 102 101
0.5310291647911072 2.434157133102417 5.154038429260254 51 37 37
0.5331990122795105 2.411384344100952 5.140099048614502 108 91 92
0.5331990122795105 2.411384344100952 5.140099048614502 108 91 92
0.5399423241615295 2.135611057281494 5.124497890472412 57 45 49
0.547697126865387 1.806533932685852 5.051294326782227 46 42 40
0.5816790461540222 1.4033421277999878 5.019097328186035 137 138 133
0.5974441766738892 2.3653135299682617 5.06064510345459 136 130 130
0.6085410714149475 2.331164598464966 5.055207252502441 122 114 112
0.7021658420562744 1.1060124635696411 5.790404319763184 168 162 162
0.6610475182533264 1.8207147121429443 5.00695276260376 38 36 34
0.751504123210907 3.597323179244995 5.068146705627441 33 38 38
0.7487089037895203 1.8314025402069092 4.898976802825928 113 112 116
0.7666199207305908 1.54892897605896 4.84534215927124 94 94 96
0.801487922668457 1.4988771677017212 4.815652370452881 154 154 154
0.8233428001403809 1.7658944129943848 4.830472469329834 152 152 154
0.8233428001403809 1.7658944129943848 4.830472469329834 152 152 154
1.0998995304107666 1.342022180557251 5.025295734405518 52 57 60
1.100257396697998 1.3547171354293823 4.944807052612305 133 132 128
1.1110148429870605 1.3824882507324219 4.964191913604736 77 76 74
1.1191556453704834 1.3872796297073364 4.916074752807617 169 168 165
1.1647306680679321 1.119970440864563 4.940283298492432 115 114 114
1.2222447395324707 1.2861618995666504 4.882961750030518 53 56 59
1.2367494106292725 1.2627922296524048 4.871581077575684 140 140 142
1.2367494106292725 1.2627922296524048 4.871581077575684 140 140 142
1.2500916719436646 1.3619191646575928 4.901546478271484 140 140 142
1.2455202341079712 1.2380741834640503 4.846311569213867 72 71 76
1.31884765625 1.3218467235565186 4.7908759117126465 68 69 74
1.3649040460586548 0.8639072775840759 4.627981662750244 48 48 50
1.6164932250976562 1.2088050842285156 4.912510395050049 81 81 81
1.6552201509475708 1.098879337310791 4.944845676422119 150 139 138
1.8005942106246948 1.0697479248046875 4.815398216247559 94 80 78
1.8092913627624512 0.8477725386619568 4.674107551574707 117 113 111
2.50700044631958 0.7637930512428284 6.141403675079346 143 125 123
2.52964186668396 -0.40704333782196045 6.177778244018555 191 171 164
2.508479118347168 -0.31183499097824097 6.091317653656006 182 162 155
2.6211862564086914 1.0245658159255981 6.340063571929932 83 79 78
2.0684311389923096 -1.2128995656967163 4.956880569458008 31 30 36
2.601914882659912 0.12278877198696136 6.229761600494385 167 145 134
2.570916175842285 -0.45367294549942017 6.134305477142334 116 103 100
2.6263747215270996 -0.21476764976978302 6.24849271774292 211 195 192
2.641402244567871 -0.38543951511383057 6.220434665679932 63 55 55
2.644011974334717 0.6855990290641785 6.175289154052734 141 133 127
2.644011974334717 0.6855990290641785 6.175289154052734 141 133 127
2.69130277633667 -0.3809475600719452 6.177770614624023 49 45 46
2.675765037536621 -0.45896807312965393 6.132086753845215 44 39 42
2.684830904006958 -0.4135194420814514 6.066064357757568 94 90 89
2.744990348815918 -0.4556589722633362 6.10596227645874 58 52 52
2.7489709854125977 -0.36574694514274597 6.094135761260986 56 50 50
2.9248247146606445 -0.07046698778867722 6.402658462524414 74 68 68
2.8745851516723633 -0.21123403310775757 6.192262172698975 253 253 245
2.8745851516723633 -0.21123403310775757 6.192262172698975 253 253 245
2.8043789863586426 -0.36675360798835754 6.03159761428833 68 56 56
2.8565220832824707 0.033574674278497696 6.072771072387695 66 60 60
2.8565220832824707 0.033574674278497696 6.072771072387695 66 60 60
2.8476834297180176 -0.3626364767551422 6.029872417449951 61 55 55
2.858372688293457 -0.4677445888519287 6.008849620819092 243 220 208
2.884450674057007 -0.4331353008747101 6.04299259185791 50 41 40
2.9054317474365234 0.449851930141449 6.066112518310547 81 71 72
2.9184272289276123 -0.4572058916091919 5.9826788902282715 41 36 36
2.857299566268921 -0.597295880317688 5.8219780921936035 48 39 40
2.8879332542419434 1.101588487625122 5.8700480461120605 74 66 71
2.8879332542419434 1.101588487625122 5.8700480461120605 74 66 71
2.9031646251678467 1.0543134212493896 5.867646217346191 191 181 179
2.9698688983917236 -0.3421691358089447 5.947275638580322 48 44 44
2.721674680709839 -0.14374808967113495 5.441193580627441 255 232 217
2.677259922027588 -0.09128731489181519 5.300832748413086 253 253 253
2.970417022705078 -0.7501639723777771 5.870419025421143 56 48 46
2.4485363960266113 -0.9793663024902344 4.78922176361084 40 40 42
-1.5111855268478394 -0.44565925002098083 3.887651205062866 169 153 148
-1.5111855268478394 -0.44565925002098083 3.887651205062866 169 153 148
-1.5434950590133667 0.3015575408935547 3.930394411087036 139 116 102
-1.4071661233901978 -1.5571151971817017 3.917048215866089 130 101 91
-1.4917913675308228 0.2783527672290802 4.048182964324951 65 54 50
-1.5407180786132812 2.13621187210083 4.170632362365723 44 32 32
-1.510754108428955 1.3455748558044434 4.156249523162842 87 77 75
-1.5189855098724365 1.8877607583999634 4.185037136077881 140 127 120
-1.486250400543213 1.3579849004745483 4.158778667449951 171 151 150
-1.4562804698944092 0.7864325642585754 4.138869762420654 152 132 125
-1.492729663848877 1.8987209796905518 4.188579082489014 63 58 55
-1.459513783454895 1.0642566680908203 4.155734062194824 58 40 34
-1.4814555644989014 1.883246898651123 4.206233024597168 159 147 139
-1.3889110088348389 0.01900692842900753 4.133437633514404 157 138 129
-1.4660589694976807 2.407006025314331 4.251287460327148 135 125 119
-1.4406315088272095 1.0726004838943481 4.229717254638672 48 37 35
-1.419122576713562 1.074977993965149 4.242001056671143 84 74 72
-1.302790880203247 -1.2831170558929443 4.1245012283325195 148 122 109
-1.4151772260665894 2.1455578804016113 4.336729049682617 153 139 132
-1.4164191484451294 2.410632610321045 4.349259853363037 136 127 117
-1.4073115587234497 2.4477217197418213 4.356574058532715 130 116 113
-1.3400880098342896 0.5227972269058228 4.320965766906738 66 49 48
-1.2828569412231445 -0.3104698061943054 4.274890899658203 158 127 107
-1.3738080263137817 2.4294328689575195 4.436212539672852 119 117 96
-1.3751869201660156 2.43143367767334 4.440291404724121 125 121 100
-1.2630707025527954 -0.8105877637863159 4.25554084777832 141 121 110
-0.9287481904029846 0.6694039106369019 4.021360397338867 73 53 47
-1.306477665901184 2.978532552719116 4.563112735748291 85 81 73
-1.2391401529312134 0.8172416090965271 4.484721660614014 30 19 17
-1.228327751159668 1.0418267250061035 4.491653919219971 94 83 77
-1.2852455377578735 2.9861562252044678 4.609760761260986 86 84 71
-1.2664254903793335 3.2591495513916016 4.653238773345947 80 79 75
-1.248661994934082 1.9079904556274414 4.624913215637207 165 154 145
-1.2495924234390259 1.9086374044418335 4.627666473388672 167 157 148
-1.0883244276046753 0.7556666731834412 4.419802188873291 104 89 86
-1.2233890295028687 1.9158082008361816 4.629636287689209 102 87 80
-1.220916509628296 1.9008468389511108 4.646118640899658 159 151 146
-1.181229591369629 0.805040180683136 4.58680534362793 189 173 166
-1.1434828042984009 -0.5829790830612183 4.504305362701416 55 40 35
-1.151648759841919 0.803656816482544 4.639941692352295 185 170 162
-1.1178141832351685 0.23146842420101166 4.641443729400635 91 72 66
-1.0761079788208008 -0.29377830028533936 4.622725009918213 146 126 113
-1.1412705183029175 1.669954538345337 4.78429651260376 144 123 118
-1.0291649103164673 -0.8720071315765381 4.65742301940918 146 129 119
-1.020531415939331 0.20832733809947968 4.773224353790283 63 50 47
-1.030448317527771 0.24530476331710815 4.80845308303833 178 151 141
-1.0869635343551636 0.911475658416748 4.933024883270264 171 133 124
-1.0303539037704468 1.0820140838623047 4.867305278778076 83 63 57
-2.2104222774505615 4.9370551109313965 6.713369369506836 19 17 17
-1.0622740983963013 3.30879545211792 5.029880046844482 19 17 17
-0.9752101302146912 0.49226030707359314 4.960892677307129 111 85 73
-0.9250932931900024 0.7840942740440369 5.044261455535889 217 205 199
-0.8850768804550171 -0.6626417636871338 4.940403461456299 149 123 110
-0.9103741645812988 0.7683932781219482 5.055671215057373 142 112 107
-0.9100008606910706 1.4546242952346802 5.138269901275635 98 81 74
-0.9228436350822449 2.2012908458709717 5.205716609954834 21 14 10
-0.8761268854141235 0.9713389277458191 5.150408744812012 217 180 161
-0.8062859773635864 0.23361897468566895 5.130250453948975 181 155 142
-0.7935709953308105 3.5221455097198486 5.476202964782715 48 44 45
-0.7935709953308105 3.5221455097198486 5.476202964782715 48 44 45
-0.7751997113227844 1.364642858505249 5.3419599533081055 94 60 51
-0.7771275043487549 2.1796000003814697 5.418241024017334 108 104 101
-0.7304409742355347 0.9816642999649048 5.335424423217773 114 87 81
-0.6573963761329651 -0.08936015516519547 5.4216437339782715 165 139 122
-0.6391791701316833 1.591562032699585 5.612367153167725 102 82 74
-0.6023732423782349 0.18993356823921204 5.5254058837890625 159 136 120
-0.5731028914451599 -0.16834013164043427 5.525685787200928 158 131 120
-0.5114956498146057 1.3439335823059082 5.805787086486816 24 14 13
-0.5114956498146057 1.3439335823059082 5.805787086486816 24 14 13
-0.5190758109092712 1.1188329458236694 5.8286848068237305 108 96 96
-0.5016946196556091 1.1403058767318726 5.838219165802002 144 139 139
-0.49938181042671204 1.9285634756088257 5.897754192352295 82 74 71
-0.4954945743083954 1.1939376592636108 5.847586631774902 135 129 129
-0.4861316680908203 0.23953117430210114 5.760876655578613 163 135 114
-0.4450698792934418 0.6865087151527405 5.882667541503906 144 119 115
-0.4450698792934418 0.6865087151527405 5.882667541503906 144 119 115
-0.444547176361084 1.0735093355178833 5.944915294647217 149 136 131
-0.3461742103099823 1.9587986469268799 5.838784694671631 116 113 111
-0.4345334470272064 0.7776094675064087 5.97784948348999 149 136 132
-0.3993222117424011 1.2974390983581543 6.039393424987793 46 30 30
-0.36189690232276917 -0.16791918873786926 5.9369893074035645 42 34 32
-0.1523573100566864 2.536381959915161 5.69818115234375 111 101 99
-0.3261190950870514 0.7520094513893127 6.171046257019043 29 25 24
-0.3072599172592163 0.4384460151195526 6.185990810394287 32 27 26
-0.29072561860084534 -0.18076276779174805 6.106361389160156 32 31 27
-0.19599613547325134 1.2778631448745728 6.201592922210693 123 122 118
0.3138399124145508 2.1333370208740234 5.298243045806885 133 128 125
0.2105063796043396 1.3592356443405151 5.838409423828125 105 104 102
0.22109545767307281 1.3780325651168823 5.841468811035156 58 57 55
0.48756885528564453 1.8596299886703491 5.138211727142334 122 116 110
0.19372963905334473 0.1685580164194107 6.247257232666016 174 159 155
0.5635378956794739 1.8337668180465698 5.073806285858154 139 135 135
0.30723968148231506 1.0484980344772339 6.228445529937744 207 205 206
0.6047930717468262 1.8279622793197632 5.049524307250977 56 55 51
0.6409727334976196 2.2761919498443604 5.025644779205322 108 90 86
0.6146222949028015 1.037119746208191 5.731203079223633 127 122 118
0.8022902607917786 2.133795738220215 4.882594108581543 123 113 101
0.793052077293396 1.4496867656707764 4.8099141120910645 165 165 165
0.8478379249572754 1.7891582250595093 4.813224792480469 63 63 61
0.7188791632652283 -2.409471035003662 4.954019069671631 87 91 67
0.8221369981765747 1.0439037084579468 5.797689914703369 208 206 211
1.03958261013031 2.327465295791626 4.6721696853637695 116 104 102
1.181009292602539 1.3519457578659058 4.908790111541748 131 131 129
1.1905747652053833 1.2895230054855347 4.868439674377441 67 67 69
1.2854878902435303 1.323053240776062 4.776081085205078 141 141 141
1.3166959285736084 -0.3137354254722595 4.577206134796143 121 121 121
1.4226810932159424 1.2203558683395386 4.573014736175537 130 126 125
1.5585612058639526 1.154482364654541 4.860652923583984 57 53 51
1.5313799381256104 1.2582614421844482 4.438530921936035 128 127 125
1.6203100681304932 1.1580145359039307 4.865631103515625 253 253 253
1.6179906129837036 1.1912517547607422 4.780113220214844 106 105 110
1.6300779581069946 1.0224452018737793 4.889246463775635 70 61 60
1.5864089727401733 -0.6911429762840271 4.713278770446777 253 252 248
2.2932932376861572 0.9940311908721924 5.695298194885254 61 50 50
-1.5444012880325317 -0.055734872817993164 3.8839306831359863 161 148 136
-1.516083836555481 -0.07783318310976028 3.92394757270813 188 180 177
-1.4738647937774658 -0.5457074642181396 3.9235522747039795 153 130 116
-1.4976122379302979 -0.017967533320188522 4.003429889678955 161 136 119
-1.496436595916748 -0.24880340695381165 4.004627227783203 61 53 50
-1.496436595916748 -0.24880340695381165 4.004627227783203 61 53 50
-1.459791660308838 -0.502328097820282 3.973906993865967 148 139 124
-1.5085073709487915 0.8252312541007996 4.090261936187744 164 154 144
-1.5177756547927856 1.9040899276733398 4.136857509613037 136 122 113
-1.475512981414795 0.8020146489143372 4.134357452392578 53 41 41
-1.4547417163848877 1.0616874694824219 4.151170253753662 58 40 34
-1.3849464654922485 -0.5037388205528259 4.0688347816467285 150 133 123
-1.4752163887023926 2.1251885890960693 4.199427127838135 144 135 131
-1.4894810914993286 2.40276837348938 4.237252235412598 26 22 21
-1.453349232673645 1.2556052207946777 4.201853275299072 168 131 122
-1.4423227310180664 1.1200975179672241 4.190306663513184 173 141 128
-1.5088636875152588 2.9449663162231445 4.280731201171875 23 22 20
-1.391933798789978 0.021734612062573433 4.136107921600342 157 138 129
-1.4142391681671143 0.7646058797836304 4.195878505706787 152 125 118
-1.4309923648834229 1.794098138809204 4.2794365882873535 30 26 23
-1.287907600402832 -1.272783637046814 4.108948230743408 148 122 109
-1.3925541639328003 1.0835304260253906 4.262094497680664 178 161 151
-1.4133296012878418 1.8217672109603882 4.312865734100342 140 123 115
-1.44051992893219 2.6738059520721436 4.353030204772949 27 24 20
-1.4102516174316406 2.401609182357788 4.341578006744385 136 127 117
-1.3646190166473389 0.5474215745925903 4.268041610717773 169 155 144
-1.3663851022720337 0.5247927308082581 4.277224063873291 75 56 49
-1.395448088645935 2.3389861583709717 4.349426746368408 117 95 92
-1.286210298538208 -0.5715098977088928 4.222188472747803 147 119 108
-1.3438619375228882 0.548037052154541 4.314693450927734 174 154 145
-1.3284701108932495 0.7890852093696594 4.328351974487305 67 52 49
-1.3644702434539795 2.4201605319976807 4.425736427307129 119 117 96
-1.229328989982605 -0.8389169573783875 4.32475471496582 66 52 43
-1.2540006637573242 0.49718743562698364 4.442806720733643 51 40 38
-1.1844522953033447 -0.2592413127422333 4.362075328826904 145 127 115
-1.2122342586517334 -0.03240836039185524 4.412123680114746 61 41 37
-1.270371675491333 1.9358618259429932 4.5638933181762695 140 121 117
-1.1648808717727661 -1.10927152633667 4.373844623565674 41 30 30
-1.1983599662780762 0.2357177436351776 4.458637714385986 48 34 25
-1.2123585939407349 1.0088245868682861 4.5346574783325195 167 139 132
-1.1787745952606201 -0.5836045145988464 4.467316627502441 61 46 39
-1.1787745952606201 -0.5836045145988464 4.467316627502441 61 46 39
-1.2209161520004272 1.3460569381713867 4.5779805183410645 178 161 153
-1.2209161520004272 1.3460569381713867 4.5779805183410645 178 161 153
-1.2481485605239868 1.9080488681793213 4.624271392822266 165 154 145
-1.2630112171173096 2.4434542655944824 4.674021244049072 22 19 18
-1.1392022371292114 -0.31390246748924255 4.53682279586792 62 47 41
-1.1508229970932007 0.5308184623718262 4.620690822601318 183 169 158
-1.1085786819458008 0.22839967906475067 4.629721164703369 91 72 66
-1.0640499591827393 -0.29467102885246277 4.607412815093994 146 126 113
-11.68668270111084 -10.019054412841797 18.12616729736328 64 46 42
-0.9739635586738586 -1.4053456783294678 4.5599541664123535 84 63 57
-1.0377763509750366 -0.3422077000141144 4.69520902633667 67 52 46
-0.9974154829978943 -0.5882828235626221 4.673099517822266 146 126 116
-0.9447704553604126 -1.6323432922363281 4.55624532699585 158 127 107
-1.0440174341201782 -0.05463726446032524 4.77023983001709 90 71 64
-0.992388129234314 -0.3616020381450653 4.688075065612793 144 120 110
-1.0583451986312866 1.0835559368133545 4.861217021942139 196 178 166
-1.046190857887268 0.49711185693740845 4.8374199867248535 91 73 69
-1.0173624753952026 0.2400997281074524 4.790226936340332 178 151 141
-1.0716133117675781 1.627300500869751 4.934839725494385 34 30 27
-0.9812417030334473 -0.024515347555279732 4.769551753997803 153 123 112
-1.0614761114120483 3.3118042945861816 5.0300774574279785 19 17 17
-1.0049657821655273 0.793040931224823 4.89715576171875 202 184 172
-0.9512426257133484 -0.5990480184555054 4.770899772644043 151 129 117
-0.8793226480484009 -0.6452541351318359 4.923026084899902 64 44 33
-0.9053068161010742 0.484553724527359 5.099038124084473 107 84 75
-0.8659342527389526 0.44726672768592834 5.081572532653809 182 152 141
-0.811367392539978 -0.3725651502609253 4.974034309387207 97 73 62
-0.811367392539978 -0.3725651502609253 4.974034309387207 97 73 62
-0.8965293169021606 1.7155097723007202 5.214358806610107 129 112 96
-0.8758567571640015 0.9664615392684937 5.149065017700195 217 180 161
-0.8712555766105652 0.4793742895126343 5.118122100830078 117 94 83
-0.8774461150169373 0.5081346035003662 5.141769886016846 189 166 150
-0.8797056078910828 1.0525364875793457 5.186924457550049 126 93 90
-2.7657647132873535 4.1330413818359375 8.432795524597168 68 59 54
-0.7861186265945435 -0.34013858437538147 5.0626397132873535 162 133 115
-0.8017095327377319 0.2300647646188736 5.122390270233154 181 155 142
-0.8037967681884766 -0.0714702159166336 5.111274719238281 166 143 129
-0.8198959827423096 0.8175100684165955 5.190164566040039 197 171 160
-0.8545176386833191 1.9413541555404663 5.342813014984131 36 27 26
-0.7479297518730164 0.4683401882648468 5.247170448303223 64 43 40
-0.644864559173584 -0.09597291052341461 5.3971381187438965 165 139 122
-0.6553932428359985 0.13467247784137726 5.491633415222168 154 132 121
-0.658391535282135 3.455296277999878 5.786306858062744 16 15 13
-0.6075103282928467 0.1817692220211029 5.536184787750244 159 136 120
-0.63348388671875 2.2654483318328857 5.7591142654418945 29 21 19
-0.5652869939804077 -0.17593920230865479 5.509671211242676 158 131 120
-0.5538902878761292 0.10383705049753189 5.607043266296387 166 134 121
-0.5372946262359619 1.6716135740280151 5.826376438140869 80 72 69
-0.5238703489303589 1.1579949855804443 5.784458637237549 107 87 86
-0.48473092913627625 -0.7368904948234558 5.5965776443481445 103 77 60
-0.4861660897731781 1.1822726726531982 5.823225975036621 135 129 129
-0.48218780755996704 0.2342427372932434 5.75113582611084 163 135 114
-0.4567020535469055 -0.16313323378562927 5.713783264160156 90 64 59
-0.46029502153396606 1.9172488451004028 5.91935396194458 114 113 109
-0.46487611532211304 1.0701745748519897 5.877044677734375 147 135 129
-0.45523083209991455 1.1279926300048828 5.893787860870361 92 82 80
-0.44128090143203735 0.6798333525657654 5.872147083282471 144 119 115
-0.38073086738586426 2.3786892890930176 5.872453689575195 133 129 130
-0.43621236085891724 -0.16663111746311188 5.799924373626709 83 58 51
-0.3296518623828888 2.4003782272338867 5.826731204986572 137 133 132
-0.345743328332901 1.9622375965118408 5.83951473236084 116 113 111
-0.2634902596473694 2.2460556030273438 5.775270938873291 143 139 138
-0.35612455010414124 -0.46758797764778137 5.828063011169434 58 45 37
-0.3529700040817261 -0.17649081349372864 5.9138383865356445 42 34 32
-0.32592976093292236 -0.7615995407104492 5.966069221496582 116 101 92
-0.31861069798469543 0.7737501859664917 6.147651672363281 116 101 94
-0.04028614982962608 1.9004547595977783 5.551790237426758 128 127 125
0.053634729236364365 1.737493872642517 5.446820259094238 86 85 83
-0.20564116537570953 1.366418719291687 6.2379374504089355 109 105 102
-0.09608624875545502 1.270986795425415 6.089961051940918 111 111 111
0.03543730452656746 -1.0028975009918213 5.728847980499268 158 141 131
0.3284952938556671 1.5153656005859375 5.237467288970947 140 139 137
0.366385281085968 2.271388053894043 5.248608589172363 126 116 114
0.3618181347846985 1.8799351453781128 5.245820999145508 128 124 123
0.1620679795742035 1.2477699518203735 6.307267665863037 52 48 46
0.6362042427062988 1.4826372861862183 4.9387736320495605 132 132 132
0.6739370822906494 1.3915308713912964 4.926014423370361 162 162 160
0.5188443660736084 0.9974669814109802 5.689781665802002 131 122 115
0.7134157419204712 1.8365451097488403 4.941476821899414 125 125 123
0.7993521690368652 2.7080190181732178 4.9601616859436035 33 32 29
0.5824493765830994 1.0728250741958618 5.929396152496338 127 122 118
0.8011651635169983 2.1322438716888428 4.883723258972168 123 113 101
0.8059908151626587 1.6769530773162842 4.817502021789551 154 154 152
0.8059908151626587 1.6769530773162842 4.817502021789551 154 154 152
0.8392394185066223 2.4298384189605713 4.852043151855469 109 89 79
0.8416377305984497 1.80880868434906 4.827395915985107 140 139 137
0.8517946600914001 1.775337815284729 4.786362171173096 63 63 61
0.8735658526420593 1.4693896770477295 4.72603178024292 158 158 158
0.5815424919128418 1.309806227684021 6.892111778259277 121 110 106
0.7264587879180908 -2.3711414337158203 4.902106761932373 87 91 67
0.7804772257804871 -1.650179386138916 5.257274150848389 231 215 207
0.9582073092460632 1.1155450344085693 5.130385398864746 126 125 123
1.1043635606765747 2.6585729122161865 4.669408321380615 125 124 119
1.018843173980713 1.1253141164779663 5.105759143829346 126 119 113
1.0839407444000244 1.3605395555496216 4.930840969085693 86 85 81
1.138997197151184 1.8223247528076172 4.530330181121826 116 111 108
1.166673183441162 2.32230281829834 4.575594425201416 102 95 92
1.2437410354614258 2.310455560684204 4.495460510253906 110 105 101
1.1571608781814575 0.9694153070449829 5.075004577636719 167 167 167
1.2604475021362305 1.2143113613128662 4.769752502441406 137 136 136
1.2063639163970947 -0.6615431308746338 4.6648359298706055 125 123 124
1.304340124130249 1.4049948453903198 4.287563800811768 138 138 138
1.2459222078323364 -0.5319349765777588 4.6084184646606445 64 68 71
1.3494349718093872 1.366366982460022 4.218870162963867 130 130 130
1.3942933082580566 1.7570223808288574 4.292084693908691 104 104 102
1.31599760055542 -0.30654603242874146 4.573293209075928 121 121 121
1.434881567955017 1.2448409795761108 4.512292861938477 101 101 99
1.3657296895980835 -0.43738994002342224 4.503602027893066 131 125 127
1.456091284751892 1.0791518688201904 4.67289400100708 124 101 93
1.4368990659713745 -0.5507752895355225 4.552241802215576 253 253 253
1.5345048904418945 1.1991853713989258 4.69189453125 104 103 101
1.5429227352142334 1.0636239051818848 4.813448429107666 70 65 62
1.5515824556350708 1.1302212476730347 4.797664165496826 57 53 51
1.5658788681030273 1.1249793767929077 4.808351039886475 171 171 171
1.4707533121109009 -0.8537449240684509 4.458222389221191 30 30 32
1.614829421043396 1.1415176391601562 4.820941925048828 253 253 253
1.5753892660140991 1.2311797142028809 4.336337089538574 123 123 121
1.613497257232666 1.1630635261535645 4.732772350311279 111 110 115
1.640172004699707 1.1003309488296509 4.800139904022217 130 120 118
1.543219804763794 -0.6458073258399963 4.6541900634765625 135 117 115
1.5449312925338745 -0.6955841779708862 4.67145299911499 85 84 82
1.6351845264434814 -0.6177086234092712 4.686497688293457 184 156 148
1.7170735597610474 0.977997899055481 4.660285949707031 176 172 169
1.7218506336212158 1.1461141109466553 4.571893692016602 120 120 122
1.8109997510910034 1.057525873184204 4.503139495849609 108 92 89
1.7802637815475464 -1.5589511394500732 4.0265350341796875 67 65 68
2.21285343170166 0.9576871991157532 5.165954113006592 82 74 71
-1.3710047006607056 2.66626238822937 4.492593765258789 36 28 25
-1.306302785873413 3.2534139156341553 4.645847797393799 76 76 68
-1.1026880741119385 -0.8742480874061584 4.541167736053467 59 48 42
-1.0833733081817627 -0.5587060451507568 4.582976818084717 131 112 98
-1.235836148262024 2.9844791889190674 4.757824897766113 27 18 16
-1.163099765777588 2.14326810836792 4.736039638519287 30 21 19
-0.918717086315155 2.476700782775879 5.177047252655029 87 86 66
-0.5663949847221375 2.229283571243286 5.746644973754883 24 20 17
-0.5663949847221375 2.229283571243286 5.746644973754883 24 20 17
-1.2756972312927246 -0.27145275473594666 4.343884468078613 131 119 105
-1.1446431875228882 -1.130802035331726 4.381095886230469 117 97 86
-1.18924081325531 -0.5514639616012573 4.422456741333008 136 118 108
-1.2611151933670044 0.7935070991516113 4.513505935668945 104 86 82
-1.2908340692520142 1.6361163854599 4.528506278991699 167 140 129
-1.1014848947525024 -0.8778488636016846 4.540661334991455 59 48 42
-1.0732474327087402 -0.02746579982340336 4.654454231262207 158 130 119
-1.0825804471969604 0.25619569420814514 4.673769950866699 166 146 135
-0.9726096987724304 -0.6003293395042419 4.733850479125977 142 118 105
-1.0045794248580933 1.3456878662109375 4.921302795410156 197 175 164
-0.9653877019882202 0.5082929730415344 4.907737731933594 182 156 147
-2.7955236434936523 5.276455402374268 6.719992637634277 20 20 18
-1.0354094505310059 1.9670227766036987 5.151460647583008 101 93 90
-0.9129356145858765 0.7839983701705933 5.028688907623291 208 194 191
-0.790043294429779 2.131216049194336 5.366566181182861 90 86 83
-0.7233458757400513 0.751468300819397 5.294244766235352 60 43 36
-0.7178531289100647 0.7733379006385803 5.319185733795166 133 118 108
-0.7334778904914856 1.600777268409729 5.358603477478027 57 35 33
-0.7321680784225464 2.173427104949951 5.390527725219727 39 29 27
-0.7200774550437927 1.3606910705566406 5.431991100311279 146 121 117
-0.6377897262573242 1.2894645929336548 5.544426441192627 129 111 99
-0.4122767448425293 0.7435530424118042 5.900615692138672 55 35 34
-0.3631473183631897 0.7766737341880798 6.073089599609375 105 101 100
-0.3599283993244171 1.0873641967773438 6.163778305053711 125 109 109
0.2048177570104599 0.014151095412671566 6.150063514709473 195 173 160
0.19778141379356384 0.01660654880106449 6.231429576873779 197 175 166
-1.2564071416854858 -1.1434190273284912 4.321235179901123 115 99 86
-1.2142672538757324 -1.6606143712997437 4.306728363037109 58 37 36
-1.2084527015686035 -1.6338485479354858 4.304961681365967 134 111 103
-1.2525687217712402 -1.1236129999160767 4.332194805145264 64 55 50
-1.2655307054519653 -0.6053265929222107 4.35772180557251 135 115 104
-1.267913818359375 -0.628943145275116 4.376262187957764 124 105 97
-1.3398081064224243 0.5569797158241272 4.408281326293945 171 153 141
-1.2231448888778687 -1.1507134437561035 4.360179424285889 69 56 47
-1.2904586791992188 -0.02144983410835266 4.415894508361816 63 44 37
-1.3413441181182861 1.0781986713409424 4.434968948364258 87 64 57
-1.254899263381958 -0.61580890417099 4.406081199645996 142 124 110
-1.3060832023620605 0.2493603229522705 4.435903549194336 92 73 63
-1.2927156686782837 0.27283185720443726 4.443844795227051 179 153 140
-1.1763471364974976 -1.1600960493087769 4.408137798309326 117 97 86
-1.2797808647155762 0.24846351146697998 4.468780040740967 97 76 71
-1.2570329904556274 -0.3118460476398468 4.465357303619385 43 34 30
-1.269110918045044 0.5436944365501404 4.4862823486328125 170 150 139
-1.281528115272522 0.5229491591453552 4.496550559997559 168 148 141
-1.2733451128005981 0.5436375141143799 4.491189956665039 172 152 141
-1.3960448503494263 2.4826385974884033 4.5566229820251465 99 90 83
-1.2564663887023926 0.26856061816215515 4.486171245574951 175 147 136
-1.3174152374267578 1.3647528886795044 4.515565395355225 166 149 142
-1.2406357526779175 0.839902400970459 4.524897575378418 163 144 137
-1.2205218076705933 0.5411849617958069 4.527283668518066 175 151 141
-1.2678073644638062 1.6108707189559937 4.567393779754639 97 82 81
-1.0416988134384155 -1.9563970565795898 4.444432735443115 52 36 26
-1.2357383966445923 0.8188335299491882 4.5668535232543945 179 162 152
-1.1985350847244263 0.23691996932029724 4.565029621124268 65 50 43
-1.0250300168991089 -1.9692535400390625 4.47422456741333 55 38 28
-1.18936026096344 0.5360783934593201 4.584690093994141 180 160 149
-1.2147475481033325 1.067834496498108 4.605348110198975 82 62 61
-1.1386998891830444 -0.9066265821456909 4.5739641189575195 59 48 42
-1.246501088142395 2.000736951828003 4.639205455780029 137 124 118
-1.1765708923339844 0.23526881635189056 4.609224796295166 57 35 35
-1.2442737817764282 1.9630070924758911 4.652597904205322 81 67 66
-1.0425361394882202 -1.65513277053833 4.528416633605957 137 114 106
-1.2267662286758423 1.3432492017745972 4.651405334472656 106 81 74
-1.2485631704330444 2.144348621368408 4.6629509925842285 24 23 20
-1.2485631704330444 2.144348621368408 4.6629509925842285 24 23 20
-1.2272288799285889 2.0169780254364014 4.647004127502441 65 57 55
-1.2749788761138916 3.0273849964141846 4.704771995544434 80 73 67
-1.1500898599624634 0.7847166061401367 4.671042442321777 92 72 65
-0.9715351462364197 -1.9869951009750366 4.541969299316406 62 43 37
-0.9715351462364197 -1.9869951009750366 4.541969299316406 62 43 37
-1.0038886070251465 -1.4749622344970703 4.5858845710754395 140 126 116
-1.0598406791687012 -0.953631579875946 4.650664329528809 129 108 94
-0.9417585730552673 -1.989397644996643 4.567782402038574 71 51 44
-1.1088398694992065 0.8084251284599304 4.7024245262146 185 168 161
-1.0479824542999268 -0.9735146164894104 4.67249870300293 46 37 32
-1.1178526878356934 0.7833205461502075 4.723501205444336 86 66 66
-0.938078761100769 -1.7109547853469849 4.601747512817383 73 49 42
-1.0340285301208496 -0.5007206201553345 4.691956520080566 96 78 66
-1.0340285301208496 -0.5007206201553345 4.691956520080566 96 78 66
-1.0265005826950073 -0.034059055149555206 4.7248406410217285 151 127 115
-1.1102604866027832 1.6288081407546997 4.788694858551025 163 140 128
-1.2224371433258057 3.350883960723877 4.883502960205078 78 74 68
-1.0512022972106934 0.5184245109558105 4.76186990737915 187 165 154
-1.028646469116211 -0.06133841350674629 4.749979496002197 88 71 64
-0.9434800148010254 -1.472158670425415 4.692404270172119 95 72 65
-0.8907202482223511 -2.0079753398895264 4.648630619049072 54 31 26
-1.079290747642517 1.3479101657867432 4.810735702514648 187 167 158
-1.0033210515975952 0.18483328819274902 4.769507884979248 150 123 113
-1.0554736852645874 1.588873028755188 4.869690418243408 122 99 88
-1.0293562412261963 1.316861867904663 4.878067493438721 78 59 53
-0.9620111584663391 -0.08099419623613358 4.82503604888916 92 73 67
-1.0269157886505127 1.3370904922485352 4.883541107177734 195 173 162
-0.8854056596755981 -1.4867414236068726 4.77669095993042 84 65 58
-1.011324167251587 2.4623665809631348 5.006216526031494 94 86 75
-0.9223529696464539 1.3055297136306763 4.918869495391846 135 103 92
-0.9360595941543579 0.7861074209213257 4.955202579498291 193 171 160
-0.8469176888465881 -1.2311874628067017 4.866332530975342 81 65 58
-0.9339942932128906 0.7684580683708191 4.968894958496094 116 83 74
-0.9530855417251587 2.465425968170166 5.065255641937256 92 83 76
-0.8268941044807434 -0.6995171904563904 4.952223777770996 154 132 119
-0.9060577154159546 1.0926470756530762 5.047571659088135 238 203 184
-0.844329833984375 -0.146998792886734 5.023509979248047 144 124 110
-0.8253185153007507 -0.6684530377388 5.015501499176025 150 121 107
-0.8900005221366882 1.6632089614868164 5.101198673248291 127 110 94
-0.8231634497642517 -0.1067335307598114 5.040323257446289 57 43 40
-0.8224945068359375 -0.12576760351657867 5.062716007232666 155 139 124
-0.8923832774162292 2.4657201766967773 5.150588035583496 86 85 66
-0.8524290919303894 1.6949310302734375 5.145012378692627 123 105 91
-0.8215010762214661 0.4715457558631897 5.124762058258057 108 78 67
-0.7864020466804504 -0.3989540934562683 5.085687637329102 91 65 48
-0.8177875280380249 1.8885488510131836 5.1372389793396 110 93 82
-0.7983468174934387 0.18194295465946198 5.111269474029541 85 64 56
-0.8247191309928894 0.8959301710128784 5.164608001708984 44 25 21
-0.8262385725975037 1.307711124420166 5.172924518585205 124 106 96
-0.8273754715919495 1.6801486015319824 5.20562219619751 130 114 99
-0.7989658713340759 1.0381240844726562 5.183610439300537 49 35 28
-0.8092859387397766 1.5868771076202393 5.204444885253906 30 23 19
-0.8119418621063232 1.4185800552368164 5.21414852142334 125 108 100
-0.7960636019706726 1.7500810623168945 5.201993465423584 129 110 96
-0.7988450527191162 1.2534873485565186 5.204835891723633 130 112 100
-0.8010252714157104 1.8720877170562744 5.250044822692871 113 81 66
-0.7652547955513 0.4886924922466278 5.243701934814453 160 135 128
-0.7912291288375854 2.1978092193603516 5.299376487731934 127 123 120
-0.7424702644348145 -0.7189799547195435 5.2099690437316895 89 61 48
-0.7705259323120117 1.0465290546417236 5.296043872833252 62 38 35
-0.7462120652198792 1.504555583000183 5.280956745147705 80 48 43
-0.7580655217170715 1.8852274417877197 5.31146764755249 114 101 88
-0.7380592226982117 1.543702483177185 5.305854320526123 111 83 79
-0.7487748861312866 0.7557425498962402 5.326067924499512 60 43 36
-0.6954434514045715 -0.7189826965332031 5.238213539123535 91 64 58
-0.7237108945846558 1.3428288698196411 5.343228816986084 168 143 144
-0.717650830745697 1.2331123352050781 5.37484884262085 94 57 48
-0.6393274068832397 -1.0220236778259277 5.251827239990234 108 72 58
-0.7289793491363525 1.9230302572250366 5.417698860168457 33 19 19
-0.6856367588043213 -0.10330786556005478 5.349507808685303 156 134 120
-0.7003743052482605 1.325390100479126 5.388900279998779 57 33 29
-0.6440264582633972 -0.7327904105186462 5.314668655395508 71 49 46
-0.6808343529701233 1.510530948638916 5.4072980880737305 94 63 60
-0.6844696998596191 1.3307682275772095 5.411482334136963 54 30 24
-0.6710107922554016 1.366694688796997 5.420902252197266 87 54 47
-0.6048978567123413 -1.0498892068862915 5.294592380523682 121 73 61
-0.6814315915107727 0.770570695400238 5.437057018280029 147 130 123
-0.6720813512802124 0.1631135493516922 5.443020820617676 64 46 34
-0.6720813512802124 0.1631135493516922 5.443020820617676 64 46 34
-0.5974032282829285 -1.0298411846160889 5.321258068084717 157 140 130
-0.5828374624252319 -1.2822495698928833 5.309098243713379 140 120 112
-0.6483146548271179 1.054791808128357 5.472203254699707 139 121 111
-0.6330080628395081 1.1055431365966797 5.517634391784668 150 129 113
-0.6347583532333374 1.2033805847167969 5.528140544891357 129 111 99
-0.6197311878204346 1.3558194637298584 5.583254814147949 152 130 119
-0.6052149534225464 0.7303974628448486 5.553572177886963 129 105 98
-0.5875676870346069 0.1433468461036682 5.543004989624023 71 48 42
-0.6039965748786926 1.0408138036727905 5.59541130065918 91 57 48
-0.6324055194854736 1.3472628593444824 5.660637378692627 59 40 33
-0.574964702129364 1.343910574913025 5.5942792892456055 135 117 109
-0.5809175372123718 1.2216306924819946 5.6064958572387695 140 126 123
-0.541213870048523 0.04544927179813385 5.547022819519043 155 122 103
-0.5377470254898071 -0.024768171831965446 5.569045066833496 156 123 106
-0.5377470254898071 -0.024768171831965446 5.569045066833496 156 123 106
-0.5038129091262817 -0.7746953368186951 5.5576395988464355 94 66 63
-0.5322865843772888 1.9038629531860352 5.688472747802734 98 93 92
-0.5287907123565674 0.7612119913101196 5.721252918243408 142 119 105
-0.5254976153373718 1.1195648908615112 5.732251167297363 157 152 148
-0.5202866792678833 1.1444520950317383 5.771874904632568 103 84 80
-0.5232531428337097 0.742695152759552 5.7718634605407715 41 26 21
-0.49960288405418396 1.9068273305892944 5.771140098571777 99 94 91
-0.4944019615650177 1.0288382768630981 5.750021457672119 95 61 53
-0.525492787361145 0.13415531814098358 5.773365497589111 72 52 43
-0.49521636962890625 1.0299344062805176 5.751895427703857 95 61 53
-0.507035493850708 1.941728115081787 5.816720485687256 30 22 20
-0.4598100185394287 1.4874725341796875 5.8214569091796875 61 54 52
-0.4605131447315216 1.9457547664642334 5.834689617156982 87 79 76
-0.47910836338996887 1.3686736822128296 5.8515191078186035 99 88 84
-0.44527819752693176 2.3611645698547363 5.827664852142334 99 98 94
-0.4316062331199646 2.8485465049743652 5.8398542404174805 30 29 27
-0.4768151342868805 0.4306929409503937 5.878505229949951 72 47 35
-0.40830889344215393 1.6781245470046997 5.803636074066162 135 132 131
-0.4542175829410553 1.130672812461853 5.889281749725342 87 76 73
-0.45845672488212585 0.14822788536548615 5.905079364776611 146 115 99
-0.4262601435184479 1.3394756317138672 5.924894332885742 44 29 25
-0.44440340995788574 0.7447329759597778 5.95661735534668 55 35 34
-0.441733717918396 0.4396914541721344 5.942091464996338 134 115 101
-0.4388127028942108 0.7759996056556702 5.9613165855407715 85 60 50
-0.43245622515678406 0.30700546503067017 5.941468715667725 137 122 116
-0.4345824718475342 1.3627407550811768 5.999753475189209 38 28 26
-0.40729013085365295 1.2163772583007812 5.993218421936035 125 117 115
-0.37011149525642395 -0.8258684873580933 5.842363357543945 42 32 30
-0.4128226041793823 1.3661198616027832 6.0222392082214355 38 26 24
-0.402332067489624 -0.21538648009300232 5.9417853355407715 42 29 23
-0.3980906009674072 -0.05436859279870987 5.960578441619873 153 115 96
-0.39741548895835876 1.1735272407531738 6.033507347106934 65 55 54
-0.38811954855918884 1.2550766468048096 6.0273261070251465 123 113 113
-0.39431047439575195 1.3834599256515503 6.044195652008057 130 121 116
-0.38194021582603455 0.034237347543239594 5.982699871063232 142 105 87
-0.39601871371269226 0.44462546706199646 6.055895805358887 114 99 96
-0.3504530191421509 1.2182356119155884 6.162623882293701 114 102 101
-0.33033573627471924 1.3673080205917358 6.195878982543945 27 20 18
-0.25298839807510376 -0.837265133857727 5.953582763671875 37 36 34
-0.27338114380836487 -0.852128267288208 6.015857696533203 29 28 26
-0.32047003507614136 1.0778608322143555 6.241905689239502 91 88 83
-0.3043113052845001 -0.22798952460289001 6.165363788604736 21 19 20
-0.25611865520477295 -0.8162776827812195 6.030368328094482 97 93 89
-0.297163724899292 0.11561506241559982 6.22193717956543 96 92 89
-0.1864616423845291 1.3056057691574097 6.1602349281311035 62 62 64
-0.18135268986225128 1.3543133735656738 6.16062068939209 103 102 100
-0.10607350617647171 0.7175682187080383 6.023807048797607 105 104 93
-0.11200308054685593 1.3751271963119507 6.101988792419434 57 56 54
-0.04663626104593277 1.3934705257415771 6.017022609710693 132 131 129
0.006245676893740892 -0.7140499353408813 5.829859256744385 205 186 169
0.25895780324935913 1.0929045677185059 6.274029731750488 135 120 113
0.3634530007839203 1.0767699480056763 6.110278606414795 134 119 114
1.7435762882232666 0.917888343334198 5.2867536544799805 105 101 90
3.271819829940796 3.42836332321167 16.12261199951172 96 87 80
